<?xml version="1.0" encoding="UTF-8"?>
<svg version="1.1" xmlns="http://www.w3.org/2000/svg" width="512" height="512">
<path d="M0 0 C13.5930583 9.72526606 19.94258204 23.91838216 27.18754578 38.43296814 C28.01933855 40.09209549 28.85147425 41.75105094 29.68392116 43.40985018 C31.9598849 47.9476582 34.23088536 52.48793413 36.50102627 57.02865732 C38.95420403 61.93335936 41.41194857 66.83577245 43.86904907 71.73851013 C49.23463902 82.44688642 54.59429045 93.15822799 59.95278525 103.87015605 C63.29972793 110.56078048 66.64797565 117.25075124 69.99650002 123.94058418 C79.2717246 142.47147731 88.54572343 161.00298233 97.81425762 179.53722286 C98.11034078 180.12929512 98.40642394 180.72136739 98.71147932 181.33138123 C99.91127963 183.73060337 101.11107414 186.12982841 102.31086727 188.52905414 C103.21383527 190.33471842 104.11680525 192.14038171 105.01977539 193.94604492 C105.46733607 194.84103425 105.46733607 194.84103425 105.92393838 195.75410416 C115.30304953 214.50941979 124.68983504 233.26087765 134.08227539 252.00952148 C144.64305197 273.09033091 155.1969904 294.17454933 165.74160129 315.26345068 C171.32200268 326.42366886 176.90555733 337.58228387 182.49728966 348.73682976 C187.25648801 358.23072544 192.00879298 367.72803159 196.75217184 377.22984164 C199.17178274 382.07623601 201.59458507 386.9209631 204.02614403 391.76137543 C206.25335864 396.19520563 208.47123524 400.63357828 210.68186793 405.07569809 C211.4817453 406.67894566 212.28498302 408.2805222 213.09197208 409.88020193 C218.9690339 421.53688796 223.45102394 432.15751141 223.29296875 445.41796875 C223.28467041 446.3298999 223.27637207 447.24183105 223.26782227 448.18139648 C222.91216409 462.46974207 217.37156055 475.80331985 207.6328125 486.39453125 C196.67378994 496.5587236 183.47626745 503.28335323 168.37933826 503.30023766 C167.66826206 503.30374373 166.95718586 503.3072498 166.2245619 503.31086212 C163.85363344 503.32012931 161.48295314 503.31526502 159.11201477 503.31039429 C157.39020676 503.31413291 155.66840044 503.31873528 153.9465968 503.32412493 C149.2238922 503.33634415 144.50125849 503.33609573 139.77854168 503.33373618 C134.68157877 503.33332774 129.5846385 503.3443698 124.48768616 503.35385132 C114.50476173 503.3704566 104.52186092 503.37596066 94.53892384 503.37707607 C86.42280339 503.37802681 78.30669072 503.38213839 70.19057274 503.38847733 C47.17260072 503.40608877 24.15464734 503.4153164 1.13666854 503.41381638 C-0.10395698 503.41373647 -1.3445825 503.41365655 -2.62280273 503.41357422 C-3.86494566 503.41349246 -5.10708859 503.4134107 -6.38687221 503.41332646 C-26.51437681 503.41251368 -46.64180656 503.43164959 -66.76928952 503.45985095 C-87.44318776 503.48858899 -108.11704951 503.50239072 -128.79096824 503.5006634 C-140.39489994 503.4999998 -151.99875317 503.50547905 -163.60266685 503.5270195 C-173.48317662 503.54524341 -183.36357235 503.54956868 -193.24409165 503.53600065 C-198.28267559 503.52947705 -203.32104083 503.52933194 -208.35960388 503.54670715 C-212.97813736 503.56246972 -217.59627932 503.55954175 -222.21480343 503.54213889 C-223.87965849 503.539076 -225.544543 503.54267442 -227.2093633 503.55385904 C-243.87611267 503.6583544 -259.63430481 499.91687128 -272.171875 488.203125 C-283.11023833 476.22507565 -289.2843483 462.34917792 -289.45703125 446.10546875 C-289.48603516 445.23083984 -289.51503906 444.35621094 -289.54492188 443.45507812 C-289.6772026 429.44349696 -283.16493029 417.35003582 -277.03086853 405.14707947 C-276.19708621 403.47015815 -275.36416605 401.79280792 -274.5320273 400.1150704 C-272.25673678 395.53406759 -269.9691224 390.95931854 -267.67929137 386.38557041 C-265.20643182 381.4408756 -262.74504876 376.49047138 -260.28207397 371.54084778 C-255.46036464 361.85598862 -250.62762308 352.17667605 -245.79044782 342.49953359 C-241.85758113 334.63142051 -237.92788379 326.76173276 -234.00039864 318.89093208 C-224.66707199 300.18742812 -215.33131774 281.48514333 -205.98219967 262.78952694 C-205.6836205 262.1924465 -205.38504134 261.59536607 -205.07741432 260.98019228 C-203.56426931 257.95431777 -202.05109243 254.9284592 -200.53790849 251.90260416 C-200.23741426 251.30171544 -199.93692004 250.70082672 -199.62731993 250.08172925 C-199.01964843 248.86658843 -198.41197421 247.65144897 -197.80429727 246.43631087 C-188.34977413 227.53032842 -178.91153042 208.61629593 -169.4855957 189.69604492 C-158.88263083 168.41322548 -148.26607942 147.13724949 -137.63051325 125.87069613 C-132.00423468 114.61979712 -126.38412419 103.36591525 -120.78007317 92.1039257 C-116.0094445 82.51708818 -111.22495279 72.93732926 -106.42252599 63.36637848 C-103.97461091 58.48684518 -101.53315989 53.60436186 -99.1091671 48.71289444 C-96.88635999 44.22782134 -94.64500102 39.7525286 -92.38903338 35.28404767 C-91.57984325 33.673313 -90.77727207 32.05923069 -89.98236059 30.44140171 C-80.98216214 12.1454059 -68.95958827 -1.1745082 -49.14453125 -7.95703125 C-32.17253037 -11.85427962 -14.71913234 -9.11925108 0 0 Z " fill="#FEC025" transform="translate(289.14453125,8.95703125)"/>
<path d="M0 0 C0 36.96 0 73.92 0 112 C-3.96 112.99 -7.92 113.98 -12 115 C-21.38345005 119.85350865 -27.08703359 125.0449531 -31 135 C-34.06459234 148.0495237 -31.22812456 162.48515083 -29.8828125 175.625 C-29.6628265 177.82049912 -29.4434264 180.01605702 -29.22457886 182.21166992 C-28.64900055 187.97113792 -28.06585371 193.72981412 -27.48095703 199.48834229 C-26.89314239 205.28736757 -26.31192875 211.08705341 -25.73046875 216.88671875 C-25.07301067 223.44310342 -24.41506241 229.99943088 -23.75125122 236.55517578 C-23.65036131 237.5539978 -23.5494714 238.55281982 -23.44552422 239.58190918 C-23.2471528 241.54174336 -23.04764813 243.50146321 -22.84694099 245.46105957 C-22.36165101 250.23487854 -21.90764351 255.00833272 -21.51263428 259.79052734 C-21.39235021 261.19518501 -21.39235021 261.19518501 -21.26963615 262.6282196 C-21.12192812 264.37163356 -20.98238373 266.11577092 -20.85342598 267.860672 C-20.17419364 275.75203762 -18.89104199 284.28222395 -13 290 C-8.66228862 293.25328354 -5.72150774 293.56962306 0 295 C0 313.81 0 332.62 0 352 C-5.94 353.485 -5.94 353.485 -12 355 C-18.89736887 359.40665233 -25.05751219 364.68892715 -27 373 C-27.97449768 382.31068978 -27.70323998 390.30423567 -22 398 C-16.12011126 404.72612582 -8.6330878 407.56115203 0 409 C0 423.19 0 437.38 0 452 C-26.55597887 452.11292285 -53.11176297 452.20500516 -79.66792107 452.25906086 C-91.99875364 452.28482839 -104.32942632 452.31995145 -116.66015625 452.37719727 C-127.40922502 452.42707633 -138.15817796 452.45930156 -148.90735924 452.47044247 C-154.59756379 452.47695352 -160.28743702 452.49222662 -165.97753525 452.52865028 C-171.33735555 452.56268059 -176.69670919 452.57303861 -182.05662727 452.56553841 C-184.01977261 452.56690979 -185.98293414 452.57680006 -187.94598579 452.59602737 C-208.59092241 452.78825512 -208.59092241 452.78825512 -217.08392143 445.11793995 C-222.7779175 439.37828779 -226.07051404 432.20392735 -226.5625 424.125 C-225.85621519 412.50661146 -218.11472468 400.93537455 -212.96694946 390.65301514 C-212.15470706 389.02335325 -211.34280564 387.39352139 -210.53121316 385.76353574 C-208.31349902 381.31207778 -206.09085148 376.86309947 -203.86731625 372.41454697 C-201.46497708 367.60614852 -199.06719386 362.79547867 -196.66874695 357.98513794 C-191.43143503 347.48343198 -186.188139 336.98472114 -180.94352007 326.48666286 C-177.66760215 319.92929174 -174.39286107 313.37133337 -171.11832809 306.81327057 C-162.04679807 288.64584363 -152.97376449 270.47916939 -143.89519691 252.31525803 C-143.31501404 251.15445314 -142.73483116 249.99364825 -142.13706698 248.79766746 C-141.26476293 247.05240451 -141.26476293 247.05240451 -140.37483656 245.27188373 C-139.19650315 242.91432997 -138.01817221 240.55677498 -136.83984375 238.19921875 C-136.25535632 237.02980103 -135.67086889 235.86038331 -135.06866972 234.65552869 C-125.58826107 215.68680728 -116.11867952 196.71270297 -106.65372665 177.73626551 C-96.92974664 158.24088743 -87.19677876 138.75001868 -77.45475996 119.26364827 C-71.98757485 108.32744484 -66.52427219 97.38934022 -61.07088089 86.44625092 C-56.43012528 77.13395097 -51.78117971 67.82579845 -47.12149478 58.52295491 C-44.74494024 53.77766145 -42.37230439 49.03051427 -40.01010323 44.2780571 C-37.84662271 39.92563707 -35.67208876 35.57892887 -33.48871247 31.23645702 C-32.70191192 29.66677296 -31.91914265 28.09506019 -31.14088888 26.52112111 C-20.60908133 5.23671628 -20.60908133 5.23671628 -9 1 C-5.70712611 -0.02192638 -3.6696946 0 0 0 Z " fill="#FEE007" transform="translate(256,30)"/>
<path d="M0 0 C13.5930583 9.72526606 19.94258204 23.91838216 27.18754578 38.43296814 C28.01933855 40.09209549 28.85147425 41.75105094 29.68392116 43.40985018 C31.9598849 47.9476582 34.23088536 52.48793413 36.50102627 57.02865732 C38.95420403 61.93335936 41.41194857 66.83577245 43.86904907 71.73851013 C49.23463902 82.44688642 54.59429045 93.15822799 59.95278525 103.87015605 C63.29972793 110.56078048 66.64797565 117.25075124 69.99650002 123.94058418 C79.2717246 142.47147731 88.54572343 161.00298233 97.81425762 179.53722286 C98.11034078 180.12929512 98.40642394 180.72136739 98.71147932 181.33138123 C99.91127963 183.73060337 101.11107414 186.12982841 102.31086727 188.52905414 C103.21383527 190.33471842 104.11680525 192.14038171 105.01977539 193.94604492 C105.46733607 194.84103425 105.46733607 194.84103425 105.92393838 195.75410416 C115.30304953 214.50941979 124.68983504 233.26087765 134.08227539 252.00952148 C144.64305197 273.09033091 155.1969904 294.17454933 165.74160129 315.26345068 C171.32200268 326.42366886 176.90555733 337.58228387 182.49728966 348.73682976 C187.25648801 358.23072544 192.00879298 367.72803159 196.75217184 377.22984164 C199.17178274 382.07623601 201.59458507 386.9209631 204.02614403 391.76137543 C206.25335864 396.19520563 208.47123524 400.63357828 210.68186793 405.07569809 C211.4817453 406.67894566 212.28498302 408.2805222 213.09197208 409.88020193 C218.9690339 421.53688796 223.45102394 432.15751141 223.29296875 445.41796875 C223.28467041 446.3298999 223.27637207 447.24183105 223.26782227 448.18139648 C222.91216409 462.46974207 217.37156055 475.80331985 207.6328125 486.39453125 C196.67378994 496.5587236 183.47626745 503.28335323 168.37933826 503.30023766 C167.66826206 503.30374373 166.95718586 503.3072498 166.2245619 503.31086212 C163.85363344 503.32012931 161.48295314 503.31526502 159.11201477 503.31039429 C157.39020676 503.31413291 155.66840044 503.31873528 153.9465968 503.32412493 C149.2238922 503.33634415 144.50125849 503.33609573 139.77854168 503.33373618 C134.68157877 503.33332774 129.5846385 503.3443698 124.48768616 503.35385132 C114.50476173 503.3704566 104.52186092 503.37596066 94.53892384 503.37707607 C86.42280339 503.37802681 78.30669072 503.38213839 70.19057274 503.38847733 C47.17260072 503.40608877 24.15464734 503.4153164 1.13666854 503.41381638 C-0.10395698 503.41373647 -1.3445825 503.41365655 -2.62280273 503.41357422 C-3.86494566 503.41349246 -5.10708859 503.4134107 -6.38687221 503.41332646 C-26.51437681 503.41251368 -46.64180656 503.43164959 -66.76928952 503.45985095 C-87.44318776 503.48858899 -108.11704951 503.50239072 -128.79096824 503.5006634 C-140.39489994 503.4999998 -151.99875317 503.50547905 -163.60266685 503.5270195 C-173.48317662 503.54524341 -183.36357235 503.54956868 -193.24409165 503.53600065 C-198.28267559 503.52947705 -203.32104083 503.52933194 -208.35960388 503.54670715 C-212.97813736 503.56246972 -217.59627932 503.55954175 -222.21480343 503.54213889 C-223.87965849 503.539076 -225.544543 503.54267442 -227.2093633 503.55385904 C-243.87611267 503.6583544 -259.63430481 499.91687128 -272.171875 488.203125 C-283.11023833 476.22507565 -289.2843483 462.34917792 -289.45703125 446.10546875 C-289.48603516 445.23083984 -289.51503906 444.35621094 -289.54492188 443.45507812 C-289.6772026 429.44349696 -283.16493029 417.35003582 -277.03086853 405.14707947 C-276.19708621 403.47015815 -275.36416605 401.79280792 -274.5320273 400.1150704 C-272.25673678 395.53406759 -269.9691224 390.95931854 -267.67929137 386.38557041 C-265.20643182 381.4408756 -262.74504876 376.49047138 -260.28207397 371.54084778 C-255.46036464 361.85598862 -250.62762308 352.17667605 -245.79044782 342.49953359 C-241.85758113 334.63142051 -237.92788379 326.76173276 -234.00039864 318.89093208 C-224.66707199 300.18742812 -215.33131774 281.48514333 -205.98219967 262.78952694 C-205.6836205 262.1924465 -205.38504134 261.59536607 -205.07741432 260.98019228 C-203.56426931 257.95431777 -202.05109243 254.9284592 -200.53790849 251.90260416 C-200.23741426 251.30171544 -199.93692004 250.70082672 -199.62731993 250.08172925 C-199.01964843 248.86658843 -198.41197421 247.65144897 -197.80429727 246.43631087 C-188.34977413 227.53032842 -178.91153042 208.61629593 -169.4855957 189.69604492 C-158.88263083 168.41322548 -148.26607942 147.13724949 -137.63051325 125.87069613 C-132.00423468 114.61979712 -126.38412419 103.36591525 -120.78007317 92.1039257 C-116.0094445 82.51708818 -111.22495279 72.93732926 -106.42252599 63.36637848 C-103.97461091 58.48684518 -101.53315989 53.60436186 -99.1091671 48.71289444 C-96.88635999 44.22782134 -94.64500102 39.7525286 -92.38903338 35.28404767 C-91.57984325 33.673313 -90.77727207 32.05923069 -89.98236059 30.44140171 C-80.98216214 12.1454059 -68.95958827 -1.1745082 -49.14453125 -7.95703125 C-32.17253037 -11.85427962 -14.71913234 -9.11925108 0 0 Z M-55.14453125 31.04296875 C-57.20812334 34.07567903 -58.79923295 37.28871562 -60.40878296 40.58055115 C-61.16026519 42.06773798 -61.16026519 42.06773798 -61.92692888 43.58496898 C-63.36356939 46.43524287 -64.78550068 49.29239568 -66.20344394 52.15200052 C-67.87295475 55.50662222 -69.56483781 58.84995454 -71.25380325 62.19481087 C-75.71349078 71.03655804 -80.14349877 79.89304702 -84.57116866 88.75085986 C-86.88861262 93.38595456 -89.20835762 98.01989755 -91.527771 102.65400696 C-96.05247803 111.69517852 -100.57501123 120.73743568 -105.09664579 129.78014416 C-108.77044895 137.12727309 -112.44488733 144.47408398 -116.11976242 151.8206768 C-126.55468748 172.68174452 -136.98795508 193.54363994 -147.41906627 214.40661497 C-147.97928514 215.52709267 -148.53950401 216.64757038 -149.11669922 217.80200195 C-149.95805847 219.48478178 -149.95805847 219.48478178 -150.81641488 221.20155715 C-159.93530567 239.43974644 -169.05820065 257.67592954 -178.18287928 275.91122372 C-187.5676509 294.66641739 -196.94945056 313.42309504 -206.3281368 332.18133253 C-211.587745 342.70088097 -216.84858491 353.21980922 -222.11262894 363.73713875 C-226.58610453 372.67500456 -231.05682762 381.61424034 -235.52394719 390.55528469 C-237.8027074 395.11607779 -240.08276315 399.67621102 -242.36629105 404.23461914 C-244.4554001 408.40500656 -246.54082346 412.57721508 -248.62329881 416.7509188 C-249.37796547 418.26179446 -250.13399009 419.77199274 -250.89149351 421.28144813 C-251.91958074 423.33058424 -252.94271986 425.38211758 -253.96465492 427.43432713 C-254.81952081 429.14373284 -254.81952081 429.14373284 -255.69165671 430.88767201 C-259.76836654 439.74131277 -260.5892942 446.93089199 -257.20703125 456.16796875 C-253.61367479 464.07742475 -248.04173343 469.06943636 -240.05803004 472.40676493 C-237.01118882 473.41978466 -234.15369729 473.42060648 -230.95765305 473.42328548 C-229.91972889 473.43027536 -229.91972889 473.43027536 -228.86083657 473.43740645 C-226.54885442 473.44933003 -224.23746283 473.43997156 -221.92547607 473.4306488 C-220.24847693 473.4348229 -218.57148061 473.44030084 -216.89448953 473.44696862 C-212.29104486 473.46143234 -207.68777909 473.45717556 -203.0843246 473.4498018 C-198.1175752 473.44507465 -193.15086475 473.45757609 -188.18412781 473.46781921 C-178.45505819 473.48502235 -168.72605311 473.48584395 -158.99697223 473.48060631 C-151.08818733 473.47656562 -143.1794215 473.47800697 -135.27063751 473.48335457 C-133.58246605 473.4844772 -133.58246605 473.4844772 -131.86019011 473.48562251 C-129.57384489 473.48715399 -127.28749967 473.48869234 -125.00115445 473.49023748 C-103.55537629 473.50396841 -82.10963459 473.49852103 -60.66385725 473.48705227 C-41.04902265 473.4771228 -21.43428243 473.49005458 -1.81946239 473.51398646 C18.3232932 473.53837716 38.46600484 473.54798518 58.6087749 473.54133373 C69.91642929 473.537841 81.22401113 473.54007702 92.53165436 473.55758476 C102.15936192 473.57230649 111.78694587 473.57294268 121.41465101 473.55551385 C126.32538599 473.54700064 131.23590014 473.54486217 136.14662361 473.56016541 C140.6460594 473.57401311 145.14508517 473.56924821 149.64449725 473.54992617 C151.26829413 473.54616606 152.89212385 473.54908845 154.51589146 473.55953782 C165.71300692 473.62644444 176.75434677 472.99162215 185.35546875 464.88671875 C190.57654997 458.46913975 193.31496921 450.80793542 193.19384372 442.58305907 C192.53382221 437.6284543 190.13902931 433.42865473 187.87635803 429.02835083 C187.33993024 427.94940776 186.80350245 426.87046469 186.25081927 425.75882638 C185.08025835 423.40933967 183.90383123 421.06402695 182.71656156 418.72305918 C180.83711145 415.0147071 178.98822852 411.29164124 177.14394951 407.56570053 C173.34168727 399.89305209 169.50975138 392.23541749 165.67433751 384.57929969 C163.67894864 380.59501173 161.68597063 376.60951799 159.69268799 372.62417603 C156.25158876 365.74483894 152.80907616 358.86621074 149.36559868 351.98806381 C144.37477362 342.01908391 139.3866221 332.04876803 134.39915419 322.07810821 C126.28712983 305.86109737 118.17360994 289.64483531 110.05883789 273.42919922 C109.33316788 271.97910092 109.33316788 271.97910092 108.59283788 270.49970771 C105.15958828 263.63910799 101.72628457 256.77853534 98.29296875 249.91796875 C94.36918417 242.07733013 90.4454248 234.2366789 86.52172852 226.39599609 C86.03824636 225.42985991 85.55476421 224.46372373 85.05663108 223.4683107 C76.96726018 207.30330064 68.87948853 191.13749094 60.79283577 174.97112095 C55.82331472 165.03653199 50.85238372 155.10265104 45.87956024 145.1697147 C42.46897156 138.35702567 39.05984151 131.543608 35.65180998 124.7296394 C33.69296558 120.81328199 31.73348799 116.89724509 29.77217293 112.98212433 C21.68293989 96.83357228 13.670692 80.65795212 5.94282258 64.33218789 C3.19355688 58.54412561 0.37924187 52.78883814 -2.45703125 47.04296875 C-3.02486328 45.86992188 -3.59269531 44.696875 -4.17773438 43.48828125 C-9.9747207 31.74642694 -9.9747207 31.74642694 -20.26953125 24.16796875 C-21.09710938 23.77867188 -21.9246875 23.389375 -22.77734375 22.98828125 C-34.76435549 18.20138877 -46.39024145 21.9306239 -55.14453125 31.04296875 Z " fill="#2D2D2D" transform="translate(289.14453125,8.95703125)"/>
<path d="M0 0 C0 9.9 0 19.8 0 30 C-5.445 31.485 -5.445 31.485 -11 33 C-22.57455161 38.12316219 -26.93944756 50.30947528 -32.26287842 61.03128052 C-33.08678761 62.6759197 -33.91139698 64.32020826 -34.73664308 65.96417701 C-36.99533735 70.4687713 -39.24405377 74.97828235 -41.49113059 79.4886806 C-43.91885111 84.35730127 -46.35581156 89.22129408 -48.79161072 94.08587646 C-53.55867615 103.60993303 -58.31719637 113.13823438 -63.0728251 122.66800584 C-68.61038071 133.76389835 -74.15630805 144.85559901 -79.70256642 155.9471433 C-89.89540841 176.33179616 -100.07980702 196.7206571 -110.26024567 217.11150669 C-119.55329112 235.72485631 -128.85225063 254.33523861 -138.15673828 272.94287109 C-138.75442011 274.13815393 -139.3521019 275.3334368 -139.94978365 276.52871968 C-140.39300941 277.41511015 -140.39300941 277.41511015 -140.84518923 278.31940749 C-152.07458831 300.77668373 -163.29885324 323.23652174 -174.52028333 345.69778088 C-178.38496435 353.4331783 -182.25120954 361.16779274 -186.11794281 368.90216446 C-190.82786177 378.32336579 -195.53475578 387.74607143 -200.23786488 397.17067422 C-202.63813322 401.98045234 -205.03966057 406.78959051 -207.44463158 411.5970192 C-209.64501752 415.99560297 -211.84170981 420.39601046 -214.03543368 424.79792045 C-214.83066429 426.39201153 -215.62724608 427.98542939 -216.42529616 429.57811083 C-217.50815664 431.73970503 -218.58608782 433.90368801 -219.66280746 436.06834602 C-220.13125091 436.99906696 -220.13125091 436.99906696 -220.60915786 437.94859034 C-224.65263192 446.11297544 -226.60710392 453.13220195 -224.16015625 462.06640625 C-221.04243523 470.45381062 -216.88859021 475.53729666 -208.89791012 479.56272602 C-204.69980889 481.32352788 -200.88099718 481.42682649 -196.37562561 481.39872742 C-195.5325164 481.40537424 -194.68940719 481.41202107 -193.82074922 481.41886932 C-191.0093627 481.43744964 -188.19840362 481.43489738 -185.38696289 481.43237305 C-183.36624554 481.44139323 -181.34553366 481.45172108 -179.3248291 481.46325684 C-173.84813108 481.4908227 -168.3715369 481.50011084 -162.89477849 481.50611091 C-157.16788323 481.51549559 -151.44106549 481.5416991 -145.71421814 481.56611633 C-134.87363905 481.60978233 -124.033075 481.63832873 -113.19243473 481.66143972 C-100.84905269 481.6884908 -88.50574865 481.73240241 -76.1624223 481.77772844 C-50.77498881 481.8705762 -25.38753421 481.94165834 0 482 C0 491.9 0 501.8 0 512 C-27.02566719 512.09270285 -54.05129592 512.16403324 -81.07709026 512.20724869 C-93.62639984 512.22785012 -106.17560863 512.25592453 -118.72485352 512.30175781 C-129.6662237 512.34169955 -140.60752087 512.36745039 -151.54896194 512.37635398 C-157.33925373 512.38155627 -163.1293367 512.39373324 -168.91956139 512.42292023 C-174.37701767 512.45020519 -179.83418044 512.45841861 -185.29169846 512.45243073 C-187.28743781 512.45352513 -189.28318765 512.46140056 -191.27886772 512.4768219 C-209.11573247 512.60781528 -225.40093251 509.89119755 -239.02734375 497.16015625 C-249.96570708 485.1821069 -256.13981705 471.30620917 -256.3125 455.0625 C-256.34150391 454.18787109 -256.37050781 453.31324219 -256.40039062 452.41210938 C-256.53267135 438.40052821 -250.02039904 426.30706707 -243.88633728 414.10411072 C-243.05255496 412.4271894 -242.2196348 410.74983917 -241.38749605 409.07210165 C-239.11220553 404.49109884 -236.82459115 399.91634979 -234.53476012 395.34260166 C-232.06190057 390.39790685 -229.60051751 385.44750263 -227.13754272 380.49787903 C-222.31583339 370.81301987 -217.48309183 361.1337073 -212.64591657 351.45656484 C-208.71304988 343.58845176 -204.78335254 335.71876401 -200.85586739 327.84796333 C-191.52254074 309.14445937 -182.18678649 290.44217458 -172.83766842 271.74655819 C-172.53908925 271.14947775 -172.24051009 270.55239732 -171.93288307 269.93722353 C-170.41973806 266.91134902 -168.90656118 263.88549045 -167.39337724 260.85963541 C-167.09288301 260.25874669 -166.79238879 259.65785797 -166.48278868 259.0387605 C-165.87511718 257.82361968 -165.26744296 256.60848022 -164.65976602 255.39334212 C-155.20524288 236.48735967 -145.76699917 217.57332718 -136.34106445 198.65307617 C-125.73809958 177.37025673 -115.12154817 156.09428074 -104.485982 134.82772738 C-98.85970343 123.57682837 -93.23959294 112.3229465 -87.63554192 101.06095695 C-82.86491325 91.47411943 -78.08042154 81.89436051 -73.27799474 72.32340973 C-70.83007966 67.44387643 -68.38862864 62.56139311 -65.96463585 57.66992569 C-63.74182874 53.18485259 -61.50046977 48.70955985 -59.24450213 44.24107892 C-58.435312 42.63034425 -57.63274082 41.01626194 -56.83782934 39.39843296 C-47.83763089 21.10243715 -35.81505702 7.78252305 -16 1 C-11 0 -11 0 0 0 Z " fill="#475A60" transform="translate(256,0)"/>
<path d="M0 0 C8.28847062 4.87557095 14.3712327 11.54272564 17.24047852 20.7890625 C20.67514404 35.30938423 16.94384943 52.05095468 15.5177536 66.69807053 C14.95718059 72.47283939 14.40990742 78.24889531 13.86252594 84.02492714 C13.72211699 85.50613347 13.58142471 86.98731297 13.44045258 88.46846581 C12.4807464 98.56609481 11.59454977 108.6669937 10.79139519 118.77827644 C10.63043027 120.80115975 10.46747223 122.82387253 10.30384827 124.84654236 C9.6847382 132.50551165 9.6847382 132.50551165 9.09658813 140.16690063 C8.83600317 143.65287338 8.55644807 147.13688081 8.2734375 150.62109375 C8.16891014 152.13722763 8.16891014 152.13722763 8.06227112 153.68399048 C7.37383526 161.81911289 5.79944344 169.79953955 -0.4375 175.5 C-6.40647487 179.95784199 -11.63541103 180.73876755 -19 180 C-25.35952484 177.98615047 -30.29141199 174.86798701 -33.75 169.0625 C-38.37436428 156.38648438 -38.07457338 140.78694546 -39.34765625 127.453125 C-39.56632058 125.18777774 -39.78527413 122.92245838 -40.00450134 120.65716553 C-40.57736593 114.72994346 -41.14644336 108.80236397 -41.71466064 102.87469482 C-42.29257822 96.85244689 -42.87392659 90.83053032 -43.45507812 84.80859375 C-44.10893293 78.03178255 -44.76245273 71.25494067 -45.41334534 64.47784424 C-45.5125528 63.44523972 -45.61176025 62.41263519 -45.713974 61.34873962 C-45.89721211 59.44090869 -46.08029655 57.53306299 -46.26318359 55.62519836 C-46.75847241 50.46902112 -47.268282 45.31464999 -47.79656124 40.16173935 C-48.88548074 28.59088557 -48.32531582 18.07765761 -40.72265625 8.8125 C-29.71503809 -2.76921163 -14.83272024 -6.56489781 0 0 Z " fill="#2E2E2D" transform="translate(271,145)"/>
<path d="M0 0 C0 60.39 0 120.78 0 183 C-8.26752534 181.96655933 -12.25487241 180.77559168 -17.3203125 174.31640625 C-24.18675032 162.49087445 -23.07471481 143.78546412 -24.34765625 130.453125 C-24.56632058 128.18777774 -24.78527413 125.92245838 -25.00450134 123.65716553 C-25.57736593 117.72994346 -26.14644336 111.80236397 -26.71466064 105.87469482 C-27.29257822 99.85244689 -27.87392659 93.83053032 -28.45507812 87.80859375 C-29.10893293 81.03178255 -29.76245273 74.25494067 -30.41334534 67.47784424 C-30.5125528 66.44523972 -30.61176025 65.41263519 -30.713974 64.34873962 C-30.89721211 62.44090869 -31.08029655 60.53306299 -31.26318359 58.62519836 C-31.75847241 53.46902112 -32.268282 48.31464999 -32.79656124 43.16173935 C-33.88548074 31.59088557 -33.32531582 21.07765761 -25.72265625 11.8125 C-18.62843108 4.34828123 -10.34481763 0 0 0 Z " fill="#485A5F" transform="translate(256,142)"/>
<path d="M0 0 C5.33241748 4.20823245 8.92230569 8.97130461 10.84375 15.52734375 C11.89884634 24.54638842 11.44689014 32.3169205 6.25 39.83203125 C0.77139796 46.6802838 -5.42934568 50.54125427 -14.10546875 52.03515625 C-23.0504145 52.57302227 -30.64686512 49.48504856 -37.359375 43.59375 C-44.42287351 35.98119804 -45.81196683 29.53071858 -45.55859375 19.25390625 C-44.60294854 10.40259038 -40.25856044 4.68413843 -33.46875 -0.84375 C-22.91625895 -8.27683913 -10.37723967 -7.08735391 0 0 Z " fill="#495B5F" transform="translate(273.15625,387.47265625)"/>
<path d="M0 0 C9.45447708 0 14.06653549 1.07284098 20.75 7.1875 C27.31351825 14.30673947 28.64782851 21.12231298 28.30859375 30.703125 C27.48306179 39.52273231 23.50657143 45.0434445 17 51 C11.28727201 55.19458177 7.43114905 55 0 55 C0 36.85 0 18.7 0 0 Z " fill="#2E2D2D" transform="translate(256,383)"/>
</svg>
