<svg width="269" height="56" viewBox="0 0 269 56" fill="none" xmlns="http://www.w3.org/2000/svg">
<g clip-path="url(#clip0_189_686)">
<path d="M48.0948 24.288L38.4593 29.2255L38.4179 34.7765V34.9037H38.4116L38.4752 26.1606L29.2215 22.7906L29.126 36.0482L19.7514 34.9037V34.767H19.6878L19.71 29.0983L10.1286 24.0114C10.1064 23.9987 10.0873 23.9892 10.0682 23.9765L10.0459 26.7742C10.3736 26.8537 10.609 27.0667 10.6058 27.3115L10.5645 32.9866C10.5613 33.2981 10.1795 33.5461 9.70874 33.5429C9.23476 33.5398 8.85621 33.2854 8.85939 32.9738L8.90075 27.2988C8.90075 27.054 9.13615 26.8474 9.46698 26.7711L9.49243 23.1244C9.41608 22.6539 9.61331 22.142 10.0905 21.8686L14.8589 19.1122L19.3824 16.502L22.4521 14.7279L26.9724 12.1177L28.5852 11.1894C28.7761 11.0749 28.9924 11.024 29.2055 11.024C29.4219 11.024 29.635 11.0813 29.8259 11.1957L30.0422 11.3261L34.5625 14.0253L37.6322 15.8566L42.1525 18.5558L48.1647 22.1452C48.9918 22.638 48.9537 23.8493 48.0948 24.288Z" fill="#090909"/>
<path d="M38.4752 26.1606L38.4115 34.9036V34.9131L29.126 36.0482L29.2214 22.7905L38.4752 26.1606Z" fill="#F5F5F5"/>
</g>
<g clip-path="url(#clip1_189_686)">
<path d="M2.7723 19.8432L2.28761 21.1485L3.10585 21.454L3.67653 19.9111L4.31496 20.1487L3.43679 22.5217L-0.00292969 21.2425L0.877846 18.8643L1.51888 19.1018L0.945599 20.6499L1.67002 20.9188L2.15471 19.6135L2.7723 19.8432Z" fill="#F5F5F5"/>
<path d="M4.69251 19.282L1.46387 17.5407L2.02412 16.4991C2.17787 16.2119 2.38113 15.99 2.63389 15.8334C2.88666 15.6741 3.16549 15.5958 3.46776 15.5958C3.77265 15.5958 4.07232 15.6715 4.36417 15.8282L4.51271 15.9091C4.80717 16.0683 5.03909 16.2746 5.20586 16.5252C5.37264 16.7758 5.46124 17.0525 5.47166 17.3502C5.48208 17.6478 5.41173 17.9375 5.26319 18.2195L4.68991 19.2846L4.69251 19.282ZM2.48275 17.0839L4.51271 18.1777L4.65864 17.9062C4.7785 17.6817 4.79153 17.4676 4.69772 17.2614C4.60391 17.0552 4.39805 16.8672 4.08535 16.7001L3.94463 16.6244C3.63193 16.4573 3.36614 16.3895 3.14203 16.4234C2.91793 16.4573 2.74594 16.5905 2.62347 16.8202L2.48275 17.0813V17.0839Z" fill="#F5F5F5"/>
<path d="M5.8736 11.7765L5.21953 12.6641L7.62212 14.4393L7.09835 15.152L4.69575 13.3768L4.05472 14.2488L3.50488 13.8415L5.32376 11.3693L5.8736 11.7765Z" fill="#F5F5F5"/>
<path d="M12.7687 7.6151C12.9172 7.82395 13.0058 8.04325 13.0267 8.27559C13.0501 8.50793 13.0058 8.73767 12.8938 8.96218C12.7817 9.1893 12.6124 9.39293 12.383 9.57567C12.0052 9.8759 11.6117 9.98815 11.1974 9.91505C10.7857 9.84196 10.4 9.5809 10.0456 9.13187L9.93355 8.9909C9.70945 8.70895 9.56352 8.42439 9.49316 8.13462C9.42281 7.84484 9.43584 7.57072 9.52704 7.30705C9.62085 7.04599 9.78763 6.81887 10.03 6.62568C10.3792 6.34896 10.7309 6.21843 11.0879 6.23148C11.4449 6.24714 11.7655 6.40378 12.0521 6.704L11.3616 7.25223C11.2182 7.08254 11.0749 6.99117 10.929 6.98073C10.7831 6.97028 10.6293 7.03294 10.4599 7.16608C10.2879 7.30444 10.2124 7.46891 10.2358 7.6621C10.2567 7.85528 10.3792 8.09546 10.6006 8.38001L10.7622 8.58364C11.0046 8.89169 11.2182 9.07966 11.398 9.15014C11.5804 9.22063 11.7655 9.18147 11.9531 9.03267C12.112 8.90736 12.2032 8.77161 12.2293 8.63063C12.2528 8.48966 12.2032 8.33302 12.0808 8.16594L12.7687 7.61772V7.6151Z" fill="#F5F5F5"/>
<path d="M16.5101 6.76152L15.7518 7.20794L14.9752 5.88436L13.8521 6.54484L14.6286 7.86842L13.8677 8.31745L12.0098 5.15077L12.7733 4.70175L13.5107 5.96006L14.6339 5.29958L13.8964 4.04126L14.6547 3.59485L16.5127 6.76152H16.5101Z" fill="#F5F5F5"/>
<path d="M20.5547 4.32318L19.4055 4.70955L19.4238 5.42746L18.5273 5.72768L18.6342 1.81438L19.4238 1.5481L21.8759 4.5999L20.9742 4.90273L20.5521 4.32056L20.5547 4.32318ZM19.3899 3.99424L20.1378 3.74362L19.3586 2.66283L19.3925 3.99685L19.3899 3.99424Z" fill="#F5F5F5"/>
<path d="M25.2062 2.67589C25.2427 2.92912 25.2167 3.16407 25.1307 3.38076C25.0421 3.59744 24.8987 3.78018 24.6955 3.92637C24.4922 4.07518 24.2473 4.17699 23.9606 4.23181C23.4864 4.32058 23.0851 4.23704 22.7541 3.9812C22.4232 3.72275 22.2043 3.31288 22.0975 2.74899L22.0636 2.57147C21.9958 2.21903 21.9984 1.89793 22.0714 1.60815C22.1444 1.31837 22.2825 1.08081 22.4857 0.892842C22.689 0.704878 22.9418 0.582179 23.2466 0.524745C23.6844 0.441206 24.0571 0.490807 24.3672 0.67094C24.6772 0.851072 24.8883 1.14085 25.0004 1.53766L24.1326 1.70213C24.0857 1.48284 23.9997 1.33665 23.8772 1.26094C23.7548 1.18523 23.588 1.16696 23.3743 1.20612C23.158 1.24788 23.0147 1.35753 22.9444 1.54027C22.874 1.72041 22.8714 1.9893 22.9339 2.34695L22.9808 2.60279C23.0538 2.98655 23.1554 3.25284 23.2831 3.40164C23.4108 3.54783 23.5932 3.60005 23.8277 3.55567C24.0284 3.51651 24.1717 3.4408 24.2577 3.32854C24.3463 3.21368 24.3724 3.05443 24.3411 2.84819L25.2036 2.68372L25.2062 2.67589Z" fill="#F5F5F5"/>
<path d="M27.9009 3.03879L26.6918 3.09884L26.5146 3.79587L25.5713 3.84286L26.7283 0.107077L27.5596 0.0653076L29.097 3.66795L28.1485 3.71494L27.9009 3.0414V3.03879ZM26.869 2.40703L27.656 2.36787L27.1973 1.11477L26.869 2.40703Z" fill="#F5F5F5"/>
<path d="M29.7223 3.65747L30.0689 0L31.2441 0.112256C31.5673 0.143584 31.8513 0.242787 32.0937 0.415087C32.336 0.587388 32.5184 0.8119 32.6383 1.09385C32.7581 1.37579 32.8024 1.68123 32.7712 2.01278L32.7555 2.17986C32.7243 2.51402 32.6252 2.80902 32.4585 3.05964C32.2917 3.31287 32.0728 3.50083 31.8018 3.62614C31.5308 3.75145 31.2363 3.80105 30.921 3.77233L29.7197 3.65747H29.7223ZM30.8845 0.764909L30.6656 3.06225L30.9705 3.09096C31.2233 3.11446 31.4266 3.04397 31.5777 2.87689C31.7314 2.70982 31.8226 2.44875 31.8565 2.09371L31.8722 1.93446C31.906 1.58203 31.8643 1.30792 31.7445 1.11734C31.6272 0.924157 31.437 0.817122 31.179 0.791015L30.8845 0.762299V0.764909Z" fill="#F5F5F5"/>
<path d="M36.1765 3.1119L34.824 2.78818L34.6208 3.63924L36.2182 4.02039L36.0618 4.68349L33.6045 4.09871L34.454 0.52478L36.9165 1.11217L36.7576 1.77787L35.155 1.39672L34.9752 2.15119L36.3276 2.4723L36.1765 3.11451V3.1119Z" fill="#F5F5F5"/>
<path d="M39.4156 1.87442L39.2072 4.5503L40.9296 2.49314L42.0059 2.93433L40.6169 6.33596L39.7961 5.99919L40.1218 5.20556L40.8645 3.61309L39.056 5.69636L38.5166 5.47445L38.6834 2.71504L38.0971 4.37539L37.7714 5.16901L36.9531 4.83486L38.342 1.43323L39.4156 1.87442Z" fill="#F5F5F5"/>
<path d="M47.4964 9.21019C47.7752 8.90997 48.0749 8.66718 48.3928 8.48183C48.7133 8.29648 49.026 8.179 49.3335 8.13201C49.641 8.0824 49.9146 8.10329 50.1517 8.19205L49.985 8.60975C49.6957 8.57581 49.3778 8.65152 49.0338 8.83165C48.6899 9.01439 48.3485 9.2859 48.0123 9.64616L47.9368 9.72709C47.5928 10.0978 47.3426 10.4633 47.1837 10.8235C47.0247 11.1838 46.9752 11.5075 47.0299 11.7973L46.6286 11.9957C46.5218 11.7686 46.4827 11.4971 46.5088 11.1812C46.5348 10.8653 46.626 10.5442 46.785 10.2179C46.9439 9.89156 47.1524 9.58351 47.4156 9.29634L47.4938 9.2128L47.4964 9.21019Z" fill="#F5F5F5"/>
<path d="M47.9919 11.6799L50.7645 9.27551L51.627 10.2728C51.9371 10.6304 52.1065 10.9594 52.1352 11.2596C52.1664 11.5598 52.057 11.8182 51.8068 12.0323C51.6635 12.1576 51.5124 12.2307 51.3534 12.2516C51.1945 12.2725 51.0355 12.2412 50.8765 12.155C50.9625 12.3325 50.9886 12.5048 50.9521 12.6745C50.9156 12.8416 50.8218 12.9904 50.6707 13.1209C50.3997 13.3559 50.1208 13.4473 49.8342 13.3924C49.5476 13.3376 49.2583 13.1444 48.9638 12.8077L47.9893 11.6799H47.9919ZM49.7482 11.3275L49.0837 11.9044L49.4642 12.343C49.5684 12.4631 49.6778 12.5336 49.7873 12.5492C49.8993 12.5675 50.0036 12.5309 50.1052 12.4448C50.3371 12.2438 50.3528 12.0297 50.1547 11.7974L49.7482 11.3275ZM50.186 10.9463L50.4883 11.2961C50.616 11.4423 50.7332 11.5232 50.8374 11.5389C50.9443 11.5572 51.0459 11.5206 51.1475 11.4319C51.2648 11.3301 51.3195 11.223 51.3117 11.1108C51.3039 10.9985 51.2361 10.868 51.1058 10.7166L50.8218 10.3876L50.1808 10.9437L50.186 10.9463Z" fill="#F5F5F5"/>
<path d="M54.4307 15.2616L53.8314 14.3374L51.3297 15.9691L50.8477 15.2277L53.3493 13.596L52.7603 12.6875L53.3336 12.3142L55.004 14.8883L54.4307 15.2616Z" fill="#F5F5F5"/>
<path d="M52.3252 17.5485L55.645 15.9847L56.2053 17.1804C56.406 17.6085 56.4815 17.9714 56.4294 18.2664C56.3773 18.564 56.2027 18.7807 55.9056 18.9217C55.7336 19.0026 55.5695 19.0313 55.4105 19.0104C55.2516 18.9896 55.1082 18.9138 54.9779 18.7885C55.0144 18.9843 54.991 19.1566 54.9102 19.3081C54.8294 19.4595 54.6991 19.5769 54.5193 19.6631C54.1936 19.8171 53.9017 19.8276 53.6411 19.6996C53.3806 19.5691 53.1539 19.3028 52.961 18.9008L52.3278 17.5511L52.3252 17.5485ZM54.1128 17.6842L53.318 18.0602L53.5656 18.5849C53.6333 18.7285 53.7193 18.8251 53.8209 18.8721C53.9226 18.9191 54.0346 18.9138 54.1545 18.8564C54.4307 18.7259 54.5063 18.5223 54.3786 18.2455L54.1154 17.6842H54.1128ZM54.6366 17.4362L54.832 17.8539C54.9154 18.0289 55.0066 18.1385 55.103 18.1829C55.1994 18.2273 55.3089 18.222 55.4314 18.1646C55.5721 18.0993 55.6529 18.0106 55.6763 17.9009C55.6998 17.7913 55.6685 17.6451 55.5851 17.4676L55.4001 17.076L54.634 17.4362H54.6366Z" fill="#F5F5F5"/>
<path d="M55.6343 21.7333C55.2617 21.8613 54.889 21.9291 54.5164 21.9344C54.1438 21.9396 53.805 21.8874 53.4975 21.7751C53.19 21.6655 52.9555 21.5114 52.7939 21.3156L53.1379 21.0259C53.3777 21.1903 53.6904 21.2739 54.076 21.2765C54.4617 21.2791 54.876 21.206 55.3242 21.0572L55.4701 21.0076C55.947 20.8431 56.3431 20.6395 56.6506 20.3967C56.9581 20.1539 57.1587 19.8929 57.2447 19.6135L57.6929 19.6292C57.6825 19.8824 57.5913 20.1461 57.4219 20.4176C57.2525 20.6891 57.0206 20.9397 56.7262 21.1642C56.4317 21.3887 56.106 21.5637 55.7412 21.6942L55.6369 21.7307L55.6343 21.7333Z" fill="#F5F5F5"/>
<path d="M9.19601 10.2257L8.22924 11.2256L8.85725 11.8339L9.99861 10.6513L10.4885 11.1264L8.73217 12.946L6.09766 10.3902L7.85921 8.56799L8.34911 9.04312L7.20254 10.2283L7.75758 10.7661L8.72435 9.76626L9.19601 10.2231V10.2257Z" fill="#F5F5F5"/>
<path d="M43.6142 5.67544L45.0344 4.68602L45.8422 5.19509L43.5908 6.55522L42.8872 7.67256L42.1289 7.19482L42.8325 6.07748L43.0879 3.45642L43.8905 3.96288L43.6142 5.67283V5.67544Z" fill="#F5F5F5"/>
</g>
<g clip-path="url(#clip2_189_686)">
<path d="M3.8082 54.1075C3.8082 54.3423 3.76763 54.5456 3.68864 54.7195C3.60964 54.8935 3.50075 55.0339 3.36196 55.1387L3.77831 55.4614L3.39399 55.78L2.841 55.342C2.78976 55.3482 2.73638 55.3524 2.68514 55.3524C2.46522 55.3524 2.27092 55.3021 2.10012 55.2036C1.92931 55.103 1.79693 54.9605 1.70299 54.7761C1.60691 54.5917 1.5578 54.3779 1.55566 54.1369V54.0028C1.55566 53.7534 1.60264 53.5354 1.69445 53.3468C1.78626 53.1581 1.91863 53.0114 2.09158 52.9088C2.26238 52.8061 2.45881 52.7537 2.68087 52.7537C2.90292 52.7537 3.09294 52.804 3.26588 52.9067C3.43669 53.0093 3.56907 53.154 3.66515 53.3426C3.76123 53.5312 3.8082 53.7471 3.81034 53.9902V54.1075H3.8082ZM3.17621 54.0007C3.17621 53.7492 3.13351 53.5584 3.0481 53.4285C2.9627 53.2986 2.841 53.2336 2.68087 53.2336C2.52073 53.2336 2.39263 53.2986 2.31149 53.4264C2.23036 53.5543 2.18766 53.7429 2.18552 53.9902V54.1075C2.18552 54.3569 2.22822 54.5477 2.31149 54.6797C2.39476 54.8117 2.52073 54.8788 2.68514 54.8788C2.84954 54.8788 2.96483 54.8138 3.0481 54.6818C3.13351 54.5518 3.17621 54.3632 3.17621 54.118V54.0007Z" fill="#F5F5F5"/>
<path d="M6.16312 52.7893V54.445C6.16312 54.6336 6.12255 54.795 6.04142 54.9333C5.96028 55.0695 5.84285 55.1743 5.69126 55.2477C5.53967 55.321 5.35818 55.3546 5.15108 55.3546C4.83722 55.3546 4.58954 55.2749 4.41019 55.1156C4.23085 54.9564 4.1369 54.7363 4.13477 54.4597V52.7893H4.76035V54.4701C4.76676 54.7468 4.89913 54.8851 5.15321 54.8851C5.28132 54.8851 5.37953 54.8495 5.44572 54.7803C5.51191 54.7111 5.54394 54.598 5.54394 54.4408V52.7893H6.16525H6.16312Z" fill="#F5F5F5"/>
<path d="M8.01695 54.8474H7.16504L7.01558 55.3189H6.35156L7.29741 52.7893H7.88243L8.83469 55.3189H8.16854L8.01908 54.8474H8.01695ZM7.3145 54.3758H7.86749L7.58992 53.4977L7.3145 54.3758Z" fill="#F5F5F5"/>
<path d="M9.48557 54.8495H10.5659V55.3189H8.86426V52.7893H9.48557V54.8495Z" fill="#F5F5F5"/>
<path d="M11.2725 55.3189H10.6533V52.7893H11.2725V55.3189Z" fill="#F5F5F5"/>
<path d="M13.6192 53.2609H12.8463V55.3189H12.2249V53.2609H11.4648V52.7893H13.6192V53.2609Z" fill="#F5F5F5"/>
<path d="M14.5476 53.8875L15.0237 52.7893H15.6941L14.8636 54.4094V55.3168H14.2337V54.4094L13.4053 52.7893H14.0714L14.5476 53.8875Z" fill="#F5F5F5"/>
<path d="M16.0081 56L15.707 55.8617L15.7668 55.7443C15.8501 55.5934 15.8928 55.4509 15.8949 55.3126V54.8788H16.3732V55.256C16.371 55.3902 16.3348 55.5243 16.2664 55.6626C16.1981 55.8009 16.1106 55.9141 16.0059 56.0021L16.0081 56Z" fill="#F5F5F5"/>
<path d="M19.7086 54.248H18.7307V54.8516H19.8836V55.321H18.1094V52.7893H19.8879V53.2609H18.7307V53.7932H19.7086V54.2459V54.248Z" fill="#F5F5F5"/>
<path d="M21.6324 54.3129H20.6311V55.321H20.0098V52.7893H21.7328V53.2609H20.6311V53.8435H21.6324V54.3129Z" fill="#F5F5F5"/>
<path d="M23.524 54.3129H22.5227V55.321H21.9014V52.7893H23.6244V53.2609H22.5227V53.8435H23.524V54.3129Z" fill="#F5F5F5"/>
<path d="M24.4551 55.3189H23.8359V52.7893H24.4551V55.3189Z" fill="#F5F5F5"/>
<path d="M26.8656 54.4638C26.8571 54.6399 26.808 54.795 26.7204 54.9312C26.6329 55.0653 26.5069 55.1701 26.3468 55.2456C26.1867 55.3189 26.0052 55.3566 25.8002 55.3566C25.4607 55.3566 25.196 55.2477 24.9995 55.0318C24.8031 54.8159 24.707 54.5099 24.707 54.1138V53.9881C24.707 53.7408 24.7519 53.5228 24.8394 53.3384C24.9269 53.1519 25.0529 53.0093 25.2195 52.9067C25.3839 52.8061 25.576 52.7537 25.7938 52.7537C26.1055 52.7537 26.3575 52.8354 26.5475 52.9968C26.7375 53.1581 26.8464 53.3803 26.872 53.6653H26.2528C26.2486 53.5123 26.208 53.4013 26.1333 53.3342C26.0586 53.2671 25.9454 53.2336 25.7938 53.2336C25.6422 53.2336 25.5269 53.2902 25.4543 53.4034C25.3817 53.5165 25.3454 53.6989 25.3412 53.9462V54.1243C25.3412 54.3947 25.3753 54.5875 25.4436 54.7027C25.512 54.818 25.6315 54.8767 25.8002 54.8767C25.9433 54.8767 26.0521 54.8432 26.1269 54.7782C26.2016 54.7132 26.2422 54.6084 26.2464 54.4638H26.8635H26.8656Z" fill="#F5F5F5"/>
<path d="M27.5723 55.3189H26.9531V52.7893H27.5723V55.3189Z" fill="#F5F5F5"/>
<path d="M29.4957 54.248H28.5178V54.8516H29.6708V55.321H27.8965V52.7893H29.675V53.2609H28.5178V53.7932H29.4957V54.2459V54.248Z" fill="#F5F5F5"/>
<path d="M31.9491 55.3189H31.332L30.4182 53.745V55.3189H29.7969V52.7893H30.4182L31.3299 54.3632V52.7893H31.9491V55.3189Z" fill="#F5F5F5"/>
<path d="M34.5687 54.4638C34.5602 54.6399 34.5111 54.795 34.4236 54.9312C34.336 55.0653 34.2101 55.1701 34.0499 55.2456C33.8898 55.3189 33.7083 55.3566 33.5033 55.3566C33.1639 55.3566 32.8991 55.2477 32.7027 55.0318C32.5062 54.8159 32.4102 54.5099 32.4102 54.1138V53.9881C32.4102 53.7408 32.455 53.5228 32.5425 53.3384C32.6301 53.1519 32.756 53.0093 32.9226 52.9067C33.087 52.8061 33.2791 52.7537 33.4969 52.7537C33.8087 52.7537 34.0606 52.8354 34.2506 52.9968C34.4406 53.1581 34.5495 53.3803 34.5752 53.6653H33.956C33.9517 53.5123 33.9111 53.4013 33.8364 53.3342C33.7617 53.2671 33.6485 53.2336 33.4969 53.2336C33.3453 53.2336 33.23 53.2902 33.1574 53.4034C33.0848 53.5165 33.0486 53.6989 33.0443 53.9462V54.1243C33.0443 54.3947 33.0784 54.5875 33.1468 54.7027C33.2151 54.818 33.3347 54.8767 33.5033 54.8767C33.6464 54.8767 33.7553 54.8432 33.83 54.7782C33.9047 54.7132 33.9453 54.6084 33.9496 54.4638H34.5666H34.5687Z" fill="#F5F5F5"/>
<path d="M35.5595 53.8875L36.0335 52.7893H36.7039L35.8733 54.4094V55.3168H35.2435V54.4094L34.415 52.7893H35.0812L35.5573 53.8875H35.5595Z" fill="#F5F5F5"/>
<path d="M37.0198 56L36.7188 55.8617L36.7785 55.7443C36.8618 55.5934 36.9045 55.4509 36.9066 55.3126V54.8788H37.3849V55.256C37.3828 55.3902 37.3465 55.5243 37.2781 55.6626C37.2098 55.8009 37.1223 55.9141 37.0177 56.0021L37.0198 56Z" fill="#F5F5F5"/>
<path d="M39.9359 52.7893L40.5103 54.5498L41.0846 52.7893H41.9023V55.3189H41.2789V54.7279L41.3387 53.5186L40.7152 55.3189H40.3053L39.6797 53.5165L39.7395 54.7279V55.3189H39.1182V52.7893H39.9338H39.9359Z" fill="#F5F5F5"/>
<path d="M44.4199 54.1076C44.4199 54.3549 44.3729 54.5728 44.279 54.7614C44.185 54.9501 44.0527 55.0968 43.8818 55.1995C43.711 55.3022 43.5146 55.3525 43.2947 55.3525C43.0748 55.3525 42.8805 55.3022 42.7097 55.2037C42.541 55.1052 42.4065 54.9626 42.3125 54.7782C42.2165 54.5938 42.1674 54.3821 42.1631 54.1432V54.0007C42.1631 53.7534 42.2101 53.5333 42.3019 53.3447C42.3937 53.1561 42.5282 53.0094 42.7011 52.9067C42.8741 52.804 43.0705 52.7516 43.2904 52.7516C43.5103 52.7516 43.7025 52.8019 43.8754 52.9046C44.0463 53.0073 44.1786 53.1519 44.2747 53.3405C44.3708 53.5291 44.4178 53.745 44.4199 53.9881V54.1055V54.1076ZM43.7879 54.0007C43.7879 53.7492 43.7452 53.5585 43.6598 53.4285C43.5744 53.2986 43.4527 53.2336 43.2926 53.2336C42.9808 53.2336 42.8164 53.4621 42.7993 53.921V54.1076C42.7993 54.3549 42.8399 54.5456 42.9232 54.6797C43.0065 54.8138 43.1324 54.8788 43.2968 54.8788C43.4612 54.8788 43.5744 54.8138 43.6598 54.6818C43.7452 54.5519 43.7879 54.3632 43.79 54.118V54.0007H43.7879Z" fill="#F5F5F5"/>
<path d="M45.7798 54.4261H45.4446V55.3189H44.8232V52.7893H45.8374C46.1427 52.7893 46.3819 52.8564 46.5548 52.9884C46.7278 53.1225 46.8132 53.3091 46.8132 53.5522C46.8132 53.7282 46.7769 53.8749 46.7043 53.9902C46.6317 54.1055 46.5185 54.1998 46.3627 54.271L46.9007 55.2917V55.3168H46.2345L45.7798 54.424V54.4261ZM45.4446 53.9546H45.8374C45.9548 53.9546 46.0445 53.9231 46.1043 53.8624C46.1641 53.8016 46.194 53.7177 46.194 53.6088C46.194 53.4998 46.1641 53.4139 46.1043 53.3531C46.0445 53.2902 45.9549 53.2609 45.8396 53.2609H45.4467V53.9567L45.4446 53.9546Z" fill="#F5F5F5"/>
<path d="M48.4574 54.8474H47.6055L47.456 55.3189H46.792L47.7378 52.7893H48.3229L49.2751 55.3189H48.609L48.4595 54.8474H48.4574ZM47.7549 54.3758H48.3079L48.0304 53.4977L47.7549 54.3758Z" fill="#F5F5F5"/>
<path d="M49.927 54.8495H51.0073V55.3189H49.3057V52.7893H49.927V54.8495Z" fill="#F5F5F5"/>
<path d="M51.7139 55.3189H51.0947V52.7893H51.7139V55.3189Z" fill="#F5F5F5"/>
<path d="M54.0625 53.2609H53.2896V55.3189H52.6683V53.2609H51.9082V52.7893H54.0625V53.2609Z" fill="#F5F5F5"/>
<path d="M54.9911 53.8875L55.4651 52.7893H56.1355L55.305 54.4094V55.3168H54.6751V54.4094L53.8467 52.7893H54.5128L54.989 53.8875H54.9911Z" fill="#F5F5F5"/>
</g>
<g clip-path="url(#clip3_189_686)">
<path d="M31.4423 47.2296C40.1011 42.9701 47.9591 42.2273 51.857 42.1609C53.2697 42.136 54.419 43.2896 54.392 44.7025C54.3651 46.0241 53.3112 47.0989 51.9898 47.1445C40.6259 47.547 29.4384 50.0513 29.4384 50.0513C29.3969 48.7628 29.4384 48.4558 29.4384 48.4558C29.6334 47.9039 31.4423 47.2316 31.4423 47.2316" fill="#F5F5F5"/>
<path d="M30.5795 44.4659C35.7595 40.1483 40.9726 38.3495 43.6113 37.6607C44.5655 37.4117 45.5364 38.0051 45.7521 38.9699C45.9513 39.8724 45.414 40.7749 44.522 41.0239C36.8693 43.1692 29.6834 46.7108 29.6834 46.7108C29.4427 45.8436 29.4199 45.6257 29.4199 45.6257C29.4614 45.2191 30.5795 44.4639 30.5795 44.4639" fill="#F5F5F5"/>
<path d="M26.2637 47.2287C17.6049 42.9692 9.74684 42.2244 5.84893 42.158C4.43622 42.1331 3.28697 43.2867 3.31394 44.6996C3.34091 46.0212 4.39473 47.0959 5.71617 47.1416C17.0801 47.5441 28.2676 50.0483 28.2676 50.0483C28.3091 48.7599 28.2676 48.4528 28.2676 48.4528C28.0726 47.9009 26.2637 47.2287 26.2637 47.2287Z" fill="#34C759"/>
<path d="M27.1152 44.4659C21.9353 40.1483 16.7222 38.3495 14.0856 37.6607C13.1292 37.4117 12.1584 38.0051 11.9447 38.9699C11.7456 39.8724 12.2829 40.7749 13.1728 41.0239C20.8255 43.1692 28.0114 46.7108 28.0114 46.7108C28.252 45.8436 28.2749 45.6257 28.2749 45.6257C28.2334 45.2191 27.1152 44.4639 27.1152 44.4639" fill="#34C759"/>
</g>
<path d="M65.9993 24.807V13.1706H73.8402V15.1991H68.4595V17.9718H73.4368V20.0002H68.4595V22.7786H73.8629V24.807H65.9993ZM79.9212 24.807H75.7962V13.1706H79.9553C81.1257 13.1706 82.1333 13.4036 82.978 13.8695C83.8227 14.3316 84.4723 14.9964 84.9269 15.8638C85.3852 16.7312 85.6144 17.7691 85.6144 18.9775C85.6144 20.1896 85.3852 21.2312 84.9269 22.1025C84.4723 22.9737 83.8189 23.6422 82.9666 24.1081C82.1181 24.5741 81.103 24.807 79.9212 24.807ZM78.2564 22.6991H79.8189C80.5462 22.6991 81.1579 22.5703 81.6541 22.3127C82.1541 22.0513 82.5291 21.6479 82.7791 21.1025C83.0329 20.5532 83.1598 19.8449 83.1598 18.9775C83.1598 18.1176 83.0329 17.415 82.7791 16.8695C82.5291 16.3241 82.156 15.9225 81.6598 15.665C81.1636 15.4074 80.5519 15.2786 79.8246 15.2786H78.2564V22.6991ZM86.4624 15.1991V13.1706H96.0192V15.1991H92.4567V24.807H90.0249V15.1991H86.4624ZM97.5931 24.807V13.1706H105.434V15.1991H100.053V17.9718H105.031V20.0002H100.053V22.7786H105.457V24.807H97.5931ZM117.657 17.2445H115.168C115.123 16.9225 115.03 16.6366 114.89 16.3866C114.75 16.1328 114.57 15.9169 114.35 15.7388C114.13 15.5608 113.877 15.4244 113.589 15.3297C113.305 15.235 112.996 15.1877 112.663 15.1877C112.06 15.1877 111.536 15.3373 111.089 15.6366C110.642 15.932 110.295 16.3638 110.049 16.932C109.803 17.4964 109.68 18.182 109.68 18.9888C109.68 19.8184 109.803 20.5153 110.049 21.0797C110.299 21.6441 110.648 22.0703 111.094 22.3581C111.541 22.646 112.058 22.79 112.646 22.79C112.975 22.79 113.28 22.7464 113.56 22.6593C113.844 22.5722 114.096 22.4453 114.316 22.2786C114.536 22.1081 114.718 21.9017 114.862 21.6593C115.009 21.4169 115.112 21.1403 115.168 20.8297L117.657 20.8411C117.593 21.3752 117.432 21.8903 117.174 22.3866C116.92 22.879 116.577 23.3203 116.146 23.7104C115.718 24.0968 115.206 24.4036 114.612 24.6309C114.021 24.8544 113.352 24.9661 112.606 24.9661C111.568 24.9661 110.64 24.7312 109.822 24.2616C109.007 23.7919 108.363 23.1119 107.89 22.2218C107.42 21.3316 107.185 20.254 107.185 18.9888C107.185 17.7199 107.424 16.6403 107.901 15.7502C108.379 14.86 109.026 14.182 109.844 13.7161C110.663 13.2464 111.583 13.0116 112.606 13.0116C113.28 13.0116 113.905 13.1062 114.481 13.2956C115.06 13.485 115.574 13.7616 116.021 14.1252C116.468 14.485 116.831 14.9263 117.112 15.4491C117.396 15.9718 117.577 16.5703 117.657 17.2445ZM119.421 24.807V13.1706H121.881V17.9718H126.876V13.1706H129.33V24.807H126.876V20.0002H121.881V24.807H119.421ZM137.067 24.807H134.431L138.448 13.1706H141.619L145.63 24.807H142.994L140.079 15.8297H139.988L137.067 24.807ZM136.903 20.2331H143.13V22.1536H136.903V20.2331ZM156.751 17.2445H154.262C154.217 16.9225 154.124 16.6366 153.984 16.3866C153.844 16.1328 153.664 15.9169 153.444 15.7388C153.224 15.5608 152.97 15.4244 152.683 15.3297C152.398 15.235 152.09 15.1877 151.756 15.1877C151.154 15.1877 150.63 15.3373 150.183 15.6366C149.736 15.932 149.389 16.3638 149.143 16.932C148.897 17.4964 148.773 18.182 148.773 18.9888C148.773 19.8184 148.897 20.5153 149.143 21.0797C149.393 21.6441 149.741 22.0703 150.188 22.3581C150.635 22.646 151.152 22.79 151.739 22.79C152.069 22.79 152.374 22.7464 152.654 22.6593C152.938 22.5722 153.19 22.4453 153.41 22.2786C153.63 22.1081 153.811 21.9017 153.955 21.6593C154.103 21.4169 154.205 21.1403 154.262 20.8297L156.751 20.8411C156.686 21.3752 156.525 21.8903 156.268 22.3866C156.014 22.879 155.671 23.3203 155.239 23.7104C154.811 24.0968 154.3 24.4036 153.705 24.6309C153.114 24.8544 152.446 24.9661 151.7 24.9661C150.662 24.9661 149.734 24.7312 148.915 24.2616C148.101 23.7919 147.457 23.1119 146.984 22.2218C146.514 21.3316 146.279 20.254 146.279 18.9888C146.279 17.7199 146.518 16.6403 146.995 15.7502C147.472 14.86 148.12 14.182 148.938 13.7161C149.756 13.2464 150.677 13.0116 151.7 13.0116C152.374 13.0116 152.999 13.1062 153.575 13.2956C154.154 13.485 154.667 13.7616 155.114 14.1252C155.561 14.485 155.925 14.9263 156.205 15.4491C156.489 15.9718 156.671 16.5703 156.751 17.2445ZM160.302 24.807H157.665L161.683 13.1706H164.853L168.864 24.807H166.228L163.313 15.8297H163.222L160.302 24.807ZM160.137 20.2331H166.364V22.1536H160.137V20.2331ZM174.39 24.807H170.265V13.1706H174.424C175.594 13.1706 176.602 13.4036 177.447 13.8695C178.291 14.3316 178.941 14.9964 179.396 15.8638C179.854 16.7312 180.083 17.7691 180.083 18.9775C180.083 20.1896 179.854 21.2312 179.396 22.1025C178.941 22.9737 178.288 23.6422 177.435 24.1081C176.587 24.5741 175.572 24.807 174.39 24.807ZM172.725 22.6991H174.288C175.015 22.6991 175.627 22.5703 176.123 22.3127C176.623 22.0513 176.998 21.6479 177.248 21.1025C177.502 20.5532 177.629 19.8449 177.629 18.9775C177.629 18.1176 177.502 17.415 177.248 16.8695C176.998 16.3241 176.625 15.9225 176.129 15.665C175.632 15.4074 175.021 15.2786 174.293 15.2786H172.725V22.6991ZM183.255 24.807H180.619L184.636 13.1706H187.806L191.817 24.807H189.181L186.266 15.8297H186.175L183.255 24.807ZM183.09 20.2331H189.317V22.1536H183.09V20.2331ZM193.218 13.1706H196.252L199.457 20.9888H199.593L202.798 13.1706H205.832V24.807H203.445V17.2331H203.349L200.337 24.7502H198.712L195.701 17.2047H195.604V24.807H193.218V13.1706ZM207.177 13.1706H209.933L212.586 18.182H212.7L215.353 13.1706H218.109L213.864 20.6934V24.807H211.421V20.6934L207.177 13.1706ZM223.644 18.9888C223.644 17.5797 223.832 16.2824 224.207 15.0968C224.585 13.9112 225.163 12.8127 225.94 11.8013H228.252C227.957 12.1763 227.682 12.6347 227.428 13.1763C227.174 13.7142 226.953 14.3051 226.764 14.9491C226.574 15.593 226.426 16.2597 226.32 16.9491C226.214 17.6347 226.161 18.3146 226.161 18.9888C226.161 19.8866 226.252 20.7937 226.434 21.7104C226.62 22.6233 226.87 23.4718 227.184 24.2559C227.502 25.04 227.858 25.682 228.252 26.182H225.94C225.163 25.1706 224.585 24.0722 224.207 22.8866C223.832 21.7009 223.644 20.4017 223.644 18.9888ZM229.702 24.807V13.1706H234.362C235.218 13.1706 235.932 13.2975 236.504 13.5513C237.076 13.8051 237.505 14.1574 237.793 14.6081C238.081 15.0551 238.225 15.5703 238.225 16.1536C238.225 16.6081 238.134 17.0078 237.952 17.3525C237.771 17.6934 237.521 17.9737 237.202 18.1934C236.888 18.4093 236.528 18.5627 236.123 18.6536V18.7672C236.566 18.7862 236.981 18.9112 237.367 19.1422C237.757 19.3733 238.074 19.6972 238.316 20.1138C238.558 20.5267 238.68 21.0191 238.68 21.5911C238.68 22.2085 238.526 22.7597 238.219 23.2445C237.916 23.7256 237.468 24.1062 236.873 24.3866C236.278 24.6669 235.545 24.807 234.674 24.807H229.702ZM232.163 22.7956H234.168C234.854 22.7956 235.354 22.665 235.668 22.4036C235.983 22.1384 236.14 21.7862 236.14 21.3468C236.14 21.0248 236.062 20.7407 235.907 20.4945C235.752 20.2483 235.53 20.0551 235.242 19.915C234.958 19.7748 234.619 19.7047 234.225 19.7047H232.163V22.7956ZM232.163 18.04H233.987C234.324 18.04 234.623 17.9812 234.884 17.8638C235.149 17.7426 235.358 17.5722 235.509 17.3525C235.665 17.1328 235.742 16.8695 235.742 16.5627C235.742 16.1422 235.593 15.8032 235.293 15.5456C234.998 15.2881 234.577 15.1593 234.032 15.1593H232.163V18.04ZM239.837 15.1991V13.1706H249.394V15.1991H245.832V24.807H243.4V15.1991H239.837ZM250.968 24.807V13.1706H255.627C256.483 13.1706 257.197 13.2975 257.769 13.5513C258.341 13.8051 258.771 14.1574 259.059 14.6081C259.347 15.0551 259.491 15.5703 259.491 16.1536C259.491 16.6081 259.4 17.0078 259.218 17.3525C259.036 17.6934 258.786 17.9737 258.468 18.1934C258.154 18.4093 257.794 18.5627 257.389 18.6536V18.7672C257.832 18.7862 258.246 18.9112 258.633 19.1422C259.023 19.3733 259.339 19.6972 259.582 20.1138C259.824 20.5267 259.945 21.0191 259.945 21.5911C259.945 22.2085 259.792 22.7597 259.485 23.2445C259.182 23.7256 258.733 24.1062 258.139 24.3866C257.544 24.6669 256.811 24.807 255.94 24.807H250.968ZM253.428 22.7956H255.434C256.12 22.7956 256.62 22.665 256.934 22.4036C257.248 22.1384 257.406 21.7862 257.406 21.3468C257.406 21.0248 257.328 20.7407 257.173 20.4945C257.017 20.2483 256.796 20.0551 256.508 19.915C256.224 19.7748 255.885 19.7047 255.491 19.7047H253.428V22.7956ZM253.428 18.04H255.252C255.589 18.04 255.889 17.9812 256.15 17.8638C256.415 17.7426 256.623 17.5722 256.775 17.3525C256.93 17.1328 257.008 16.8695 257.008 16.5627C257.008 16.1422 256.858 15.8032 256.559 15.5456C256.264 15.2881 255.843 15.1593 255.298 15.1593H253.428V18.04ZM265.58 18.9888C265.58 20.4017 265.391 21.7009 265.012 22.8866C264.637 24.0722 264.061 25.1706 263.285 26.182H260.972C261.268 25.807 261.542 25.3487 261.796 24.807C262.05 24.2653 262.272 23.6744 262.461 23.0343C262.65 22.3903 262.798 21.7237 262.904 21.0343C263.01 20.3449 263.063 19.6631 263.063 18.9888C263.063 18.0911 262.97 17.1858 262.785 16.2729C262.603 15.3562 262.353 14.5078 262.035 13.7275C261.72 12.9434 261.366 12.3013 260.972 11.8013H263.285C264.061 12.8127 264.637 13.9112 265.012 15.0968C265.391 16.2824 265.58 17.5797 265.58 18.9888Z" fill="white"/>
<path d="M82.7523 44.84H84.0591L84.7161 45.6852L85.3624 46.438L86.5804 47.965H85.1458L84.3077 46.9352L83.878 46.3244L82.7523 44.84ZM86.6905 43.732C86.6905 44.5251 86.5402 45.1998 86.2395 45.7562C85.9412 46.3125 85.534 46.7375 85.0179 47.0311C84.5042 47.3222 83.9266 47.4678 83.285 47.4678C82.6387 47.4678 82.0587 47.3211 81.5449 47.0275C81.0312 46.7339 80.6252 46.309 80.3269 45.7526C80.0286 45.1963 79.8795 44.5228 79.8795 43.732C79.8795 42.939 80.0286 42.2642 80.3269 41.7079C80.6252 41.1516 81.0312 40.7278 81.5449 40.4366C82.0587 40.143 82.6387 39.9962 83.285 39.9962C83.9266 39.9962 84.5042 40.143 85.0179 40.4366C85.534 40.7278 85.9412 41.1516 86.2395 41.7079C86.5402 42.2642 86.6905 42.939 86.6905 43.732ZM85.1316 43.732C85.1316 43.2183 85.0546 42.7851 84.9008 42.4323C84.7492 42.0796 84.535 41.8121 84.258 41.6298C83.981 41.4475 83.6567 41.3563 83.285 41.3563C82.9133 41.3563 82.589 41.4475 82.312 41.6298C82.035 41.8121 81.8196 42.0796 81.6657 42.4323C81.5142 42.7851 81.4384 43.2183 81.4384 43.732C81.4384 44.2458 81.5142 44.679 81.6657 45.0318C81.8196 45.3845 82.035 45.652 82.312 45.8343C82.589 46.0166 82.9133 46.1078 83.285 46.1078C83.6567 46.1078 83.981 46.0166 84.258 45.8343C84.535 45.652 84.7492 45.3845 84.9008 45.0318C85.0546 44.679 85.1316 44.2458 85.1316 43.732ZM92.3217 40.0957H93.8594V44.8187C93.8594 45.349 93.7327 45.813 93.4794 46.2107C93.2285 46.6085 92.8769 46.9186 92.4247 47.1411C91.9726 47.3613 91.4458 47.4714 90.8445 47.4714C90.2408 47.4714 89.7128 47.3613 89.2607 47.1411C88.8085 46.9186 88.4569 46.6085 88.206 46.2107C87.955 45.813 87.8296 45.349 87.8296 44.8187V40.0957H89.3672V44.6873C89.3672 44.9643 89.4276 45.2105 89.5483 45.4259C89.6714 45.6414 89.8442 45.8106 90.0668 45.9337C90.2893 46.0569 90.5485 46.1184 90.8445 46.1184C91.1428 46.1184 91.402 46.0569 91.6222 45.9337C91.8447 45.8106 92.0163 45.6414 92.1371 45.4259C92.2602 45.2105 92.3217 44.9643 92.3217 44.6873V40.0957ZM96.378 47.3684H94.7303L97.241 40.0957H99.2225L101.73 47.3684H100.082L98.2601 41.7576H98.2033L96.378 47.3684ZM96.275 44.5097H100.167V45.71H96.275V44.5097ZM102.605 47.3684V40.0957H104.143V46.1007H107.26V47.3684H102.605ZM109.816 40.0957V47.3684H108.279V40.0957H109.816ZM110.805 41.3634V40.0957H116.778V41.3634H114.551V47.3684H113.031V41.3634H110.805ZM117.335 40.0957H119.057L120.716 43.2278H120.787L122.445 40.0957H124.167L121.515 44.7974V47.3684H119.988V44.7974L117.335 40.0957ZM131.951 47.3684V40.0957H136.851V41.3634H133.488V43.0964H136.599V44.3641H133.488V46.1007H136.865V47.3684H131.951ZM138.074 47.3684V40.0957H142.889V41.3634H139.611V43.0964H142.569V44.3641H139.611V47.3684H138.074ZM143.923 47.3684V40.0957H148.739V41.3634H145.461V43.0964H148.419V44.3641H145.461V47.3684H143.923ZM151.311 40.0957V47.3684H149.773V40.0957H151.311ZM158.993 42.6418H157.437C157.409 42.4406 157.351 42.2619 157.263 42.1056C157.176 41.947 157.063 41.8121 156.926 41.7008C156.788 41.5895 156.63 41.5043 156.45 41.4451C156.272 41.3859 156.079 41.3563 155.871 41.3563C155.495 41.3563 155.167 41.4498 154.887 41.6369C154.608 41.8215 154.391 42.0914 154.238 42.4465C154.084 42.7993 154.007 43.2278 154.007 43.732C154.007 44.2505 154.084 44.6861 154.238 45.0389C154.394 45.3916 154.612 45.6579 154.891 45.8379C155.17 46.0178 155.494 46.1078 155.86 46.1078C156.066 46.1078 156.257 46.0805 156.432 46.0261C156.61 45.9716 156.767 45.8923 156.904 45.7882C157.042 45.6816 157.155 45.5526 157.245 45.4011C157.338 45.2496 157.402 45.0767 157.437 44.8826L158.993 44.8897C158.952 45.2235 158.852 45.5455 158.691 45.8556C158.532 46.1634 158.318 46.4392 158.048 46.683C157.78 46.9245 157.461 47.1163 157.089 47.2583C156.72 47.398 156.302 47.4678 155.836 47.4678C155.187 47.4678 154.607 47.3211 154.096 47.0275C153.587 46.7339 153.184 46.309 152.888 45.7526C152.595 45.1963 152.448 44.5228 152.448 43.732C152.448 42.939 152.597 42.2642 152.895 41.7079C153.194 41.1516 153.598 40.7278 154.11 40.4366C154.621 40.143 155.196 39.9962 155.836 39.9962C156.257 39.9962 156.648 40.0554 157.007 40.1738C157.37 40.2922 157.69 40.465 157.97 40.6923C158.249 40.9172 158.476 41.193 158.652 41.5197C158.829 41.8464 158.943 42.2204 158.993 42.6418ZM160.095 47.3684V40.0957H164.996V41.3634H161.633V43.0964H164.744V44.3641H161.633V46.1007H165.01V47.3684H160.095ZM172.301 40.0957V47.3684H170.973L167.809 42.791H167.756V47.3684H166.218V40.0957H167.568L170.707 44.6695H170.771V40.0957H172.301ZM179.989 42.6418H178.433C178.405 42.4406 178.347 42.2619 178.259 42.1056C178.172 41.947 178.059 41.8121 177.922 41.7008C177.785 41.5895 177.626 41.5043 177.446 41.4451C177.268 41.3859 177.076 41.3563 176.867 41.3563C176.491 41.3563 176.163 41.4498 175.884 41.6369C175.604 41.8215 175.388 42.0914 175.234 42.4465C175.08 42.7993 175.003 43.2278 175.003 43.732C175.003 44.2505 175.08 44.6861 175.234 45.0389C175.39 45.3916 175.608 45.6579 175.887 45.8379C176.166 46.0178 176.49 46.1078 176.857 46.1078C177.063 46.1078 177.253 46.0805 177.428 46.0261C177.606 45.9716 177.763 45.8923 177.901 45.7882C178.038 45.6816 178.152 45.5526 178.241 45.4011C178.334 45.2496 178.398 45.0767 178.433 44.8826L179.989 44.8897C179.948 45.2235 179.848 45.5455 179.687 45.8556C179.528 46.1634 179.314 46.4392 179.044 46.683C178.777 46.9245 178.457 47.1163 178.085 47.2583C177.716 47.398 177.298 47.4678 176.832 47.4678C176.183 47.4678 175.603 47.3211 175.092 47.0275C174.583 46.7339 174.18 46.309 173.884 45.7526C173.591 45.1963 173.444 44.5228 173.444 43.732C173.444 42.939 173.593 42.2642 173.891 41.7079C174.19 41.1516 174.594 40.7278 175.106 40.4366C175.617 40.143 176.192 39.9962 176.832 39.9962C177.253 39.9962 177.644 40.0554 178.004 40.1738C178.366 40.2922 178.687 40.465 178.966 40.6923C179.245 40.9172 179.473 41.193 179.648 41.5197C179.825 41.8464 179.939 42.2204 179.989 42.6418ZM180.665 40.0957H182.387L184.046 43.2278H184.117L185.775 40.0957H187.498L184.845 44.7974V47.3684H183.318V44.7974L180.665 40.0957ZM199.91 40.0957H201.806L203.809 44.982H203.894L205.897 40.0957H207.793V47.3684H206.302V42.6347H206.241L204.359 47.3329H203.344L201.461 42.617H201.401V47.3684H199.91V40.0957ZM215.743 43.732C215.743 44.5251 215.593 45.1998 215.292 45.7562C214.994 46.3125 214.587 46.7375 214.071 47.0311C213.557 47.3222 212.979 47.4678 212.338 47.4678C211.691 47.4678 211.111 47.3211 210.598 47.0275C210.084 46.7339 209.678 46.309 209.38 45.7526C209.081 45.1963 208.932 44.5228 208.932 43.732C208.932 42.939 209.081 42.2642 209.38 41.7079C209.678 41.1516 210.084 40.7278 210.598 40.4366C211.111 40.143 211.691 39.9962 212.338 39.9962C212.979 39.9962 213.557 40.143 214.071 40.4366C214.587 40.7278 214.994 41.1516 215.292 41.7079C215.593 42.2642 215.743 42.939 215.743 43.732ZM214.184 43.732C214.184 43.2183 214.107 42.7851 213.953 42.4323C213.802 42.0796 213.588 41.8121 213.311 41.6298C213.034 41.4475 212.709 41.3563 212.338 41.3563C211.966 41.3563 211.642 41.4475 211.365 41.6298C211.088 41.8121 210.872 42.0796 210.718 42.4323C210.567 42.7851 210.491 43.2183 210.491 43.732C210.491 44.2458 210.567 44.679 210.718 45.0318C210.872 45.3845 211.088 45.652 211.365 45.8343C211.642 46.0166 211.966 46.1078 212.338 46.1078C212.709 46.1078 213.034 46.0166 213.311 45.8343C213.588 45.652 213.802 45.3845 213.953 45.0318C214.107 44.679 214.184 44.2458 214.184 43.732ZM216.882 47.3684V40.0957H219.752C220.301 40.0957 220.77 40.1939 221.158 40.3904C221.548 40.5846 221.846 40.8604 222.049 41.2178C222.255 41.573 222.358 41.9908 222.358 42.4714C222.358 42.9543 222.254 43.3698 222.046 43.7178C221.837 44.0635 221.535 44.3286 221.14 44.5133C220.747 44.698 220.271 44.7903 219.713 44.7903H217.791V43.5545H219.464C219.758 43.5545 220.001 43.5142 220.195 43.4337C220.39 43.3533 220.534 43.2325 220.629 43.0715C220.726 42.9105 220.774 42.7105 220.774 42.4714C220.774 42.2299 220.726 42.0263 220.629 41.8606C220.534 41.6949 220.388 41.5694 220.192 41.4842C219.998 41.3966 219.753 41.3528 219.457 41.3528H218.42V47.3684H216.882ZM220.81 44.0587L222.617 47.3684H220.92L219.151 44.0587H220.81ZM224.698 47.3684H223.051L225.561 40.0957H227.543L230.05 47.3684H228.402L226.58 41.7576H226.524L224.698 47.3684ZM224.595 44.5097H228.487V45.71H224.595V44.5097ZM230.925 47.3684V40.0957H232.463V46.1007H235.581V47.3684H230.925ZM238.137 40.0957V47.3684H236.599V40.0957H238.137ZM239.125 41.3634V40.0957H245.098V41.3634H242.871V47.3684H241.351V41.3634H239.125ZM245.655 40.0957H247.378L249.036 43.2278H249.107L250.765 40.0957H252.488L249.835 44.7974V47.3684H248.308V44.7974L245.655 40.0957Z" fill="white"/>
<line x1="68.7715" y1="32.6536" x2="263.298" y2="32.6536" stroke="white" stroke-width="1.5"/>
<defs>
<clipPath id="clip0_189_686">
<rect width="39.9034" height="25.0242" fill="white" transform="translate(8.85938 11.024)"/>
</clipPath>
<clipPath id="clip1_189_686">
<rect width="57.6908" height="22.5217" fill="white"/>
</clipPath>
<clipPath id="clip2_189_686">
<rect width="54.5797" height="3.24638" fill="white" transform="translate(1.55566 52.7537)"/>
</clipPath>
<clipPath id="clip3_189_686">
<rect width="51.0628" height="12.4444" fill="white" transform="translate(3.31348 37.6039)"/>
</clipPath>
</defs>
</svg>
