<?xml version="1.0" encoding="UTF-8"?>
<svg version="1.1" xmlns="http://www.w3.org/2000/svg" width="512" height="512">
<path d="M0 0 C5.66070761 5.45978744 9.47048006 11.79886427 13.40185547 18.52685547 C15.25754315 21.68883842 17.14410728 24.83176064 19.03515625 27.97265625 C21.72753249 32.44672015 24.41560947 36.92327996 27.0965271 41.40422058 C31.8648639 49.3729342 36.67218585 57.31721163 41.5 65.25 C47.75075638 75.52305646 53.9535099 85.8239489 60.13223267 96.14047241 C65.970869 105.88750145 71.84961405 115.60932547 77.75439453 125.31640625 C83.31942822 134.46608922 88.84201934 143.64044555 94.34326172 152.82861328 C98.97005095 160.54966672 103.63460933 168.24734747 108.3125 175.9375 C114.24331026 185.6875569 120.136289 195.45944704 126 205.25 C131.80131717 214.93634096 137.63140807 224.60426793 143.5 234.25 C149.75141563 244.52494857 155.95550177 254.82731521 162.13525391 265.14550781 C167.55882302 274.19957627 173.01423446 283.23348884 178.5 292.25 C184.74850522 302.52016496 190.95181005 312.81651464 197.12619019 323.13140869 C202.00238216 331.27698163 206.91133799 339.40134793 211.85546875 347.50585938 C222.66661822 365.22901627 222.66661822 365.22901627 227.5 373.75 C227.85586182 374.37245605 228.21172363 374.99491211 228.57836914 375.63623047 C233.29992692 384.0970491 233.36743573 394.87412499 231.3515625 404.2734375 C227.78291732 413.94233086 221.17206186 421.5963074 212 426.25 C202.06741673 429.89675118 192.03853345 429.67353499 181.62988281 429.63095093 C179.7801651 429.6344121 177.93044944 429.63917974 176.08073807 429.64513266 C171.02305586 429.65760909 165.96554437 429.65148757 160.90786171 429.64217401 C155.44356783 429.63537008 149.97930275 429.6458714 144.51501465 429.65411377 C133.82041145 429.66743895 123.12587149 429.66457876 112.43126583 429.65587585 C103.73790405 429.64909494 95.04455996 429.64818435 86.35119629 429.6514473 C85.11292501 429.651907 83.87465373 429.65236669 82.59885907 429.65284032 C80.08317025 429.65379952 77.56748143 429.65477216 75.05179262 429.6557581 C52.14562895 429.66406479 29.23949289 429.65545702 6.3333357 429.63973031 C-14.56034673 429.62549436 -35.4539743 429.62676828 -56.34765625 429.64111328 C-79.84251637 429.65719041 -103.33735235 429.66348449 -126.83221817 429.65427649 C-129.33854421 429.65332086 -131.84487024 429.65237775 -134.35119629 429.6514473 C-136.20083579 429.65075306 -136.20083579 429.65075306 -138.08784175 429.65004479 C-146.76865168 429.6474568 -155.44944211 429.6518218 -164.13024902 429.65888596 C-174.71226024 429.66730812 -185.29420471 429.66500568 -195.87620831 429.64904372 C-201.27312581 429.64117072 -206.66993212 429.63805293 -212.06684875 429.64799118 C-217.01140561 429.65695858 -221.95574862 429.6519715 -226.9002862 429.63605852 C-228.68478386 429.63271939 -230.46929975 429.63438517 -232.25378561 429.64168589 C-246.9348821 429.69712173 -259.8345983 428.95895446 -271 418.25 C-279.30712625 407.70174256 -281.35764876 397.36976706 -280 384.25 C-277.87009977 374.50257426 -271.19383325 365.87170519 -265.9296875 357.546875 C-261.30687767 350.20097482 -256.91072354 342.7242286 -252.5 335.25 C-247.24919445 326.36370461 -241.97451783 317.5010748 -236.5 308.75 C-231.05145605 300.03761526 -225.79484927 291.21812498 -220.5625 282.375 C-213.39058679 270.25559087 -206.13695754 258.19133388 -198.78955078 246.17724609 C-195.45720518 240.72638337 -192.13216734 235.27109054 -188.8125 229.8125 C-188.46192535 229.2362085 -188.11135071 228.65991699 -187.75015259 228.06616211 C-181.36198616 217.55810051 -175.08368541 206.98645663 -168.82168579 196.40286255 C-164.27548352 188.72203476 -159.70122715 181.0694143 -154.91088867 173.53759766 C-150.41165514 166.41008013 -146.16391569 159.130066 -141.875 151.875 C-136.00388431 141.94385078 -130.07828083 132.05621099 -124 122.25 C-118.05049263 112.64962453 -112.24588408 102.97309523 -106.5 93.25 C-100.13376725 82.47716045 -93.66806948 71.7790298 -87.07397461 61.14355469 C-80.81865825 51.02431557 -74.75885651 40.79199193 -68.73242188 30.53515625 C-64.96926665 24.14423788 -61.14363522 17.80234909 -57.15234375 11.55078125 C-56.78738297 10.97583923 -56.42242218 10.40089722 -56.04640198 9.80853271 C-50.20273644 0.74516433 -42.8346685 -5.54852172 -32.1875 -8.125 C-20.32890185 -10.03708404 -9.31986888 -7.60687117 0 0 Z " fill="#DB3B52" transform="translate(280,45.75)"/>
<path d="M0 0 C2.00366211 2.62768555 2.00366211 2.62768555 3.77734375 5.63671875 C4.7828125 7.31894531 4.7828125 7.31894531 5.80859375 9.03515625 C6.51840829 10.25249974 7.22803893 11.46995047 7.9375 12.6875 C8.68880711 13.95389539 9.44143214 15.21950976 10.1953125 16.484375 C11.73444346 19.07078767 13.26650476 21.66117569 14.79248047 24.25537109 C17.99238638 29.6917872 21.24931335 35.09385738 24.5 40.5 C25.0978833 41.49862061 25.6957666 42.49724121 26.31176758 43.52612305 C29.70057206 49.18614276 33.1086522 54.8338858 36.5390625 60.46875 C36.92185364 61.09777222 37.30464478 61.72679443 37.69903564 62.37487793 C39.55663078 65.42657824 41.41634266 68.47695901 43.27929688 71.52539062 C46.98907275 77.61368309 50.6102999 83.72713001 54 90 C51 90 51 90 48.73828125 88.1015625 C47.93777344 87.28429687 47.13726562 86.46703125 46.3125 85.625 C45.10013672 84.40683594 45.10013672 84.40683594 43.86328125 83.1640625 C42 81 42 81 42 79 C41.11634766 78.62488281 41.11634766 78.62488281 40.21484375 78.2421875 C37.70690295 76.83561753 36.37575422 75.34445666 34.5625 73.125 C31.93646504 70.01224305 29.31099224 67.40799436 26 65 C26.33 65.66 26.66 66.32 27 67 C27.03999936 68.55686991 27.01183326 70.11575056 26.94921875 71.671875 C26.89217773 73.11868652 26.89217773 73.11868652 26.83398438 74.59472656 C26.78564453 75.6359668 26.73730469 76.67720703 26.6875 77.75 C26.64044922 78.81444336 26.59339844 79.87888672 26.54492188 80.97558594 C26.18886008 88.41551922 25.66908486 95.83185809 25 103.25 C24.91709717 104.17135742 24.83419434 105.09271484 24.7487793 106.04199219 C24.12780613 112.52838901 24.12780613 112.52838901 23.50927734 114.81079102 C22.77426019 117.97037818 22.59062852 121.15995393 22.3515625 124.38671875 C22.23398683 125.88331505 22.11622189 127.37989649 21.99829102 128.87646484 C21.93763458 129.66027527 21.87697815 130.44408569 21.81448364 131.25164795 C20.94044343 142.48761863 20.02254851 153.69752856 18.5625 164.875 C16.62078726 179.8754787 15.46911741 194.9560134 14.20500183 210.02532959 C13.88869283 213.76315784 13.56105845 217.49997056 13.23406982 221.23687744 C12.99836128 224.01934455 12.78569841 226.8029638 12.57470703 229.58740234 C12.42675009 231.3643115 12.27817637 233.14116943 12.12890625 234.91796875 C12.04732521 236.11707634 12.04732521 236.11707634 11.96409607 237.34040833 C11.36288963 244.11864566 9.43624726 249.7377704 4.375 254.4375 C0.68748982 256.86349354 -1.25464668 257.11992603 -5.6640625 257.09765625 C-6.78554688 257.09443359 -7.90703125 257.09121094 -9.0625 257.08789062 C-10.8259375 257.07532227 -10.8259375 257.07532227 -12.625 257.0625 C-13.80835938 257.05798828 -14.99171875 257.05347656 -16.2109375 257.04882812 C-19.14067507 257.03701467 -22.07031272 257.02054258 -25 257 C-21.90065027 260.27529535 -18.76638553 263.51504128 -15.625 266.75 C-14.75488281 267.67039062 -13.88476562 268.59078125 -12.98828125 269.5390625 C-8.018055 274.61973822 -3.89429602 278.0046627 2.87060547 280.27294922 C5.46902408 281.16014145 7.32292357 282.37289093 9.375 284.1875 C9.98085938 284.69667969 10.58671875 285.20585937 11.2109375 285.73046875 C16.30020998 292.18651092 17.70438777 298.86617922 17.5625 306.9375 C17.55226807 307.81486816 17.54203613 308.69223633 17.53149414 309.59619141 C17.24554802 318.31066284 15.06309746 324.40632518 8.625 330.4375 C2.20575416 335.73416837 -4.04814356 336.46124455 -12.0625 336.3125 C-12.93455078 336.31572266 -13.80660156 336.31894531 -14.70507812 336.32226562 C-19.52439766 336.28213503 -23.47828376 335.86363017 -28 334 C-27.0615625 334.92683594 -26.123125 335.85367187 -25.15625 336.80859375 C-23.93736979 338.01809796 -22.71862684 339.22774051 -21.5 340.4375 C-20.87996094 341.04916016 -20.25992188 341.66082031 -19.62109375 342.29101562 C-19.03457031 342.87431641 -18.44804687 343.45761719 -17.84375 344.05859375 C-17.29912109 344.59798584 -16.75449219 345.13737793 -16.19335938 345.69311523 C-15 347 -15 347 -15 348 C-40.19081362 348.07006197 -65.38161264 348.12297442 -90.57250404 348.15543652 C-102.26890951 348.17090944 -113.96525447 348.19200715 -125.66162109 348.22631836 C-135.85543971 348.25620762 -146.04921451 348.27557191 -156.24307573 348.28226548 C-161.64130921 348.28617853 -167.03941731 348.29538369 -172.43761063 348.31719017 C-177.51827843 348.33754775 -182.59876916 348.34383523 -187.67947388 348.33932304 C-189.54430478 348.34014857 -191.40914159 348.34611851 -193.27393723 348.35761642 C-195.82066985 348.37254916 -198.36673448 348.36895083 -200.91348267 348.36076355 C-201.65084959 348.36950207 -202.38821651 348.3782406 -203.14792788 348.38724393 C-207.83592856 348.34652691 -211.01841906 347.47061946 -215 345 C-218.79044318 340.79977918 -220.19653174 338.17779074 -220.4375 332.5625 C-220.49808594 331.59441406 -220.55867188 330.62632812 -220.62109375 329.62890625 C-219.67100265 324.07774502 -216.86680677 319.79413081 -214 315 C-213.1184021 313.51922974 -213.1184021 313.51922974 -212.21899414 312.00854492 C-210.26706525 308.76594446 -208.29219698 305.53821695 -206.3125 302.3125 C-204.80100432 299.83999007 -203.29241815 297.36571789 -201.78515625 294.890625 C-201.39617157 294.25189957 -201.00718689 293.61317413 -200.60641479 292.95509338 C-196.09211477 285.52779548 -191.6732853 278.04420982 -187.25 270.5625 C-181.59675007 261.00425504 -175.87723717 251.49976027 -169.98901367 242.08374023 C-165.06001901 234.16841384 -160.31052939 226.14958229 -155.5625 218.125 C-148.39058679 206.00559087 -141.13695754 193.94133388 -133.78955078 181.92724609 C-130.45720518 176.47638337 -127.13216734 171.02109054 -123.8125 165.5625 C-123.46192535 164.9862085 -123.11135071 164.40991699 -122.75015259 163.81616211 C-116.36198616 153.30810051 -110.08368541 142.73645663 -103.82168579 132.15286255 C-99.27463182 124.4705958 -94.69804272 116.81759204 -89.90869141 109.28320312 C-85.00148878 101.5063763 -80.37363629 93.55816138 -75.69189453 85.64453125 C-69.34796806 74.92351846 -62.92689757 64.25430521 -56.43774414 53.62060547 C-52.56769031 47.2702927 -48.74159074 40.89618039 -44.9609375 34.4921875 C-44.32378815 33.41387665 -44.32378815 33.41387665 -43.67376709 32.31378174 C-41.61214926 28.82314483 -39.55530347 25.32982909 -37.50585938 21.83203125 C-23.94550848 -1.22542938 -23.94550848 -1.22542938 -16.125 -4.875 C-9.27410513 -5.27799382 -5.48217991 -4.09014762 0 0 Z " fill="#C83C4C" transform="translate(268,91)"/>
<path d="M0 0 C1.1055189 0.93590504 2.20935453 1.87379858 3.3125 2.8125 C4.23482422 3.59560547 4.23482422 3.59560547 5.17578125 4.39453125 C8.51952278 7.3373102 8.51952278 7.3373102 10 9 C10 9.66 10 10.32 10 11 C10.99 11.33 11.98 11.66 13 12 C14.578125 13.6015625 14.578125 13.6015625 16.25 15.625 C18.67627944 18.47793451 21.13194857 21.25843466 23.75 23.9375 C24.30171875 24.50339844 24.8534375 25.06929687 25.421875 25.65234375 C27.07266736 27.2328861 27.07266736 27.2328861 30 28 C31.17236328 29.50512695 31.17236328 29.50512695 32.3203125 31.48828125 C32.76431396 32.24286621 33.20831543 32.99745117 33.66577148 33.77490234 C34.14731689 34.61230957 34.6288623 35.4497168 35.125 36.3125 C36.20066383 38.14521204 37.27755783 39.97720243 38.35546875 41.80859375 C38.9386084 42.80358887 39.52174805 43.79858398 40.12255859 44.82373047 C43.14674856 49.94007787 46.2481418 55.00915128 49.34402466 60.08227539 C54.85708849 69.1208013 60.32109654 78.18588457 65.6875 87.3125 C71.7210918 97.57156533 77.90044262 107.73769688 84.10498047 117.89404297 C87.516867 123.48616104 90.91402503 129.08722612 94.3125 134.6875 C95.03220824 135.87322076 95.75193487 137.05893035 96.47167969 138.24462891 C97.92340067 140.63619356 99.3750566 143.02779767 100.82666016 145.41943359 C104.03074083 150.69829518 107.23565795 155.97664893 110.44052124 161.2550354 C112.21038263 164.17000226 113.98018847 167.08500286 115.75 170 C116.45833307 171.16666683 117.1666664 172.33333349 117.875 173.5 C122.12499999 180.49999999 122.12499999 180.49999999 123.18748474 182.24998474 C123.89585726 183.41670936 124.60424145 184.58342689 125.31263733 185.75013733 C127.08296699 188.66585927 128.85309386 191.58170396 130.62280273 194.49780273 C134.17243208 200.34633102 137.72552539 206.19270929 141.28515625 212.03515625 C148.19353354 223.37769205 155.07608187 234.73548041 161.87057495 246.146698 C162.57408445 247.3275178 163.27875034 248.50764952 163.98464966 249.68704224 C164.96084711 251.31914205 165.9317096 252.95442924 166.90234375 254.58984375 C167.45398193 255.51659912 168.00562012 256.44335449 168.57397461 257.39819336 C171.41067994 262.57380861 172.87624758 267.05246954 172 273 C170.13589724 278.83591263 167.49525263 282.07699328 162 285 C158.62112639 286.1262912 156.13925826 286.10733753 152.57495117 286.08447266 C151.54965648 286.0809057 151.54965648 286.0809057 150.50364876 286.07726669 C148.96114173 286.07168855 147.41864158 286.06392994 145.87615395 286.05439377 C141.27733296 286.0264229 136.67847985 286.01518859 132.07958984 286.00488281 C130.48750623 286.00108266 130.48750623 286.00108266 128.86325932 285.99720573 C119.25540518 285.98339353 109.64894614 286.05060081 100.04150391 286.12792969 C84.54758188 286.25242385 69.05429388 286.31727272 53.5598774 286.33420944 C44.47553237 286.34604737 35.39269252 286.38518941 26.30883789 286.48339844 C18.25786151 286.57034399 10.20840552 286.60760247 2.1569621 286.58627188 C-2.06732599 286.57676303 -6.28829102 286.59071106 -10.51199913 286.66541672 C-39.29458599 287.14958791 -39.29458599 287.14958791 -47.33818531 279.88070107 C-49.91411157 277.07445811 -52.00294388 274.2457124 -54 271 C-53.34 270.67 -52.68 270.34 -52 270 C-51.33355469 270.30035156 -50.66710937 270.60070312 -49.98046875 270.91015625 C-41.77276947 273.91139884 -29.06431064 273.61098815 -21.125 270 C-15.19252696 266.3105468 -11.03115479 260.65818006 -9 254 C-7.96452087 244.73214017 -7.34233352 234.02738705 -12.4609375 225.90625 C-16.29527886 221.15711654 -19.71034259 218.32427402 -25.57421875 216.4765625 C-32.36165398 213.83821372 -36.70219839 208.95723015 -41.625 203.75 C-42.98818359 202.34621094 -42.98818359 202.34621094 -44.37890625 200.9140625 C-46.60031336 198.62250569 -48.80639612 196.31813161 -51 194 C-48.41485115 192.70742558 -46.65388706 192.95030894 -43.765625 193.04296875 C-42.71632812 193.06423828 -41.66703125 193.08550781 -40.5859375 193.10742188 C-38.37728095 193.16043998 -36.1688756 193.22537787 -33.9609375 193.30273438 C-29.27691361 193.38003795 -25.82605091 193.35520189 -21.484375 191.48828125 C-15.1853812 185.17938337 -14.24978666 177.92971081 -13.55078125 169.3359375 C-13.39635811 167.67143051 -13.39635811 167.67143051 -13.23881531 165.97329712 C-12.91493394 162.4417055 -12.61352513 158.90860535 -12.3125 155.375 C-12.09975598 153.02460801 -11.88557633 150.67434549 -11.66992188 148.32421875 C-10.84481013 139.23748928 -10.05552278 130.15046885 -9.44140625 121.046875 C-9.05095019 115.28798052 -8.37796104 109.59622101 -7.625 103.875 C-6.02433899 91.24213683 -4.98478147 78.57710215 -4.00244141 65.88427734 C-3.94268127 65.12612228 -3.88292114 64.36796722 -3.8213501 63.58683777 C-3.70915437 62.15927286 -3.59988837 60.73147352 -3.49407959 59.30342102 C-3.11140759 54.44055886 -3.11140759 54.44055886 -2.5065918 52.04882812 C-1.67793088 48.69744383 -1.51901916 45.26481788 -1.24609375 41.83203125 C-1.18092056 41.03778244 -1.11574738 40.24353363 -1.04859924 39.42521667 C-0.9116794 37.74511947 -0.77645997 36.06488294 -0.64282227 34.38452148 C-0.43958189 31.83857929 -0.22896513 29.29332404 -0.01757812 26.74804688 C0.11503176 25.10941123 0.24720684 23.47074032 0.37890625 21.83203125 C0.44139053 21.0817012 0.50387482 20.33137115 0.56825256 19.55830383 C1.44233272 9.69738531 1.44233272 9.69738531 0 0 Z " fill="#9D3136" transform="translate(293,154)"/>
<path d="M0 0 C1.55741913 -0.01441132 1.55741913 -0.01441132 3.14630127 -0.02911377 C4.82910187 -0.03548859 4.82910187 -0.03548859 6.54589844 -0.04199219 C7.70144226 -0.04769226 8.85698608 -0.05339233 10.04754639 -0.05926514 C12.4953927 -0.06871787 14.94325175 -0.0752502 17.39111328 -0.07910156 C21.12652977 -0.08879262 24.8613927 -0.11980833 28.59667969 -0.15136719 C30.97558267 -0.15789878 33.35448959 -0.16314864 35.73339844 -0.16699219 C36.84716858 -0.17933899 37.96093872 -0.19168579 39.10845947 -0.20440674 C45.80619495 -0.18527952 51.40094923 0.07324175 56.64746094 4.69628906 C59.69531126 8.80563208 61.05883227 10.75465433 60.85449219 15.83300781 C60.79745117 17.27981934 60.79745117 17.27981934 60.73925781 18.75585938 C60.69091797 19.79709961 60.64257812 20.83833984 60.59277344 21.91113281 C60.54572266 22.97557617 60.49867188 24.04001953 60.45019531 25.13671875 C60.09413351 32.57665204 59.57435829 39.9929909 58.90527344 47.41113281 C58.78091919 48.79316895 58.78091919 48.79316895 58.65405273 50.203125 C58.03307957 56.68952183 58.03307957 56.68952183 57.41455078 58.97192383 C56.67953363 62.131511 56.49590196 65.32108674 56.25683594 68.54785156 C56.13926027 70.04444786 56.02149533 71.5410293 55.90356445 73.03759766 C55.84290802 73.82140808 55.78225159 74.60521851 55.71975708 75.41278076 C54.84571686 86.64875144 53.92782195 97.85866137 52.46777344 109.03613281 C50.5260607 124.03661151 49.37439085 139.11714621 48.11027527 154.1864624 C47.79396627 157.92429065 47.46633189 161.66110338 47.13934326 165.39801025 C46.90363472 168.18047737 46.69097185 170.96409661 46.47998047 173.74853516 C46.33202352 175.52544431 46.18344981 177.30230224 46.03417969 179.07910156 C45.95259865 180.27820915 45.95259865 180.27820915 45.86936951 181.50154114 C45.26816307 188.27977847 43.3415207 193.89890321 38.28027344 198.59863281 C33.09091632 202.01268355 28.24488038 201.42015266 22.15527344 201.47363281 C21.06988281 201.50263672 19.98449219 201.53164063 18.86621094 201.56152344 C12.55833668 201.61164713 8.64589657 201.4891894 3.90527344 197.16113281 C-0.29208286 191.60247177 -1.29099562 187.10543463 -1.85644531 180.31738281 C-2.00398141 178.63060757 -2.15161014 176.94384043 -2.29931641 175.25708008 C-2.37736511 174.35095978 -2.45541382 173.44483948 -2.53582764 172.51126099 C-4.1738502 153.56404261 -6.02659792 134.64172877 -7.96972656 115.72363281 C-8.22287144 113.25017645 -8.47588153 110.77670629 -8.72875977 108.30322266 C-8.85563675 107.06237915 -8.98251373 105.82153564 -9.11323547 104.54309082 C-9.24119003 103.29169312 -9.36914459 102.04029541 -9.50097656 100.75097656 C-9.62977707 99.49184448 -9.75857758 98.2327124 -9.89128113 96.9354248 C-10.29268047 93.01068641 -10.69380117 89.08591964 -11.09472656 85.16113281 C-11.16427551 84.4805204 -11.23382446 83.79990799 -11.30548096 83.09867096 C-12.16463421 74.68844084 -13.01862734 66.27772369 -13.85991096 57.86568546 C-14.19434907 54.52273074 -14.5316961 51.18013816 -14.87347412 47.83792114 C-15.2527718 44.12592757 -15.62388624 40.41319727 -15.99316406 36.70019531 C-16.10535278 35.6203688 -16.2175415 34.5405423 -16.33312988 33.42799377 C-18.26922665 13.640633 -18.26922665 13.640633 -15.40722656 7.59863281 C-10.56218607 2.49169824 -7.09614109 0.05302515 0 0 Z " fill="#FBD751" transform="translate(234.0947265625,146.8388671875)"/>
<path d="M0 0 C0.89912109 -0.01998047 1.79824219 -0.03996094 2.72460938 -0.06054688 C10.14819719 -0.05517913 16.19064052 1.56296297 21.9921875 6.33203125 C22.76949219 7.28142578 22.76949219 7.28142578 23.5625 8.25 C24.09617187 8.87519531 24.62984375 9.50039063 25.1796875 10.14453125 C29.3572862 16.49751166 30.2431435 21.77123211 30.1875 29.25 C30.18177979 30.1363916 30.17605957 31.0227832 30.17016602 31.93603516 C29.95538606 39.79683672 28.39063666 45.34733718 23.04296875 51.25390625 C16.42080104 57.45751709 9.70389298 59.00318869 0.875 58.9375 C-0.4545874 58.92891968 -0.4545874 58.92891968 -1.81103516 58.92016602 C-10.56278107 58.68104288 -16.64233173 56.541731 -22.75 50.125 C-27.88588868 44.03858863 -28.87343891 36.71689032 -28.8125 29.0625 C-28.80677979 28.22759033 -28.80105957 27.39268066 -28.79516602 26.5324707 C-28.57362577 18.87851616 -26.89876011 13.32400515 -21.6328125 7.6171875 C-14.95839643 1.47672471 -8.88233256 -0.06914767 0 0 Z " fill="#FCD95F" transform="translate(255.3125,368.5625)"/>
<path d="M0 0 C35.32112811 -0.02296777 70.6422547 -0.0405495 105.96338873 -0.05106533 C110.1482813 -0.0523158 114.33317386 -0.05361015 118.51806641 -0.05493164 C119.35108447 -0.05519395 120.18410252 -0.05545626 121.04236355 -0.05572652 C134.47059179 -0.0600592 147.89881568 -0.06793333 161.32704136 -0.0771528 C175.14044788 -0.0865565 188.95385215 -0.09206972 202.76726174 -0.09408849 C211.2675658 -0.09544988 219.76785755 -0.09972432 228.26815781 -0.10791647 C234.12399745 -0.11326711 239.97983087 -0.11478574 245.83567277 -0.11350138 C249.1970469 -0.11287076 252.55838293 -0.11430155 255.91975594 -0.11920547 C271.5595551 -0.14087389 287.15337478 0.13105962 302.78059483 0.77260494 C312.334682 1.1521808 321.88911415 1.1442212 331.44921875 1.1328125 C333.475403 1.13374688 335.50158712 1.13499683 337.527771 1.13653564 C342.83035735 1.13897589 348.13291502 1.13449854 353.43549728 1.1281662 C356.71384657 1.12497435 359.99218759 1.12427555 363.27053833 1.12432861 C389.95069835 1.12323534 416.62188494 1.08276357 443.28979492 0.18017578 C444.61143646 0.1402652 444.61143646 0.1402652 445.95977783 0.09954834 C447.53728301 0.05101391 449.11456605 -0.00599871 450.69134521 -0.07415771 C454.41170196 -0.18639294 455.80240365 -0.1317309 459 2 C454.3990688 2.89937345 449.95389539 3.14143848 445.28189087 3.12584114 C444.13961552 3.1280213 444.13961552 3.1280213 442.97426391 3.13024551 C440.4198342 3.13389797 437.86546444 3.13042256 435.31103516 3.12698364 C433.4622221 3.12813576 431.61340928 3.12972389 429.76459694 3.13171089 C424.68182546 3.13589179 419.59907271 3.13381908 414.51630116 3.13072467 C409.03566675 3.12846577 403.55503561 3.13195263 398.07440186 3.13470459 C387.33689132 3.139156 376.59938777 3.1381886 365.86187696 3.13529195 C357.13686026 3.13303546 348.41184552 3.13272646 339.68682861 3.13381577 C337.82560378 3.13404561 337.82560378 3.13404561 335.92677844 3.13428011 C333.40624603 3.13459983 330.88571362 3.13492404 328.36518121 3.1352527 C305.39307344 3.13802429 282.42096876 3.13514788 259.44886175 3.1299101 C238.47567142 3.12516446 217.50248715 3.12558908 196.52929688 3.13037109 C172.96862157 3.1357251 149.40794885 3.13783098 125.84727287 3.13475883 C123.33590571 3.13444027 120.82453855 3.1341259 118.31317139 3.13381577 C117.07746419 3.13366149 115.84175699 3.13350721 114.56860411 3.13334826 C105.85198932 3.13248409 97.13537667 3.13394384 88.41876221 3.13629532 C77.79912626 3.13909714 67.17949771 3.13834694 56.55986261 3.13301457 C51.13946024 3.13038275 45.7190702 3.12936377 40.29866791 3.13266373 C35.33945132 3.1356373 30.38025853 3.13401606 25.42104411 3.12868617 C23.62435897 3.12756655 21.82767184 3.12814316 20.03098798 3.13056196 C17.5933329 3.13359264 15.15575989 3.13049367 12.71810913 3.12584114 C12.01683954 3.12818231 11.31556995 3.13052347 10.59304976 3.13293558 C6.62693146 3.11775597 2.89212013 2.76081762 -1 2 C-0.67 1.34 -0.34 0.68 0 0 Z " fill="#9D3237" transform="translate(27,472)"/>
<path d="M0 0 C0.81808262 0.00085602 1.63616524 0.00171204 2.47903824 0.00259399 C12.23605137 0.01359634 21.99302432 0.03303424 31.75 0.0625 C31.75 0.7225 31.75 1.3825 31.75 2.0625 C21.04184943 2.24169662 10.33351853 2.40695142 -0.375 2.5625 C-1.19217625 2.57437725 -2.00935249 2.5862545 -2.85129166 2.59849167 C-32.21388256 3.02100645 -61.57205324 3.15126018 -90.9375 3.125 C-91.90167091 3.12414398 -92.86584183 3.12328796 -93.85923004 3.12240601 C-105.65617324 3.11114262 -117.45308659 3.09125976 -129.25 3.0625 C-129.25 3.7225 -129.25 4.3825 -129.25 5.0625 C-130.9 4.7325 -132.55 4.4025 -134.25 4.0625 C-134.58 3.0725 -134.91 2.0825 -135.25 1.0625 C-121.4792638 0.88753617 -107.70843028 0.72146074 -93.9375 0.5625 C-92.90899429 0.55062275 -91.88048859 0.5387455 -90.82081604 0.52650833 C-60.54667385 0.17932372 -30.27619089 -0.03191587 0 0 Z " fill="#B43943" transform="translate(152.25,466.9375)"/>
<path d="M0 0 C0.66 0.33 1.32 0.66 2 1 C-1.72037577 6.61463303 -4.89717081 10.07064199 -11 13 C-9.46356148 9.31930113 -7.21849055 7.01224796 -4.375 4.25 C-3.55773437 3.45078125 -2.74046875 2.6515625 -1.8984375 1.828125 C-0.95871094 0.92320312 -0.95871094 0.92320312 0 0 Z " fill="#F8C450" transform="translate(281,412)"/>
<path d="M0 0 C2.64 0.33 5.28 0.66 8 1 C8 1.66 8 2.32 8 3 C10.97 3.495 10.97 3.495 14 4 C14 4.33 14 4.66 14 5 C8.67061191 4.66328485 4.37173367 4.384568 0 1 C0 0.67 0 0.34 0 0 Z " fill="#F29E3B" transform="translate(238,422)"/>
</svg>
