<svg width="640" height="640" viewBox="0 0 640 640" fill="none" xmlns="http://www.w3.org/2000/svg">
<g clip-path="url(#clip0_103_261)">
<path d="M320 640C496.731 640 640 496.731 640 320C640 143.269 496.731 0 320 0C143.269 0 0 143.269 0 320C0 496.731 143.269 640 320 640Z" fill="white"/>
<path d="M66.1497 125.178C41.0134 157.881 22.0597 195.575 11.0234 236.524H177.496L66.1497 125.178Z" fill="#032EA1"/>
<path d="M628.976 236.524C617.94 195.576 598.985 157.882 573.85 125.179L462.506 236.524H628.976Z" fill="#032EA1"/>
<path d="M11.0234 403.48C22.0609 444.427 41.0147 482.121 66.1497 514.824L177.492 403.48H11.0234Z" fill="#032EA1"/>
<path d="M514.822 66.1514C482.118 41.0152 444.425 22.0614 403.477 11.0239V177.495L514.822 66.1514Z" fill="#032EA1"/>
<path d="M125.178 573.849C157.881 598.985 195.575 617.939 236.523 628.976V462.506L125.178 573.849Z" fill="#032EA1"/>
<path d="M236.521 11.0239C195.574 22.0614 157.88 41.0152 125.178 66.1502L236.521 177.494V11.0239Z" fill="#032EA1"/>
<path d="M403.479 628.976C444.426 617.939 482.12 598.985 514.822 573.85L403.479 462.506V628.976Z" fill="#032EA1"/>
<path d="M462.506 403.48L573.85 514.825C598.985 482.122 617.94 444.427 628.976 403.48H462.506Z" fill="#032EA1"/>
<path d="M637.291 278.261H361.741H361.74V2.70875C348.076 0.93 334.146 0 320 0C305.851 0 291.924 0.93 278.261 2.70875V278.259V278.26H2.70875C0.93 291.924 0 305.854 0 320C0 334.149 0.93 348.076 2.70875 361.739H278.259H278.26V637.291C291.924 639.07 305.851 640 320 640C334.146 640 348.076 639.071 361.739 637.291V361.741V361.74H637.291C639.07 348.076 640 334.149 640 320C640 305.854 639.07 291.924 637.291 278.261Z" fill="#E00025"/>
<path d="M403.479 403.48L546.274 546.275C552.841 539.71 559.106 532.846 565.084 525.731L442.831 403.479H403.479V403.48Z" fill="#E00025"/>
<path d="M236.521 403.48H236.518L93.7246 546.274C100.29 552.841 107.153 559.106 114.268 565.084L236.521 442.829V403.48Z" fill="#E00025"/>
<path d="M236.521 236.524V236.521L93.726 93.7251C87.1585 100.29 80.8935 107.154 74.916 114.269L197.17 236.523L236.521 236.524Z" fill="#E00025"/>
<path d="M403.479 236.524L546.275 93.7262C539.71 87.1587 532.846 80.8937 525.731 74.9175L403.479 197.171V236.524Z" fill="#E00025"/>
</g>
<defs>
<clipPath id="clip0_103_261">
<rect width="640" height="640" fill="white"/>
</clipPath>
</defs>
</svg>
