<?xml version="1.0" encoding="UTF-8"?>
<svg version="1.1" xmlns="http://www.w3.org/2000/svg" width="512" height="512">
<path d="M0 0 C1.01790619 0.00215515 2.03581238 0.0043103 3.08456421 0.00653076 C17.69363523 0.05620146 32.02575853 0.30709809 46.375 3.3125 C47.34985352 3.51117676 48.32470703 3.70985352 49.32910156 3.91455078 C97.7109774 14.03517194 141.69928269 35.9516877 177.375 70.3125 C178.3640332 71.26068604 178.3640332 71.26068604 179.37304688 72.22802734 C188.86130305 81.37247479 197.6012044 90.66984009 205.375 101.3125 C206.23306152 102.46355017 207.09113451 103.61459177 207.94921875 104.765625 C213.98736829 112.95680614 219.34595521 121.47054105 224.375 130.3125 C224.73948242 130.94430176 225.10396484 131.57610352 225.47949219 132.22705078 C247.08534998 169.97532572 256.85198095 212.74189997 256.6875 255.9375 C256.68534485 256.95540619 256.6831897 257.97331238 256.68096924 259.02206421 C256.63129854 273.63113523 256.38040191 287.96325853 253.375 302.3125 C253.07698486 303.77478027 253.07698486 303.77478027 252.77294922 305.26660156 C242.65232806 353.6484774 220.7358123 397.63678269 186.375 433.3125 C185.74287598 433.97185547 185.11075195 434.63121094 184.45947266 435.31054688 C175.31502521 444.79880305 166.01765991 453.5387044 155.375 461.3125 C154.22394983 462.17056152 153.07290823 463.02863451 151.921875 463.88671875 C143.73224019 469.92427396 135.22961724 475.30707302 126.375 480.3125 C125.66778809 480.7146875 124.96057617 481.116875 124.23193359 481.53125 C101.09654164 494.5566741 75.92537591 503.30551461 49.9375 508.625 C49.21860596 508.77235596 48.49971191 508.91971191 47.7590332 509.0715332 C33.08339502 511.86090125 18.55831162 512.66142619 3.64770508 512.62817383 C0.70811513 512.6250221 -2.2304558 512.64854926 -5.16992188 512.67382812 C-18.54306192 512.71848737 -31.43916711 511.51301542 -44.625 509.3125 C-46.33055054 509.03031616 -46.33055054 509.03031616 -48.07055664 508.74243164 C-91.33802759 500.97044532 -132.38793216 480.98345309 -165.625 452.3125 C-166.37007813 451.67828125 -167.11515625 451.0440625 -167.8828125 450.390625 C-181.38779833 438.57948485 -194.05918743 425.82889772 -204.625 411.3125 C-205.48149066 410.16255169 -206.33826433 409.01281411 -207.1953125 407.86328125 C-213.23534209 399.67315742 -218.61867614 391.16870382 -223.625 382.3125 C-224.0271875 381.60528809 -224.429375 380.89807617 -224.84375 380.16943359 C-237.8691741 357.03404164 -246.61801461 331.86287591 -251.9375 305.875 C-252.08485596 305.15610596 -252.23221191 304.43721191 -252.3840332 303.6965332 C-255.35789088 288.05024391 -255.99800362 272.57681954 -255.9375 256.6875 C-255.93534485 255.66959381 -255.9331897 254.65168762 -255.93096924 253.60293579 C-255.88129854 238.99386477 -255.63040191 224.66174147 -252.625 210.3125 C-252.42632324 209.33764648 -252.22764648 208.36279297 -252.02294922 207.35839844 C-241.90232806 158.9765226 -219.9858123 114.98821731 -185.625 79.3125 C-184.99287598 78.65314453 -184.36075195 77.99378906 -183.70947266 77.31445312 C-174.56502521 67.82619695 -165.26765991 59.0862956 -154.625 51.3125 C-153.47394983 50.45443848 -152.32290823 49.59636549 -151.171875 48.73828125 C-142.98224019 42.70072604 -134.47961724 37.31792698 -125.625 32.3125 C-124.91778809 31.9103125 -124.21057617 31.508125 -123.48193359 31.09375 C-100.34654164 18.0683259 -75.17537591 9.31948539 -49.1875 4 C-48.46860596 3.85264404 -47.74971191 3.70528809 -47.0090332 3.5534668 C-31.36274391 0.57960912 -15.88931954 -0.06050362 0 0 Z " fill="#178FEB" transform="translate(255.625,-0.3125)"/>
<path d="M0 0 C7.30306049 -0.59001386 13.13396692 2.24715778 19.11328125 6.26171875 C24.07800191 11.08295037 26.71123988 16.49374965 27.44921875 23.41015625 C27.46210938 24.47492188 27.475 25.5396875 27.48828125 26.63671875 C27.51664062 27.69632813 27.545 28.7559375 27.57421875 29.84765625 C26.493972 37.84880588 21.77960187 43.18189703 16.20773315 48.68865967 C15.16575891 49.74211055 15.16575891 49.74211055 14.10273468 50.81684327 C11.7847665 53.15536282 9.45284437 55.47943017 7.12060547 57.80371094 C5.4507176 59.48229774 3.78166619 61.16171702 2.11338806 62.84190369 C-2.41248507 67.39452781 -6.95105554 71.93428792 -11.49285364 76.47101879 C-14.33151041 79.30710506 -17.16624213 82.14709134 -19.99996567 84.98810577 C-20.47112325 85.46045374 -20.94228083 85.9328017 -21.42771592 86.41946323 C-22.38502179 87.37919272 -23.34232533 88.33892454 -24.29962657 89.29865864 C-33.2674779 98.28823738 -42.2483005 107.26476964 -51.23312102 116.2373834 C-59.44248215 124.43640695 -67.63529969 132.6517366 -75.82045759 140.8749164 C-84.2368382 149.3300909 -92.66432537 157.77404658 -101.10387981 166.20609212 C-105.83717019 170.93556418 -110.56571232 175.66955246 -115.28317642 180.41481781 C-119.72019984 184.87700938 -124.17152508 189.32442401 -128.63416862 193.76098824 C-130.26711881 195.3892104 -131.8949951 197.02253995 -133.51730156 198.66136742 C-135.73764351 200.90267803 -137.97580537 203.12457941 -140.2192688 205.3427124 C-140.85276406 205.99095624 -141.48625933 206.63920007 -142.13895142 207.30708766 C-147.9620241 212.99326937 -154.61240688 216.15909734 -162.76171875 216.88671875 C-173.64179266 216.37514669 -182.19540066 208.8361328 -189.44726562 201.42993164 C-190.32041412 200.56247818 -191.19356262 199.69502472 -192.09317017 198.80128479 C-194.45523457 196.44834655 -196.80327025 194.0829986 -199.14533806 191.71025777 C-201.61313912 189.21583376 -204.09702128 186.73751064 -206.57873535 184.25694275 C-210.73760448 180.09527739 -214.88476932 175.92223904 -219.02441406 171.74145508 C-223.79854165 166.92005669 -228.58826464 162.11461476 -233.38717985 157.31789595 C-238.51967401 152.18743295 -243.64066589 147.04560517 -248.75835609 141.9003799 C-250.22499152 140.42737601 -251.69372421 138.95649181 -253.16294861 137.48607063 C-255.90480802 134.74061874 -258.63371156 131.98250632 -261.36132812 129.22290039 C-262.16966095 128.41592712 -262.97799377 127.60895386 -263.81082153 126.77752686 C-270.9903085 119.4748075 -274.96488841 113.42091919 -275.19921875 103.01171875 C-275.10073807 95.66670142 -273.87143252 91.38564492 -268.79296875 86.0703125 C-261.48272853 79.25960536 -256.30628541 77.76350411 -246.3203125 77.9609375 C-231.89902033 79.22423613 -220.00468534 96.00710391 -210.34765625 105.703125 C-208.97211346 107.08053706 -207.59634661 108.45772541 -206.22036743 109.83470154 C-202.63109155 113.42776256 -199.04483112 117.02381824 -195.45922852 120.62054443 C-191.78716489 124.3029091 -188.11220457 127.98238049 -184.4375 131.66210938 C-177.25109698 138.85917895 -170.06788197 146.05942121 -162.88671875 153.26171875 C-158.28803085 149.41641255 -153.9192291 145.43396287 -149.70117188 141.17623901 C-149.12026543 140.59407029 -148.53935898 140.01190157 -147.9408493 139.41209137 C-146.01415681 137.48006384 -144.09108468 135.54447381 -142.16796875 133.60888672 C-140.77953656 132.21525596 -139.39085813 130.82187048 -138.00195312 129.42871094 C-135.02087989 126.43772812 -132.04127862 123.44528938 -129.06274414 120.45177841 C-124.3507884 115.71668961 -119.63389411 110.98654144 -114.91601562 106.25735474 C-101.5041378 92.81209847 -88.09645429 79.36267944 -74.69921875 65.90283203 C-67.29282039 58.46190302 -59.8810696 51.02634949 -52.4633255 43.59673035 C-47.77351935 38.8988326 -43.09035733 34.19444187 -38.41197205 29.48517203 C-35.4992576 26.55643664 -32.58025363 23.63403405 -29.65942383 20.71339417 C-28.30838489 19.35993635 -26.95991822 18.00390513 -25.61425781 16.64509964 C-23.77382209 14.78744123 -21.92428659 12.9393295 -20.07226562 11.0932312 C-19.5449157 10.55646063 -19.01756577 10.01969005 -18.47423553 9.4666537 C-13.02580374 4.07609698 -7.62892117 1.05825615 0 0 Z " fill="#FDFEFE" transform="translate(379.88671875,147.73828125)"/>
</svg>
