<svg width="179" height="137" viewBox="0 0 179 137" fill="none" xmlns="http://www.w3.org/2000/svg">
<path d="M173.449 96.0475V96.064C173.449 96.064 173.432 96.0475 173.422 96.0376C173.422 96.0376 173.406 96.0178 173.399 96.0112C173.373 95.9848 173.35 95.9584 173.327 95.9287C173.231 95.8197 173.155 95.7075 173.089 95.5886C173.066 95.549 173.047 95.5127 173.027 95.4697C172.77 94.9448 172.737 94.3505 172.76 93.743V93.7231L172.783 93.7529C173.297 94.433 173.403 95.2287 173.449 96.0475Z" fill="#176BB4"/>
<path d="M173.769 97.3848L173.762 97.3782H173.759C173.759 97.3782 173.739 97.3649 173.729 97.355C173.248 97.015 173.452 96.4966 173.422 96.0377V96.0278C173.422 96.0278 173.439 96.041 173.449 96.0476C173.93 96.3976 173.647 96.9423 173.769 97.3848Z" fill="#176BB4"/>
<path d="M172.783 93.7529C172.783 93.7529 172.767 93.7463 172.76 93.743C172.701 93.7199 172.651 93.6902 172.612 93.6572C172.598 93.644 172.589 93.6341 172.579 93.6242C172.565 93.6109 172.556 93.601 172.546 93.5878C172.536 93.5746 172.526 93.5614 172.519 93.5482C172.486 93.4954 172.467 93.4393 172.453 93.3765C172.447 93.3534 172.443 93.327 172.44 93.3039C172.43 93.228 172.427 93.1454 172.427 93.0629C172.803 93.1586 172.73 93.4888 172.783 93.7529Z" fill="#176BB4"/>
<path d="M173.999 97.6819C173.913 97.573 173.824 97.464 173.739 97.3517C173.824 97.4607 173.913 97.5697 173.999 97.6819Z" fill="#176BB4"/>
<path d="M178.051 128.421C178.051 128.437 178.051 128.444 178.051 128.454L178.077 128.414C178.077 128.414 178.06 128.421 178.054 128.421H178.051ZM173.759 97.3748L173.762 97.3781H173.759V97.3748ZM173.422 96.0277V96.0376C173.422 96.0376 173.439 96.0542 173.449 96.0641L173.422 96.0277ZM172.76 93.7232V93.743C172.76 93.743 172.776 93.7496 172.783 93.7529L172.76 93.7232ZM89.0137 73.9428C89.0137 73.9428 89.0269 73.9395 89.0334 73.9395V73.923C89.0334 73.923 89.0203 73.9362 89.0137 73.9428Z" fill="#287DBF"/>
<path d="M178.802 119.476C178.252 114.161 177.332 109.013 175.872 103.84C175.611 102.912 175.341 101.991 175.071 101.066C173.449 95.5589 171.939 90.1111 169.77 84.7987C168.817 82.4644 167.585 80.2919 166.042 78.2911C160.54 71.1661 152.282 68.5511 144.391 64.9655C141.717 64.15 139.229 62.9416 136.885 61.4261C136.875 62.2548 136.694 63.0472 136.436 63.833C135.088 67.9502 133.664 72.0377 131.63 75.8842C130.289 78.7864 128.94 81.6885 127.605 84.594C125.186 89.8536 122.779 95.1198 120.353 100.376C119.433 102.37 118.336 104.275 117.617 106.369C117.475 106.352 117.337 106.336 117.198 106.322C116.605 103.843 115.906 101.383 115.441 98.8771C114.584 94.2812 113.665 89.6786 113.17 85.0331C113.002 83.4549 112.725 81.8899 112.557 80.3117C112.356 78.4166 112.676 76.4818 112.214 74.6196C112.063 74.6824 112.076 74.897 112.102 75.0588C112.168 75.4649 111.855 75.587 111.71 75.1875C111.621 74.9399 111.812 74.5272 111.838 74.273C111.951 73.1702 111.842 71.9981 111.845 70.8887C111.845 68.6304 111.845 66.3753 111.845 64.117C111.845 64.084 111.908 64.0311 111.947 64.0245C111.997 64.0146 112.053 64.0476 112.105 64.0609C112.554 63.8033 112.372 63.3741 112.392 63.001C110.161 64.1797 107.906 65.3056 105.493 66.0716C105.391 66.0452 105.292 66.0518 105.193 66.098C103.97 66.8706 102.308 67.2635 100.95 67.7488C99.3251 68.3332 97.7198 68.9771 96.1441 69.6836C93.4377 70.8953 90.7874 72.3085 88.4864 74.197C86.0603 76.1846 84.5835 78.6609 82.7869 81.1669C82.7869 62.9746 82.7902 45.0597 82.7869 27.1414C82.7869 23.9718 81.4881 22.1889 78.4818 21.205C78.0829 21.6243 77.5653 21.4725 77.0939 21.4758C72.5284 21.4824 67.9628 21.4758 63.4005 21.4725C63.4137 23.2455 63.4302 25.0152 63.4467 26.7882C67.0431 26.7882 70.6395 26.7981 74.2359 26.7783C75.304 26.775 76.1775 27.0259 76.583 28.1319C76.6588 28.1286 76.7379 28.1253 76.8138 28.1286C77.4104 28.5876 77.1632 29.2446 77.1632 29.8125C77.1764 62.3308 77.1764 94.8523 77.1632 127.374C77.1632 127.935 77.4401 128.602 76.7874 129.031C76.7149 129.031 76.6456 129.031 76.5731 129.031C76.3753 129.546 76.0292 129.916 75.5084 130.118V130.352C75.1062 130.913 74.5095 130.702 73.992 130.705C52.1069 130.712 30.2252 130.712 8.3401 130.709C8.01705 130.709 7.69399 130.682 7.37094 130.656C7.33798 130.656 7.28853 130.59 7.28194 130.547C7.27535 130.497 7.31161 130.444 7.32809 130.392C7.31161 130.322 7.30172 130.253 7.30172 130.184C6.65562 130.028 6.23367 129.612 5.96007 129.025C5.88755 129.025 5.81502 129.025 5.7458 129.031C5.18211 128.714 5.36341 128.166 5.36012 127.701C5.35352 94.8424 5.36012 61.9841 5.36012 29.1291C5.36012 28.9111 5.38319 28.6965 5.40626 28.4819C5.40956 28.4456 5.47219 28.3961 5.51175 28.3862C5.5612 28.3796 5.61724 28.4093 5.66998 28.4258C5.73921 28.4126 5.80843 28.406 5.87436 28.406C6.204 27.1348 7.07426 26.7551 8.32032 26.7717C11.8178 26.8179 15.3187 26.7948 18.8195 26.7981C18.8524 25.2628 18.8854 23.7275 18.9184 22.1889C18.8821 21.9479 18.8426 21.7069 18.8063 21.4692C13.7726 21.4758 8.73897 21.4824 3.70201 21.489C1.84941 22.2219 0.642909 23.5393 0.115479 25.4708C0.646205 26.0981 0.389083 26.8476 0.389083 27.531C0.405565 61.7827 0.405565 96.031 0.395676 130.279C0.395676 130.86 0.606648 131.498 0.125368 132.013C0.527534 134.099 1.64503 135.602 3.66245 136.374C4.5426 135.859 5.43593 136.374 6.31938 136.374C29.7274 136.331 53.1354 136.338 76.5434 136.351C77.1797 136.351 77.862 136.137 78.4554 136.576C81.409 135.552 82.7539 133.34 82.7935 129.437C84.5109 128.635 86.3273 129.193 88.0909 129.084C89.0963 129.021 89.5479 129.071 89.4358 127.694C88.7765 119.78 87.9854 111.856 88.4172 103.906C88.6743 99.1148 89.3501 94.3571 90.2797 89.6456C90.4083 88.9886 90.7544 88.6782 91.4269 88.8136C92.1257 88.9522 92.0532 89.5102 91.9675 89.9857C91.15 94.4396 90.4248 98.9233 90.138 103.433C89.9138 106.92 89.8149 110.443 90.2863 113.946C90.5764 116.112 90.3325 118.311 90.6423 120.503C90.9753 122.821 91.0115 125.195 90.9983 127.546C90.9884 128.833 91.4434 129.094 92.6235 129.084C99.0977 129.035 105.575 129.054 112.053 129.071C112.626 129.071 113.269 128.83 113.76 129.368C113.866 129.398 113.971 129.428 114.077 129.457C115.062 127.876 116.048 126.298 117.034 124.716C115.764 123.197 116.664 121.873 117.409 120.536C117.027 120.285 117.053 119.892 117.053 119.509C117.053 115.735 117.044 111.958 117.057 108.185C117.057 107.795 116.849 107.148 117.489 107.148C118.003 107.148 118.059 107.729 118.056 108.178C118.023 111.074 118.54 113.946 118.382 116.848C118.349 117.419 118.174 118.07 118.728 118.539C119.826 117.264 121.214 116.478 122.802 115.953C123.554 115.702 124.233 115.224 124.945 114.847C129.461 109.419 133.928 103.965 138.418 98.5139C139.364 97.3649 142.591 94.3043 142.779 97.5069C142.845 98.6526 142.489 99.6299 141.767 100.498C141.8 100.921 141.833 101.347 141.467 101.667C138.266 105.517 135.068 109.367 131.871 113.216C134.02 113.055 135.869 113.946 137.676 114.933C139.377 115.861 141.048 116.842 142.733 117.802C143.227 116.587 144.355 116.399 145.426 116.214C148.221 115.739 151.023 115.293 153.832 114.907C154.63 114.798 154.972 114.738 154.761 113.738C153.529 107.91 152.388 102.063 151.221 96.2225C151.036 95.3146 150.816 94.4099 150.707 93.4887C150.651 93.01 150.374 92.2638 151.208 92.1747C151.844 92.1053 151.913 92.7062 152.015 93.2048C152.77 96.8433 153.561 100.475 154.293 104.117C154.897 107.118 155.434 110.129 155.991 113.137C156.172 114.114 156.565 114.616 157.722 114.583C159.966 114.527 162.185 114.048 164.44 114.207C165.267 114.266 166.348 114.164 166.312 115.25C166.286 116.118 165.251 116.221 164.473 116.201C159.149 116.046 153.891 116.703 148.653 117.535C147.308 117.746 145.94 117.891 144.701 118.542C147.417 122.405 147.872 126.674 147.094 131.214C146.827 132.772 145.521 133.489 144.747 134.624C144.615 134.816 147.245 135.539 147.506 135.549C149.906 135.625 152.348 135.252 154.758 135.245C157.293 135.239 159.835 135.367 162.37 135.308C166.5 135.209 171.026 134.945 174.53 132.492C178.295 129.86 179.323 125.013 178.921 120.678C178.885 120.279 178.845 119.879 178.802 119.48V119.476ZM115.214 108.168C114.66 108.429 114.42 107.98 114.202 107.607C113.098 105.715 111.957 103.843 110.922 101.915C108.674 97.7215 106.548 93.459 104.23 89.3055C103.373 87.7669 103.709 86.6609 104.718 85.4789C105.969 84.0151 105.806 82.7539 104.23 81.6951C103.729 81.3584 103.278 80.9324 102.74 80.6815C101.837 80.2523 101.741 79.5325 101.999 78.7533C103.093 75.488 104.227 72.2358 105.374 68.987C105.483 68.6799 105.44 68.079 105.994 68.188C106.521 68.2903 106.521 68.8087 106.501 69.5648C106.231 70.377 105.862 71.4599 105.516 72.5495C104.936 74.3753 104.451 76.2375 103.765 78.0204C103.367 79.0604 103.772 79.5424 104.54 80.0245C105.466 80.6056 106.38 81.2065 107.279 81.8272C108.275 82.514 108.41 83.379 107.728 84.3728C107.451 84.7789 107.25 85.3006 106.871 85.5647C105.054 86.8292 105.463 88.1532 106.35 89.8569C109.178 95.3014 112.007 100.746 115.112 106.042C115.28 106.326 115.422 106.626 115.563 106.92C115.814 107.438 115.778 107.904 115.214 108.168ZM144.2 80.2655C142.37 81.0018 140.564 81.7876 138.76 82.58C138.157 82.8474 137.481 83.0818 138.134 84.003C138.952 85.1586 140.155 86.3373 140.283 87.6018C140.415 88.9027 138.688 89.6621 137.791 90.6691C133.035 96.0145 128.242 101.334 123.462 106.659C123.241 106.907 123.013 107.148 122.766 107.362C122.413 107.673 122.028 108.244 121.533 107.775C121.032 107.296 121.583 106.89 121.896 106.54C123.946 104.265 126.178 102.129 128.024 99.6992C131.136 95.5952 135.128 92.2704 138.088 88.0443C138.47 87.4995 138.507 87.1264 138.111 86.5915C137.462 85.71 136.921 84.7492 136.272 83.8676C135.51 82.8342 135.794 82.1541 136.878 81.672C138.731 80.8499 140.557 79.9585 142.452 79.2519C143.629 78.8128 143.88 78.2878 143.534 77.0629C142.756 74.3324 142.156 71.5491 141.526 68.7757C141.404 68.2342 141.147 67.3923 141.961 67.28C142.515 67.2008 142.65 67.9469 142.782 68.5148C143.524 71.7075 144.318 74.8904 145.096 78.0732C145.162 78.3406 145.248 78.6015 145.343 78.9316C145.343 79.6481 144.875 79.9915 144.2 80.2655Z" fill="#287DBF"/>
<path d="M154.339 54.892C154.247 57.7084 151.551 62.4925 148.119 63.7604C146.886 64.216 145.686 64.7278 144.391 64.9655C141.717 64.15 139.229 62.9415 136.885 61.4261C136.123 60.178 135.876 58.6295 135.972 57.3683C136.104 55.5755 135.659 53.6275 136.661 51.9403C137.877 49.8966 139.011 47.8132 139.792 45.5615C139.96 45.0728 140.039 44.7163 140.672 44.5842C145.258 43.6333 147.522 40.1038 147.104 36.1253C146.794 33.1736 143.728 31.3973 141.002 32.6519C140.458 32.8995 140.066 32.8863 139.871 32.2491C139.713 31.734 139.578 31.2091 139.413 30.694C138.935 29.1884 138.174 28.1946 136.364 27.9767C134.736 27.7786 133.147 27.0556 131.749 26.1212C127.849 23.5129 123.758 21.1191 121.246 16.9095C120.923 16.3647 120.551 16.1996 119.878 16.7972C117.838 18.6165 116.269 20.8385 113.853 22.387C110.161 24.7543 106.488 27.0391 102.299 28.3564C101.392 28.6404 101.237 29.0168 101.23 29.8158C101.188 33.299 101.405 36.7493 101.857 40.2161C102.45 44.7823 103.673 49.0217 106.122 52.9837C107.879 55.8198 110.006 58.131 112.801 59.8776C112.811 60.4917 112.817 61.1058 112.827 61.7199C112.798 62.1855 112.794 62.6609 112.392 63.001C110.161 64.1797 107.906 65.3055 105.493 66.0715C105.391 66.0451 105.292 66.0517 105.193 66.098C101.204 65.4574 97.7494 63.9717 95.409 60.4058C93.4608 57.4376 93.5201 54.2119 93.7673 50.9135C93.7904 50.5966 93.975 50.2829 93.9651 49.9725C93.8596 46.3077 94.1926 42.6494 94.3805 39.001C94.7695 31.4402 94.7958 23.7935 97.5945 16.5595C100.403 9.30902 105.1 3.85794 112.524 1.18028C114.607 0.427492 116.839 -0.0545535 119.147 0.00487678C123.356 0.117134 127.582 -0.265861 131.667 1.31895C137.221 3.47494 141.355 7.18603 144.427 12.2277C147.364 17.0449 148.429 22.4266 149.362 27.8645C150.347 33.616 150.895 39.4567 152.688 45.0497C153.713 48.2557 154.455 51.4748 154.339 54.892Z" fill="#262627"/>
<path d="M63.4467 26.7849C63.3544 28.3135 63.4928 29.9512 61.6501 30.6709C61.6237 30.6379 61.5974 30.6082 61.571 30.5818C61.5578 30.5686 61.5446 30.5554 61.5347 30.5455C61.5084 30.5224 61.482 30.5026 61.4589 30.4893C61.3172 30.4101 61.1952 30.4827 61.0963 30.7436C61.0963 30.7436 61.0831 30.7568 61.0732 30.7667C61.0633 30.7733 61.0535 30.7832 61.0535 30.7832C49.1764 30.7667 37.2993 30.7502 25.4222 30.7403C23.5136 30.7403 21.5951 30.8789 19.782 30.0799C19.3139 29.9083 19.1524 29.5319 19.1161 29.0729C18.5327 28.3763 19.0271 27.5376 18.8162 26.7915C18.8491 25.2562 18.8821 23.7209 18.9151 22.1823C18.9348 22.2748 18.9546 22.3705 18.9744 22.4663C18.9579 22.3705 18.9381 22.2748 18.9184 22.1823C18.8788 21.9413 18.8392 21.7003 18.803 21.4625L18.9249 21.4824C19.0008 21.3668 19.0799 21.2512 19.1557 21.1357C19.159 21.1357 19.159 21.1324 19.159 21.1324C19.4689 21.0234 19.4886 20.7659 19.4689 20.4886C20.1314 19.3396 21.2489 19.2075 22.406 19.1943C23.9916 19.1811 25.5772 19.1547 27.1628 19.2108C27.8748 19.2339 28.1154 19.0325 28.0956 18.3028C28.0627 16.9822 28.6725 15.9454 29.7208 15.1629C31.7151 14.8064 33.7326 14.8823 35.7434 14.879C40.5496 14.8691 45.3591 14.8526 50.1686 14.8427C52.9047 14.6875 53.8079 15.5988 54.3881 18.2434C54.599 19.1976 54.9781 19.1613 55.6605 19.2009C57.3384 19.2999 59.0064 19.0853 60.704 19.4188C61.9435 19.6631 62.7149 20.2409 63.3544 21.1984C63.3544 21.2909 63.3741 21.38 63.4005 21.4692C63.4137 23.2422 63.4302 25.0119 63.4467 26.7849Z" fill="#1B3C60"/>
<path d="M19.1458 21.139C19.1458 21.139 19.149 21.139 19.1556 21.1324C19.1556 21.1324 19.149 21.139 19.1458 21.139Z" fill="#1B3C60"/>
<path d="M0.392276 130.273C0.392276 130.854 0.603249 131.491 0.121968 132.006C0.082411 131.135 0.0395573 130.263 0 129.395C0.0197786 116.802 0.052743 104.209 0.0560395 91.6167C0.0659288 70.2251 0.0560395 48.8368 0.0560395 27.4452C0.0560395 26.7849 0.0955968 26.1279 0.112079 25.4675C0.642806 26.0948 0.385684 26.8443 0.385684 27.5278C0.402166 61.7794 0.402166 96.0278 0.392276 130.276V130.273Z" fill="#176BB4"/>
<path d="M18.9247 21.4824L18.8028 21.4626C13.7691 21.4692 8.73545 21.4758 3.69849 21.4824C3.80397 21.0994 4.1501 21.1984 4.41052 21.1225C9.24969 21.1522 14.0889 21.1819 18.928 21.2083C18.9017 21.3008 18.8984 21.3932 18.9247 21.4824Z" fill="#176BB4"/>
<path d="M78.4816 21.2017C78.0828 21.6211 77.5652 21.4692 77.0938 21.4725C72.5282 21.4791 67.9627 21.4725 63.4004 21.4692C63.374 21.38 63.3576 21.2909 63.3543 21.1984L63.3213 21.1225C68.2528 21.1192 73.1842 21.1192 78.1124 21.1192C78.2344 21.1456 78.3564 21.1753 78.4816 21.2017Z" fill="#176BB4"/>
<path d="M18.928 21.2117C14.0889 21.1819 9.2464 21.1555 4.40723 21.1258C4.99399 20.6702 5.67636 20.8782 6.31587 20.8716C10.5913 20.832 14.8668 20.8221 19.139 20.8022C19.139 20.9145 19.139 21.0268 19.1423 21.1423L19.1621 21.1225C19.0863 21.1555 19.0072 21.1852 18.9247 21.2117H18.928Z" fill="#A6B0B5"/>
<path d="M78.1124 21.1225C73.1809 21.1225 68.2528 21.1225 63.3213 21.1225C63.7432 20.7626 64.2509 20.8716 64.7355 20.8716C68.6681 20.865 72.6008 20.8617 76.5301 20.8716C77.0641 20.8716 77.6311 20.756 78.1124 21.1225Z" fill="#A6B0B5"/>
<path d="M89.0137 73.9428C89.0137 73.9428 89.0269 73.9296 89.0334 73.923V73.9395C89.0334 73.9395 89.0203 73.9428 89.0137 73.9428Z" fill="#176BB4"/>
<path d="M89.0334 73.923V73.9395C89.0334 73.9395 89.0203 73.9428 89.0137 73.9428C89.0203 73.9362 89.0269 73.9296 89.0334 73.923Z" fill="#176BB4"/>
<path d="M19.1588 21.1324C19.1588 21.1324 19.1588 21.1357 19.1555 21.1357C19.1522 21.1357 19.1489 21.1357 19.1456 21.1357V21.1258C19.1423 21.0169 19.1423 20.9079 19.1423 20.799C19.2511 20.6933 19.3599 20.5909 19.4687 20.4853C19.4885 20.7626 19.4687 21.0202 19.1588 21.1291V21.1324Z" fill="#262627"/>
<path d="M147.091 131.207C146.824 132.766 145.518 133.482 144.744 134.618C142.156 134.912 139.66 135.73 137.04 135.866C133.836 136.031 130.651 136.087 127.665 134.684C126.923 134.337 125.987 133.901 126.583 132.723C128.963 132.274 131.343 131.821 133.724 131.372C132.738 130.484 131.821 130.917 130.994 131.138C129.319 131.584 127.434 131.372 126.003 132.627C125.008 132.848 124.197 132.336 123.422 131.877C122.265 131.191 122.486 130.312 123.29 129.457C124.372 129.54 124.899 128.312 125.723 128.232C127.717 128.038 129.293 126.737 131.212 126.443C131.581 126.387 132.253 126.572 132.075 125.898C131.93 125.36 131.264 125.271 130.809 125.479C127.905 126.803 124.777 127.552 121.945 129.048C121.761 129.051 121.573 129.054 121.385 129.054C120.531 128.454 119.994 127.81 119.77 127.153C119.371 125.994 119.954 124.792 121.494 123.712C122.193 123.22 122.938 122.854 123.709 122.557C125.064 122.029 126.498 121.715 127.895 121.299C128.987 120.975 130.055 120.579 130.945 119.803C130.562 119.311 130.13 119.43 129.814 119.526C128.225 120.001 126.61 120.424 125.057 120.982C123.198 121.646 121.424 122.494 119.865 123.841C119.028 124.567 118.135 124.937 117.03 124.709C115.761 123.191 116.661 121.867 117.406 120.53C118.253 120.133 118.181 119.126 118.725 118.532C119.822 117.258 121.21 116.472 122.799 115.947C123.551 115.696 124.23 115.217 124.942 114.841C125.265 114.97 125.489 115.138 125.957 115.036C126.382 114.94 126.804 114.837 127.226 114.725C127.289 114.712 127.348 114.695 127.408 114.679C127.648 114.616 127.886 114.55 128.123 114.481C128.363 114.412 128.601 114.342 128.835 114.266C129 114.217 129.161 114.167 129.323 114.111C129.639 114.012 129.952 113.906 130.266 113.797C130.493 113.718 130.72 113.636 130.948 113.553C131.182 113.467 131.416 113.381 131.647 113.292C131.719 113.266 131.795 113.239 131.868 113.21C134.017 113.048 135.866 113.939 137.673 114.927C139.374 115.854 141.045 116.835 142.729 117.796C143.385 118.04 144.041 118.288 144.697 118.535C147.414 122.398 147.869 126.667 147.091 131.207Z" fill="#F7BC8D"/>
<path d="M113.757 129.365C104.477 129.375 95.1978 129.388 85.9184 129.401C84.8767 129.404 83.8317 129.421 82.79 129.434C84.5075 128.632 86.3238 129.19 88.0874 129.081C89.0928 129.018 89.5444 129.068 89.4324 127.691C88.7731 119.777 87.9819 111.853 88.4138 103.902C88.6709 99.1115 89.3467 94.3538 90.2763 89.6423C90.4048 88.9853 90.7509 88.6749 91.4234 88.8103C92.1223 88.949 92.0497 89.507 91.964 89.9824C91.1465 94.4364 90.4213 98.9201 90.1345 103.43C89.9103 106.917 89.8115 110.44 90.2829 113.943C90.5729 116.109 90.329 118.308 90.6389 120.5C90.9718 122.818 91.0081 125.192 90.9949 127.542C90.985 128.83 91.4399 129.091 92.62 129.081C99.0942 129.031 105.572 129.051 112.049 129.068C112.623 129.068 113.266 128.827 113.757 129.365Z" fill="#176BB4"/>
<path d="M125.057 120.982L123.709 122.557C122.938 122.854 122.193 123.22 121.494 123.712C119.954 124.792 119.371 125.994 119.77 127.153L113.605 134.347C113.028 134.753 112.422 135.13 111.772 135.447C112.003 133.116 113.16 131.329 114.073 129.451C115.059 127.869 116.045 126.291 117.03 124.709C118.135 124.937 119.028 124.567 119.865 123.841C121.424 122.494 123.198 121.646 125.057 120.982Z" fill="#262627"/>
<path d="M78.4519 136.569C78.1255 136.625 77.8025 136.685 77.4794 136.741C76.9322 136.714 76.3883 136.665 75.8411 136.665C64.4816 136.658 53.1253 136.652 41.7691 136.662C29.5327 136.671 17.2996 136.695 5.06652 136.711C4.61161 136.536 4.03803 136.853 3.65894 136.368C4.53909 135.853 5.43242 136.368 6.31587 136.368C29.7239 136.325 53.1319 136.331 76.5399 136.345C77.1761 136.345 77.8585 136.13 78.4519 136.569Z" fill="#176BB4"/>
<path d="M5.06653 136.714C17.2996 136.698 29.536 136.671 41.7691 136.665C53.1253 136.655 64.4849 136.665 75.8411 136.665C76.3883 136.665 76.9322 136.714 77.4794 136.741C76.9322 137.134 76.3092 136.952 75.7224 136.952C52.8616 136.962 30.0008 136.962 7.13999 136.949C6.44774 136.949 5.71263 137.17 5.06323 136.714H5.06653Z" fill="#A6B0B5"/>
<path d="M121.945 129.051C124.777 127.556 127.905 126.803 130.806 125.482C131.264 125.274 131.927 125.363 132.072 125.901C132.25 126.575 131.577 126.39 131.208 126.446C129.29 126.74 127.714 128.041 125.72 128.236C124.896 128.315 124.368 129.543 123.284 129.461C122.858 129.253 122.232 129.712 121.942 129.055L121.945 129.051Z" fill="#E18B40"/>
<path d="M126.003 132.627C127.437 131.372 129.319 131.584 130.994 131.138C131.821 130.917 132.738 130.484 133.723 131.372C131.343 131.821 128.963 132.27 126.583 132.723C126.389 132.69 126.198 132.66 126.003 132.627Z" fill="#E18B40"/>
<path d="M76.5828 28.132C76.1774 27.0259 75.3038 26.775 74.2357 26.7783C70.6393 26.7981 67.0429 26.7882 63.4465 26.7882C63.3542 28.3169 63.4926 29.9545 61.6499 30.6743C61.4653 30.7007 61.2807 30.7238 61.0961 30.7502C61.0928 30.7502 61.083 30.7601 61.0731 30.77C61.0632 30.7766 61.0533 30.7865 61.0533 30.7865C49.1762 30.77 37.2991 30.7535 25.4221 30.7436C23.5134 30.7436 21.5949 30.8823 19.7818 30.0833C19.3138 29.9116 19.1522 29.5352 19.116 29.0763C18.5325 28.3796 19.027 27.541 18.816 26.7948C15.3152 26.7915 11.8144 26.8146 8.31683 26.7684C7.07077 26.7519 6.20051 27.1316 5.87087 28.4027C5.92361 33.3519 6.17084 38.2979 5.75549 43.2405C5.75549 43.4782 5.75549 43.7192 5.75879 43.9603C5.96317 46.3606 6.40489 48.7609 5.75549 51.1612V52.188C5.82472 52.2178 5.88405 52.2442 5.9335 52.2706C5.95987 52.2871 5.98295 52.3003 6.00602 52.3135C6.08184 52.3597 6.13458 52.406 6.16755 52.4522C6.17744 52.4654 6.18733 52.4786 6.19392 52.4918C6.19722 52.4918 6.19722 52.4984 6.19722 52.4984C6.20711 52.5149 6.2137 52.5281 6.217 52.5413C6.32907 52.855 5.81153 53.162 5.75549 53.4724V54.8459C6.16096 56.9161 6.0291 58.9895 5.75549 61.0597C5.75549 61.7398 5.75879 62.42 5.75879 63.0968C6.2137 64.9226 5.95328 66.7782 5.9335 68.6106C5.90383 71.5953 6.21699 74.5867 5.75549 77.5615C5.75549 77.7992 5.7522 78.0369 5.7522 78.2746C6.06866 78.9185 6.07195 79.5623 5.75879 80.2061C5.75879 80.4438 5.76209 80.6783 5.76209 80.916C6.08843 82.8805 6.07854 84.8417 5.75879 86.8029V87.516C6.06866 88.1599 6.07195 88.7971 5.75549 89.4409C5.75879 90.4512 5.75879 91.4583 5.75879 92.4686C6.09503 96.3018 6.09173 100.132 5.75549 103.962C5.75549 104.308 5.75879 104.658 5.75879 105.005C6.08514 106.091 6.08514 107.168 5.75879 108.247C5.75879 108.815 5.75549 109.386 5.75549 109.954C6.10162 110.453 5.95328 111.021 5.95328 111.556C5.96647 117.376 5.95987 123.201 5.95987 129.021C6.23348 129.609 6.65542 130.025 7.30152 130.18C7.41031 130.22 7.51909 130.26 7.62787 130.299C8.08608 130.303 8.54099 130.309 8.99589 130.312C10.0771 129.972 11.1584 129.982 12.2396 130.309C13.6834 130.306 15.1273 130.306 16.5711 130.306C17.2139 129.992 17.86 129.989 18.5028 130.306C18.849 130.309 19.1951 130.309 19.5412 130.309C21.0609 129.976 22.5805 129.982 24.1002 130.309C24.3375 130.309 24.5749 130.306 24.8122 130.306C25.1254 130.035 25.4352 130.035 25.7484 130.306C27.0835 130.306 28.4185 130.309 29.7536 130.309H29.7569C29.7997 130.27 29.8426 130.237 29.8854 130.21C29.9217 130.19 29.9547 130.17 29.9876 130.157C30.0272 130.137 30.0667 130.128 30.1063 130.118C30.1426 130.111 30.1821 130.104 30.2184 130.104C30.3766 130.104 30.5348 130.174 30.6898 130.309C31.0392 130.309 31.3853 130.309 31.7314 130.312C32.0446 130.038 32.3578 130.042 32.6676 130.312C33.2379 130.309 33.8049 130.309 34.3719 130.306C37.2332 129.857 40.1143 130.151 42.9822 130.128C44.9238 130.114 46.8852 129.854 48.8169 130.309H49.5256C50.2772 129.999 51.0288 129.995 51.7804 130.309C52.5682 130.309 53.3528 130.309 54.1406 130.306C56.7844 129.854 59.4512 130.134 62.1015 130.131C64.5904 130.131 67.0924 129.847 69.5746 130.312C70.4712 130.309 71.3678 130.309 72.2645 130.309H72.2678C73.3292 129.883 74.4302 130.203 75.5082 130.114C76.029 129.913 76.3751 129.543 76.5729 129.028C76.5663 95.5589 76.5597 62.0931 76.5564 28.6239C76.5564 28.4589 76.5729 28.2938 76.5828 28.132ZM14.2834 60.7229C14.2867 55.6878 14.2933 50.6528 14.2966 45.6177C14.435 45.1885 14.5405 44.7361 15.0515 44.5744C15.7173 43.9834 16.5349 43.9735 17.3557 43.9735C21.1664 43.9768 24.977 43.9768 28.7844 43.9867C28.9328 43.9867 29.0844 43.9867 29.2327 43.9867C29.2987 43.9867 29.3646 43.9867 29.4305 43.99C29.4932 43.99 29.5558 43.99 29.6184 43.9999C29.6844 44.0032 29.7536 44.0098 29.8195 44.0197C29.8887 44.0263 29.9547 44.0362 30.0206 44.0494C30.0601 44.056 30.103 44.0659 30.1426 44.0758C30.1492 44.0758 30.1557 44.0758 30.1623 44.0791C30.2019 44.089 30.2382 44.0989 30.2777 44.1121C30.4195 44.1518 30.5546 44.2079 30.6865 44.2838C30.7227 44.3036 30.7557 44.3234 30.7887 44.3465C30.8183 44.3631 30.8447 44.3829 30.8711 44.4027C30.937 44.4489 30.9996 44.5017 31.0623 44.5645C31.0656 44.5678 31.0656 44.5711 31.0689 44.5711C31.0985 44.5942 31.1315 44.6173 31.1579 44.6371C31.204 44.6701 31.2502 44.7031 31.2963 44.7362C31.3754 44.789 31.4512 44.8451 31.5304 44.9012C31.6754 45.1423 31.8237 45.38 31.9721 45.621C31.9787 50.6528 31.9853 55.6878 31.9886 60.7196C31.7974 61.6209 31.2469 62.1624 30.3502 62.3572C25.5374 62.3572 20.7279 62.3572 15.9184 62.3572C15.5097 62.2681 15.1009 62.1657 14.6888 62.0931C13.6208 61.9049 13.6834 61.3931 14.2801 60.7163L14.2834 60.7229ZM14.2405 90.6064C14.2537 85.7298 14.2735 80.85 14.2933 75.9734C14.4218 75.5375 14.4977 75.0621 15.0482 74.9333C15.6217 74.24 16.403 74.273 17.1875 74.3291C17.9688 74.3291 18.7501 74.3258 19.5313 74.3258C22.7981 74.3192 26.0682 74.3093 29.3349 74.306C29.9876 74.3027 30.6634 74.2499 31.0722 74.93L31.0524 74.9201L31.0623 74.93C31.0787 74.9465 31.0985 74.9631 31.115 74.9829C31.2073 75.072 31.2963 75.1645 31.3886 75.2536C31.4183 75.2602 31.4414 75.2734 31.4644 75.2899C31.4875 75.3031 31.5106 75.3196 31.5304 75.3361C31.5435 75.3493 31.5567 75.3592 31.5666 75.3725C31.6095 75.422 31.6424 75.4781 31.6622 75.5375C31.6721 75.5673 31.682 75.597 31.6886 75.63C31.6952 75.6498 31.6985 75.6729 31.7018 75.696C31.715 75.772 31.7248 75.8512 31.7347 75.9271C32.094 76.1847 32.0347 76.5842 32.0347 76.954C32.0215 81.7678 32.0017 86.585 31.982 91.4021C31.7875 92.079 31.3293 92.4917 30.6733 92.703C25.8044 92.9671 20.9356 92.802 16.0668 92.7789C15.7701 92.7756 15.4734 92.5577 15.1767 92.4422C15.0811 92.3563 14.9822 92.2705 14.8866 92.1846C14.6328 92.0063 14.4581 91.7884 14.5471 91.4517C14.1746 91.2701 14.2372 90.9168 14.2405 90.6064ZM32.0314 106.488C32.0281 111.255 32.0149 116.019 32.005 120.787C31.7908 121.679 31.2568 122.24 30.3403 122.405C25.5341 122.412 20.7246 122.421 15.9151 122.428C15.2361 122.157 14.7811 121.616 14.3131 121.088C14.3098 115.841 14.3032 110.591 14.2999 105.345C14.5537 104.553 15.1668 104.203 15.9184 104.021C20.4543 104.005 24.9935 103.988 29.5294 103.978C29.6481 103.978 29.7701 103.972 29.892 103.972C29.9646 103.972 30.0338 103.975 30.103 103.982C30.1393 103.985 30.1722 103.988 30.2052 103.995C30.2414 104.001 30.2744 104.008 30.3074 104.018C30.3338 104.024 30.3601 104.034 30.3865 104.044C30.4392 104.061 30.4887 104.087 30.5381 104.12C30.5612 104.133 30.5843 104.15 30.6074 104.17C30.6502 104.199 30.6865 104.236 30.726 104.282C30.8315 104.272 30.9337 104.292 31.0293 104.341C31.3688 104.437 31.5897 104.648 31.6688 104.998C31.7183 105.091 31.7413 105.187 31.738 105.296C31.771 105.322 31.8007 105.348 31.827 105.375C31.8534 105.401 31.8765 105.431 31.8963 105.461C31.9095 105.474 31.9193 105.49 31.9259 105.504C31.9358 105.52 31.9457 105.537 31.9523 105.55C31.9655 105.58 31.9787 105.609 31.9919 105.642C32.0018 105.662 32.0083 105.685 32.0116 105.708C32.0149 105.718 32.0182 105.728 32.0182 105.738C32.0281 105.781 32.0347 105.827 32.038 105.873C32.038 105.887 32.0446 105.9 32.038 105.913C32.0413 105.926 32.0413 105.939 32.0413 105.953C32.0446 105.982 32.0446 106.012 32.0446 106.038C32.0446 106.187 32.0314 106.339 32.0281 106.488H32.0314ZM60.0676 61.7299C60.5061 61.961 60.5094 62.1888 60.0709 62.4233C60.0808 62.8822 59.7842 62.9978 59.4051 63.0209C58.9534 63.0209 58.5018 63.0209 58.0502 63.0209C57.4041 63.0209 56.7547 63.0242 56.1086 63.0242C55.6537 63.0275 55.2021 63.0275 54.7472 63.0275C54.4373 63.0275 54.1242 63.0275 53.811 63.0242H51.1178C49.3806 63.0242 47.6434 63.0242 45.9061 63.0275C44.1294 63.0275 42.3526 63.0275 40.5791 63.0275C39.8275 63.0275 39.0759 63.0275 38.3243 63.0275C38.0903 63.0209 37.8529 63.0176 37.6189 63.0143C37.1673 63.0341 36.686 63.0869 36.9266 62.3671V61.7794C37.0156 60.9012 37.7277 61.1554 38.1991 61.1521C45.0326 61.1323 51.8661 61.1389 58.6996 61.1521C58.8842 61.1521 59.082 61.1323 59.2732 61.1422C59.2996 61.1422 59.3259 61.1422 59.3523 61.1422C59.4215 61.1455 59.4908 61.1587 59.5567 61.1785C59.5831 61.1851 59.6094 61.195 59.6358 61.2049C59.6787 61.2214 59.7215 61.2446 59.7611 61.271C59.7776 61.2809 59.794 61.2941 59.8072 61.3073C59.8171 61.3106 59.8237 61.3172 59.8303 61.3271C59.8468 61.3403 59.86 61.3535 59.8732 61.37C59.8995 61.3931 59.9193 61.4195 59.9391 61.4493C59.9457 61.4625 59.9523 61.4757 59.9622 61.4856C59.9786 61.512 59.9918 61.5384 60.005 61.5681C60.0281 61.611 60.0479 61.6606 60.0644 61.7167H60.0676V61.7299ZM37.431 76.1351C37.9584 75.9073 38.5023 75.937 39.0462 75.937C48.3125 75.9337 57.5821 75.9304 66.8484 75.9337C67.6 75.9337 68.5692 75.7687 68.6054 76.878C68.645 78.1492 67.5769 77.9214 66.7957 77.9214C64.175 77.9313 61.5576 77.9313 58.937 77.9313H52.6474C50.8079 77.9313 48.9652 77.9313 47.1225 77.9313C44.3568 77.9313 41.5944 77.9313 38.8287 77.9247C38.3441 77.9247 37.8364 77.9114 37.3815 77.7695C37.0354 77.6638 36.7091 77.3568 36.7124 76.9176C36.7124 76.462 37.0552 76.2936 37.431 76.1318V76.1351ZM68.2758 92.769C68.0648 93.2412 67.6297 93.1025 67.2737 93.1025C57.8425 93.0959 48.4147 93.0761 38.9836 93.0596C38.143 92.9077 36.6695 93.71 37.0156 91.7587C37.3486 91.1908 37.8991 91.445 38.3474 91.445C47.8873 91.4285 57.4272 91.4318 66.9638 91.445C67.4154 91.445 67.9692 91.2073 68.2956 91.7818C68.5856 92.1153 68.4703 92.4422 68.2758 92.769ZM36.6497 84.8813C36.63 84.8054 36.63 84.7261 36.653 84.637C36.653 84.6205 36.6629 84.6007 36.6695 84.5809C36.6794 84.5478 36.6926 84.5115 36.7124 84.4752C36.7255 84.4455 36.742 84.4125 36.7618 84.3828C36.7849 84.3431 36.8146 84.3002 36.8442 84.2573C36.864 84.2309 36.8871 84.2045 36.9102 84.1747C36.9365 84.1351 36.9662 84.0988 36.9959 84.0691C37.0453 84.0163 37.098 83.97 37.1541 83.937C37.1673 83.9304 37.1805 83.9205 37.1936 83.9139C37.2365 83.8908 37.2761 83.871 37.3189 83.8611C37.3288 83.8545 37.3354 83.8512 37.3453 83.8512C37.3815 83.838 37.4178 83.8281 37.4541 83.8248C37.4837 83.8215 37.5101 83.8182 37.5398 83.8149C37.5661 83.8116 37.5958 83.8083 37.6255 83.8083C37.8365 83.7951 38.0573 83.8281 38.2617 83.8281C45.1414 83.8149 52.021 83.8149 58.9007 83.8182C59.2468 83.8182 59.6358 83.7224 59.9193 83.9799C59.9292 83.9898 59.9391 83.9998 59.949 84.0097C59.9852 84.046 60.0182 84.0889 60.0479 84.1384C60.0512 84.145 60.0578 84.1516 60.0611 84.1615H60.0644C60.0644 84.1615 60.0676 84.1681 60.0709 84.1714C60.0973 84.1912 60.1204 84.2111 60.1435 84.2309C60.2325 84.3068 60.2951 84.3827 60.3314 84.462C60.3413 84.4785 60.3511 84.4983 60.3577 84.5148C60.3643 84.5346 60.3709 84.5511 60.3742 84.5709C60.3808 84.5842 60.3841 84.5974 60.3841 84.6106C60.3874 84.6271 60.3907 84.6469 60.3907 84.6634C60.394 84.6898 60.3907 84.7129 60.3841 84.7393C60.3808 84.7657 60.3742 84.7955 60.3643 84.8219C60.3347 84.9044 60.2819 84.987 60.2028 85.0695C60.1665 85.1058 60.1237 85.1454 60.0742 85.1851C60.0709 85.1917 60.0676 85.1917 60.0644 85.195C60.0644 85.195 60.0621 85.1972 60.0578 85.2016C60.0578 85.2016 60.038 85.2313 60.0248 85.2478C60.0149 85.261 60.005 85.2742 59.9918 85.2874C59.9556 85.327 59.9226 85.3567 59.883 85.3799C59.8336 85.4162 59.7842 85.4459 59.7281 85.4657C59.4611 85.5681 59.1512 85.5119 58.871 85.5119C51.6914 85.5053 44.5117 85.4921 37.3288 85.4789C37.2925 85.4624 37.253 85.4459 37.2167 85.4261C36.9662 85.3039 36.775 85.1619 36.686 84.987C36.6695 84.9539 36.6563 84.9176 36.6497 84.8813ZM59.082 115.825H40.256C39.4352 115.831 38.6144 115.864 37.7936 115.835C37.2695 115.815 36.7651 115.561 36.719 115.003C36.6629 114.329 37.22 114.081 37.7903 113.992C38.1661 113.933 38.5551 113.949 38.9375 113.949C45.293 113.946 51.6452 113.939 58.0008 113.963C58.7161 113.963 59.5534 113.695 60.0644 114.527C60.5357 115.613 60.4533 115.719 59.082 115.825ZM67.0594 107.97H52.5715C47.851 107.963 43.1338 107.967 38.4133 107.96C37.6716 107.96 36.6596 108.145 36.7157 106.996C36.7651 106.035 37.6453 105.946 38.4694 105.946C48.0159 105.953 57.5656 105.949 67.1121 105.953C67.8538 105.953 68.645 105.959 68.6219 106.989C68.5988 108.023 67.7846 107.97 67.0594 107.97ZM68.3879 54.9086C68.3252 54.9615 68.2626 55.0077 68.1967 55.0539C68.1406 55.0902 68.0879 55.1199 68.0318 55.1497C68.022 55.1563 68.0088 55.1629 67.9956 55.1662C67.9461 55.1926 67.8934 55.2124 67.8407 55.2322C67.7813 55.2553 67.7187 55.2751 67.6561 55.2916C67.5967 55.3081 67.5341 55.3246 67.4714 55.3345C67.4088 55.3478 67.3429 55.3577 67.2803 55.3643C66.8748 55.4171 66.4529 55.3874 66.0441 55.3874C57.5063 55.4006 48.9685 55.4006 40.4307 55.3907C39.5044 55.3874 38.5749 55.3213 37.6486 55.2355C36.9596 55.1695 36.4816 54.8822 36.8706 54.0601C36.9728 53.9379 37.075 53.8191 37.1838 53.6969C37.576 53.413 38.0276 53.5021 38.4562 53.5021C47.9499 53.4955 57.4437 53.4955 66.9374 53.5054C67.4055 53.5054 67.9395 53.3172 68.312 53.8059C68.7801 54.1426 68.7076 54.5157 68.3879 54.9086ZM68.4538 47.2421C68.1703 47.5756 67.7813 47.569 67.3956 47.5657C57.3777 47.5525 47.3566 47.536 37.3387 47.5195C36.4717 46.7073 36.6036 46.387 37.9881 45.9281C47.7126 45.9149 57.4404 45.8983 67.1682 45.8851C67.5901 45.8851 68.0582 45.7894 68.3681 46.2219C68.79 46.529 68.7274 46.8756 68.4538 47.2421Z" fill="white"/>
<path d="M147.104 36.1254C146.794 33.1737 143.728 31.3974 141.002 32.652C140.458 32.8996 140.066 32.8864 139.871 32.2492C139.713 31.7341 139.578 31.2092 139.413 30.6941C138.935 29.1885 138.174 28.1947 136.364 27.9768C134.735 27.7787 133.147 27.0556 131.749 26.1213C127.849 23.5129 123.758 21.1192 121.246 16.9096C120.923 16.3648 120.551 16.1997 119.878 16.7973C117.838 18.6165 116.269 20.8386 113.852 22.3871C110.16 24.7544 106.488 27.0391 102.298 28.3565C101.392 28.6405 101.237 29.0168 101.23 29.8159C101.188 33.2991 101.405 36.7494 101.857 40.2162C102.45 44.7824 103.673 49.0217 106.122 52.9838C107.879 55.8199 110.006 58.1311 112.801 59.8777C119.641 63.4501 128.541 62.4299 135.678 53.8389C135.408 56.3944 134.416 58.2565 132.645 59.8711C130.252 62.0469 127.694 63.8661 124.457 64.3944C120.904 64.9755 117.37 65.0877 114.294 62.6874C113.829 62.3242 112.982 62.5487 112.827 61.72C112.798 62.1855 112.794 62.661 112.392 63.0011C112.372 63.3741 112.554 63.8034 112.105 64.0609V74.6131C112.666 75.072 112.26 75.7555 112.494 76.287C118.491 78.5322 124.454 78.5784 130.397 76.0724C130.763 75.9172 131.169 75.597 131.63 75.8842C133.664 72.0378 135.088 67.9503 136.436 63.8331C136.694 63.0473 136.875 62.2549 136.885 61.4262C136.123 60.1781 135.876 58.6296 135.972 57.3684C136.103 55.5756 135.658 53.6276 136.661 51.9404C137.877 49.8967 139.011 47.8133 139.792 45.5616C139.96 45.0729 140.039 44.7163 140.672 44.5843C145.258 43.6334 147.522 40.1039 147.104 36.1254ZM116.193 43.2834C116.948 40.992 117.68 38.6908 118.402 36.3862C118.553 35.9042 118.827 35.5806 119.338 35.7027C119.984 35.8546 119.743 36.4192 119.644 36.7758C119.17 38.4762 118.665 40.1699 118.111 41.8472C117.502 43.6994 117.34 44.4159 119.839 44.9111C120.333 45.0102 121.121 44.4621 121.266 45.3998C121.329 45.796 120.828 45.9281 119.407 45.9116C118.764 46.0502 118.036 45.7729 117.334 45.5319C116.282 45.1753 115.811 44.4456 116.193 43.2834ZM112.056 36.0065C111.987 36.9937 111.39 37.8984 110.325 37.9248C109.251 37.9512 108.819 37.1027 108.816 36.1287C108.74 34.9665 109.478 34.4217 110.358 34.4415C111.199 34.458 112.132 34.9401 112.056 36.0065ZM114.35 29.205C114.248 29.5715 113.909 29.872 113.473 29.7432C110.961 28.9904 108.572 29.4097 106.257 30.4828C105.812 30.6908 105.634 30.43 105.565 30.1361C105.391 29.3998 105.915 28.9376 106.472 28.7989C107.764 28.482 109.096 28.3169 110.411 28.099C110.569 28.0726 110.737 28.099 110.971 28.099C111.891 27.9933 112.811 28.3235 113.727 28.5942C113.961 28.6636 114.472 28.7824 114.35 29.2083V29.205ZM124.368 51.1447C122.736 51.4188 121.263 52.4522 119.545 52.1418C118.098 52.3795 116.892 51.7555 115.685 51.1711C115.356 51.0126 114.921 50.8046 115.178 50.3259C115.418 49.8835 115.748 49.8703 116.252 50.1245C118.824 51.4221 121.342 51.64 123.745 49.6557C124.032 49.4179 124.727 49.2264 124.929 49.9594C125.074 50.4811 124.955 51.0457 124.368 51.1447ZM127.671 37.8455C126.755 37.872 126.076 36.7923 126.059 35.9372C126.046 35.2801 126.56 34.3293 127.595 34.3854C128.663 34.4415 129.197 35.0985 129.273 36.1419C129.339 37.2909 128.222 37.8323 127.671 37.8455ZM131.762 30.4068C131.399 30.4696 130.875 30.354 130.734 30.2682C129.085 29.2612 127.351 29.5286 125.598 29.7201C125.255 29.7597 124.77 29.9182 124.645 29.38C124.52 28.8584 124.843 28.5843 125.317 28.4324C127.671 27.6962 129.913 28.1584 132.115 29.0598C132.405 29.1786 132.54 29.38 132.53 29.7465C132.435 30.0965 132.184 30.3342 131.762 30.4068Z" fill="#F7BC8D"/>
<path d="M131.63 75.8842C130.289 78.7864 128.94 81.6886 127.605 84.594C125.186 89.8536 122.779 95.1198 120.353 100.376C119.433 102.37 118.336 104.275 117.617 106.369C117.475 106.352 117.337 106.336 117.198 106.322C116.605 103.843 115.906 101.383 115.441 98.8771C114.584 94.2812 113.665 89.6786 113.17 85.0332C112.86 82.1409 112.185 79.242 112.494 76.287C118.491 78.5322 124.454 78.5784 130.397 76.0724C130.763 75.9172 131.169 75.597 131.63 75.8842Z" fill="#E18B40"/>
<path d="M141.463 101.66C138.263 105.51 135.065 109.36 131.867 113.21C131.795 113.239 131.719 113.266 131.647 113.292C131.416 113.381 131.182 113.467 130.948 113.553C130.72 113.636 130.493 113.718 130.265 113.797C129.952 113.906 129.639 114.012 129.323 114.111C129.161 114.167 129 114.217 128.835 114.266C128.601 114.342 128.363 114.412 128.123 114.481C127.885 114.55 127.648 114.616 127.407 114.679C127.348 114.695 127.289 114.712 127.226 114.725C126.807 114.837 126.382 114.94 125.957 115.036C125.489 115.138 125.265 114.97 124.942 114.841C127.862 111.331 130.832 107.858 133.681 104.289C134.857 102.816 135.879 101.225 137.211 99.8908C137.518 99.5837 137.841 99.2898 138.187 99.0158C138.474 100.584 139.644 101.528 141.463 101.66Z" fill="#262627"/>
<path d="M166.309 115.244C166.282 116.112 165.247 116.214 164.469 116.194C159.146 116.039 153.888 116.696 148.65 117.528C147.305 117.74 145.937 117.885 144.697 118.535C144.041 118.288 143.385 118.04 142.729 117.796C143.224 116.581 144.351 116.393 145.422 116.208C148.218 115.732 151.02 115.286 153.828 114.9C154.626 114.791 154.969 114.732 154.758 113.731C153.525 107.904 152.385 102.057 151.218 96.216C151.033 95.308 150.812 94.4033 150.703 93.4822C150.647 93.0034 150.37 92.2572 151.204 92.1681C151.841 92.0988 151.91 92.6997 152.012 93.1982C152.767 96.8367 153.558 100.469 154.29 104.11C154.893 107.112 155.43 110.123 155.988 113.13C156.169 114.108 156.561 114.61 157.718 114.577C159.963 114.52 162.182 114.042 164.436 114.2C165.264 114.26 166.345 114.157 166.309 115.244Z" fill="#176BB4"/>
<path d="M145.343 78.9316C145.343 79.6481 144.875 79.9915 144.199 80.2655C142.37 81.0018 140.563 81.7876 138.76 82.58C138.157 82.8474 137.481 83.0818 138.134 84.003C138.951 85.1586 140.155 86.3373 140.283 87.6018C140.415 88.9027 138.688 89.6621 137.791 90.6691C133.034 96.0145 128.241 101.334 123.462 106.659C123.241 106.907 123.013 107.148 122.766 107.362C122.413 107.673 122.028 108.244 121.533 107.775C121.032 107.296 121.583 106.89 121.896 106.54C123.946 104.265 126.178 102.129 128.024 99.6992C131.136 95.5952 135.128 92.2704 138.088 88.0443C138.47 87.4995 138.506 87.1264 138.111 86.5915C137.462 85.71 136.921 84.7492 136.271 83.8676C135.51 82.8342 135.794 82.1541 136.878 81.672C138.731 80.8499 140.557 79.9584 142.452 79.2519C143.629 78.8128 143.88 78.2878 143.534 77.0629C142.756 74.3324 142.156 71.5491 141.526 68.7757C141.404 68.2342 141.147 67.3922 141.961 67.28C142.515 67.2008 142.65 67.9469 142.782 68.5148C143.524 71.7075 144.318 74.8904 145.096 78.0732C145.162 78.3406 145.248 78.6015 145.343 78.9316Z" fill="#176BB4"/>
<path d="M115.214 108.168C114.66 108.429 114.419 107.98 114.202 107.607C113.098 105.715 111.957 103.843 110.922 101.915C108.674 97.7215 106.548 93.459 104.23 89.3055C103.373 87.7669 103.709 86.6609 104.718 85.4789C105.968 84.0151 105.806 82.7539 104.23 81.6951C103.729 81.3584 103.277 80.9325 102.74 80.6815C101.837 80.2523 101.741 79.5325 101.998 78.7533C103.093 75.488 104.227 72.2358 105.374 68.987C105.483 68.6799 105.44 68.079 105.994 68.188C106.521 68.2903 106.521 68.8087 106.501 69.5648C106.231 70.377 105.862 71.4599 105.516 72.5495C104.936 74.3753 104.451 76.2375 103.765 78.0204C103.366 79.0604 103.772 79.5424 104.54 80.0245C105.466 80.6056 106.379 81.2065 107.279 81.8272C108.275 82.514 108.41 83.379 107.728 84.3728C107.451 84.7789 107.25 85.3006 106.871 85.5647C105.054 86.8293 105.463 88.1532 106.35 89.8569C109.178 95.3014 112.006 100.746 115.112 106.042C115.28 106.326 115.422 106.626 115.563 106.92C115.814 107.438 115.778 107.904 115.214 108.168Z" fill="#176BB4"/>
<path d="M5.75882 86.7996V87.5127C5.61378 88.1566 5.61378 88.7938 5.75553 89.4376C5.75882 90.4479 5.75882 91.4549 5.75882 92.4653C5.60059 96.2952 5.60059 100.125 5.75553 103.958C5.75553 104.305 5.75882 104.655 5.75882 105.002C5.60059 106.085 5.61048 107.164 5.75882 108.244C5.75882 108.812 5.75553 109.383 5.75553 109.951C5.5907 116.307 5.61378 122.666 5.74564 129.025C5.18194 128.708 5.36325 128.16 5.35995 127.694C5.35336 94.8359 5.35995 61.9775 5.35995 29.1225C5.35995 28.9046 5.38303 28.69 5.4061 28.4754C5.4094 28.439 5.47203 28.3895 5.51159 28.3796C5.56104 28.373 5.61708 28.4027 5.66982 28.4192C5.69949 33.3585 5.72915 38.2979 5.75882 43.2372C5.75882 43.4749 5.75882 43.7159 5.76212 43.9569C5.60059 46.3573 5.5973 48.7576 5.75882 51.1579V54.8426C5.60389 56.9127 5.5973 58.9862 5.75882 61.0564C5.75882 61.7365 5.76212 62.4166 5.76212 63.0935C5.60059 67.9139 5.60059 72.7344 5.75882 77.5582C5.75882 77.7959 5.75553 78.0336 5.75553 78.2713C5.61707 78.9152 5.61048 79.559 5.76212 80.2028C5.76212 80.4405 5.76541 80.6749 5.76541 80.9127C5.60719 82.8739 5.60059 84.8384 5.76212 86.7996H5.75882Z" fill="#176BB4"/>
<path d="M76.7874 129.028C76.8137 128.483 76.8632 127.935 76.8632 127.387C76.8665 108.148 76.8698 88.9126 76.8599 69.6737C76.8533 55.8232 76.8302 41.9759 76.8137 28.1254C77.4104 28.5843 77.1631 29.2413 77.1631 29.8092C77.1763 62.3275 77.1763 94.8491 77.1631 127.371C77.1631 127.932 77.44 128.599 76.7874 129.028Z" fill="#176BB4"/>
<path d="M76.8632 127.387C76.8632 127.935 76.8138 128.483 76.7874 129.028C76.7149 129.028 76.6456 129.028 76.5731 129.028C76.5665 95.5589 76.5599 62.0931 76.5566 28.6239C76.5566 28.4589 76.5731 28.2938 76.583 28.132C76.6588 28.1287 76.7379 28.1254 76.8138 28.1287C76.8302 41.9792 76.8533 55.8265 76.8599 69.6771C76.8698 88.916 76.8665 108.152 76.8632 127.39V127.387Z" fill="#A6B0B5"/>
<path d="M75.5082 130.349C75.1061 130.91 74.5094 130.699 73.9919 130.702C52.1068 130.709 30.225 130.709 8.33995 130.705C8.0169 130.705 7.69385 130.679 7.3708 130.652C7.33784 130.652 7.28839 130.586 7.2818 130.544C7.2752 130.494 7.31147 130.441 7.32795 130.388C7.43673 130.388 7.53892 130.359 7.62792 130.299C8.08613 130.302 8.54104 130.309 8.99595 130.312C10.0772 130.448 11.1584 130.454 12.2396 130.309C13.6835 130.306 15.1273 130.306 16.5712 130.306C17.214 130.444 17.8568 130.441 18.5029 130.306C18.849 130.309 19.1951 130.309 19.5413 130.309C21.0609 130.448 22.5806 130.461 24.1002 130.309C24.3376 130.309 24.5749 130.306 24.8123 130.306H25.7485C27.0835 130.306 28.4186 130.309 29.7536 130.309H30.6898C31.0392 130.309 31.3854 130.309 31.7315 130.312H32.6677C33.238 130.309 33.805 130.309 34.3719 130.306C39.1847 130.458 44.0008 130.458 48.8169 130.309H49.5257C50.2773 130.444 51.0289 130.451 51.7804 130.309C52.5683 130.309 53.3528 130.309 54.1407 130.306C59.2831 130.458 64.4289 130.458 69.5746 130.312C70.4713 130.309 71.3679 130.309 72.2645 130.309H72.2678C73.3491 130.322 74.427 130.336 75.5082 130.349Z" fill="#176BB4"/>
<path d="M118.724 118.532C118.181 119.126 118.253 120.133 117.406 120.53C117.024 120.279 117.05 119.886 117.05 119.503C117.05 115.729 117.04 111.952 117.053 108.178C117.053 107.788 116.846 107.141 117.485 107.141C117.999 107.141 118.055 107.722 118.052 108.171C118.019 111.067 118.537 113.939 118.378 116.842C118.345 117.413 118.171 118.063 118.724 118.532Z" fill="#176BB4"/>
<path d="M141.763 100.492C140.333 100.766 139.087 100.729 138.938 98.8144C138.928 98.6724 138.783 98.537 138.701 98.3983C139.301 97.7677 139.888 97.1206 140.501 96.5065C140.966 96.041 141.559 95.9089 142.162 96.1268C142.798 96.3513 142.742 96.939 142.775 97.5003C142.841 98.646 142.485 99.6233 141.763 100.492Z" fill="#262627"/>
<path d="M5.95344 111.552C5.96663 117.373 5.96004 123.197 5.96004 129.018C5.88752 129.018 5.81499 129.018 5.74577 129.025C5.61391 122.666 5.59084 116.307 5.75566 109.951C6.10178 110.449 5.95344 111.017 5.95344 111.552Z" fill="#A6B0B5"/>
<path d="M5.75551 43.2372C5.72584 38.2979 5.69617 33.3585 5.6665 28.4192C5.73573 28.406 5.80495 28.3994 5.87088 28.3994C5.92363 33.3486 6.17086 38.2946 5.75551 43.2372Z" fill="#A6B0B5"/>
<path d="M141.463 101.66C139.644 101.528 138.474 100.584 138.187 99.0158C138.361 98.8045 138.53 98.6031 138.701 98.3984C138.783 98.537 138.928 98.6724 138.938 98.8144C139.087 100.729 140.333 100.766 141.763 100.492C141.796 100.914 141.829 101.34 141.463 101.66Z" fill="#1B3C60"/>
<path d="M112.105 64.0608V74.613C112.082 74.9201 112.063 75.2271 112.043 75.5342C111.977 75.5342 111.908 75.5276 111.838 75.521C111.838 71.7207 111.838 67.9172 111.845 64.117C111.845 64.084 111.908 64.0311 111.947 64.0245C111.997 64.0146 112.053 64.0476 112.105 64.0608Z" fill="#176BB4"/>
<path d="M75.5082 130.111V130.345C74.427 130.332 73.3491 130.319 72.2678 130.306C73.3293 129.88 74.4303 130.2 75.5082 130.111Z" fill="#A6B0B5"/>
<path d="M7.62786 130.296C7.53886 130.355 7.43667 130.385 7.32789 130.385C7.3114 130.316 7.30151 130.246 7.30151 130.177C7.4103 130.217 7.51908 130.256 7.62786 130.296Z" fill="#A6B0B5"/>
<path d="M112.801 59.8809C119.641 63.4501 128.541 62.4331 135.678 53.8422C135.405 56.3977 134.416 58.2598 132.645 59.8743C130.252 62.0501 127.694 63.8694 124.457 64.4009C120.904 64.982 117.37 65.0943 114.294 62.694C113.829 62.3308 112.979 62.5553 112.824 61.7266C112.814 61.1125 112.807 60.4984 112.798 59.8875L112.801 59.8809Z" fill="#E18B40"/>
<path d="M61.65 30.671C61.4654 30.6974 61.2808 30.7205 61.0962 30.7469C61.1951 30.4828 61.3171 30.4101 61.4588 30.4894C61.4819 30.5059 61.5082 30.5224 61.5346 30.5455C61.5445 30.5554 61.5577 30.5686 61.5709 30.5818C61.5973 30.6082 61.6236 30.638 61.65 30.671Z" fill="#262627"/>
<path d="M19.1656 21.1225C19.1656 21.1225 19.1623 21.1225 19.159 21.1291C19.159 21.1291 19.159 21.1357 19.1557 21.1357C19.0799 21.2513 19.0008 21.3668 18.9249 21.4824C18.8986 21.3932 18.9019 21.3008 18.9282 21.2083C19.0041 21.1885 19.0766 21.1621 19.1458 21.1291C19.1491 21.1291 19.1557 21.1258 19.159 21.1258C19.1623 21.1258 19.159 21.1258 19.1656 21.1258V21.1225Z" fill="#262627"/>
<path d="M31.9754 45.6243C31.8271 45.3833 31.6787 45.1455 31.5337 44.9045C31.4546 44.8484 31.3787 44.7923 31.2996 44.7394C31.2535 44.7064 31.2073 44.6734 31.1612 44.6404C31.1315 44.6206 31.0985 44.5975 31.0689 44.5743H15.0515C14.5405 44.7361 14.435 45.1885 14.2966 45.6177C14.3889 45.8092 14.557 46.0007 14.557 46.1922C14.5702 50.8475 14.5669 55.5029 14.5504 60.155C14.5504 60.3465 14.3757 60.5347 14.2834 60.7229C13.6868 61.3997 13.6241 61.9115 14.6922 62.0997C15.1042 62.1723 15.513 62.2747 15.9217 62.3638C20.7312 62.3638 25.5408 62.3638 30.3536 62.3638C31.2502 62.169 31.8007 61.6275 31.9919 60.7262C31.9886 55.6944 31.982 50.6593 31.9754 45.6276V45.6243ZM30.3766 60.5908C30.3239 60.7493 30.3601 61.0761 30.0602 60.7559C28.4021 60.7658 26.7472 60.7757 25.0924 60.7856C23.7903 60.7856 22.4882 60.7889 21.1862 60.7889H20.1478C19.7258 61.2115 19.3039 61.2115 18.8819 60.7889C18.4237 60.7889 17.9688 60.7889 17.5106 60.7889C17.0689 61.2214 16.6371 61.2148 16.2184 60.7559C15.7305 60.2573 15.902 59.6234 15.902 59.039C15.8888 54.6148 15.8921 50.1872 15.8921 45.7629C16.0701 45.2182 16.5316 45.2479 16.9667 45.2479C21.0016 45.2479 25.0331 45.2479 29.0679 45.2479C29.447 45.2479 29.8426 45.2314 30.0569 45.6507C30.5019 46.2219 30.37 46.8921 30.3733 47.536C30.3766 51.8876 30.3766 56.2425 30.3766 60.5941V60.5908Z" fill="#A6B0B5"/>
<path d="M15.1768 92.4454C15.0812 92.3596 14.9823 92.2737 14.8867 92.1879C14.9065 91.8808 14.8735 91.6002 14.5472 91.4516L14.557 91.4615C14.5636 86.7071 14.5735 81.956 14.5735 77.2016C14.5735 76.779 14.6889 76.3167 14.2966 75.9766C14.4252 75.5408 14.4977 75.0654 15.0482 74.9333C15.7603 74.7286 16.7426 75.4814 17.1876 74.3324C17.9689 74.3324 18.7501 74.3324 19.5314 74.3258C19.7193 75.2338 20.4544 74.9201 20.9851 74.9267C24.3475 74.9498 27.7098 74.9366 31.0722 74.9333L31.0524 74.9201C31.1711 75.0357 31.2865 75.1545 31.4052 75.2734L31.392 75.2536C31.3854 75.5441 31.4183 75.8149 31.7381 75.9403L31.7183 75.9139C31.715 80.6155 31.7051 85.3138 31.7117 90.0154C31.7117 90.4875 31.5601 91.0092 31.9853 91.4087C31.7908 92.0856 31.3326 92.4983 30.6766 92.7096C30.2778 92.2804 29.7536 92.4487 29.2822 92.4487C24.5815 92.4388 19.8808 92.4487 15.1801 92.4487L15.1768 92.4454ZM19.538 75.9073C19.3006 75.9073 19.0666 75.9073 18.8292 75.9073C17.8172 75.5078 16.8151 75.2239 15.8921 76.1021C15.8921 80.5726 15.8888 85.0398 15.902 89.5102C15.902 90.088 15.7174 90.7253 16.2514 91.2007C16.3734 91.9205 16.9437 91.7686 17.4052 91.7686C21.262 91.7785 25.1188 91.7752 28.9757 91.7686C29.391 91.7686 29.8888 91.8875 30.0075 91.2634C30.5547 90.7913 30.3668 90.1475 30.3701 89.5697C30.3866 85.6275 30.3833 81.6853 30.38 77.7397C30.38 77.1454 30.4887 76.528 30.1261 75.9833C29.7174 75.4682 29.1372 75.6135 28.6065 75.6102C26.5891 75.597 24.5683 75.5606 22.5542 75.6267C21.5488 75.6597 20.4906 75.2899 19.538 75.9073Z" fill="#A6B0B5"/>
<path d="M52.5717 107.967C47.8512 107.967 43.134 107.97 38.4135 107.963C37.6718 107.963 36.6598 108.148 36.7159 106.999C36.7653 106.038 37.6422 105.946 38.4663 105.946C48.0161 105.956 57.5625 105.953 67.1123 105.953C67.854 105.953 68.6452 105.959 68.6221 106.989C68.599 108.023 67.7848 107.97 67.0596 107.97C62.2303 107.97 57.401 107.97 52.5717 107.967Z" fill="#A6B0B5"/>
<path d="M52.6475 77.9346C48.0424 77.9346 43.434 77.9379 38.8288 77.928C38.3443 77.928 37.8366 77.9147 37.3784 77.7728C37.0323 77.6638 36.7092 77.3568 36.7092 76.9176C36.7092 76.462 37.0521 76.2969 37.4279 76.1351C37.9553 75.9073 38.4992 75.9337 39.0464 75.9337C48.3127 75.9337 57.579 75.9304 66.8453 75.9337C67.5969 75.9337 68.566 75.7686 68.6023 76.878C68.6418 78.1492 67.5738 77.918 66.7925 77.9213C62.0753 77.9346 57.3614 77.928 52.6442 77.9313L52.6475 77.9346Z" fill="#A6B0B5"/>
<path d="M15.9152 122.428C15.2361 122.157 14.7812 121.616 14.3131 121.088C14.7449 115.841 14.768 110.591 14.2966 105.345C14.5505 104.553 15.1669 104.203 15.9185 104.021C16.3075 104.467 16.8316 104.308 17.303 104.308C21.7828 104.315 26.2627 104.308 30.7426 104.302L30.7261 104.282C30.7887 104.497 30.8744 104.606 31.0327 104.341C31.3722 104.437 31.5931 104.645 31.6722 104.995C31.6326 105.031 31.5964 105.064 31.5568 105.101C31.6194 105.167 31.6788 105.23 31.7414 105.296L31.7216 105.276C31.7183 109.984 31.7084 114.692 31.715 119.397C31.715 119.869 31.5601 120.397 32.0084 120.784C31.7974 121.675 31.2634 122.237 30.347 122.402C30.1558 122.316 29.9613 122.151 29.7701 122.151C25.343 122.134 20.9126 122.134 16.4855 122.151C16.2976 122.151 16.1097 122.329 15.9218 122.425L15.9152 122.428ZM24.153 105.596C23.586 105.596 23.0157 105.596 22.4487 105.596C21.7004 105.147 20.9488 105.15 20.2006 105.596C18.7633 105.913 17.2338 105.226 15.8361 105.986C15.1174 106.091 15.2394 106.653 15.2394 107.121C15.2328 111.209 15.2394 115.296 15.2328 119.384C15.2328 120.011 15.2592 120.605 16.0174 120.804C17.9557 120.82 19.8973 120.837 21.8356 120.853C22.5938 121.84 23.352 121.84 24.1068 120.853C24.4497 120.853 24.7892 120.853 25.132 120.853C25.6661 121.827 26.2034 121.83 26.744 120.853C26.9747 120.853 27.2088 120.853 27.4395 120.853C28.4153 121.778 29.635 121.725 30.3734 120.724C30.3635 120.629 30.3833 120.539 30.436 120.46C31.1612 120.351 31.0327 119.787 31.036 119.311C31.0425 115.247 31.0425 111.179 31.036 107.115C31.036 106.633 31.1381 106.078 30.4195 105.976C30.3701 105.906 30.3569 105.83 30.38 105.748C30.2514 105.375 30.0668 105.22 29.7536 105.593C28.3065 105.593 26.8627 105.593 25.4155 105.593C24.9936 105.18 24.5749 105.177 24.153 105.593V105.596Z" fill="#A6B0B5"/>
<path d="M68.454 47.2421C68.1705 47.5756 67.7815 47.569 67.3958 47.5657C57.3779 47.5525 47.3568 47.536 37.3389 47.5194C36.4719 46.7072 36.6038 46.387 37.9883 45.928C47.7128 45.9148 57.4406 45.8983 67.1684 45.8851C67.5903 45.8851 68.0584 45.7894 68.3683 46.2219C68.7902 46.5289 68.7276 46.8756 68.454 47.2421Z" fill="#A6B0B5"/>
<path d="M38.9837 93.0628C38.1431 92.9109 36.6729 93.71 37.0158 91.762C47.4424 91.7686 57.869 91.7752 68.2957 91.7818C68.5891 92.1152 68.4704 92.4454 68.2759 92.769C59.0261 92.7657 49.7763 92.7591 40.5298 92.769C40.0089 92.769 39.4222 92.5709 38.9837 93.0628Z" fill="#A6B0B5"/>
<path d="M59.0821 115.825C52.8057 115.825 46.5325 115.825 40.2561 115.825C39.7254 114.438 38.1958 115.848 37.2366 114.527H60.0644C60.0875 115.227 59.2502 115.27 59.0821 115.825Z" fill="#A6B0B5"/>
<path d="M60.071 62.4232C60.0809 62.8822 59.7843 62.9977 59.4052 63.0208C58.9536 63.0208 58.5019 63.0208 58.0503 63.0208C57.4042 63.0208 56.7548 63.0241 56.1087 63.0241C55.6538 63.0274 55.2022 63.0274 54.7473 63.0274C54.4374 63.0274 54.1243 63.0274 53.8111 63.0241H51.1179C49.3807 63.0241 47.6435 63.0241 45.9062 63.0274C44.1295 63.0274 42.3527 63.0274 40.5792 63.0274C39.8276 63.0274 39.076 63.0274 38.3244 63.0274C38.0904 63.0208 37.853 63.0175 37.619 63.0142C37.1674 63.034 36.6861 63.0869 36.9267 62.3671V61.7794C37.0157 60.9012 37.7278 61.1554 38.1992 61.1521C45.0327 61.1323 51.8662 61.1389 58.6997 61.1521C58.8843 61.1521 59.0821 61.1323 59.2733 61.1422C59.2997 61.1422 59.3261 61.1422 59.3524 61.1422C59.4217 61.1455 59.4909 61.1587 59.5568 61.1785C59.5832 61.1851 59.6095 61.195 59.6359 61.2049C59.6788 61.2214 59.7216 61.2445 59.7612 61.2709C59.7777 61.2808 59.7941 61.2941 59.8073 61.3073C59.8172 61.3106 59.8238 61.3172 59.8304 61.3271C59.8469 61.3403 59.8601 61.3535 59.8733 61.37C59.8996 61.3931 59.9194 61.4195 59.9392 61.4492C59.9458 61.4624 59.9524 61.4756 59.9623 61.4856C59.9787 61.512 59.9919 61.5384 60.0051 61.5681C60.0282 61.611 60.048 61.6605 60.0645 61.7167V62.4166C60.0645 62.4166 60.0678 62.4133 60.071 62.4133V62.4232Z" fill="#A6B0B5"/>
<path d="M60.071 62.4232C60.071 62.4232 60.0677 62.4265 60.0645 62.4265C60.0645 62.4265 60.0677 62.4232 60.071 62.4232Z" fill="#A6B0B5"/>
<path d="M37.3289 85.4789C36.6992 85.2015 36.363 84.8317 36.9102 84.1747C44.6305 84.1747 52.3474 84.1747 60.0677 84.1747L60.0578 84.1648C60.0578 84.5115 60.0578 84.8581 60.0578 85.2048L60.071 85.1883C52.9507 85.1817 45.8271 85.1751 38.7068 85.1784C38.2354 85.1784 37.7047 85.0166 37.3289 85.4822V85.4789Z" fill="#A6B0B5"/>
<path d="M68.3913 54.9119C68.3286 54.9648 68.2627 55.0143 68.1968 55.0539C68.2627 55.0077 68.3253 54.9615 68.388 54.9086H68.3913V54.9119Z" fill="#8A989E"/>
<path d="M60.0644 114.527H37.2366C38.1925 115.848 39.7254 114.438 40.2561 115.825C39.4353 115.831 38.6112 115.868 37.7936 115.835C37.2695 115.815 36.7652 115.561 36.719 115.006C36.663 114.329 37.2168 114.081 37.7904 113.992C38.1661 113.933 38.5551 113.949 38.9375 113.949C45.2898 113.949 51.6453 113.939 57.9975 113.963C58.7129 113.963 59.5535 113.698 60.0644 114.527Z" fill="#8A989E"/>
<path d="M68.2955 91.7818C57.8689 91.7752 47.4423 91.7686 37.0156 91.762C37.3486 91.1941 37.9024 91.4483 38.3507 91.4483C47.8906 91.4351 57.4272 91.4351 66.9671 91.4483C67.4187 91.4483 67.9725 91.2106 68.2988 91.7818H68.2955Z" fill="#8A989E"/>
<path d="M37.184 53.6936V53.6969L37.1807 53.6936H37.184Z" fill="#8A989E"/>
<path d="M31.0689 44.5744H15.0515C15.7174 43.9834 16.5349 43.9734 17.3557 43.9734C21.1664 43.9768 24.9771 43.9768 28.7845 43.9867C28.9328 43.9867 29.0845 43.9867 29.2328 43.9867C29.2987 43.9867 29.3647 43.9867 29.4306 43.99C29.4932 43.99 29.5559 43.99 29.6185 43.9999C29.6844 44.0032 29.7536 44.0098 29.8196 44.0197C29.8888 44.0263 29.9547 44.0362 30.0206 44.0494C30.0602 44.056 30.1031 44.0659 30.1426 44.0758C30.1492 44.0758 30.1558 44.0758 30.1624 44.0791C30.202 44.089 30.2382 44.0989 30.2778 44.1121C30.4195 44.1517 30.5547 44.2079 30.6865 44.2838C30.7228 44.3036 30.7558 44.3234 30.7887 44.3465C30.8184 44.363 30.8448 44.3829 30.8711 44.4027C30.9371 44.4489 30.9997 44.5017 31.0623 44.5645C31.0656 44.5678 31.0656 44.5711 31.0689 44.5711V44.5744Z" fill="#8A989E"/>
<path d="M38.9838 93.0628C39.4222 92.5742 40.009 92.769 40.5298 92.769C49.7796 92.7591 59.0294 92.769 68.2759 92.769C68.065 93.2411 67.6298 93.1025 67.2738 93.1025C57.8427 93.0959 48.4116 93.076 38.9805 93.0595L38.9838 93.0628Z" fill="#8A989E"/>
<path d="M60.0711 84.1714C52.3508 84.1714 44.6338 84.1714 36.9136 84.1714C37.263 83.6662 37.797 83.828 38.2651 83.8247C45.1448 83.8115 52.0245 83.8115 58.9008 83.8148C59.3162 83.8148 59.7942 83.6794 60.0711 84.1681V84.1714Z" fill="#8A989E"/>
<path d="M37.3289 85.4789C37.7079 85.0134 38.2354 85.1751 38.7068 85.1751C45.8271 85.1718 52.9507 85.1818 60.071 85.1851C59.7644 85.6374 59.2897 85.5086 58.8711 85.5086C51.6914 85.5053 44.5085 85.4888 37.3289 85.4756V85.4789Z" fill="#8A989E"/>
<path d="M31.0723 74.9333C27.71 74.9333 24.3476 74.9498 20.9852 74.9267C20.4545 74.9234 19.7194 75.2371 19.5315 74.3258C22.7983 74.3192 26.0683 74.3093 29.3351 74.306C29.9878 74.306 30.6636 74.2499 31.0723 74.9333Z" fill="#8A989E"/>
<path d="M14.3 105.348C14.7681 110.595 14.7451 115.841 14.3165 121.091C14.3099 115.844 14.3066 110.595 14.3 105.348Z" fill="#8A989E"/>
<path d="M15.1768 92.4455C19.8775 92.4455 24.5782 92.4388 29.2789 92.4455C29.7503 92.4455 30.2745 92.2771 30.6733 92.7063C25.8078 92.9704 20.9356 92.8053 16.0701 92.7789C15.7734 92.7789 15.4767 92.561 15.1801 92.4422L15.1768 92.4455Z" fill="#8A989E"/>
<path d="M31.9821 91.4054C31.5568 91.0092 31.7118 90.4876 31.7085 90.0121C31.7019 85.3105 31.7085 80.6122 31.7151 75.9106C32.0974 76.1748 32.0348 76.5809 32.0315 76.954C32.0183 81.7711 31.9986 86.5883 31.9788 91.4054H31.9821Z" fill="#8A989E"/>
<path d="M69.5746 130.309C64.4288 130.454 59.2864 130.454 54.1406 130.306C56.7844 129.854 59.4512 130.131 62.1015 130.131C64.5903 130.131 67.0923 129.847 69.5713 130.312L69.5746 130.309Z" fill="#A6B0B5"/>
<path d="M32.0051 120.787C31.5567 120.401 31.7117 119.876 31.7117 119.4C31.7051 114.692 31.7117 109.984 31.7183 105.279C32.1468 105.596 32.0314 106.065 32.0314 106.487C32.0281 111.255 32.0149 116.019 32.0018 120.787H32.0051Z" fill="#8A989E"/>
<path d="M14.2933 75.9766C14.6856 76.3167 14.5702 76.7789 14.5702 77.2015C14.5702 81.956 14.5603 86.7071 14.5537 91.4615C14.1746 91.2799 14.2373 90.9233 14.2373 90.6064C14.2504 85.7298 14.2735 80.8532 14.2933 75.9766Z" fill="#8A989E"/>
<path d="M14.5505 60.1583C14.5505 60.3498 14.3757 60.538 14.2834 60.7262C14.2867 55.6911 14.2933 50.656 14.2966 45.621C14.3889 45.8125 14.5571 46.004 14.5571 46.1955C14.5702 50.8508 14.5669 55.5062 14.5505 60.1583Z" fill="#8A989E"/>
<path d="M30.7425 104.305C26.2627 104.308 21.7828 104.318 17.303 104.312C16.8316 104.312 16.3074 104.47 15.9185 104.024C20.4544 104.008 24.9903 103.988 29.5262 103.982C29.9514 103.982 30.4162 103.899 30.7393 104.305H30.7425Z" fill="#8A989E"/>
<path d="M48.8171 130.306C44.001 130.458 39.1882 130.454 34.3721 130.306C37.2334 129.853 40.1145 130.147 42.9824 130.127C44.924 130.114 46.8854 129.85 48.8171 130.306Z" fill="#A6B0B5"/>
<path d="M5.7556 77.5582C5.60067 72.7377 5.60067 67.914 5.7556 63.0935C6.21051 64.9193 5.95009 66.7716 5.93032 68.6073C5.90065 71.5887 6.21381 74.5834 5.75231 77.5582H5.7556Z" fill="#A6B0B5"/>
<path d="M15.9153 122.428C16.1032 122.332 16.2911 122.154 16.479 122.154C20.9061 122.137 25.3365 122.141 29.7636 122.154C29.9581 122.154 30.1493 122.316 30.3405 122.405C25.531 122.412 20.7248 122.421 15.9153 122.428Z" fill="#8A989E"/>
<path d="M5.75568 103.958C5.60075 100.128 5.60075 96.2985 5.75898 92.4686C6.09522 96.2985 6.08862 100.128 5.75568 103.958Z" fill="#A6B0B5"/>
<path d="M5.75563 51.1612C5.59741 48.7609 5.59741 46.3572 5.75563 43.9569C5.96331 46.3572 6.40174 48.7609 5.75563 51.1612Z" fill="#A6B0B5"/>
<path d="M5.75565 61.0564C5.59413 58.9862 5.59742 56.9127 5.75565 54.8426C6.16441 56.9127 6.02926 58.9862 5.75565 61.0564Z" fill="#A6B0B5"/>
<path d="M5.75882 86.8028C5.5973 84.8383 5.60389 82.8772 5.75882 80.916C6.08517 82.8805 6.07528 84.8417 5.75882 86.8028Z" fill="#A6B0B5"/>
<path d="M24.1002 130.306C22.5806 130.458 21.0609 130.444 19.5413 130.306C21.0609 129.972 22.5806 129.979 24.1002 130.306Z" fill="#A6B0B5"/>
<path d="M17.1877 74.3324C16.7394 75.4847 15.7604 74.7286 15.0483 74.9333C15.6252 74.2433 16.4032 74.273 17.1877 74.3324Z" fill="#8A989E"/>
<path d="M5.75879 108.244C5.61045 107.164 5.60056 106.085 5.75879 105.005C6.08514 106.085 6.08844 107.164 5.75879 108.244Z" fill="#A6B0B5"/>
<path d="M12.2365 130.306C11.1553 130.451 10.074 130.448 8.99609 130.312C10.0773 129.972 11.1553 129.982 12.2365 130.306Z" fill="#A6B0B5"/>
<path d="M59.082 115.825C59.2501 115.27 60.0874 115.227 60.0644 114.527C60.5325 115.613 60.4534 115.722 59.082 115.825Z" fill="#8A989E"/>
<path d="M51.7804 130.309C51.0288 130.451 50.2772 130.444 49.5256 130.309C50.2772 129.999 51.0288 129.999 51.7804 130.309Z" fill="#A6B0B5"/>
<path d="M18.503 130.306C17.8602 130.438 17.2141 130.441 16.5713 130.306C17.2174 129.992 17.8602 129.989 18.503 130.306Z" fill="#A6B0B5"/>
<path d="M5.75548 89.4376C5.61373 88.7938 5.61373 88.1532 5.75548 87.5127C6.06205 88.1565 6.06535 88.7971 5.75548 89.4376Z" fill="#A6B0B5"/>
<path d="M5.75887 80.2028C5.61053 79.559 5.61382 78.9151 5.75557 78.2746C6.07203 78.9184 6.07203 79.559 5.75887 80.2028Z" fill="#A6B0B5"/>
<path d="M5.75562 53.4691C5.75562 53.0398 5.75562 52.6106 5.75562 52.1814C6.79399 52.6106 5.83143 53.0398 5.75562 53.4691Z" fill="#A6B0B5"/>
<path d="M60.071 62.4232C60.071 62.4232 60.0677 62.4265 60.0645 62.4265C60.0645 62.4265 60.0677 62.4232 60.071 62.4232Z" fill="#8A989E"/>
<path d="M60.0579 85.2048C60.0579 84.8581 60.0579 84.5115 60.0579 84.1648C60.5128 84.5115 60.4864 84.8581 60.0579 85.2048Z" fill="#8A989E"/>
<path d="M32.6676 130.309C32.3545 130.309 32.0413 130.309 31.7314 130.309C32.0446 130.035 32.3578 130.038 32.6676 130.309Z" fill="#A6B0B5"/>
<path d="M30.6898 130.309C30.3767 130.309 30.0668 130.309 29.7537 130.309C30.0668 130.038 30.3767 130.038 30.6898 130.309Z" fill="#A6B0B5"/>
<path d="M25.7484 130.303C25.4353 130.303 25.1254 130.303 24.8123 130.303C25.1254 130.032 25.4353 130.032 25.7484 130.303Z" fill="#A6B0B5"/>
<path d="M31.7348 75.937C31.415 75.8115 31.3854 75.5408 31.3886 75.2502C31.6985 75.379 31.6952 75.6696 31.7348 75.937Z" fill="#8A989E"/>
<path d="M14.5472 91.4517C14.8735 91.5969 14.9065 91.8809 14.8867 92.1879C14.6329 92.0096 14.4582 91.7917 14.5472 91.4517Z" fill="#8A989E"/>
<path d="M60.071 62.4232C60.071 62.4232 60.0677 62.4265 60.0645 62.4265V61.7266H60.0677C60.5062 61.9577 60.5095 62.1855 60.071 62.4199V62.4232Z" fill="#8A989E"/>
<path d="M31.7381 105.299C31.6754 105.233 31.6161 105.17 31.5535 105.104C31.593 105.068 31.6293 105.035 31.6688 104.998C31.7183 105.091 31.7414 105.193 31.7381 105.299Z" fill="#8A989E"/>
<path d="M31.0295 104.345C30.8712 104.606 30.7888 104.497 30.7229 104.285C30.8317 104.275 30.9339 104.295 31.0295 104.345Z" fill="#8A989E"/>
<path d="M37.3057 53.8257C37.197 53.9346 37.0849 54.0436 36.9728 54.1525L36.8706 54.0601C36.9728 53.9379 37.075 53.8191 37.1838 53.6969C37.2266 53.7398 37.2662 53.7794 37.3057 53.8257Z" fill="#8A989E"/>
<path d="M119.407 45.9115C118.764 46.0502 118.032 45.7728 117.33 45.5351C116.282 45.1752 115.81 44.4456 116.19 43.2867C116.944 40.9953 117.673 38.694 118.398 36.3895C118.55 35.9041 118.823 35.5839 119.334 35.7027C119.98 35.8546 119.74 36.4192 119.641 36.7758C119.166 38.4761 118.662 40.1732 118.108 41.8471C117.498 43.6994 117.337 44.4159 119.835 44.9111C120.327 45.0102 121.118 44.4621 121.263 45.3998C121.325 45.7993 120.824 45.928 119.404 45.9115H119.407Z" fill="#262627"/>
<path d="M119.545 52.1418C118.102 52.3795 116.895 51.7588 115.685 51.1711C115.359 51.0126 114.921 50.8046 115.181 50.3258C115.422 49.8801 115.751 49.8702 116.256 50.1244C118.827 51.422 121.345 51.6399 123.748 49.6556C124.035 49.4212 124.731 49.2264 124.932 49.9594C125.077 50.481 124.958 51.0456 124.371 51.1447C122.736 51.4187 121.266 52.4521 119.545 52.1418Z" fill="#262627"/>
<path d="M110.971 28.0989C111.891 27.9933 112.811 28.3234 113.727 28.5942C113.958 28.6635 114.469 28.7824 114.35 29.2083C114.248 29.5748 113.909 29.8752 113.473 29.7465C110.962 28.9937 108.572 29.4163 106.254 30.4894C105.809 30.6974 105.631 30.4365 105.562 30.1427C105.391 29.4064 105.911 28.9442 106.472 28.8055C107.764 28.4885 109.092 28.3234 110.411 28.1055C110.569 28.0791 110.737 28.1022 110.971 28.1022V28.0989Z" fill="#262627"/>
<path d="M132.53 29.7498C132.435 30.0998 132.184 30.3342 131.762 30.4068C131.399 30.4695 130.875 30.354 130.734 30.2681C129.085 29.2611 127.348 29.5286 125.598 29.7201C125.255 29.7597 124.77 29.9182 124.642 29.38C124.52 28.855 124.84 28.581 125.314 28.4324C127.668 27.6928 129.91 28.1584 132.112 29.0597C132.402 29.1786 132.537 29.38 132.527 29.7498H132.53Z" fill="#262627"/>
<path d="M108.815 36.1287C108.74 34.9698 109.478 34.4217 110.355 34.4415C111.195 34.458 112.128 34.9434 112.056 36.0065C111.987 36.9937 111.39 37.8984 110.322 37.9248C109.247 37.9512 108.815 37.0994 108.815 36.1254V36.1287Z" fill="#262627"/>
<path d="M129.273 36.1452C129.342 37.2908 128.222 37.8323 127.671 37.8488C126.755 37.8752 126.076 36.7956 126.059 35.9372C126.046 35.2834 126.56 34.3292 127.599 34.3854C128.667 34.4448 129.197 35.0985 129.273 36.1419V36.1452Z" fill="#262627"/>
<path d="M30.0569 45.6474C25.3364 45.687 20.6126 45.446 15.8921 45.763C15.8921 50.1872 15.8888 54.6148 15.902 59.039C15.902 59.6234 15.7306 60.2573 16.2185 60.7559C16.6503 60.7658 17.0821 60.779 17.5107 60.7889C17.9689 60.7889 18.4238 60.7889 18.882 60.7889C19.3039 60.7889 19.7259 60.7889 20.1478 60.7889H21.1862C22.4883 60.7889 23.7904 60.7856 25.0925 60.7856C26.7473 60.7757 28.4021 60.7658 30.0602 60.7559C30.1657 60.6998 30.2712 60.6469 30.3767 60.5908C30.3767 56.2392 30.3767 51.8843 30.3734 47.5327C30.3701 46.8888 30.5019 46.2186 30.0569 45.6474ZM27.9867 51.4782C26.1374 53.3568 24.2815 55.2289 22.4257 57.1009C22.0334 57.4971 21.5686 57.682 21.1269 57.2528C20.1907 56.3349 19.2446 55.4138 18.4172 54.4001C18.1139 54.0271 17.7117 53.4559 18.3051 52.8418C18.9611 52.1616 19.449 52.7361 19.8412 53.0498C20.4775 53.5549 20.9818 54.2252 21.6114 54.8987C23.0025 53.479 24.2881 52.1451 25.6067 50.8442C25.9891 50.4678 26.4275 50.0749 26.9121 49.9033C27.3209 49.758 27.9076 49.6391 28.2571 50.1641C28.6032 50.6792 28.3527 51.1084 27.9867 51.4782Z" fill="white"/>
<path d="M30.0569 45.6474C25.3364 45.687 20.6126 45.446 15.8921 45.763C16.0701 45.2182 16.5316 45.2479 16.9667 45.2479C21.0016 45.2479 25.0331 45.2479 29.068 45.2479C29.4471 45.2479 29.8426 45.2314 30.0569 45.6507V45.6474Z" fill="#8A989E"/>
<path d="M20.1479 60.7922C19.726 61.2149 19.304 61.2149 18.8821 60.7922C19.304 60.7922 19.726 60.7922 20.1479 60.7922Z" fill="#8A989E"/>
<path d="M17.5107 60.7922C17.069 61.2248 16.6372 61.2182 16.2185 60.7592C16.6503 60.7691 17.0822 60.7823 17.5107 60.7922Z" fill="#8A989E"/>
<path d="M30.3768 60.5908C30.324 60.7493 30.3603 61.0762 30.0603 60.7559C30.1658 60.6998 30.2713 60.6469 30.3768 60.5908Z" fill="#8A989E"/>
<path d="M16.2514 91.2007C15.714 90.7252 15.9019 90.088 15.9019 89.5102C15.8888 85.0397 15.8921 80.5726 15.8921 76.1021C16.8546 75.762 17.8534 76.0261 18.8292 75.9073C19.0665 75.9073 19.3006 75.9073 19.5379 75.9073C23.0684 75.9337 26.5956 75.9568 30.1261 75.9832C30.4854 76.528 30.3766 77.1454 30.3799 77.7397C30.3832 81.6819 30.3865 85.6274 30.37 89.5696C30.37 90.1507 30.5546 90.7913 30.0074 91.2634C25.4221 91.2436 20.8367 91.2205 16.2514 91.2007ZM18.8391 83.2172C18.0611 83.1908 17.8534 83.5903 18.1007 84.3761C18.4831 85.5977 19.5379 86.2383 20.3192 87.1264C21.1828 88.1103 21.8916 88.0608 22.7618 87.1396C24.3474 85.4657 25.9989 83.861 27.6076 82.2069C28.0757 81.7249 28.9196 81.1966 28.1416 80.4636C27.5252 79.8825 26.7472 80.1037 26.1242 80.7277C24.8847 81.9692 23.5695 83.138 22.386 84.4289C21.5191 85.3732 20.8169 85.4425 20.3126 84.2407C19.9928 83.478 19.3236 83.5012 18.8391 83.2139V83.2172Z" fill="white"/>
<path d="M16.2515 91.2007C20.8368 91.2205 25.4222 91.2403 30.0075 91.2634C29.8888 91.8907 29.3878 91.7686 28.9757 91.7719C25.1189 91.7785 21.2621 91.7785 17.4052 91.7719C16.947 91.7719 16.3734 91.9271 16.2515 91.204V91.2007Z" fill="#8A989E"/>
<path d="M30.1263 75.9832C26.5958 75.9568 23.0686 75.9337 19.5381 75.9073C20.4908 75.2866 21.5489 75.6597 22.5543 75.6266C24.5685 75.5606 26.5892 75.5969 28.6066 75.6101C29.134 75.6101 29.7142 75.4682 30.1263 75.9832Z" fill="#8A989E"/>
<path d="M18.8292 75.9073C17.8535 76.0295 16.8514 75.762 15.8921 76.1021C16.8184 75.2205 17.8205 75.5078 18.8292 75.9073Z" fill="#8A989E"/>
<path d="M30.4361 120.463C30.3834 120.543 30.3636 120.632 30.3735 120.728C29.3944 120.771 28.4187 120.813 27.4397 120.856C27.2089 120.856 26.9749 120.856 26.7441 120.856C26.2068 120.856 25.6695 120.856 25.1321 120.856C24.7893 120.856 24.4498 120.856 24.1069 120.856C23.3488 120.856 22.5939 120.856 21.8357 120.856C19.8974 120.84 17.9558 120.823 16.0175 120.807C15.9614 120.153 15.8626 119.503 15.8593 118.849C15.8395 114.563 15.8395 110.274 15.8362 105.989C17.2372 105.23 18.7634 105.916 20.2007 105.599C20.949 105.599 21.7005 105.599 22.4488 105.599C23.0158 105.599 23.5861 105.599 24.1531 105.599C24.575 105.599 24.9937 105.599 25.4156 105.599C26.8628 105.599 28.3066 105.599 29.7538 105.599C29.9614 105.652 30.1691 105.702 30.3801 105.754C30.357 105.837 30.3702 105.913 30.4196 105.982C30.4262 110.809 30.4295 115.636 30.4361 120.463Z" fill="white"/>
<path d="M15.8362 105.989C15.8428 110.275 15.8395 114.563 15.8593 118.849C15.8593 119.503 15.9614 120.153 16.0175 120.807C15.2593 120.609 15.2329 120.014 15.2329 119.387C15.2362 115.3 15.2329 111.212 15.2395 107.125C15.2395 106.653 15.1176 106.091 15.8362 105.989Z" fill="#8A989E"/>
<path d="M30.4359 120.463C30.4293 115.636 30.426 110.809 30.4194 105.982C31.1381 106.085 31.0359 106.639 31.0359 107.121C31.0392 111.186 31.0425 115.253 31.0359 119.318C31.0359 119.793 31.1611 120.358 30.4359 120.467V120.463Z" fill="#8A989E"/>
<path d="M27.4395 120.856C28.4185 120.814 29.3942 120.771 30.3733 120.728C29.6349 121.728 28.4152 121.781 27.4395 120.856Z" fill="#8A989E"/>
<path d="M21.8389 120.856C22.597 120.856 23.3519 120.856 24.1101 120.856C23.3519 121.847 22.597 121.847 21.8389 120.856Z" fill="#8A989E"/>
<path d="M25.1353 120.856C25.6726 120.856 26.2099 120.856 26.7472 120.856C26.2099 121.83 25.6726 121.827 25.1353 120.856Z" fill="#8A989E"/>
<path d="M22.452 105.599C21.7037 105.599 20.9521 105.599 20.2039 105.599C20.9554 105.157 21.7037 105.154 22.452 105.599Z" fill="#8A989E"/>
<path d="M25.4188 105.599C24.9968 105.599 24.5782 105.599 24.1562 105.599C24.5782 105.183 24.9968 105.187 25.4188 105.599Z" fill="#8A989E"/>
<path d="M30.38 105.754C30.1723 105.702 29.9646 105.652 29.7537 105.599C30.0668 105.226 30.2481 105.381 30.38 105.754Z" fill="#8A989E"/>
<path d="M68.3879 54.9119C68.3253 54.9648 68.2626 55.011 68.1967 55.0572C68.1407 55.0935 68.0879 55.1232 68.0319 55.1529C68.022 55.1596 68.0088 55.1662 67.9956 55.1695C67.9462 55.1959 67.8934 55.2157 67.8407 55.2355C67.7814 55.2586 67.7187 55.2784 67.6561 55.2949C67.5968 55.3114 67.5341 55.3279 67.4715 55.3378C67.4089 55.3511 67.3429 55.361 67.2803 55.3676C66.8748 55.4204 66.4529 55.3907 66.0441 55.3907C57.5064 55.4039 48.9686 55.4039 40.4308 55.394C39.5045 55.3907 38.5749 55.3246 37.6486 55.2388C36.9596 55.1728 36.4817 54.8855 36.8706 54.0634L36.9728 54.1558C37.0849 54.0469 37.197 53.9379 37.3058 53.829C37.2662 53.7828 37.2267 53.7431 37.1838 53.7002C37.5761 53.4163 38.0277 53.5054 38.4562 53.5054C47.95 53.4988 57.4437 53.4988 66.9375 53.5087C67.4056 53.5087 67.9396 53.3205 68.3121 53.8092C68.7802 54.1459 68.7077 54.519 68.3879 54.9119Z" fill="#A6B0B5"/>
<path d="M21.6113 54.902C23.0057 53.4823 24.2881 52.1484 25.6099 50.8475C25.9923 50.4711 26.4274 50.0782 26.9153 49.9065C27.3208 49.7646 27.9108 49.6424 28.2603 50.1674C28.6031 50.6824 28.3559 51.1117 27.99 51.4814C26.1407 53.3601 24.2848 55.2289 22.4289 57.1042C22.0366 57.5004 21.5718 57.6886 21.1301 57.2561C20.1906 56.3382 19.2445 55.4171 18.4171 54.4034C18.1138 54.0303 17.7117 53.4592 18.305 52.845C18.9643 52.1649 19.4489 52.7394 19.8412 53.0497C20.4774 53.5549 20.985 54.2284 21.6113 54.8987V54.902Z" fill="#176BB4"/>
<path d="M18.8424 83.2172C19.3302 83.5045 19.9961 83.4847 20.3159 84.2441C20.8202 85.4459 21.5257 85.3765 22.3893 84.4323C23.5728 83.1413 24.888 81.9725 26.1275 80.7311C26.7505 80.1071 27.5285 79.8858 28.1449 80.4669C28.9229 81.1999 28.079 81.7282 27.6109 82.2102C26.0055 83.8611 24.3507 85.469 22.7651 87.1429C21.8949 88.0608 21.1861 88.1136 20.3225 87.1297C19.5412 86.2416 18.4863 85.6011 18.104 84.3794C17.8567 83.5903 18.0611 83.1941 18.8424 83.2205V83.2172Z" fill="#176BB4"/>
<path d="M130.944 119.803C130.054 120.579 128.986 120.975 127.895 121.299C126.498 121.715 125.064 122.028 123.709 122.557L125.057 120.982C126.61 120.424 128.225 120.001 129.814 119.526C130.13 119.43 130.562 119.311 130.944 119.803Z" fill="#E18B40"/>
</svg>
