<svg width="640" height="640" viewBox="0 0 640 640" fill="none" xmlns="http://www.w3.org/2000/svg">
<path d="M320 0C496.731 0 640 143.269 640 320C640 496.731 496.731 640 320 640C143.269 640 0 496.731 0 320C0 143.269 143.269 0 320 0Z" fill="#032EA1"/>
<path d="M597.188 160C624.416 207.068 640 261.714 640 320C640 378.286 624.416 432.932 597.188 480H42.8115C15.5841 432.932 0 378.286 0 320C0 261.714 15.5841 207.068 42.8115 160H597.188Z" fill="#E00025"/>
<path d="M230.291 300.307H412.371V370.368H230.291V300.307Z" fill="white" stroke="black" stroke-width="1.44" stroke-linejoin="bevel"/>
<path d="M229.568 314.915H411.648V322.099H229.568V314.915ZM229.568 325.955H411.648V334.099H229.568V325.955ZM232.116 338.995V365.387H237.853V338.995H232.116ZM243.364 338.995V365.387H249.101V338.995H243.364ZM255.364 338.995V365.387H261.1V338.995H255.364ZM267.364 338.995V365.387H273.101V338.995H267.364ZM278.612 338.995V365.387H284.349V338.995H278.612ZM356.996 338.995V365.387H362.733V338.995H356.996ZM367.876 338.995V365.387H373.613V338.995H367.876ZM379.876 338.995V365.387H385.613V338.995H379.876ZM391.876 338.995V365.387H397.612V338.995H391.876ZM403.364 338.995V365.387H409.101V338.995H403.364Z" fill="white" stroke="black" stroke-width="1.44" stroke-linejoin="bevel"/>
<path d="M229.572 303.891H411.652V310.858H229.572V303.891Z" fill="white" stroke="black" stroke-width="1.4176" stroke-linejoin="bevel"/>
<path d="M159.072 374.051C161.888 372.616 165.099 369.277 166.151 365.539H475.063C476.114 369.277 479.327 372.616 482.143 374.051H159.072Z" fill="white" stroke="black" stroke-width="1.2656"/>
<path d="M316.835 193.651C316.835 193.651 316.604 187.072 320.435 187C324.268 187.07 324.035 193.651 324.035 193.651H316.835ZM296.851 280.915V272.058C296.723 267.629 292.435 267.309 292.31 264.08C292.31 264.08 291.756 259.237 293.033 257.027C294.768 263.502 297.923 262.314 297.923 259.651C297.923 257.326 296.136 255.165 292.47 249.523C291.299 247.718 292.022 242.067 293.665 240.046C294.3 244.958 295.028 247.31 297.137 247.31C298.425 247.31 299.476 246.472 299.476 244.011C299.476 240.88 297.356 239.299 296.313 236.451C295.097 233.126 295.936 229.738 297.955 227.843C298.822 232.691 298.563 234.622 300.718 234.622C305.059 233.25 300.718 226.965 299.79 225.379C298.724 223.531 301.225 219.843 301.225 219.843C302.606 224.147 303.049 224.499 304.537 224.099C306.416 223.595 306.174 220.81 303.881 218.558C302.435 217.134 302.588 215.019 304.142 213.32C305.702 216.368 307.699 216.184 307.891 214.373L306.636 207.346H334.244L332.875 214.146C332.483 216.09 335.108 216.514 336.74 213.322C338.296 215.021 338.448 217.138 337.001 218.56C334.71 220.811 334.467 223.597 336.345 224.101C337.833 224.501 338.278 224.149 339.657 219.845C339.657 219.845 341.902 222.357 341.092 225.381C340.164 226.965 335.824 233.253 340.164 234.624C342.318 234.624 342.06 232.691 342.926 227.845C344.947 229.739 345.784 233.128 344.568 236.453C343.528 239.301 341.406 240.882 341.406 244.013C341.406 246.474 342.457 247.312 343.742 247.312C345.854 247.312 346.582 244.96 347.219 240.048C348.859 242.069 349.584 247.72 348.412 249.523C344.748 255.165 342.96 257.326 342.96 259.651C342.96 262.314 346.112 263.502 347.849 257.027C349.124 259.235 348.569 264.08 348.569 264.08C348.444 267.309 344.156 267.629 344.03 272.058V280.915H296.851ZM308.403 207.283L307.768 202.283H333.108L332.475 207.283H308.403ZM310.099 202.179L309.555 198.067H331.32L330.776 202.179H310.099ZM313.555 197.923L313.192 193.811H327.684L327.323 197.923H313.555ZM366.387 374.051C363.144 372.803 358.424 369.379 358.424 365.939V327.064L362.644 321.691H278.204L282.252 327.067V365.941C282.252 369.381 279.009 372.805 275.768 374.053L366.387 374.051Z" fill="white" stroke="black" stroke-width="1.44"/>
<path d="M293.475 338.995H299.212V365.387H293.475V338.995ZM341.987 338.995H347.724V365.387H341.987V338.995Z" fill="white" stroke="black" stroke-width="1.3504" stroke-linejoin="bevel"/>
<path d="M277.324 277.443V321.693H363.761V312.161L363.886 277.441C360.353 278.83 359.732 282.033 359.732 282.033V300.878H281.732V282.035C281.732 282.035 280.862 278.832 277.326 277.443H277.324Z" fill="white" stroke="black" stroke-width="1.44"/>
<path d="M290.884 317.062C293.612 318.506 296.656 319.706 297.742 322.438V365.942C297.742 369.347 292.979 372.731 290.142 374.01L290.051 374.051H290.056L290.051 374.053H351.164L351.073 374.01C348.236 372.731 343.473 369.347 343.473 365.942V322.438C344.56 319.706 347.601 318.506 350.331 317.062H290.883H290.884Z" fill="white"/>
<path d="M351.164 374.053H290.051L290.056 374.051H290.051L290.142 374.01C292.979 372.731 297.742 369.347 297.742 365.942V322.438C296.656 319.706 293.612 318.506 290.884 317.062H290.883H350.331C347.601 318.506 344.56 319.706 343.473 322.438V365.942C343.473 369.347 348.236 372.731 351.073 374.01L351.164 374.053ZM351.164 374.053H351.16" stroke="black" stroke-width="1.44"/>
<path d="M359.54 317.523V286.184H351.684V283.128H289.54V286.184H281.684V317.523H359.54ZM339.46 374.051C336.692 372.803 332.66 369.379 332.66 365.939V328.797L334.935 325.421H306.631L308.903 328.797V365.941C308.903 369.384 304.871 372.805 302.103 374.053L339.46 374.051Z" fill="white" stroke="black" stroke-width="1.44"/>
<path d="M313.443 325.427H327.789V374.03H313.443V325.427Z" fill="white" stroke="black" stroke-width="1.472"/>
<path d="M335.042 314.739C335.074 311.539 344.383 311.395 349.174 308.667H291.65C296.441 311.393 305.53 311.617 305.53 314.739L307.478 320.95L331.29 321.907L335.042 314.739Z" fill="white" stroke="black" stroke-width="1.3504" stroke-linejoin="bevel"/>
<path d="M346.548 280.915C346.548 273.075 346.876 270.058 349.284 270.058V294.986C343.38 297.13 339.164 304.666 339.164 304.666H302.028C302.028 304.666 297.812 297.13 291.906 294.986V270.058C294.874 270.058 294.893 273.213 294.893 280.915H346.548ZM349.284 277.699C349.284 268.71 357.044 267.699 357.044 267.699V275.699C354.092 275.571 352.666 278.224 352.666 282.17C352.666 286.115 355.045 286.179 355.045 286.179V308.883H349.285L349.284 277.699Z" fill="white" stroke="black" stroke-width="1.44"/>
<path d="M291.94 277.699C291.94 268.71 284.18 267.699 284.18 267.699V275.699C287.132 275.571 288.557 278.224 288.557 282.17C288.557 286.115 286.178 286.179 286.178 286.179V308.883H291.938L291.94 277.699Z" fill="white" stroke="black" stroke-width="1.44"/>
<path d="M306.978 215.763H334.383M303.73 224.323H337.202M300.482 234.707H340.328M297.09 247.395H344.348M296.002 261.859H344.684" stroke="black" stroke-width="1.2"/>
<path d="M281.234 309.043H359.09M305.938 309.059H334.796V319.667H305.938V309.059Z" stroke="black" stroke-width="1.44"/>
<path d="M302.322 285.555C307.106 291.299 306.663 301.043 306.61 306.787H334.357C334.301 301.043 333.858 291.299 338.642 285.555H302.322ZM317.922 219.747L314.121 217.789V212.193C315.673 212.657 317.42 212.849 317.589 215.326C318.13 211.79 319.106 211.963 320.641 210.585C322.172 211.961 323.148 211.79 323.689 215.326C323.86 212.849 325.604 212.659 327.161 212.19V217.787L323.356 219.746L317.922 219.747Z" fill="white" stroke="black" stroke-width="1.44"/>
<path d="M317.667 228.931L311.354 224.59V219.433C313.566 219.945 316.051 220.154 316.294 222.874C317.066 218.995 318.454 216.992 320.638 215.481C322.822 216.992 324.211 218.995 324.982 222.874C325.226 220.154 327.71 219.945 329.926 219.433V224.59L323.609 228.931H317.667Z" fill="white" stroke="black" stroke-width="1.44"/>
<path d="M317.22 243.251L309.959 236.875V229.297C312.503 230.049 315.362 230.357 315.642 234.347C316.527 228.651 318.125 225.707 320.634 223.488C323.146 225.707 324.746 228.649 325.631 234.345C325.911 230.355 328.767 230.048 331.311 229.294V236.87L324.053 243.246L317.22 243.251ZM330.612 251.715L324.045 260.797H316.612L310.045 251.715H330.612ZM306.26 266.963C309.545 268.758 310.756 272.334 311.108 279.048H329.588C329.94 272.334 331.151 268.76 334.436 266.963H306.26Z" fill="white" stroke="black" stroke-width="1.44"/>
<path d="M334.979 251.715V242.592C331.859 243.451 329.838 245.296 328.937 247.805C328.937 244.776 324.953 237.794 320.606 234.317C316.248 238.208 312.195 244.525 312.276 247.805C311.536 245.418 309.356 243.453 306.236 242.592V251.715H334.979Z" fill="white" stroke="black" stroke-width="1.3504" stroke-linejoin="bevel"/>
<path d="M336.364 266.963V257.84C332.943 258.699 330.729 260.544 329.74 263.053C329.74 260.024 325.372 253.04 320.609 249.565C315.831 253.456 311.388 259.773 311.478 263.053C310.665 260.666 308.274 258.701 304.854 257.84V266.963H336.364Z" fill="white" stroke="black" stroke-width="1.3504" stroke-linejoin="bevel"/>
<path d="M340.208 285.683V275.16C335.952 276.259 333.309 279.405 331.968 281.24C331.968 275.544 325.536 266.856 320.608 264.011C315.552 266.931 309.248 275.907 309.248 281.24C307.872 279.416 305.264 276.259 301.008 275.16V285.683H340.208Z" fill="white" stroke="black" stroke-width="1.3504" stroke-linejoin="bevel"/>
<path d="M337.904 309.043V298.224C334.151 299.696 333.028 303.312 331.847 305.771C332.311 294.795 325.668 283.003 320.608 280.011C315.548 283.003 308.78 295.051 309.37 305.771C308.157 303.328 307.066 299.696 303.312 298.224V309.043H337.904Z" fill="white" stroke="black" stroke-width="1.3504" stroke-linejoin="bevel"/>
<path d="M335.272 325.427V314.608C331.339 315.544 331.096 316.992 329.845 319.418C330.309 312.862 325.669 305.386 320.608 302.394C315.547 305.386 310.905 312.864 311.369 319.418C310.121 316.994 309.966 315.546 305.945 314.608V325.427H335.272Z" fill="white" stroke="black" stroke-width="1.44"/>
<path d="M166.33 365.539V332.835C165.258 328.67 161.722 324.987 159.066 324.249V295.459L165.05 298.697L171.886 328.793V365.539H166.33Z" fill="white" stroke="black" stroke-width="1.44"/>
<path d="M166.33 365.667V332.835C165.258 328.672 161.722 324.989 159.066 324.251V293.462C163.082 293.462 165.05 298.699 165.05 298.699L171.886 328.795V365.414L166.33 365.667Z" fill="white" stroke="black" stroke-width="1.44"/>
<path d="M162.074 374.051C164.842 372.803 168.874 369.379 168.874 365.939V325.064L166.975 321.691H236.612L233.895 325.064V365.939C233.895 369.379 236.663 372.803 239.431 374.051H162.074Z" fill="white" stroke="black" stroke-width="1.44"/>
<path d="M225.378 374.051C222.61 372.803 218.578 369.379 218.578 365.939V327.064L224.37 321.688L177.029 321.691L182.821 327.064V365.939C182.821 369.379 178.789 372.803 176.021 374.051H225.378Z" fill="white" stroke="black" stroke-width="1.44"/>
<path d="M218.978 374.051C216.21 372.803 212.178 369.379 212.178 365.939V330.795L215.97 325.419H185.893L189.685 330.795V365.939C189.685 369.379 185.653 372.803 182.885 374.051H218.978Z" fill="white" stroke="black" stroke-width="1.44"/>
<path d="M193.762 325.427H208.131V374.056H193.762V325.427Z" fill="white" stroke="black" stroke-width="1.44"/>
<path d="M173.955 338.996H179.692V365.387H173.955V338.996ZM221.711 338.996H227.449V365.387H221.711V338.996ZM169.059 294.483H175.971V321.539H169.059V294.483ZM169.059 289.396H175.931V294.42H169.059V289.396Z" fill="white" stroke="black" stroke-width="1.3504" stroke-linejoin="bevel"/>
<path d="M225.906 300.307H235.762V321.193H225.906V300.307Z" fill="white" stroke="black" stroke-width="1.5504" stroke-linejoin="bevel"/>
<path d="M175.859 321.331V275.027C177.83 275.027 178.134 281.811 182.659 281.811C185.011 281.811 184.761 279.002 183.44 276.712C182.268 274.683 180.82 271.883 182.788 266.664C184.139 270.658 187.769 271.925 187.099 269.421C185.947 265.12 182.627 264.413 185.115 257.738C185.982 263.306 189.553 263.061 188.686 259.824C187.71 256.176 185.689 254.682 188.18 249.539C189.577 255.379 191.464 255.035 191.464 251.411C191.464 246.058 191.259 240.282 198.188 238.139C198.188 238.139 198.588 233.23 201.088 233.23C203.587 233.23 203.988 238.139 203.988 238.139C210.916 240.283 210.712 246.059 210.712 251.413C210.712 255.037 212.6 255.381 213.995 249.541C216.488 254.683 214.467 256.178 213.491 259.826C212.62 263.062 216.195 263.309 217.059 257.739C219.548 264.414 216.23 265.122 215.075 269.422C214.406 271.926 218.035 270.659 219.385 266.667C221.353 271.883 219.905 274.683 218.734 276.715C217.412 279.003 217.161 281.814 219.518 281.814C224.04 281.814 224.344 275.03 226.315 275.03V321.334L175.859 321.331ZM165.033 286.355V321.683H169.049V286.266C167.603 285.535 166.243 285.422 165.033 286.355Z" fill="white" stroke="black" stroke-width="1.44"/>
<path d="M165.16 309.219C170.139 311.763 175.072 314.712 176.32 321.688H165.16V309.219ZM234.227 298.643V321.695H237.483V298.586C236.467 298.109 235.079 298.034 234.227 298.643Z" fill="white" stroke="black" stroke-width="1.44"/>
<path d="M237.491 309.043C232.512 311.587 227.579 314.536 226.331 321.512H237.491V309.043ZM204.563 255.203L207.465 252.763V249.639C206.403 249.743 205.824 250.107 205.04 251.136C204.372 249.064 202.905 247.448 200.94 246.443C198.972 247.448 197.507 248.992 196.84 251.063C196.056 250.034 195.476 249.743 194.414 249.639V252.763L197.318 255.203H204.563Z" fill="white" stroke="black" stroke-width="1.44"/>
<path d="M206.116 263.027L207.465 260.107V256.043C206.403 256.15 205.824 256.52 205.04 257.563C204.372 255.462 202.905 253.822 200.94 252.805C198.972 253.824 197.507 255.39 196.84 257.489C196.056 256.449 195.476 256.152 194.414 256.046V260.11L195.764 263.029L206.116 263.027Z" fill="white" stroke="black" stroke-width="1.44"/>
<path d="M206.317 273.635L210.629 268.376V263.187C209.051 263.363 208.19 263.992 207.026 265.757C206.034 262.202 203.858 261.424 200.936 259.699C198.018 261.424 195.838 262.075 194.848 265.63C193.682 263.866 192.821 263.365 191.248 263.187V268.376L195.555 273.635H206.317Z" fill="white" stroke="black" stroke-width="1.44"/>
<path d="M207.582 284.051C207.582 284.051 212.606 279.667 212.904 277.261V271.713C210.957 271.941 209.115 272.446 207.677 274.725C206.454 270.133 204.541 268.853 200.939 266.625C197.333 268.853 195.422 270.133 194.198 274.725C192.758 272.445 190.918 271.941 188.973 271.712V277.258C189.605 279.664 194.293 284.048 194.293 284.048L207.582 284.051Z" fill="white" stroke="black" stroke-width="1.44"/>
<path d="M209.725 303.283C209.725 303.283 216.605 295.667 216.765 292.697V284.048C214.189 284.405 211.755 286.176 209.853 289.728C208.235 282.57 205.709 277.577 200.941 274.105C196.173 277.577 193.645 282.569 192.029 289.729C190.125 286.174 187.69 284.401 185.115 284.046V292.696C185.608 295.664 192.155 303.281 192.155 303.281L209.725 303.283Z" fill="white" stroke="black" stroke-width="1.44"/>
<path d="M209.725 314.659C209.725 314.659 215.608 308.672 216.765 306.074V297.424C214.189 297.781 211.755 299.552 209.853 303.104C208.235 295.946 205.709 291.847 200.941 288.375C196.173 291.847 193.645 295.946 192.029 303.106C190.125 299.549 187.69 297.778 185.115 297.422V306.072C186.608 308.67 192.155 314.658 192.155 314.658L209.725 314.659Z" fill="white" stroke="black" stroke-width="1.44"/>
<path d="M212.402 321.267C210.687 313.798 209.21 308.259 200.943 302.643C192.674 308.259 191.199 313.798 189.48 321.267H212.402Z" fill="white" stroke="black" stroke-width="1.44"/>
<path d="M216.562 325.427V314.608C212.808 316.08 209.414 318.256 208.162 320.68C206.766 314.674 204.072 312.027 200.718 308.392C197.363 312.027 195.118 314.674 193.718 320.68C192.467 318.256 189.075 316.08 185.318 314.608V325.427H216.562Z" fill="white" stroke="black" stroke-width="1.44"/>
<path d="M474.923 365.539V332.835C475.995 328.67 479.532 324.987 482.188 324.249V295.459L476.203 298.697L469.368 328.793V365.539H474.923Z" fill="white" stroke="black" stroke-width="1.44"/>
<path d="M474.923 365.667V332.835C475.995 328.672 479.532 324.989 482.188 324.251V293.462C478.171 293.462 476.203 298.699 476.203 298.699L469.368 328.795V365.414L474.923 365.667Z" fill="white" stroke="black" stroke-width="1.44"/>
<path d="M479.18 374.051C476.412 372.803 472.38 369.379 472.38 365.939V325.064L474.279 321.691H404.642L407.359 325.064V365.939C407.359 369.379 404.591 372.803 401.823 374.051H479.18Z" fill="white" stroke="black" stroke-width="1.44"/>
<path d="M415.876 374.051C418.644 372.803 422.676 369.379 422.676 365.939V327.064L416.884 321.688L464.224 321.691L458.432 327.064V365.939C458.432 369.379 462.464 372.803 465.232 374.051H415.876Z" fill="white" stroke="black" stroke-width="1.44"/>
<path d="M422.276 374.051C425.044 372.803 429.076 369.379 429.076 365.939V330.795L425.284 325.419H455.361L451.569 330.795V365.939C451.569 369.379 455.601 372.803 458.369 374.051H422.276Z" fill="white" stroke="black" stroke-width="1.44"/>
<path d="M447.492 325.427H433.123V374.056H447.492V325.427Z" fill="white" stroke="black" stroke-width="1.44"/>
<path d="M467.299 338.996H461.562V365.387H467.299V338.996ZM419.543 338.996H413.805V365.387H419.543V338.996ZM472.195 294.483H465.283V321.539H472.195V294.483ZM472.195 289.396H465.323V294.42H472.195V289.396Z" fill="white" stroke="black" stroke-width="1.3504" stroke-linejoin="bevel"/>
<path d="M415.348 300.307H405.492V321.193H415.348V300.307Z" fill="white" stroke="black" stroke-width="1.5504" stroke-linejoin="bevel"/>
<path d="M465.395 321.331V275.027C463.424 275.027 463.12 281.811 458.595 281.811C456.243 281.811 456.493 279.002 457.814 276.712C458.986 274.683 460.434 271.883 458.466 266.664C457.115 270.658 453.485 271.925 454.155 269.421C455.307 265.12 458.627 264.413 456.139 257.738C455.272 263.306 451.701 263.061 452.568 259.824C453.544 256.176 455.565 254.682 453.073 249.539C451.677 255.379 449.79 255.035 449.79 251.411C449.79 246.058 449.995 240.282 443.066 238.139C443.066 238.139 442.666 233.23 440.166 233.23C437.667 233.23 437.266 238.139 437.266 238.139C430.338 240.283 430.542 246.059 430.542 251.413C430.542 255.037 428.654 255.381 427.259 249.541C424.766 254.683 426.787 256.178 427.763 259.826C428.633 263.062 425.059 263.309 424.195 257.739C421.706 264.414 425.024 265.122 426.179 269.422C426.848 271.926 423.219 270.659 421.869 266.667C419.901 271.883 421.349 274.683 422.52 276.715C423.842 279.003 424.093 281.814 421.736 281.814C417.214 281.814 416.91 275.03 414.939 275.03V321.334L465.395 321.331ZM476.221 286.355V321.683H472.205V286.266C473.651 285.535 475.011 285.422 476.221 286.355Z" fill="white" stroke="black" stroke-width="1.44"/>
<path d="M476.094 309.219C471.115 311.763 466.182 314.712 464.934 321.688H476.094V309.219ZM407.027 298.643V321.695H403.771V298.586C404.787 298.109 406.175 298.034 407.027 298.643Z" fill="white" stroke="black" stroke-width="1.44"/>
<path d="M403.763 309.043C408.742 311.587 413.675 314.536 414.923 321.512H403.763V309.043ZM436.691 255.203L433.789 252.763V249.639C434.851 249.743 435.43 250.107 436.214 251.136C436.881 249.064 438.349 247.448 440.313 246.443C442.281 247.448 443.747 248.992 444.414 251.063C445.198 250.034 445.777 249.743 446.84 249.639V252.763L443.936 255.203H436.691Z" fill="white" stroke="black" stroke-width="1.44"/>
<path d="M435.137 263.027L433.789 260.107V256.043C434.851 256.15 435.43 256.52 436.214 257.563C436.881 255.462 438.349 253.822 440.313 252.805C442.281 253.824 443.747 255.39 444.414 257.489C445.198 256.449 445.777 256.152 446.84 256.046V260.11L445.489 263.029L435.137 263.027Z" fill="white" stroke="black" stroke-width="1.44"/>
<path d="M434.937 273.635L430.625 268.376V263.187C432.203 263.363 433.063 263.992 434.228 265.757C435.22 262.202 437.396 261.424 440.318 259.699C443.236 261.424 445.415 262.075 446.406 265.63C447.572 263.866 448.433 263.365 450.006 263.187V268.376L445.699 273.635H434.937Z" fill="white" stroke="black" stroke-width="1.44"/>
<path d="M433.67 284.051C433.67 284.051 428.646 279.667 428.348 277.261V271.713C430.295 271.941 432.137 272.446 433.575 274.725C434.798 270.133 436.711 268.853 440.313 266.625C443.919 268.853 445.83 270.133 447.054 274.725C448.494 272.445 450.334 271.941 452.279 271.712V277.258C451.647 279.664 446.959 284.048 446.959 284.048L433.67 284.051Z" fill="white" stroke="black" stroke-width="1.44"/>
<path d="M431.529 303.283C431.529 303.283 424.649 295.667 424.489 292.697V284.048C427.065 284.405 429.499 286.176 431.401 289.728C433.019 282.57 435.545 277.577 440.313 274.105C445.081 277.577 447.609 282.569 449.225 289.729C451.129 286.174 453.564 284.401 456.139 284.046V292.696C455.646 295.664 449.099 303.281 449.099 303.281L431.529 303.283Z" fill="white" stroke="black" stroke-width="1.44"/>
<path d="M431.529 314.659C431.529 314.659 425.646 308.672 424.489 306.074V297.424C427.065 297.781 429.499 299.552 431.401 303.104C433.019 295.946 435.545 291.847 440.313 288.375C445.081 291.847 447.609 295.946 449.225 303.106C451.129 299.549 453.564 297.778 456.139 297.422V306.072C454.646 308.67 449.099 314.658 449.099 314.658L431.529 314.659Z" fill="white" stroke="black" stroke-width="1.44"/>
<path d="M428.852 321.267C430.567 313.798 432.044 308.259 440.311 302.643C448.58 308.259 450.055 313.798 451.773 321.267H428.852Z" fill="white" stroke="black" stroke-width="1.44"/>
<path d="M424.692 325.427V314.608C428.446 316.08 431.84 318.256 433.092 320.68C434.488 314.674 437.182 312.027 440.536 308.392C443.891 312.027 446.136 314.674 447.536 320.68C448.787 318.256 452.179 316.08 455.936 314.608V325.427H424.692Z" fill="white" stroke="black" stroke-width="1.44"/>
<path d="M151.094 373.619V383.496H490.118V373.618L151.094 373.619ZM144.957 383.587V396.467H496.253V383.587H144.957ZM496.253 396.467L144.957 396.563L134.688 396.467V413.462H506.525V396.471L496.253 396.467ZM124.344 413.571L124.347 433.587H516.875L516.872 413.571H124.344ZM516.875 433.587V433.619H124.347V433.587H114V453.603H527.216V433.587H516.875Z" fill="white"/>
<path d="M496.253 396.467H144.957V383.587H496.253V396.467ZM496.253 396.467L144.957 396.563L134.688 396.467V413.462H506.525V396.471L496.253 396.467ZM124.347 433.587L124.344 413.571H516.872L516.875 433.587M124.347 433.587H516.875M124.347 433.587V433.619H516.875V433.587M124.347 433.587H114V453.603H527.216V433.587H516.875M151.094 373.619V383.496H490.118V373.618L151.094 373.619Z" stroke="black" stroke-width="1.44"/>
<path d="M187.891 373.667H213.499V453.563H187.891V373.667Z" fill="white" stroke="black" stroke-width="1.568"/>
<path d="M193.555 373.667H207.822V453.565H193.555V373.667Z" fill="white" stroke="black" stroke-width="1.5648"/>
<path d="M307.811 373.667H333.42V453.563H307.811V373.667Z" fill="white" stroke="black" stroke-width="1.568"/>
<path d="M313.475 373.667H327.74V453.565H313.475V373.667Z" fill="white" stroke="black" stroke-width="1.5648"/>
<path d="M427.539 373.667H453.147V453.563H427.539V373.667Z" fill="white" stroke="black" stroke-width="1.568"/>
<path d="M433.203 373.667H447.47V453.565H433.203V373.667Z" fill="white" stroke="black" stroke-width="1.5648"/>
<path d="M166.332 365.539H475.244M193.292 443.523H208.082M193.292 433.523H208.082M193.292 423.523H208.082M193.292 413.523H208.082M193.292 403.523H208.082M193.292 393.523H208.082M193.292 383.523H208.082M313.26 443.539H327.031M313.26 433.534H327.031M313.26 423.528H327.031M313.26 413.523H327.031M313.26 403.518H327.031M313.26 393.513H327.031M313.26 383.507H327.031M432.94 443.523H447.73M432.94 433.523H447.73M432.94 423.523H447.73M432.94 413.523H447.73M432.94 403.523H447.73M432.94 393.523H447.73M432.94 383.523H447.73" stroke="black" stroke-width="1.44"/>
</svg>
