<?xml version="1.0" encoding="UTF-8"?>
<svg version="1.1" xmlns="http://www.w3.org/2000/svg" width="742" height="600">
<path d="M0 0 C3.79721744 1.56212774 7.16292545 3.61701632 10.625 5.8125 C12.74722728 7.10444358 14.86963267 8.39609462 16.9921875 9.6875 C18.13275018 10.39150085 19.27304379 11.09593778 20.41308594 11.80078125 C24.14689462 14.1007271 27.91712614 16.33641003 31.6953125 18.5625 C32.35134964 18.94924393 33.00738678 19.33598785 33.68330383 19.73445129 C35.02632823 20.52617496 36.36937139 21.3178668 37.71243286 22.10952759 C49.1678942 28.87279133 60.55395466 35.74748599 71.91003418 42.67593384 C80.71828208 48.04690428 89.58785215 53.30345575 98.5 58.5 C109.14247342 64.70547202 119.70503261 71.02789239 130.21459961 77.45581055 C136.69677247 81.41569732 143.21067795 85.31395069 149.765625 89.15234375 C151.24504865 90.02097422 152.72445954 90.88962642 154.20385742 91.75830078 C157.05823707 93.43369322 159.91862259 95.09818226 162.7824707 96.75732422 C164.08568197 97.52141306 165.38867189 98.2858796 166.69140625 99.05078125 C167.28693298 99.39173325 167.88245972 99.73268524 168.49603271 100.08396912 C172.48843559 102.44457853 175.32837718 104.62381547 176.6171875 109.18359375 C177.03801818 112.86267408 177.27046279 115.32384302 175.875 118.8125 C171.77233071 123.5989475 166.87243237 126.26676091 161.3046875 128.9765625 C160.56392975 129.34345184 159.823172 129.71034119 159.05996704 130.08834839 C157.48225094 130.86917612 155.90322406 131.64736007 154.32299805 132.4230957 C150.2170419 134.43901493 146.12066393 136.47422529 142.0234375 138.5078125 C141.22512512 138.90345398 140.42681274 139.29909546 139.60430908 139.70672607 C133.85989745 142.55832676 128.15767909 145.47947059 122.5 148.5 C115.38023948 152.30033612 108.18557026 155.92922762 100.95361328 159.51123047 C95.51497779 162.21371874 90.17332883 165.02721603 84.8984375 168.0390625 C83 169 83 169 81 169 C81.0721875 169.90492188 81.144375 170.80984375 81.21875 171.7421875 C82.37982724 188.13800546 82.09193136 204.57398729 82 221 C77.58295786 222.619583 73.42870449 223.47592374 68.76391602 224.05322266 C68.06537003 224.14129684 67.36682404 224.22937103 66.64710999 224.32011414 C64.35012049 224.60785228 62.05213096 224.88637552 59.75390625 225.1640625 C58.13928287 225.36270229 56.52469501 225.56163101 54.91014099 225.76083374 C51.52563858 226.17682952 48.14059435 226.58802872 44.75512695 226.99609375 C40.45751508 227.51466828 36.16173503 228.04696481 31.86630344 228.58326149 C28.52864192 228.99803175 25.18998168 229.40428014 21.85099602 229.80823898 C20.26933517 230.00077729 18.68800596 230.19606387 17.10705757 230.39436722 C0.97869896 232.409425 -14.34308134 232.11733067 -30.44140625 230.06640625 C-32.06459922 229.86626429 -33.68788739 229.66689312 -35.31126404 229.46824646 C-39.5364873 228.9489991 -43.76025896 228.41876059 -47.98382568 227.88623047 C-51.43495857 227.4529703 -54.88703546 227.02753721 -58.33918858 226.60249424 C-65.48176203 225.72296208 -72.62373464 224.83845416 -79.76391602 223.93969727 C-81.01995132 223.78203384 -82.27598663 223.62437042 -83.57008362 223.46192932 C-86.72247861 223.03737562 -89.86242372 222.52292938 -93 222 C-93.33 204.18 -93.66 186.36 -94 168 C-97.67125 166.1025 -101.3425 164.205 -105.125 162.25 C-113.42683856 157.94568425 -121.68303493 153.57300926 -129.875 149.0625 C-139.29515159 143.87824968 -148.81551926 138.90119283 -158.37646484 133.98266602 C-165.96702942 130.07462409 -173.4928167 126.06531752 -181 122 C-181.33 129.92 -181.66 137.84 -182 146 C-180.68 146.33 -179.36 146.66 -178 147 C-175.74381887 150.38427169 -175.76028949 151.47704569 -175.80126953 155.43359375 C-175.80853058 156.54484619 -175.81579163 157.65609863 -175.82327271 158.80102539 C-175.84292084 160.00106201 -175.86256897 161.20109863 -175.8828125 162.4375 C-175.89835175 163.66911865 -175.91389099 164.9007373 -175.92990112 166.16967773 C-175.966737 168.77563548 -176.00913432 171.38151962 -176.05664062 173.98730469 C-176.10529904 176.66245772 -176.1398572 179.33718542 -176.16113281 182.01269531 C-176.19433498 185.86319783 -176.25379221 189.71244514 -176.3203125 193.5625 C-176.32781525 194.76253662 -176.33531799 195.96257324 -176.3430481 197.19897461 C-176.36922211 198.31022705 -176.39539612 199.42147949 -176.42236328 200.56640625 C-176.43727814 201.54552979 -176.45219299 202.52465332 -176.46755981 203.53344727 C-177 206 -177 206 -178.89743042 207.8125 C-181.28695886 209.16207009 -182.76957014 209.43282461 -185.5 209.4375 C-186.2528125 209.45683594 -187.005625 209.47617187 -187.78125 209.49609375 C-191.0782026 208.75892301 -192.09988896 207.8138723 -194 205 C-194.54541709 201.78544296 -194.41665597 198.62551066 -194.3125 195.375 C-194.29558105 194.39893799 -194.27866211 193.42287598 -194.26123047 192.41723633 C-194.21826836 190.20942362 -194.1648223 188.00179946 -194.10302734 185.79443359 C-194.00825895 182.30417198 -193.93781469 178.81453712 -193.87535095 175.3236084 C-193.81771858 172.21669758 -193.74922276 169.11009568 -193.67758179 166.003479 C-193.64252844 164.45954475 -193.60983371 162.91555515 -193.57949829 161.371521 C-193.53428574 159.18870251 -193.4760047 157.00661855 -193.4140625 154.82421875 C-193.3826416 153.55666748 -193.3512207 152.28911621 -193.31884766 150.9831543 C-193 148 -193 148 -191 146 C-190.01 146 -189.02 146 -188 146 C-188.02356567 144.26713745 -188.02356567 144.26713745 -188.04760742 142.49926758 C-188.10200369 138.20360313 -188.13638533 133.907969 -188.16479492 129.61206055 C-188.17985946 127.75458655 -188.20031509 125.89714799 -188.22631836 124.03979492 C-188.26280459 121.36628461 -188.2797497 118.69324556 -188.29296875 116.01953125 C-188.31619453 114.7786248 -188.31619453 114.7786248 -188.33988953 113.51264954 C-188.3412451 108.84379406 -188.07051062 105.76026929 -185 102 C-183.15795898 100.44311523 -183.15795898 100.44311523 -181.05859375 99.12109375 C-180.25921387 98.61562012 -179.45983398 98.11014648 -178.63623047 97.58935547 C-173.81433175 94.68228373 -168.95283891 91.85280014 -164.0625 89.0625 C-162.33476359 88.07112539 -160.60702982 87.07974615 -158.87945557 86.08808899 C-157.09776381 85.065892 -155.31531765 84.04502131 -153.53271484 83.02441406 C-147.97347707 79.84035353 -142.42424296 76.63893802 -136.875 73.4375 C-135.26057007 72.50659546 -135.26057007 72.50659546 -133.61352539 71.55688477 C-126.39660431 67.39237883 -119.19423938 63.20354882 -112 59 C-100.45270484 52.25298806 -88.87097973 45.56660682 -77.28222656 38.89111328 C-71.8534006 35.76319853 -66.42679331 32.63143954 -61 29.5 C-54.92283836 25.99355517 -48.84559527 22.48725299 -42.76715088 18.98303223 C-41.01658759 17.97380896 -39.26609589 16.96446164 -37.515625 15.95507812 C-35.33607835 14.6983234 -33.15640168 13.44179414 -30.9765625 12.18554688 C-29.47609375 11.32026367 -29.47609375 11.32026367 -27.9453125 10.4375 C-26.96336914 9.87804687 -25.98142578 9.31859375 -24.96972656 8.7421875 C-22.92780628 7.54429674 -20.91483209 6.2961073 -18.92871094 5.0078125 C-12.61053175 0.99319912 -7.55550282 -1.84459932 0 0 Z " fill="#040707" transform="translate(369,104)"/>
<path d="M0 0 C0.61758179 0.28139832 1.23516357 0.56279663 1.87145996 0.85272217 C5.90304962 2.68970358 9.92996746 4.53646136 13.95162964 6.39508057 C15.25264929 6.99611714 16.55432356 7.59573921 17.85671997 8.19378662 C40.91168977 18.80120219 40.91168977 18.80120219 45 26 C45.56309617 29.82022108 45.47396196 33.52475324 45.3125 37.375 C45.28994141 38.39722656 45.26738281 39.41945313 45.24414062 40.47265625 C45.18548082 42.98329581 45.10345928 45.49087379 45 48 C42.00770673 48.92517522 39.96738385 49.01226161 36.91162109 48.37011719 C36.10119354 48.2049057 35.29076599 48.03969421 34.45578003 47.86947632 C33.12802048 47.58603867 33.12802048 47.58603867 31.7734375 47.296875 C29.80672296 46.89461676 27.83992141 46.4927838 25.87304688 46.09130859 C24.81980225 45.87335632 23.76655762 45.65540405 22.68139648 45.43084717 C-68.3337004 26.68918347 -161.49598079 13.61437536 -254.34375 9.453125 C-255.22498032 9.41249939 -256.10621063 9.37187378 -257.0141449 9.33001709 C-261.05342622 9.14631954 -265.09146672 8.98145288 -269.13305664 8.85839844 C-280.87011517 8.42954533 -292.3845011 6.63406678 -301 -2 C-308.42405105 -10.51670373 -311.71886984 -19.87406998 -311.34765625 -31.171875 C-310.13291573 -41.05358444 -306.30804657 -49.4449981 -298.7421875 -55.9375 C-261.4519834 -83.99282597 -113.5993551 -42.63025482 0 0 Z " fill="#42AF6A" transform="translate(311,461)"/>
<path d="M0 0 C7.55028343 7.65473399 11.13696956 16.28474672 11.5 27 C11.13696956 37.71525328 7.55028343 46.34526601 0 54 C-8.64915066 61.34695512 -18.43095888 63.36194121 -29.53125 63.7734375 C-31.61157487 63.87396957 -33.69189701 63.97455819 -35.7722168 64.07519531 C-37.41134537 64.1475238 -37.41134537 64.1475238 -39.08358765 64.22131348 C-45.03289123 64.48894153 -50.9792641 64.80977959 -56.92578125 65.1328125 C-58.1662471 65.20012573 -59.40671295 65.26743896 -60.68476868 65.33679199 C-151.03577337 70.37826222 -242.29790464 82.8399477 -330.7668457 102.07055664 C-331.96140381 102.32957764 -333.15596191 102.58859863 -334.38671875 102.85546875 C-335.89045044 103.19034302 -335.89045044 103.19034302 -337.42456055 103.53198242 C-340 104 -340 104 -344 104 C-344.23368566 99.98015717 -344.3748607 95.96206913 -344.5 91.9375 C-344.60054688 90.2369043 -344.60054688 90.2369043 -344.703125 88.50195312 C-344.89403437 80.31671372 -344.89403437 80.31671372 -342.49780273 76.78759766 C-337.99679896 72.64183356 -332.61024897 69.9758732 -327.0625 67.5 C-326.17554443 67.09185059 -325.28858887 66.68370117 -324.37475586 66.26318359 C-322.37366449 65.34493096 -320.36965455 64.43302078 -318.36328125 63.52636719 C-315.34689857 62.15743393 -312.34065131 60.76928286 -309.33724976 59.37225342 C-230.90225077 22.90141376 -147.74790218 -0.75366825 0 0 Z " fill="#2A2D81" transform="translate(715,406)"/>
<path d="M0 0 C1.87522339 0.59107544 1.87522339 0.59107544 3.78833008 1.1940918 C62.56954677 19.97148276 116.26203782 50.68710883 164.08984375 89.37890625 C166.82649369 91.5880648 169.61854662 93.70901702 172.4375 95.8125 C176.61796042 99.09487672 180.72205058 102.42658471 183.4375 107.0625 C183.54557202 110.41273256 183.38225996 112.00169874 182.4375 115.0625 C182.18613281 115.96226562 181.93476563 116.86203125 181.67578125 117.7890625 C180.97124028 120.22918001 180.22424072 122.64784923 179.4375 125.0625 C174.99783719 123.74492265 171.0011508 121.93809056 166.86889648 119.89086914 C138.19295648 105.68475155 108.28259101 93.57334266 78.4375 82.0625 C77.69967285 81.77759705 76.9618457 81.49269409 76.20166016 81.19915771 C48.38193703 70.47148456 20.37936372 60.39138243 -8.19921875 51.86328125 C-9.0877504 51.59649063 -9.97628204 51.32970001 -10.89173889 51.05482483 C-15.19660415 49.76272374 -19.50479086 48.48709033 -23.82446289 47.24536133 C-32.70897296 44.63896369 -40.58925097 42.27580764 -46.40234375 34.6484375 C-46.76457031 33.91882813 -47.12679687 33.18921875 -47.5 32.4375 C-47.88027344 31.70273437 -48.26054688 30.96796875 -48.65234375 30.2109375 C-51.9509889 22.42443607 -50.91708087 15.36695531 -47.890625 7.68359375 C-45.21699295 2.40710227 -41.36456183 -1.32011508 -36 -3.8125 C-23.73539395 -7.82637107 -11.89121122 -3.77635742 0 0 Z " fill="#42AF6A" transform="translate(172.5625,337.9375)"/>
<path d="M0 0 C5.67096592 5.04085859 9.5368591 9.78567229 10.2265625 17.55078125 C10.49923337 26.51173751 8.6671407 32.52051158 2.890625 39.359375 C-3.30956366 44.73970401 -10.42204716 46.4633451 -18.19662476 48.60165405 C-55.85102396 59.02744699 -92.76958812 72.42407292 -129 87 C-129.8194812 87.32937561 -130.6389624 87.65875122 -131.48327637 87.99810791 C-155.20185316 97.54783818 -178.63421413 107.68835892 -201.91015625 118.26953125 C-202.61355133 118.5886145 -203.31694641 118.90769775 -204.04165649 119.2364502 C-208.20050482 121.1363726 -212.28603267 123.13906778 -216.33909607 125.25614929 C-218 126 -218 126 -220 126 C-223.99439062 113.06578276 -223.99439062 113.06578276 -223 107 C-219.20294276 100.45840313 -212.52686464 96.12400604 -206.56640625 91.6875 C-203.56149397 89.44638089 -200.65160496 87.10871376 -197.75244141 84.7331543 C-151.42339318 46.87345992 -96.80239815 19.4795824 -40.125 1.0625 C-38.96637451 0.68464355 -37.80774902 0.30678711 -36.61401367 -0.08251953 C-23.83595004 -4.15566093 -12.02258149 -7.89228544 0 0 Z " fill="#2A2D81" transform="translate(594,337)"/>
<path d="M0 0 C3.19537887 0.58665704 6.18140996 1.32635643 9.234375 2.43359375 C10.09498535 2.74409668 10.9555957 3.05459961 11.84228516 3.37451172 C12.80183105 3.72529785 13.76137695 4.07608398 14.75 4.4375 C16.2956665 4.99848389 16.2956665 4.99848389 17.87255859 5.57080078 C21.09955238 6.74462033 24.32482712 7.92299133 27.54943848 9.10333252 C30.31871975 10.11662047 33.08855156 11.12839591 35.85839844 12.14013672 C41.33307736 14.14041719 46.80661183 16.14380455 52.27941895 18.14920044 C54.50377297 18.96418957 56.72830012 19.77870635 58.95300293 20.59274292 C62.12826001 21.75514237 65.30253796 22.92017733 68.4765625 24.0859375 C69.4330368 24.43567123 70.38951111 24.78540497 71.37496948 25.14573669 C76.31694748 26.96416907 81.18274766 28.87233194 86 31 C86.65667354 58.00395289 87.18047347 84.98728596 87 112 C82.54588208 113.63764012 78.3592819 114.48039682 73.65283203 115.05322266 C72.94304199 115.14129684 72.23325195 115.22937103 71.50195312 115.32011414 C69.17128362 115.60762624 66.8396377 115.88609179 64.5078125 116.1640625 C62.87640491 116.36257774 61.24504779 116.56150814 59.61373901 116.76083374 C56.199829 117.17656914 52.78542991 117.58793925 49.37060547 117.99609375 C45.00991953 118.51755962 40.65049672 119.04882428 36.29138374 119.58326149 C32.9236435 119.9952213 29.55534448 120.40245262 26.18685532 120.80823898 C24.58005639 121.00227093 22.97341662 121.19762597 21.36694717 121.39436722 C19.11382036 121.6694766 16.86002821 121.93831952 14.60595703 122.20556641 C13.3272171 122.35941803 12.04847717 122.51326965 10.73098755 122.67178345 C6.78302928 123.01908701 2.96036227 123.05579038 -1 123 C-1.03094435 112.62501129 -1.05109723 102.25002761 -1.0625 91.875 C-1.06335602 91.10169468 -1.06421204 90.32838936 -1.06509399 89.53165054 C-1.0942519 59.6770181 -0.70943027 29.84701431 0 0 Z " fill="#292C7F" transform="translate(364,213)"/>
<path d="M0 0 C7.16883139 0.49111626 13.92952574 2.02284135 20.875 3.8125 C21.90625 4.06064453 22.9375 4.30878906 24 4.56445312 C24.98742187 4.81775391 25.97484375 5.07105469 26.9921875 5.33203125 C27.88276855 5.55608643 28.77334961 5.7801416 29.69091797 6.01098633 C32.48515323 7.20779824 33.5089851 8.37457076 35 11 C34.92546409 14.57772371 34.45368369 16.4166924 32.25 19.25 C28.04761474 22.51852187 24.32756493 23.59195166 19 23 C16.94382331 19.91573497 16.77880855 19.07051812 16.625 15.5625 C16.32943017 12.13835136 16.17419827 11.21642816 13.9375 8.4375 C13.298125 7.963125 12.65875 7.48875 12 7 C5.94499225 10.24902855 2.07934608 14.86568262 -1 21 C-2.08018579 25.31598465 -2.65959281 29.56775945 -3 34 C-2.34 34 -1.68 34 -1 34 C-1.12375 32.88625 -1.12375 32.88625 -1.25 31.75 C-1 29 -1 29 0.875 26.75 C4.46526434 23.79331172 7.01568373 23.6569302 11.55078125 23.72265625 C15.58112699 24.17904309 18.74954142 25.59524897 22 28 C26.89947096 34.15574556 27.62378701 39.36711526 27 47 C25.72307041 52.72104672 23.1197934 56.8802066 19 61 C16.6875 61.875 16.6875 61.875 15 62 C14.29875 60.989375 13.5975 59.97875 12.875 58.9375 C11.56412356 57.2678172 11.56412356 57.2678172 10 56 C6.79481809 55.57562248 6.79481809 55.57562248 4 57 C2.60333803 59.47590076 2 61.16264185 2 64 C2.99 63.505 2.99 63.505 4 63 C9.25881401 63.04132663 13.77714304 63.67290058 18 67 C20.33909307 70.5086396 20.41291057 71.87089433 20 76 C18.27133295 79.80306751 16.83774303 81.45119656 13 83 C6.19461925 83.9953448 0.6481327 82.91987924 -5 79 C-6.83831464 77.42110689 -8.38418517 75.81779168 -10 74 C-10.99 75.32 -11.98 76.64 -13 78 C-17.84517418 75.95011862 -19.89024693 72.7095669 -22 68 C-22.85701488 64.41550126 -22.75938029 61.35121047 -20.90234375 58.046875 C-20.03902028 56.84879346 -19.13704971 55.67720208 -18.19140625 54.54296875 C-16.78063213 52.89106895 -16.78063213 52.89106895 -16 50 C-12.63408134 51.44253657 -10.48952921 53.33264727 -8 56 C-7.484375 54.9275 -6.96875 53.855 -6.4375 52.75 C-3.99002635 48.4799396 -1.52280107 46.90433729 3 45 C6.94872155 45.08974367 8.36220112 46.24230117 11 49 C11.99 49 12.98 49 14 49 C16.76185089 41.7117364 16.76185089 41.7117364 17 34 C16.34 33.01 15.68 32.02 15 31 C13.68 31.33 12.36 31.66 11 32 C9.82827534 35.98386386 8.781658 39.92270288 8 44 C5.38849562 43.46207217 2.78878339 42.89627899 0.1875 42.3125 C-0.55048828 42.16361328 -1.28847656 42.01472656 -2.04882812 41.86132812 C-5.71833382 41.01451912 -7.51231934 40.59909468 -9.94921875 37.60546875 C-13.00094112 30.03855865 -13.55543142 20.83575913 -10.4375 13.1875 C-7.82835946 8.10999988 -4.01099648 4.01099648 0 0 Z M-11 63 C-11.99 64.98 -12.98 66.96 -14 69 C-12.68 68.34 -11.36 67.68 -10 67 C-10.33 65.68 -10.66 64.36 -11 63 Z M-1 68 C-1 69.65 -1 71.3 -1 73 C-0.67 73 -0.34 73 0 73 C0 71.35 0 69.7 0 68 C-0.33 68 -0.66 68 -1 68 Z M10 68 C10 69.65 10 71.3 10 73 C10.33 73 10.66 73 11 73 C11 71.35 11 69.7 11 68 C10.67 68 10.34 68 10 68 Z M2 76 C2 76.33 2 76.66 2 77 C3.98 77 5.96 77 8 77 C8 76.67 8 76.34 8 76 C6.02 76 4.04 76 2 76 Z " fill="#0872BA" transform="translate(44,240)"/>
<path d="M0 0 C3.08271716 1.64119904 6.10717844 3.35964019 9.12670898 5.11425781 C10.6996875 5.99984375 10.6996875 5.99984375 12.30444336 6.90332031 C20.0445759 11.33480819 20.0445759 11.33480819 22.31420898 14.73925781 C22.09088784 20.99224983 22.09088784 20.99224983 19.57592773 23.41113281 C17.00376489 24.92155659 15.21151141 25.25711645 12.25170898 25.48925781 C11.39448242 25.56660156 10.53725586 25.64394531 9.65405273 25.72363281 C7.31420898 25.73925781 7.31420898 25.73925781 4.31420898 24.73925781 C2.99138751 20.32985289 3.56709279 16.42478623 4.15795898 11.94628906 C4.50544153 9.69733855 4.50544153 9.69733855 3.31420898 7.73925781 C-3.76741219 7.8932061 -8.37044518 11.24806839 -13.68579102 15.73925781 C-17.28409691 19.95190862 -18.2461517 23.24376631 -18.68579102 28.73925781 C-18.27329102 27.95550781 -17.86079102 27.17175781 -17.43579102 26.36425781 C-15.56793709 23.56247692 -14.74404784 22.91721207 -11.68579102 21.73925781 C-6.0543176 21.33329208 -1.47739345 22.74274236 2.87280273 26.30566406 C6.66592317 30.07822558 7.52918643 33.80038571 7.81420898 38.98925781 C7.60060434 46.45524881 4.57519768 52.01447657 -0.12329102 57.67675781 C-5.72710138 62.18714176 -9.68609175 63.10131122 -16.68579102 62.73925781 C-18.99579102 58.44925781 -21.30579102 54.15925781 -23.68579102 49.73925781 C-29.86312767 49.73925781 -31.1445352 50.02368488 -35.68579102 53.73925781 C-37.76586523 56.76482031 -37.68579102 57.88400891 -37.68579102 61.73925781 C-37.19079102 61.22363281 -36.69579102 60.70800781 -36.18579102 60.17675781 C-33.15730144 58.43537631 -31.00219403 58.52108301 -27.58813477 59.08691406 C-23.87391889 60.36057741 -22.3557533 63.39933324 -20.68579102 66.73925781 C-19.69579102 65.74925781 -19.69579102 65.74925781 -18.68579102 64.73925781 C-15.58059187 64.93746201 -13.4198394 65.20770553 -10.87329102 67.05175781 C-9.40473715 69.13865015 -8.82890804 70.16315141 -8.68579102 72.73925781 C-10.92459699 79.23179513 -10.92459699 79.23179513 -14.68579102 81.73925781 C-21.60683074 81.62940004 -21.60683074 81.62940004 -25.18579102 78.67675781 C-27.20050225 74.73128165 -26.98358762 72.13175766 -26.68579102 67.73925781 C-29.9098408 69.40880601 -29.9098408 69.40880601 -30.37329102 72.36425781 C-30.47641602 73.14800781 -30.57954102 73.93175781 -30.68579102 74.73925781 C-36.87807543 72.92688188 -42.14108403 71.23072069 -45.62329102 65.61425781 C-47.59132933 59.93017199 -47.51430477 54.05037512 -45.49829102 48.42675781 C-41.9766493 43.2050132 -37.76897906 38.75822215 -31.51000977 37.19628906 C-25.55006084 36.21109292 -25.55006084 36.21109292 -22.43579102 38.11425781 C-19.93830201 41.86049133 -17.7664513 45.74848316 -15.68579102 49.73925781 C-11.06988272 49.5582418 -9.20163357 49.25510037 -5.87329102 45.92675781 C-2.98438507 41.71720915 -1.4091218 39.14601116 -1.56079102 33.98925781 C-1.57883789 33.19003906 -1.59688477 32.39082031 -1.61547852 31.56738281 C-1.63868164 30.96410156 -1.66188477 30.36082031 -1.68579102 29.73925781 C-4.65579102 30.23425781 -4.65579102 30.23425781 -7.68579102 30.73925781 C-7.87915039 31.36574219 -8.07250977 31.99222656 -8.27172852 32.63769531 C-8.53211914 33.45496094 -8.79250977 34.27222656 -9.06079102 35.11425781 C-9.44364258 36.33242187 -9.44364258 36.33242187 -9.83422852 37.57519531 C-10.68579102 39.73925781 -10.68579102 39.73925781 -12.68579102 41.73925781 C-14.81881024 40.50150581 -16.94148701 39.25010956 -19.06079102 37.98925781 C-19.66407227 37.64121094 -20.26735352 37.29316406 -20.88891602 36.93457031 C-24.20479031 34.94504574 -26.52769253 33.51792532 -27.68579102 29.73925781 C-29.00629834 21.98511599 -26.51693248 14.19537396 -22.36547852 7.66113281 C-16.20719025 -0.07879233 -9.53016085 -4.47357064 0 0 Z M9.31420898 10.73925781 C9.31420898 11.39925781 9.31420898 12.05925781 9.31420898 12.73925781 C9.97420898 12.40925781 10.63420898 12.07925781 11.31420898 11.73925781 C10.65420898 11.40925781 9.99420898 11.07925781 9.31420898 10.73925781 Z " fill="#0872BA" transform="translate(96.685791015625,159.2607421875)"/>
<path d="M0 0 C3.72794628 2.6766516 6.37032541 5.35578915 8.35546875 9.57421875 C9.37640625 8.61515625 9.37640625 8.61515625 10.41796875 7.63671875 C13.91898259 5.1785601 16.09553097 4.65028907 20.35546875 4.57421875 C24.8916535 6.34443719 29.04027689 10.27798644 31.35546875 14.57421875 C32.21706868 21.39446241 29.9431707 27.80600245 28.10546875 34.32421875 C27.80511719 35.45988281 27.50476563 36.59554687 27.1953125 37.765625 C26.89238281 38.85230469 26.58945312 39.93898437 26.27734375 41.05859375 C26.0050293 42.04569336 25.73271484 43.03279297 25.45214844 44.04980469 C24.18344681 46.9701909 23.12817597 48.04787504 20.35546875 49.57421875 C16.85546875 49.57421875 16.85546875 49.57421875 13.35546875 48.57421875 C9.66709862 44.88584862 8.38174834 42.12471444 8.29296875 36.88671875 C8.31359375 35.79359375 8.33421875 34.70046875 8.35546875 33.57421875 C12.03749425 31.48578059 15.07393037 31.23311873 19.234375 31.015625 C21.82987339 30.47549366 22.75994052 29.66106837 24.35546875 27.57421875 C24.51378981 24.64527916 23.85837212 23.14601299 21.9296875 20.953125 C17.26991577 16.64464426 13.70354147 15.57421875 7.35546875 15.57421875 C7.12859375 16.31671875 6.90171875 17.05921875 6.66796875 17.82421875 C5.08931375 21.13187684 3.35932776 22.52280284 0.35546875 24.57421875 C-2.64469037 25.57427179 -4.61876881 25.6899746 -7.75 25.671875 C-8.73291016 25.66865234 -9.71582031 25.66542969 -10.72851562 25.66210938 C-11.75267578 25.65373047 -12.77683594 25.64535156 -13.83203125 25.63671875 C-15.38567383 25.62995117 -15.38567383 25.62995117 -16.97070312 25.62304688 C-19.52870391 25.61125885 -22.08658858 25.5948039 -24.64453125 25.57421875 C-23.39439615 26.22481856 -22.1411757 26.86949164 -20.88671875 27.51171875 C-20.1891748 27.87136719 -19.49163086 28.23101562 -18.77294922 28.6015625 C-14.36488428 30.61598447 -10.69726592 31.20441747 -6.0234375 29.76953125 C-3.52457011 28.77578718 -1.0886835 27.69427431 1.35546875 26.57421875 C2.34546875 26.24421875 3.33546875 25.91421875 4.35546875 25.57421875 C3.90565148 30.52220873 1.7888226 34.08936459 -1.64453125 37.57421875 C-7.7070444 41.70009575 -14.7551301 40.87761897 -21.64453125 39.57421875 C-29.3363001 37.40857509 -34.15324194 34.31115272 -38.64453125 27.57421875 C-38.83984375 24.65625 -38.83984375 24.65625 -38.76953125 21.38671875 C-38.75148438 20.30003906 -38.7334375 19.21335937 -38.71484375 18.09375 C-38.69164062 17.26230469 -38.6684375 16.43085937 -38.64453125 15.57421875 C-37.85949219 15.70699219 -37.07445312 15.83976562 -36.265625 15.9765625 C-33.05962129 16.51548582 -29.85225661 17.04565017 -26.64453125 17.57421875 C-24.78828125 17.88359375 -24.78828125 17.88359375 -22.89453125 18.19921875 C-17.37904895 18.83562055 -12.07576163 18.93202635 -6.64453125 17.57421875 C-6.14327842 14.24279597 -6.14327842 14.24279597 -6.64453125 10.57421875 C-10.63134041 6.88642028 -15.30771388 5.19906685 -20.64453125 4.57421875 C-23.080498 4.69854976 -25.24513307 5.07434413 -27.64453125 5.57421875 C-26.05900645 5.57421875 -24.47654436 5.42968629 -22.89453125 5.32421875 C-19.71519728 5.34140434 -18.53428857 5.63046501 -15.58203125 7.13671875 C-13.64453125 9.57421875 -13.64453125 9.57421875 -13.70703125 13.26171875 C-14.01640625 14.35484375 -14.32578125 15.44796875 -14.64453125 16.57421875 C-18.35931997 18.43161311 -22.08784602 18.04922718 -26 16.85546875 C-29.58598252 15.40469605 -32.13312278 14.1307515 -34.76953125 11.26171875 C-35.96473971 7.59072133 -35.64022742 5.29148445 -34.64453125 1.57421875 C-32.67732704 -1.70445494 -31.2998177 -3.1199809 -27.83203125 -4.73828125 C-18.62212517 -6.72473158 -8.25068487 -4.44830129 0 0 Z M21.35546875 35.57421875 C22.35546875 37.57421875 22.35546875 37.57421875 22.35546875 37.57421875 Z " fill="#0872BA" transform="translate(462.64453125,20.42578125)"/>
<path d="M0 0 C3.22804634 1.2597254 6.40296922 2.57511357 9.5625 4 C9.0645163 7.73487777 8.68758244 9.81237635 6.5625 13 C5.85222656 12.91621094 5.14195312 12.83242188 4.41015625 12.74609375 C3.49105469 12.64425781 2.57195312 12.54242188 1.625 12.4375 C0.70847656 12.33308594 -0.20804687 12.22867187 -1.15234375 12.12109375 C-2.28349609 12.06115234 -2.28349609 12.06115234 -3.4375 12 C-3.7675 12.33 -4.0975 12.66 -4.4375 13 C-3.51517578 13.16435547 -3.51517578 13.16435547 -2.57421875 13.33203125 C-1.76597656 13.49058594 -0.95773437 13.64914063 -0.125 13.8125 C0.67550781 13.96332031 1.47601563 14.11414062 2.30078125 14.26953125 C4.84421425 15.09098543 5.92442805 15.91145827 7.5625 18 C8.25 20.6875 8.25 20.6875 8.5625 23 C10.8725 23.66 13.1825 24.32 15.5625 25 C15.49289062 23.90300781 15.42328125 22.80601563 15.3515625 21.67578125 C15.29526448 20.22141562 15.2406665 18.76698348 15.1875 17.3125 C15.11208984 16.2306543 15.11208984 16.2306543 15.03515625 15.12695312 C14.89105345 9.86720081 14.89105345 9.86720081 16.77758789 7.43066406 C22.39396999 2.59002535 28.53856454 0.65207672 35.875 0.9375 C42.14245879 1.70874316 49.99986526 4.43736526 54.5625 9 C54.66249046 10.91717562 54.69331005 12.83803219 54.6953125 14.7578125 C54.69660156 15.94117188 54.69789063 17.12453125 54.69921875 18.34375 C54.69535156 19.5915625 54.69148438 20.839375 54.6875 22.125 C54.69136719 23.34960938 54.69523437 24.57421875 54.69921875 25.8359375 C54.68213428 41.62198858 54.68213428 41.62198858 51.9375 45 C48.35666719 46.50771908 46.26091189 46.10303513 42.5625 45 C38.29146385 41.01369959 36.80399649 37.64316588 35.5625 32 C39.3184214 28.57068046 43.79716745 27.43570917 48.5625 26 C48.8925 24.35 49.2225 22.7 49.5625 21 C41.62559073 15.32290517 35.42398504 11.11783146 25.4453125 12.578125 C23.48647168 12.93766791 23.48647168 12.93766791 21.5625 14 C22.48482422 14.16435547 22.48482422 14.16435547 23.42578125 14.33203125 C24.23402344 14.49058594 25.04226563 14.64914063 25.875 14.8125 C26.67550781 14.96332031 27.47601563 15.11414062 28.30078125 15.26953125 C30.97889776 16.13448425 32.01867419 16.6324716 33.5625 19 C34.0598422 23.9911842 33.7708754 28.99378106 33.5625 34 C33.51609375 35.31677734 33.51609375 35.31677734 33.46875 36.66015625 C33.24096933 39.70672269 32.84532613 41.64102837 30.9375 44.0625 C27.30044119 45.49818111 25.29177397 45.15736089 21.5625 44 C17.91433285 40.88114282 15.46639629 37.76122114 14.5625 33 C11.0975 32.505 11.0975 32.505 7.5625 32 C7.68625 33.85625 7.68625 33.85625 7.8125 35.75 C7.80150334 38.8510592 7.68331946 39.81412391 5.9375 42.5 C2.77912863 44.49476086 1.24363179 44.66260372 -2.4375 44 C-6.01471499 41.52346654 -9.10821977 39.25369675 -10.4375 35 C-10.4375 33.35 -10.4375 31.7 -10.4375 30 C-6.8075 28.68 -3.1775 27.36 0.5625 26 C0.5625 25.67 0.5625 25.34 0.5625 25 C-3.0675 25 -6.6975 25 -10.4375 25 C-10.4919452 22.79194476 -10.53049283 20.58349446 -10.5625 18.375 C-10.58570313 17.14523438 -10.60890625 15.91546875 -10.6328125 14.6484375 C-10.4016466 10.33025843 -9.80202942 6.75668157 -7.10546875 3.28515625 C-3.12759585 0 -3.12759585 0 0 0 Z M21.5625 25 C19.7000562 27.40858714 19.7000562 27.40858714 18.5625 30 C21.5325 29.01 24.5025 28.02 27.5625 27 C27.2325 26.34 26.9025 25.68 26.5625 25 C24.18944422 24.58219121 24.18944422 24.58219121 21.5625 25 Z M2.5625 29 C3.5625 31 3.5625 31 3.5625 31 Z " fill="#0872BA" transform="translate(360.4375,7)"/>
<path d="M0 0 C0.88365234 0.00386719 1.76730469 0.00773438 2.67773438 0.01171875 C3.59748047 0.03621094 4.51722656 0.06070313 5.46484375 0.0859375 C6.38845703 0.08722656 7.31207031 0.08851563 8.26367188 0.08984375 C15.12141758 0.18001133 15.12141758 0.18001133 17.40234375 2.4609375 C18.39649718 5.43978853 18.58538551 8.32077294 18.71875 11.4453125 C18.76064453 12.37988281 18.80253906 13.31445312 18.84570312 14.27734375 C18.88501953 15.24542969 18.92433594 16.21351563 18.96484375 17.2109375 C19.00802734 18.19449219 19.05121094 19.17804687 19.09570312 20.19140625 C19.20156427 22.61445025 19.30364546 25.0375929 19.40234375 27.4609375 C20.72234375 27.4609375 22.04234375 27.4609375 23.40234375 27.4609375 C23.41692627 26.7496167 23.43150879 26.0382959 23.4465332 25.30541992 C23.52095381 22.08587418 23.61763375 18.86737232 23.71484375 15.6484375 C23.73740234 14.52888672 23.75996094 13.40933594 23.78320312 12.25585938 C23.81865234 11.18271484 23.85410156 10.10957031 23.890625 9.00390625 C23.91680908 8.01414795 23.94299316 7.02438965 23.9699707 6.00463867 C24.40234375 3.4609375 24.40234375 3.4609375 25.64697266 1.63720703 C27.90029884 0.12725911 29.29849982 0.08770746 32 0.09765625 C32.88365234 0.09830078 33.76730469 0.09894531 34.67773438 0.09960938 C35.59748047 0.11572266 36.51722656 0.13183594 37.46484375 0.1484375 C38.38845703 0.14521484 39.31207031 0.14199219 40.26367188 0.13867188 C47.13529202 0.19388577 47.13529202 0.19388577 49.40234375 2.4609375 C49.57744761 5.11385507 49.63389858 7.66079924 49.59765625 10.3125 C49.59482635 11.08653168 49.59199646 11.86056335 49.58908081 12.65805054 C49.57787129 15.13416907 49.55276578 17.609928 49.52734375 20.0859375 C49.51731493 21.76301562 49.50818891 23.44009939 49.5 25.1171875 C49.47792949 29.23190973 49.44339477 33.34636261 49.40234375 37.4609375 C46.43234375 37.4609375 43.46234375 37.4609375 40.40234375 37.4609375 C40.40234375 27.2309375 40.40234375 17.0009375 40.40234375 6.4609375 C38.09234375 6.4609375 35.78234375 6.4609375 33.40234375 6.4609375 C33.40234375 16.6909375 33.40234375 26.9209375 33.40234375 37.4609375 C23.40234375 37.4609375 23.40234375 37.4609375 20.40234375 35.4609375 C19.74234375 36.1209375 19.08234375 36.7809375 18.40234375 37.4609375 C15.10234375 37.4609375 11.80234375 37.4609375 8.40234375 37.4609375 C8.40234375 27.2309375 8.40234375 17.0009375 8.40234375 6.4609375 C6.42234375 6.4609375 4.44234375 6.4609375 2.40234375 6.4609375 C2.40234375 14.7109375 2.40234375 22.9609375 2.40234375 31.4609375 C3.06234375 31.4609375 3.72234375 31.4609375 4.40234375 31.4609375 C4.40234375 33.4409375 4.40234375 35.4209375 4.40234375 37.4609375 C0.44234375 37.4609375 -3.51765625 37.4609375 -7.59765625 37.4609375 C-7.67191981 32.83450824 -7.72631117 28.20842741 -7.76245117 23.58154297 C-7.77751989 22.00823928 -7.7979787 20.43497748 -7.82397461 18.86181641 C-7.86044363 16.59787654 -7.87740133 14.33449293 -7.890625 12.0703125 C-7.90610886 11.36912292 -7.92159271 10.66793335 -7.93754578 9.94549561 C-7.9385835 6.92116176 -7.73500784 4.7339517 -6.36669922 2.01416016 C-4.11389999 0.0361987 -2.97206928 -0.03017329 0 0 Z " fill="#0872BA" transform="translate(99.59765625,532.5390625)"/>
<path d="M0 0 C3.10305772 1.810117 4.51908913 3.17558136 6.3125 6.25 C6.869375 6.8275 7.42625 7.405 8 8 C10.00059792 7.96773229 12.00197888 7.93073091 14 7.82421875 C16 8 16 8 18.875 10.25 C23.04819277 15.65060241 23.04819277 15.65060241 22.875 20.5 C21.90405423 24.38378306 21.19888249 25.66568034 18 28 C12.09028003 30.73580117 5.99065997 30.22247183 -0.375 30.125 C-1.49261719 30.11597656 -2.61023438 30.10695313 -3.76171875 30.09765625 C-6.50803462 30.07418346 -9.25390472 30.04134728 -12 30 C-8.56132495 33.67582505 -6.62586526 34.88386677 -1.5 35.25 C1.93912505 35.38834022 1.93912505 35.38834022 3.5 33.5 C5 32 5 32 8.4375 31.6875 C11.62416175 31.96703173 13.35548366 32.30750954 16 34 C14.37319894 39.61985821 11.96273034 44.95766087 9 50 C6.19084526 51.40457737 4.11189466 51.24895157 1 51 C-1.375 49.5 -1.375 49.5 -3 48 C-2.34 46.35 -1.68 44.7 -1 43 C-2.7325 43.3403125 -2.7325 43.3403125 -4.5 43.6875 C-10.42839459 44.42199136 -14.64931178 42.3666792 -19.6875 39.4375 C-23.43051573 35.49215909 -26.86248752 30.37802403 -27.08984375 24.79296875 C-26.8125 22.875 -26.8125 22.875 -26 20 C-22.65813448 18.86588274 -20.89860398 19.15717463 -17.625 20.375 C-8.5575513 23.28570469 0.92223695 24.08643944 10 21 C9.505 19.02 9.505 19.02 9 17 C5.41902891 16.10332683 5.41902891 16.10332683 1.8125 16.5625 C1.214375 16.706875 0.61625 16.85125 0 17 C-0.66 16.34 -1.32 15.68 -2 15 C-2.309375 15.804375 -2.61875 16.60875 -2.9375 17.4375 C-4 20 -4 20 -5 21 C-10.20827017 21.40849178 -13.59703041 20.86704996 -18 18 C-20.30284697 15.2966579 -19.99497267 13.68327794 -19.9375 10.0625 C-19.27126794 5.76008573 -17.43842111 3.70161659 -14 1 C-9.37975139 -0.54008287 -4.82505715 -0.51646506 0 0 Z M-11 7 C-11.66 8.32 -12.32 9.64 -13 11 C-10.36 11 -7.72 11 -5 11 C-6.28965176 9.62437146 -7.62689293 8.29233607 -9 7 C-9.66 7 -10.32 7 -11 7 Z " fill="#0872BA" transform="translate(522,42)"/>
<path d="M0 0 C2.95099335 3.36288111 5.01239764 7.00505088 7 11 C3.06314325 13.49378595 0.73556488 14.88791842 -4 14 C-5.90045225 12.15308162 -7.37543921 10.10753832 -9 8 C-9.99 8 -10.98 8 -12 8 C-11.4225 8.38929687 -10.845 8.77859375 -10.25 9.1796875 C-4.25763675 13.69476675 -4.25763675 13.69476675 -3.46875 17.69140625 C-3.49697043 20.17127693 -3.6445891 22.54667751 -4 25 C-3.34 25 -2.68 25 -2 25 C-0.6043269 23.23505506 0.71836522 21.41191783 2 19.5625 C6.3394372 13.31658212 6.3394372 13.31658212 10.171875 12.5859375 C13.01651763 12.35319401 15.21953079 12.31125992 18 13 C20.65709228 15.67793222 22.3520573 18.62372714 24 22 C23.1953125 23.921875 23.1953125 23.921875 22 26 C18.875 27.25 18.875 27.25 16 28 C15.21625 27.175 14.4325 26.35 13.625 25.5 C11.36278736 22.77011494 11.36278736 22.77011494 9 23 C9.825 23.825 10.65 24.65 11.5 25.5 C14.11189201 28.65510601 14.70449448 30.98905111 14.41796875 35.046875 C13.42766399 39.67446736 10.76785921 42.35430021 7.25 45.3125 C1.66680106 48.21146868 -2.71497974 48.6202709 -8.625 46.8125 C-15.99809097 43.98446511 -21.57984982 39.54922776 -26 33 C-27.63709152 29.24886903 -28.50140959 25.89421401 -27.4375 21.875 C-26.625 19.9375 -26.625 19.9375 -25 17 C-24.40832031 17.34933594 -23.81664062 17.69867188 -23.20703125 18.05859375 C-22.41683594 18.51363281 -21.62664063 18.96867187 -20.8125 19.4375 C-20.03519531 19.88996094 -19.25789062 20.34242187 -18.45703125 20.80859375 C-15.95068023 22.02391499 -13.74209635 22.57626575 -11 23 C-14.40712181 19.02502456 -18.32760855 17.13206212 -23 15 C-12.32382542 -4.70986077 -12.32382542 -4.70986077 0 0 Z M-15 27 C-13.30917701 33.38755352 -8.26261556 36.56854934 -2.9375 39.9375 C0.49991045 41.18081867 2.5031698 40.91583648 6 40 C6.95502158 38.27523089 6.95502158 38.27523089 7 36 C4.37314725 32.77272377 2.25219775 30.47246642 -2 30 C-0.71937515 31.7074998 0.61767557 33.37373596 2 35 C2.66 35 3.32 35 4 35 C4 35.66 4 36.32 4 37 C0.79897832 37.18524431 -1.93925953 36.99343972 -5 36 C-7.43655376 33.81493487 -9.37257584 31.52157351 -11.37109375 28.93359375 C-11.90863281 28.29550781 -12.44617188 27.65742187 -13 27 C-13.66 27 -14.32 27 -15 27 Z " fill="#0872BA" transform="translate(570,68)"/>
<path d="M0 0 C3.54169588 0.02830526 7.01123367 0.18368503 10.53515625 0.53125 C10.69921875 7.234375 10.69921875 7.234375 9.22265625 9.90625 C6.17941905 11.74634691 4.60058291 11.75518039 1.09765625 11.90625 C-1.82016717 11.98741941 -1.82016717 11.98741941 -4.46484375 12.53125 C-5.28984375 13.52125 -6.11484375 14.51125 -6.96484375 15.53125 C-9.46484375 18.53125 -9.46484375 18.53125 -12.16796875 19.078125 C-14.15488604 19.21058615 -16.14564719 19.29618268 -18.13671875 19.328125 C-19.28914062 19.42867187 -19.28914062 19.42867187 -20.46484375 19.53125 C-20.79484375 20.19125 -21.12484375 20.85125 -21.46484375 21.53125 C-20.80484375 21.20125 -20.14484375 20.87125 -19.46484375 20.53125 C-14.96955261 20.16278351 -12.52404874 19.96784309 -8.52734375 22.09375 C-5.83754866 25.27259874 -5.60955849 27.40687997 -5.46484375 31.53125 C-5.90234375 34.46875 -5.90234375 34.46875 -6.46484375 36.53125 C-4.04898801 36.50031827 -4.04898801 36.50031827 -1.46484375 35.53125 C0.39432449 32.56417954 0.39432449 32.56417954 1.53515625 29.53125 C4.17515625 29.86125 6.81515625 30.19125 9.53515625 30.53125 C11.68709995 27.30333445 11.73602068 26.24724191 11.53515625 22.53125 C10.85453125 23.19125 10.17390625 23.85125 9.47265625 24.53125 C5.82186473 27.01689529 3.86969123 27.17340333 -0.46484375 26.53125 C-2.46484375 24.84375 -2.46484375 24.84375 -3.46484375 22.53125 C-3.46484375 19.14027784 -2.70485216 17.81771165 -0.52734375 15.21875 C3.82652812 12.81967774 7.66666362 12.72395342 12.53515625 13.53125 C16.41783705 16.05499252 17.58133256 19.0800728 18.53515625 23.53125 C19.45507389 35.42562364 19.45507389 35.42562364 15.53515625 40.53125 C12.38498876 42.79460563 10.05284936 42.65199909 6.28515625 42.15625 C5.393125 42.04539063 4.50109375 41.93453125 3.58203125 41.8203125 C2.9065625 41.72492188 2.23109375 41.62953125 1.53515625 41.53125 C1.30828125 42.294375 1.08140625 43.0575 0.84765625 43.84375 C-0.81558191 47.24942814 -1.93901647 48.15157845 -5.46484375 49.53125 C-11.350572 49.43782574 -14.84775092 48.39672306 -19.46484375 44.53125 C-20.50283102 42.88797273 -21.5092875 41.22378952 -22.46484375 39.53125 C-21.76617187 39.14453125 -21.0675 38.7578125 -20.34765625 38.359375 C-18.98253906 37.57820313 -18.98253906 37.57820313 -17.58984375 36.78125 C-16.68492187 36.27078125 -15.78 35.7603125 -14.84765625 35.234375 C-12.38513386 33.47427703 -11.52016852 32.32118906 -10.46484375 29.53125 C-12.07025034 30.32039921 -13.67412391 31.11266765 -15.27734375 31.90625 C-16.61732422 32.56753906 -16.61732422 32.56753906 -17.984375 33.2421875 C-20.61040756 34.54991905 -20.61040756 34.54991905 -23.46484375 36.53125 C-25.19039446 32.8891525 -26.83876495 29.21869639 -28.46484375 25.53125 C-29.02171875 24.335 -29.57859375 23.13875 -30.15234375 21.90625 C-30.58484989 17.23518366 -28.72780325 15.05261941 -26.04296875 11.3515625 C-24.46484375 9.53125 -24.46484375 9.53125 -22.46484375 8.53125 C-20.3807992 8.66654019 -18.29754943 8.81421134 -16.21484375 8.96875 C-12.68835051 9.12846043 -12.68835051 9.12846043 -9.46484375 8.53125 C-7.67204028 6.80540464 -7.67204028 6.80540464 -6.52734375 4.53125 C-4.59242657 1.10747131 -4.00690892 0.61436259 0 0 Z " fill="#0872BA" transform="translate(253.46484375,28.46875)"/>
<path d="M0 0 C2.31526159 1.20206511 3.55200181 2.10537513 5.05859375 4.25390625 C5.47551768 7.6064904 5.49828655 10.88518172 5.5546875 14.26171875 C5.72716361 17.31366363 5.72716361 17.31366363 7.84375 18.68359375 C8.57464844 18.99554688 9.30554688 19.3075 10.05859375 19.62890625 C12.24609375 20.6015625 12.24609375 20.6015625 14.05859375 22.25390625 C15.0996133 27.28007878 15.16159542 32.13601053 15.05859375 37.25390625 C8.34765625 37.41796875 8.34765625 37.41796875 5.74609375 35.94140625 C3.90904925 33.01574279 3.65334086 31.20040968 3.18359375 27.81640625 C2.68991369 23.88228856 2.68991369 23.88228856 0.640625 20.63671875 C0.09792969 20.24226563 -0.44476562 19.8478125 -1.00390625 19.44140625 C-3.94140625 17.25390625 -3.94140625 17.25390625 -4.81640625 14.25390625 C-4.92783923 11.57951482 -5.02010453 8.92964789 -4.94140625 6.25390625 C-5.93140625 6.25390625 -6.92140625 6.25390625 -7.94140625 6.25390625 C-7.61140625 6.76953125 -7.28140625 7.28515625 -6.94140625 7.81640625 C-5.56149175 11.17994785 -5.56165779 13.64629584 -5.94140625 17.25390625 C-7.50390625 20.12890625 -7.50390625 20.12890625 -9.94140625 22.25390625 C-14.62241803 23.53054583 -17.62083919 23.47965292 -21.94140625 21.25390625 C-21.38109352 24.19028848 -21.38109352 24.19028848 -19.94140625 27.25390625 C-16.94081555 29.17230484 -16.94081555 29.17230484 -13.94140625 30.25390625 C-13.94140625 32.89390625 -13.94140625 35.53390625 -13.94140625 38.25390625 C-11.96140625 38.91390625 -9.98140625 39.57390625 -7.94140625 40.25390625 C-7.72447579 38.1228441 -7.72447579 38.1228441 -9.44140625 36.50390625 C-11.40393501 33.56011311 -11.31116987 31.72968426 -10.94140625 28.25390625 C-10.28140625 27.26390625 -9.62140625 26.27390625 -8.94140625 25.25390625 C-5.56640625 24.75390625 -5.56640625 24.75390625 -1.94140625 25.25390625 C1.17124957 27.8750901 2.29194628 30.34032871 2.99609375 34.25390625 C3.18225564 36.93061237 3.01404724 38.39390957 2.18359375 41.00390625 C-2.44509757 45.90487353 -8.06454328 47.4943914 -14.69140625 47.69140625 C-18.8442423 47.53436623 -21.70288795 47.06062211 -24.94140625 44.25390625 C-26.21008667 41.71654541 -25.8106598 40.25032205 -25.56640625 37.44140625 C-25.44755949 33.62362829 -25.44755949 33.62362829 -27.4609375 30.5546875 C-29.34472696 29.23351696 -29.34472696 29.23351696 -31.3125 28.19140625 C-32.94140625 27.25390625 -32.94140625 27.25390625 -33.94140625 25.25390625 C-34.49437415 19.84120127 -34.45630837 15.64753391 -30.94140625 11.25390625 C-28.87890625 8.94140625 -28.87890625 8.94140625 -26.94140625 7.25390625 C-26.28140625 7.25390625 -25.62140625 7.25390625 -24.94140625 7.25390625 C-23.828125 8.8984375 -23.828125 8.8984375 -22.62890625 11.06640625 C-20.53399473 14.58909973 -18.75461044 16.51072719 -14.94140625 18.25390625 C-15.53778958 16.97940178 -16.14388041 15.70943748 -16.75390625 14.44140625 C-17.09035156 13.73371094 -17.42679688 13.02601563 -17.7734375 12.296875 C-18.94786096 10.2426159 -20.19768641 8.83774347 -21.94140625 7.25390625 C-20.60863331 3.25558744 -19.01376787 2.89387274 -15.31640625 1.00390625 C-9.35521186 -1.82501558 -6.20117347 -2.38314715 0 0 Z " fill="#0872BA" transform="translate(678.94140625,191.74609375)"/>
<path d="M0 0 C2.05765339 2.53375936 2.96206116 3.76762458 3.5 7.0625 C3 10 3 10 0.625 11.875 C-2 13 -2 13 -4 13 C-4.33 14.32 -4.66 15.64 -5 17 C-3.96875 16.195625 -2.9375 15.39125 -1.875 14.5625 C1.48293202 12.22742503 3.77391745 10.65501367 8 11 C11.0495478 12.96845811 13.47795718 15.40534558 16 18 C17.02287109 18.97453125 17.02287109 18.97453125 18.06640625 19.96875 C21.23569591 23.19566311 23.44447828 25.67875384 23.75 30.3125 C23 34 23 34 21.125 36.0625 C15.99826726 37.60051982 10.58370198 37.17599971 5.69140625 34.94921875 C5.13324219 34.63597656 4.57507813 34.32273438 4 34 C2.02 36.475 2.02 36.475 0 39 C0.66 39.495 1.32 39.99 2 40.5 C4.10448312 43.13060389 4.3578457 43.84625894 4.5 47.0625 C4 51 4 51 2.5625 53 C-1.32541702 54.51723591 -4.88760985 54.6747445 -9 54 C-11.35249001 52.89322771 -12.96866157 51.66673923 -15 50 C-14.6390625 49.30132812 -14.278125 48.60265625 -13.90625 47.8828125 C-13.21015625 46.51769531 -13.21015625 46.51769531 -12.5 45.125 C-11.80390625 43.76761719 -11.80390625 43.76761719 -11.09375 42.3828125 C-9.86094411 40.13403141 -9.86094411 40.13403141 -10 38 C-10.7425 38.763125 -11.485 39.52625 -12.25 40.3125 C-14.43390862 42.44677433 -16.5464828 44.21228768 -19 46 C-20.83189427 44.16206984 -22.63882948 42.30749326 -24.4375 40.4375 C-24.95376953 39.92380859 -25.47003906 39.41011719 -26.00195312 38.88085938 C-29.60570996 35.08867081 -30.77649944 32.39594216 -31 27 C-30.75 23.75 -30.75 23.75 -29 21 C-25.41509836 19.55954103 -21.78883308 18.72228591 -18 18 C-15.5705484 21.6441774 -15.83820425 23.71241272 -16 28 C-18.31 29.32 -20.62 30.64 -23 32 C-22.67 32.33 -22.34 32.66 -22 33 C-21.154375 32.34 -20.30875 31.68 -19.4375 31 C-15.51734437 28.71918218 -13.45830982 28.49528568 -9 29 C-8.01 29.66 -7.02 30.32 -6 31 C-3.32854463 30.19838209 -3.32854463 30.19838209 -1 29 C-5.05033411 23.38212149 -5.05033411 23.38212149 -9.875 18.4375 C-12 16 -12 16 -12.4375 12.5 C-12.01930007 9.15440053 -11.57593461 6.95666281 -10 4 C-7.6171875 2.63671875 -7.6171875 2.63671875 -4.875 1.6875 C-3.96492188 1.36136719 -3.05484375 1.03523438 -2.1171875 0.69921875 C-1.41851562 0.46847656 -0.71984375 0.23773438 0 0 Z M6.375 21.0625 C4.31630516 23.96338818 4.80442267 26.54480057 5 30 C8.44216672 27.3401439 8.99504674 24.09711714 10 20 C7.95540186 19.81758355 7.95540186 19.81758355 6.375 21.0625 Z M13 22 C13 22.66 13 23.32 13 24 C13.66 23.67 14.32 23.34 15 23 C14.34 22.67 13.68 22.34 13 22 Z M-5 33 C-4 35 -4 35 -4 35 Z M-6 39 C-6 39.66 -6 40.32 -6 41 C-5.34 40.67 -4.68 40.34 -4 40 C-4.66 39.67 -5.32 39.34 -6 39 Z " fill="#0872BA" transform="translate(161,80)"/>
<path d="M0 0 C2.33489338 0.26595101 4.59463195 0.66047059 6.89453125 1.140625 C8.07015625 1.32625 9.24578125 1.511875 10.45703125 1.703125 C11.26140625 1.8475 12.06578125 1.991875 12.89453125 2.140625 C11.14453125 8.890625 11.14453125 8.890625 8.89453125 11.140625 C6.64370961 11.15505334 4.39188969 11.07876846 2.14453125 10.953125 C-2.65474465 10.6901409 -2.65474465 10.6901409 -7.01171875 12.28125 C-7.45515625 12.75046875 -7.89859375 13.2196875 -8.35546875 13.703125 C-11.10546875 16.140625 -11.10546875 16.140625 -13.5703125 16.1796875 C-15.33307117 15.9520716 -17.09043022 15.6750026 -18.8359375 15.33984375 C-21.38815455 14.87745299 -21.38815455 14.87745299 -24.10546875 17.140625 C-23.44160156 17.08261719 -22.77773438 17.02460938 -22.09375 16.96484375 C-14.88931198 16.59673378 -14.88931198 16.59673378 -11.04296875 19.265625 C-8.86921785 22.49119085 -8.10546875 24.25397753 -8.10546875 28.140625 C-9.54296875 31.515625 -9.54296875 31.515625 -11.10546875 34.140625 C-4.36855497 34.56168211 2.21217988 34.35307074 7.578125 29.671875 C9.12389417 27.87382896 9.49573962 26.45361646 9.89453125 24.140625 C9.39953125 24.470625 8.90453125 24.800625 8.39453125 25.140625 C4.63857583 26.64300717 1.94406762 26.52629513 -2.10546875 26.140625 C-4.16796875 24.453125 -4.16796875 24.453125 -5.10546875 22.140625 C-5.03001561 19.04704615 -4.59021882 17.66266353 -2.48046875 15.390625 C1.54349508 13.2727493 5.22484096 12.72320243 9.64453125 13.828125 C13.2553859 15.93445688 14.5894807 18.22547334 15.89453125 22.140625 C16.43428392 28.50970646 15.52022956 32.8205644 11.89453125 38.140625 C6.06056298 43.97459327 -1.44589908 46.07847111 -9.48046875 46.390625 C-15.11786014 46.31558485 -19.05417699 44.81404723 -23.48046875 41.203125 C-25.15698445 39.07523969 -25.55266945 37.73661387 -26.10546875 35.140625 C-24.48296934 34.30243342 -22.85738378 33.4702134 -21.23046875 32.640625 C-20.32554687 32.1765625 -19.420625 31.7125 -18.48828125 31.234375 C-16.10546875 30.140625 -16.10546875 30.140625 -14.10546875 30.140625 C-14.10546875 29.150625 -14.10546875 28.160625 -14.10546875 27.140625 C-14.70875 27.34558594 -15.31203125 27.55054687 -15.93359375 27.76171875 C-16.7328125 28.03113281 -17.53203125 28.30054687 -18.35546875 28.578125 C-19.144375 28.84496094 -19.93328125 29.11179687 -20.74609375 29.38671875 C-22.85368863 30.06017208 -24.95300848 30.63213095 -27.10546875 31.140625 C-27.86957256 29.17578663 -28.49968622 27.15990011 -29.10546875 25.140625 C-29.3890625 24.22023438 -29.67265625 23.29984375 -29.96484375 22.3515625 C-31.91027525 14.51028249 -31.91027525 14.51028249 -29.625 10.62109375 C-26.08674966 6.93679931 -23.30964576 4.63826915 -18.10546875 4.140625 C-15.10546875 5.140625 -15.10546875 5.140625 -12.10546875 6.140625 C-9.50657092 6.22087158 -9.50657092 6.22087158 -7.10546875 5.140625 C-6.36296875 4.274375 -5.62046875 3.408125 -4.85546875 2.515625 C-2.10546875 0.140625 -2.10546875 0.140625 0 0 Z " fill="#0872BA" transform="translate(307.10546875,13.859375)"/>
<path d="M0 0 C3.183554 1.64899774 3.82585302 2.51459778 5.046875 5.91796875 C5.39492188 7.53638672 5.39492188 7.53638672 5.75 9.1875 C5.99234375 10.27417969 6.2346875 11.36085937 6.484375 12.48046875 C6.65453125 13.31191406 6.8246875 14.14335937 7 15 C3.62129341 15.28525665 0.36861747 15.44552683 -3 15 C-5.3400392 12.37631969 -5.89623452 10.31129644 -7 7 C-7.99 7 -8.98 7 -10 7 C-9.34 7.845625 -8.68 8.69125 -8 9.5625 C-5.7003303 13.5150573 -5.33400435 15.50452934 -6 20 C-7.4375 22.375 -7.4375 22.375 -10 24 C-12.99457741 24.608193 -15.94983735 24.86965117 -19 25 C-15.26020416 33.41644777 -15.26020416 33.41644777 -9 40 C-5.81849108 40.87989974 -5.81849108 40.87989974 -3 41 C-1.72421708 39.00267396 -1.72421708 39.00267396 -2.625 36.6875 C-4.26108508 33.48969735 -6.44094889 31.49170766 -9 29 C-9 28.34 -9 27.68 -9 27 C2.34903333 17.41560295 2.34903333 17.41560295 8.5 17.25 C14.63402062 18.56443299 14.63402062 18.56443299 17 21 C18.02276442 24.63054596 18.5741598 28.2564197 19 32 C14.3203125 33.984375 14.3203125 33.984375 11.4375 34.125 C7.5601082 32.33543456 6.5571298 28.81888259 5 25 C4.505 25.495 4.505 25.495 4 26 C4.495 26.474375 4.99 26.94875 5.5 27.4375 C7.72861251 31.24471304 7.80579834 34.69494775 7 39 C4.94873334 42.85019496 2.04330113 45.39711991 -2 47 C-8.75590503 47.91687283 -14.65131476 47.73276692 -20.25390625 43.62109375 C-23.35452969 40.74243888 -25.72730399 37.55418504 -28 34 C-28.928125 32.6078125 -28.928125 32.6078125 -29.875 31.1875 C-31.69047855 26.04364412 -32.35688764 20.0720876 -30.09765625 14.95703125 C-29 13.3125 -29 13.3125 -27 11 C-24.12269848 12.13036845 -22.94115016 13.07540136 -21 15.5625 C-18.84011766 18.19485661 -18.18072728 18.41024015 -15 19 C-15.76412087 17.87043002 -16.53659803 16.74651022 -17.3125 15.625 C-17.74175781 14.99851563 -18.17101562 14.37203125 -18.61328125 13.7265625 C-20.06920339 11.73621155 -20.06920339 11.73621155 -23 10 C-21.63362048 5.90086143 -18.88937901 4.47566385 -15.4375 2.1875 C-14.54321289 1.5387793 -14.54321289 1.5387793 -13.63085938 0.87695312 C-8.6813784 -2.40678613 -5.41215002 -2.33573091 0 0 Z " fill="#0872BA" transform="translate(649,145)"/>
<path d="M0 0 C2.3891986 1.53896689 3.59381303 2.66607793 5.02734375 5.140625 C5.61517641 9.86428031 5.43589158 14.40665808 5.02734375 19.140625 C1.90293496 18.76775317 -1.02961703 18.27795334 -3.97265625 17.140625 C-5.47265625 14.328125 -5.47265625 14.328125 -5.97265625 11.140625 C-6.27015571 9.46719052 -6.59392691 7.79756585 -6.97265625 6.140625 C-7.63265625 5.810625 -8.29265625 5.480625 -8.97265625 5.140625 C-8.62203125 5.98625 -8.27140625 6.831875 -7.91015625 7.703125 C-6.82871253 11.66841866 -6.99785175 14.16642202 -7.97265625 18.140625 C-9.69389066 21.00934901 -11.00104791 21.14812468 -14.28515625 22.015625 C-18.44349037 22.15658548 -20.4633649 21.2804368 -23.97265625 19.140625 C-22.86199513 29.82722101 -22.86199513 29.82722101 -17.97265625 39.140625 C-14.85131881 40.27541435 -14.85131881 40.27541435 -11.97265625 40.140625 C-11.72702183 36.1285962 -11.81781933 33.03820808 -13.484375 29.39453125 C-13.97550781 28.32074219 -14.46664062 27.24695313 -14.97265625 26.140625 C-12.60276696 25.26925349 -10.22850849 24.41855692 -7.84765625 23.578125 C-7.1825 23.33126953 -6.51734375 23.08441406 -5.83203125 22.83007812 C-1.47125154 21.31235578 1.60045189 20.72426486 6.02734375 22.140625 C8.8828125 23.78125 8.8828125 23.78125 11.02734375 26.140625 C11.515625 29.375 11.515625 29.375 11.33984375 32.890625 C11.29472656 34.06109375 11.24960937 35.2315625 11.203125 36.4375 C11.11611328 37.77554688 11.11611328 37.77554688 11.02734375 39.140625 C4.97265625 39.3359375 4.97265625 39.3359375 3.02734375 39.140625 C0.71530448 36.82858573 0.75459284 36.20848125 0.52734375 33.078125 C0.36234375 31.77875 0.19734375 30.479375 0.02734375 29.140625 C-0.63265625 28.810625 -1.29265625 28.480625 -1.97265625 28.140625 C-1.47765625 29.625625 -1.47765625 29.625625 -0.97265625 31.140625 C-0.60470337 36.10798892 -0.72804885 39.24709612 -3.97265625 43.140625 C-8.79127619 46.46776734 -13.30384604 46.86582414 -18.97265625 46.140625 C-24.99549476 44.13301216 -28.96805219 39.79242309 -31.98046875 34.3046875 C-35.17498315 27.20232053 -36.51648278 19.2317653 -33.72265625 11.828125 C-31.98147135 9.15416248 -30.52114529 7.07129851 -27.97265625 5.140625 C-26.0078125 5.23046875 -26.0078125 5.23046875 -23.97265625 6.140625 C-22.55859375 8.390625 -22.55859375 8.390625 -21.34765625 11.140625 C-19.92972791 14.85527619 -19.92972791 14.85527619 -16.97265625 17.140625 C-17.42902161 15.744147 -17.88785113 14.3484742 -18.34765625 12.953125 C-18.60289062 12.17582031 -18.858125 11.39851562 -19.12109375 10.59765625 C-19.99472547 8.07694821 -20.96386023 5.60998222 -21.97265625 3.140625 C-5.51555965 -2.40281807 -5.51555965 -2.40281807 0 0 Z " fill="#0872BA" transform="translate(700.97265625,241.859375)"/>
<path d="M0 0 C2.5625 1.4375 2.5625 1.4375 4 4 C4.91848825 9.62841058 4.22778646 14.2139718 1 19 C-2.87373891 22.75334849 -6.42148978 23.80534861 -11.625 24.5625 C-16.62741635 25.19838274 -16.62741635 25.19838274 -20.9609375 27.58984375 C-21.30382812 28.05519531 -21.64671875 28.52054688 -22 29 C-21.34 28.67 -20.68 28.34 -20 28 C-15.7162126 27.49553855 -12.1835984 27.23066104 -8.5 29.625 C-6.26210291 33.16833706 -5.67765958 36.25015203 -6.4375 40.375 C-6.623125 40.91125 -6.80875 41.4475 -7 42 C-4.03 41.505 -4.03 41.505 -1 41 C-0.34 38.69 0.32 36.38 1 34 C2.093125 34.103125 3.18625 34.20625 4.3125 34.3125 C8.00422948 34.39881486 8.00422948 34.39881486 9.875 32.125 C11.43061634 27.8038435 11.74299555 23.56404458 12 19 C15.97212708 22.62720849 17.63656061 27.08763901 18.29296875 32.34765625 C18.45756553 37.04258331 18.06829614 40.22363552 15 44 C12.47524538 45.26237731 10.68799534 45.09856404 7.875 45.0625 C6.96492188 45.05347656 6.05484375 45.04445312 5.1171875 45.03515625 C4.41851562 45.02355469 3.71984375 45.01195312 3 45 C2.773125 45.9075 2.54625 46.815 2.3125 47.75 C0.76350023 51.58561847 -0.43128816 52.9380776 -4 55 C-9.21145517 55.78663474 -12.72489917 54.53109118 -17.30078125 52.265625 C-19.33310467 50.75189445 -20.04101611 49.31713873 -21 47 C-20.51789063 46.69707031 -20.03578125 46.39414063 -19.5390625 46.08203125 C-15.63056363 43.48965955 -13.22248629 41.75411335 -12 37 C-12.94875 37.495 -13.8975 37.99 -14.875 38.5 C-18 40 -18 40 -20 40 C-20.66 41.32 -21.32 42.64 -22 44 C-22.66 44 -23.32 44 -24 44 C-31.75341741 33.68503227 -31.75341741 33.68503227 -31.1875 27.625 C-29.35237195 22.02303015 -26.43795682 17.86531723 -22 14 C-19.40742331 13.13580777 -17.65962293 12.82419068 -14.98828125 12.68359375 C-14.23095703 12.64169922 -13.47363281 12.59980469 -12.69335938 12.55664062 C-11.90767578 12.51732422 -11.12199219 12.47800781 -10.3125 12.4375 C-9.51521484 12.39431641 -8.71792969 12.35113281 -7.89648438 12.30664062 C-5.93118553 12.20072632 -3.96561504 12.09987449 -2 12 C-2.33 11.34 -2.66 10.68 -3 10 C-5.12576782 9.53348793 -5.12576782 9.53348793 -7.5625 9.375 C-8.38878906 9.30023438 -9.21507812 9.22546875 -10.06640625 9.1484375 C-10.70449219 9.09945312 -11.34257812 9.05046875 -12 9 C-12.75 6.75 -12.75 6.75 -13 4 C-9.99797005 -1.04886856 -5.29770024 -0.92345234 0 0 Z " fill="#0872BA" transform="translate(206,47)"/>
<path d="M0 0 C0.88365234 0.00386719 1.76730469 0.00773438 2.67773438 0.01171875 C3.59748047 0.03621094 4.51722656 0.06070313 5.46484375 0.0859375 C6.38845703 0.08722656 7.31207031 0.08851563 8.26367188 0.08984375 C15.12141758 0.18001133 15.12141758 0.18001133 17.40234375 2.4609375 C18.5550659 5.73676013 18.51759545 8.87160512 18.5 12.3203125 C18.49677734 13.43535156 18.49355469 14.55039062 18.49023438 15.69921875 C18.48185547 16.85808594 18.47347656 18.01695312 18.46484375 19.2109375 C18.46033203 20.38527344 18.45582031 21.55960938 18.45117188 22.76953125 C18.43939469 25.66671822 18.42294701 28.56380204 18.40234375 31.4609375 C20.38234375 31.4609375 22.36234375 31.4609375 24.40234375 31.4609375 C24.32124627 28.37654507 24.20842686 25.29409838 24.08984375 22.2109375 C24.06728516 21.33824219 24.04472656 20.46554687 24.02148438 19.56640625 C23.84790654 13.4076597 23.84790654 13.4076597 20.40234375 8.4609375 C21.77480394 5.50486939 23.1827837 2.86502154 25.40234375 0.4609375 C28.35496448 -0.28131096 30.32268105 0.04335612 33.40234375 0.4609375 C33.40234375 2.4409375 33.40234375 4.4209375 33.40234375 6.4609375 C31.75234375 6.7909375 30.10234375 7.1209375 28.40234375 7.4609375 C29.21832031 7.87085938 30.03429687 8.28078125 30.875 8.703125 C34.91292013 13.1092635 34.0113423 17.83569192 33.83984375 23.5859375 C33.83404297 24.69582031 33.82824219 25.80570313 33.82226562 26.94921875 C33.69716054 35.16612071 33.69716054 35.16612071 31.40234375 37.4609375 C28.10990771 37.90963411 24.78436632 37.78501992 21.46484375 37.7734375 C20.08522461 37.79760742 20.08522461 37.79760742 18.67773438 37.82226562 C17.35225586 37.82323242 17.35225586 37.82323242 16 37.82421875 C15.19054932 37.82719971 14.38109863 37.83018066 13.54711914 37.83325195 C11.40234375 37.4609375 11.40234375 37.4609375 9.63330078 36.33935547 C7.81308493 33.56173929 8.06464269 31.33824885 8.109375 28.04296875 C8.11904297 26.78935547 8.12871094 25.53574219 8.13867188 24.24414062 C8.16380859 22.93380859 8.18894531 21.62347656 8.21484375 20.2734375 C8.22989408 18.93816587 8.24358188 17.60287813 8.25585938 16.26757812 C8.29126681 12.99829174 8.34065485 9.72981657 8.40234375 6.4609375 C6.42234375 6.4609375 4.44234375 6.4609375 2.40234375 6.4609375 C2.40234375 14.7109375 2.40234375 22.9609375 2.40234375 31.4609375 C3.06234375 31.4609375 3.72234375 31.4609375 4.40234375 31.4609375 C4.40234375 33.4409375 4.40234375 35.4209375 4.40234375 37.4609375 C0.44234375 37.4609375 -3.51765625 37.4609375 -7.59765625 37.4609375 C-7.67191981 32.83450824 -7.72631117 28.20842741 -7.76245117 23.58154297 C-7.77751989 22.00823928 -7.7979787 20.43497748 -7.82397461 18.86181641 C-7.86044363 16.59787654 -7.87740133 14.33449293 -7.890625 12.0703125 C-7.90610886 11.36912292 -7.92159271 10.66793335 -7.93754578 9.94549561 C-7.9385835 6.92116176 -7.73500784 4.7339517 -6.36669922 2.01416016 C-4.11389999 0.0361987 -2.97206928 -0.03017329 0 0 Z " fill="#0872BA" transform="translate(579.59765625,532.5390625)"/>
<path d="M0 0 C6.27 0 12.54 0 19 0 C19 1.98 19 3.96 19 6 C12.565 6.495 12.565 6.495 6 7 C8.67343986 9.67343986 10.27699847 9.32100954 14 9.5 C19.77777778 9.77777778 19.77777778 9.77777778 22 12 C23.42876221 15.77408886 23.1113375 19.77537881 23.0625 23.75 C23.05798828 24.44738281 23.05347656 25.14476562 23.04882812 25.86328125 C23.0371002 27.57555803 23.01916653 29.28779033 23 31 C24.98 31 26.96 31 29 31 C28.91890252 27.91560757 28.80608311 24.83316088 28.6875 21.75 C28.66494141 20.87730469 28.64238281 20.00460937 28.61914062 19.10546875 C28.44556279 12.9467222 28.44556279 12.9467222 25 8 C26.37246019 5.04393189 27.78043995 2.40408404 30 0 C32.95262073 -0.74224846 34.9203373 -0.41758138 38 0 C38 1.98 38 3.96 38 6 C36.35 6.33 34.7 6.66 33 7 C33.81597656 7.40992188 34.63195312 7.81984375 35.47265625 8.2421875 C39.51057638 12.648326 38.60899855 17.37475442 38.4375 23.125 C38.43169922 24.23488281 38.42589844 25.34476563 38.41992188 26.48828125 C38.29481679 34.70518321 38.29481679 34.70518321 36 37 C32.70756396 37.44869661 29.38202257 37.32408242 26.0625 37.3125 C24.68288086 37.33666992 24.68288086 37.33666992 23.27539062 37.36132812 C21.94991211 37.36229492 21.94991211 37.36229492 20.59765625 37.36328125 C19.78820557 37.36626221 18.97875488 37.36924316 18.14477539 37.37231445 C15.44725569 36.90404837 14.57233188 36.22471551 13 34 C12.65942383 32.00708008 12.65942383 32.00708008 12.70703125 29.76953125 C12.71669922 28.96708984 12.72636719 28.16464844 12.73632812 27.33789062 C12.76146484 26.50451172 12.78660156 25.67113281 12.8125 24.8125 C12.82603516 23.96751953 12.83957031 23.12253906 12.85351562 22.25195312 C12.88884201 20.16769616 12.94264861 18.08376723 13 16 C11.02 16 9.04 16 7 16 C7 20.95 7 25.9 7 31 C7.66 31 8.32 31 9 31 C9 32.98 9 34.96 9 37 C5.04 37 1.08 37 -3 37 C-3.02686682 33.04162186 -3.04677414 29.08342438 -3.0625 25.125 C-3.07087891 23.99707031 -3.07925781 22.86914062 -3.08789062 21.70703125 C-3.09111328 20.63066406 -3.09433594 19.55429687 -3.09765625 18.4453125 C-3.10289307 17.45031738 -3.10812988 16.45532227 -3.11352539 15.43017578 C-3 13 -3 13 -2 11 C-1.34 11 -0.68 11 0 11 C-0.556875 10.29875 -1.11375 9.5975 -1.6875 8.875 C-2.120625 7.92625 -2.55375 6.9775 -3 6 C-2.01 4.02 -1.02 2.04 0 0 Z " fill="#0872BA" transform="translate(528,533)"/>
<path d="M0 0 C6.27 0 12.54 0 19 0 C19 1.98 19 3.96 19 6 C12.565 6.495 12.565 6.495 6 7 C8.67343986 9.67343986 10.27699847 9.32100954 14 9.5 C19.77777778 9.77777778 19.77777778 9.77777778 22 12 C23.42876221 15.77408886 23.1113375 19.77537881 23.0625 23.75 C23.05798828 24.44738281 23.05347656 25.14476562 23.04882812 25.86328125 C23.0371002 27.57555803 23.01916653 29.28779033 23 31 C24.98 31 26.96 31 29 31 C28.91890252 27.91560757 28.80608311 24.83316088 28.6875 21.75 C28.66494141 20.87730469 28.64238281 20.00460937 28.61914062 19.10546875 C28.44556279 12.9467222 28.44556279 12.9467222 25 8 C26.37246019 5.04393189 27.78043995 2.40408404 30 0 C32.95262073 -0.74224846 34.9203373 -0.41758138 38 0 C38 1.98 38 3.96 38 6 C36.35 6.33 34.7 6.66 33 7 C33.81597656 7.40992188 34.63195312 7.81984375 35.47265625 8.2421875 C39.51057638 12.648326 38.60899855 17.37475442 38.4375 23.125 C38.43169922 24.23488281 38.42589844 25.34476563 38.41992188 26.48828125 C38.29481679 34.70518321 38.29481679 34.70518321 36 37 C32.70756396 37.44869661 29.38202257 37.32408242 26.0625 37.3125 C24.68288086 37.33666992 24.68288086 37.33666992 23.27539062 37.36132812 C21.94991211 37.36229492 21.94991211 37.36229492 20.59765625 37.36328125 C19.78820557 37.36626221 18.97875488 37.36924316 18.14477539 37.37231445 C15.44725569 36.90404837 14.57233188 36.22471551 13 34 C12.65942383 32.00708008 12.65942383 32.00708008 12.70703125 29.76953125 C12.71669922 28.96708984 12.72636719 28.16464844 12.73632812 27.33789062 C12.76146484 26.50451172 12.78660156 25.67113281 12.8125 24.8125 C12.82603516 23.96751953 12.83957031 23.12253906 12.85351562 22.25195312 C12.88884201 20.16769616 12.94264861 18.08376723 13 16 C11.02 16 9.04 16 7 16 C7 20.95 7 25.9 7 31 C7.66 31 8.32 31 9 31 C9 32.98 9 34.96 9 37 C5.04 37 1.08 37 -3 37 C-3.02686682 33.04162186 -3.04677414 29.08342438 -3.0625 25.125 C-3.07087891 23.99707031 -3.07925781 22.86914062 -3.08789062 21.70703125 C-3.09111328 20.63066406 -3.09433594 19.55429687 -3.09765625 18.4453125 C-3.10289307 17.45031738 -3.10812988 16.45532227 -3.11352539 15.43017578 C-3 13 -3 13 -2 11 C-1.34 11 -0.68 11 0 11 C-0.556875 10.29875 -1.11375 9.5975 -1.6875 8.875 C-2.120625 7.92625 -2.55375 6.9775 -3 6 C-2.01 4.02 -1.02 2.04 0 0 Z " fill="#0872BA" transform="translate(327,533)"/>
<path d="M0 0 C5.23445852 3.30059107 9.73037663 7.82963992 11.5625 13.84765625 C12.04198569 16.20655462 12.09786368 18.34526962 12.0625 20.75 C12.05347656 21.54921875 12.04445313 22.3484375 12.03515625 23.171875 C12.02355469 23.77515625 12.01195312 24.3784375 12 25 C12.66 25 13.32 25 14 25 C14.33 23.35 14.66 21.7 15 20 C16.875 20.1875 16.875 20.1875 19 21 C20.25 23.5625 20.25 23.5625 21 26 C17.84070969 29.65812563 14.65634179 30.86749266 9.875 31.25 C7 31 7 31 4 29 C5.485 33.95 5.485 33.95 7 39 C3.76435976 39.28549767 1.16382507 39.51453211 -2 39 C-4.41191164 36.46114565 -5.60379746 34.30897295 -6.6171875 30.9609375 C-7.78045373 26.71834309 -7.78045373 26.71834309 -10.89453125 23.84765625 C-12.33106597 23.2445705 -13.76986111 22.64683889 -15.2109375 22.0546875 C-17 21 -17 21 -18.1875 17.5625 C-18.5896875 15.7990625 -18.5896875 15.7990625 -19 14 C-21.37505218 11.29151077 -21.37505218 11.29151077 -24 9 C-25.02813611 7.68824014 -26.04084432 6.3630107 -27 5 C-25.875 3.4375 -25.875 3.4375 -24 2 C-18.7386272 2.12235751 -14.51875553 4.53418163 -10 7 C-10 5.02 -10 3.04 -10 1 C-6.69323476 -0.65338262 -3.54547807 -0.76373696 0 0 Z M-9 9 C-8.91266424 10.60517097 -8.80447776 12.20921662 -8.6875 13.8125 C-8.62949219 14.70582031 -8.57148437 15.59914062 -8.51171875 16.51953125 C-7.92244735 19.37592315 -7.32009468 20.28141135 -5 22 C-2.69011685 22.74386068 -0.35684056 23.42190703 2 24 C0.59790456 19.92584833 -1.34447678 17.01720177 -4.0625 13.6875 C-4.77535156 12.80449219 -5.48820313 11.92148438 -6.22265625 11.01171875 C-6.80917969 10.34785156 -7.39570312 9.68398437 -8 9 C-8.33 9 -8.66 9 -9 9 Z M-2 9 C0.31 12.63 2.62 16.26 5 20 C5.33 19.01 5.66 18.02 6 17 C3.66652994 12.76518396 2.40408789 11.20204395 -2 9 Z M6 20 C7 22 7 22 7 22 Z M2 24 C3 26 3 26 3 26 Z " fill="#0872BA" transform="translate(673,132)"/>
<path d="M0 0 C1.921875 1.62890625 1.921875 1.62890625 3.75 3.5625 C4.36359375 4.20316406 4.9771875 4.84382812 5.609375 5.50390625 C6.06828125 5.99761719 6.5271875 6.49132812 7 7 C7.27328125 6.360625 7.5465625 5.72125 7.828125 5.0625 C9 3 9 3 11.75 2 C16.14592747 2 17.72895948 3.08450736 21 6 C26.2604738 12.47817606 25.36218572 20.08221781 25 28 C25 28.99 25 29.98 25 31 C25.33 30.34 25.66 29.68 26 29 C27.32 29 28.64 29 30 29 C30.38063221 31.3260857 30.71269945 33.66055264 31 36 C29.125965 37.874035 26.13362936 37.25989078 23.625 37.3125 C21.88089844 37.36857422 21.88089844 37.36857422 20.1015625 37.42578125 C19.07804688 37.28527344 18.05453125 37.14476562 17 37 C16.01 35.68 15.02 34.36 14 33 C13.67 36.3 13.34 39.6 13 43 C7.60421546 42.40046838 7.60421546 42.40046838 5.3203125 40.88671875 C3.33439793 38.04885858 3.69834412 35.54451394 3.6875 32.125 C3.67323629 27.34944293 3.67323629 27.34944293 1.609375 23.28515625 C1.05765625 22.92292969 0.5059375 22.56070312 -0.0625 22.1875 C-3 20 -3 20 -3.32421875 17.7890625 C-3.27618401 16.18621903 -3.17651289 14.58375284 -3.015625 12.98828125 C-3.01046875 12.33214844 -3.0053125 11.67601562 -3 11 C-3.66 10.34 -4.32 9.68 -5 9 C-5.8515625 7.0546875 -5.8515625 7.0546875 -6.625 4.875 C-6.88539063 4.15054688 -7.14578125 3.42609375 -7.4140625 2.6796875 C-7.60742188 2.12539062 -7.80078125 1.57109375 -8 1 C-4.88933549 -0.88861774 -3.42083601 -1.27643135 0 0 Z M-2 7 C-1 9 -1 9 -1 9 Z M8 11 C6.98560783 14.32746477 6.17097411 17.51640254 6 21 C8.0424351 24.04273417 8.0424351 24.04273417 11 26 C12.01408239 26.98571645 13.01753987 27.98276252 14 29 C13.56699236 22.18012971 12.09212176 17.08356979 9 11 C8.67 11 8.34 11 8 11 Z M15 13 C15.99 17.62 16.98 22.24 18 27 C18.33 27 18.66 27 19 27 C19.46124843 19.50880826 19.46124843 19.50880826 16 13 C15.67 13 15.34 13 15 13 Z " fill="#0872BA" transform="translate(711,236)"/>
<path d="M0 0 C10 0 10 0 14 3 C14.33 2.01 14.66 1.02 15 0 C18.63 0 22.26 0 26 0 C26 12.21 26 24.42 26 37 C22.7 37 19.4 37 16 37 C15.67 28.09 15.34 19.18 15 10 C13.68 10 12.36 10 11 10 C10.67 16.93 10.34 23.86 10 31 C10.66 31 11.32 31 12 31 C12 32.98 12 34.96 12 37 C8.04 37 4.08 37 0 37 C0 24.79 0 12.58 0 0 Z " fill="#0872BA" transform="translate(451,533)"/>
<path d="M0 0 C10 0 10 0 14 3 C14.33 2.01 14.66 1.02 15 0 C18.63 0 22.26 0 26 0 C26 12.21 26 24.42 26 37 C22.7 37 19.4 37 16 37 C15.67 28.09 15.34 19.18 15 10 C13.68 10 12.36 10 11 10 C10.67 16.93 10.34 23.86 10 31 C10.66 31 11.32 31 12 31 C12 32.98 12 34.96 12 37 C8.04 37 4.08 37 0 37 C0 24.79 0 12.58 0 0 Z " fill="#0872BA" transform="translate(203,533)"/>
<path d="M0 0 C0.81533203 -0.00322266 1.63066406 -0.00644531 2.47070312 -0.00976562 C8.53633903 0.04505935 8.53633903 0.04505935 11.9375 2.3125 C12.23046875 5.1328125 12.23046875 5.1328125 12.125 8.4375 C12.09792969 9.53320312 12.07085937 10.62890625 12.04296875 11.7578125 C12.00816406 12.60085938 11.97335937 13.44390625 11.9375 14.3125 C8.72298731 15.91975635 5.50137464 15.36998185 1.9375 15.3125 C1.8125 9.5625 1.8125 9.5625 2.9375 7.3125 C0.9575 7.3125 -1.0225 7.3125 -3.0625 7.3125 C-3.0625 9.9525 -3.0625 12.5925 -3.0625 15.3125 C2.00817963 16.02417433 6.80348147 16.36228442 11.9375 16.3125 C12.02435287 19.60400125 12.07783895 22.8952096 12.125 26.1875 C12.15013672 27.12464844 12.17527344 28.06179688 12.20117188 29.02734375 C12.21083984 29.92324219 12.22050781 30.81914063 12.23046875 31.7421875 C12.2461792 32.56960449 12.26188965 33.39702148 12.27807617 34.24951172 C12.16568604 34.93029785 12.0532959 35.61108398 11.9375 36.3125 C7.87864966 39.01840023 4.7623546 38.64382354 0 38.625 C-0.81146484 38.64111328 -1.62292969 38.65722656 -2.45898438 38.67382812 C-5.87549042 38.67663084 -8.45452697 38.57505497 -11.61328125 37.2109375 C-13.77994948 34.37266052 -13.45160761 32.13746709 -13.3125 28.625 C-13.27640625 27.44550781 -13.2403125 26.26601563 -13.203125 25.05078125 C-13.15671875 24.14714844 -13.1103125 23.24351562 -13.0625 22.3125 C-9.7625 22.6425 -6.4625 22.9725 -3.0625 23.3125 C-3.0625 25.9525 -3.0625 28.5925 -3.0625 31.3125 C-1.0825 31.3125 0.8975 31.3125 2.9375 31.3125 C2.9375 28.6725 2.9375 26.0325 2.9375 23.3125 C1.74125 23.209375 0.545 23.10625 -0.6875 23 C-4.64144038 22.50225219 -7.63933059 21.43160487 -11.0625 19.3125 C-13.42540944 15.76813584 -13.39013406 14.0185955 -13.4375 9.8125 C-13.46585937 8.6678125 -13.49421875 7.523125 -13.5234375 6.34375 C-13.0625 3.3125 -13.0625 3.3125 -11.60546875 1.42578125 C-7.75973837 -0.25783343 -4.14969727 -0.08240066 0 0 Z " fill="#0872BA" transform="translate(385.0625,532.6875)"/>
<path d="M0 0 C1.03165283 0.02618408 2.06330566 0.05236816 3.1262207 0.0793457 C4.24448242 0.09545898 5.36274414 0.11157227 6.51489258 0.12817383 C8.26576172 0.19101562 8.26576172 0.19101562 10.05200195 0.25512695 C11.82027344 0.28896484 11.82027344 0.28896484 13.62426758 0.32348633 C16.53894743 0.38248794 19.45109357 0.46476354 22.36450195 0.56762695 C22.36450195 2.54762695 22.36450195 4.52762695 22.36450195 6.56762695 C11.96950195 7.06262695 11.96950195 7.06262695 1.36450195 7.56762695 C3.01450195 9.21762695 4.66450195 10.86762695 6.36450195 12.56762695 C6.88888026 15.36334555 7.15299104 17.59219371 7.17700195 20.38012695 C7.21470703 21.41943359 7.21470703 21.41943359 7.25317383 22.47973633 C7.31163458 24.17509817 7.34103242 25.87141983 7.36450195 27.56762695 C8.68450195 27.56762695 10.00450195 27.56762695 11.36450195 27.56762695 C11.69450195 23.60762695 12.02450195 19.64762695 12.36450195 15.56762695 C11.70450195 15.56762695 11.04450195 15.56762695 10.36450195 15.56762695 C10.36450195 13.91762695 10.36450195 12.26762695 10.36450195 10.56762695 C14.32450195 10.56762695 18.28450195 10.56762695 22.36450195 10.56762695 C22.36450195 19.47762695 22.36450195 28.38762695 22.36450195 37.56762695 C18.73450195 37.56762695 15.10450195 37.56762695 11.36450195 37.56762695 C11.03450195 36.57762695 10.70450195 35.58762695 10.36450195 34.56762695 C9.53692383 35.30432617 9.53692383 35.30432617 8.69262695 36.0559082 C5.90080127 37.86872119 4.40264455 37.88492206 1.11450195 37.75512695 C-0.22354492 37.71452148 -0.22354492 37.71452148 -1.58862305 37.6730957 C-2.2640918 37.63829102 -2.93956055 37.60348633 -3.63549805 37.56762695 C-3.65531738 36.82077637 -3.67513672 36.07392578 -3.69555664 35.30444336 C-3.79058016 31.9334709 -3.90035064 28.56313766 -4.01049805 25.19262695 C-4.04143555 24.01700195 -4.07237305 22.84137695 -4.10424805 21.63012695 C-4.14291992 20.50864258 -4.1815918 19.3871582 -4.22143555 18.23168945 C-4.25285645 17.1947998 -4.28427734 16.15791016 -4.31665039 15.08959961 C-4.39504277 12.3995286 -4.39504277 12.3995286 -6.63549805 10.56762695 C-6.2589265 5.92324451 -4.92809737 1.06140124 0 0 Z " fill="#0872BA" transform="translate(623.635498046875,532.432373046875)"/>
<path d="M0 0 C2.28748276 0 4.52404348 0.09771342 6.80078125 0.3125 C6.80078125 2.2925 6.80078125 4.2725 6.80078125 6.3125 C5.15078125 6.6425 3.50078125 6.9725 1.80078125 7.3125 C2.62578125 8.055 3.45078125 8.7975 4.30078125 9.5625 C6.80078125 12.3125 6.80078125 12.3125 6.80078125 16.3125 C8.78078125 16.3125 10.76078125 16.3125 12.80078125 16.3125 C12.49140625 15.590625 12.18203125 14.86875 11.86328125 14.125 C9.33541901 7.43359995 9.33541901 7.43359995 11.17578125 3 C13.80078125 0.3125 13.80078125 0.3125 16.07421875 -0.06640625 C18.34575258 -0.06282339 20.54508317 0.05222714 22.80078125 0.3125 C22.80078125 2.2925 22.80078125 4.2725 22.80078125 6.3125 C20.82078125 6.6425 18.84078125 6.9725 16.80078125 7.3125 C18.26837891 8.240625 18.26837891 8.240625 19.765625 9.1875 C21.83666572 10.91793709 22.69314603 11.87538301 23.34423828 14.51953125 C23.50050297 17.1394144 23.47158605 19.69038377 23.36328125 22.3125 C23.36134766 23.20195313 23.35941406 24.09140625 23.35742188 25.0078125 C23.28331161 28.68587758 22.93211281 31.86664908 21.890625 35.40234375 C18.37547683 38.61525488 14.37623692 37.99421962 9.80078125 37.875 C8.88554688 37.88595703 7.9703125 37.89691406 7.02734375 37.90820312 C0.33170186 37.8345707 0.33170186 37.8345707 -1.95678711 35.58422852 C-3.38060616 32.98084155 -3.59367719 31.35080798 -3.640625 28.3984375 C-3.66705078 27.47289062 -3.69347656 26.54734375 -3.72070312 25.59375 C-3.73423828 24.6346875 -3.74777344 23.675625 -3.76171875 22.6875 C-3.79608126 20.77847151 -3.83864415 18.86956752 -3.890625 16.9609375 C-3.90295166 16.11708496 -3.91527832 15.27323242 -3.92797852 14.40380859 C-4.0113241 12.09353849 -4.0113241 12.09353849 -6.19921875 10.3125 C-5.84918478 5.99541433 -4.8973108 0.69588786 0 0 Z M6.80078125 22.3125 C6.80078125 25.2825 6.80078125 28.2525 6.80078125 31.3125 C8.78078125 31.3125 10.76078125 31.3125 12.80078125 31.3125 C12.80078125 28.3425 12.80078125 25.3725 12.80078125 22.3125 C10.82078125 22.3125 8.84078125 22.3125 6.80078125 22.3125 Z " fill="#0872BA" transform="translate(655.19921875,532.6875)"/>
<path d="M0 0 C0 2.31 0 4.62 0 7 C-1.32 7.33 -2.64 7.66 -4 8 C-3.34515625 8.45890625 -2.6903125 8.9178125 -2.015625 9.390625 C1.01923984 13.31948104 0.4349272 16.93478025 0.25 21.75 C0.23195313 22.63816406 0.21390625 23.52632812 0.1953125 24.44140625 C0.14827374 26.62870848 0.08257009 28.81379816 0 31 C2.31 31 4.62 31 7 31 C6.9131197 28.0610493 6.80626233 25.12518711 6.6875 22.1875 C6.66494141 21.35412109 6.64238281 20.52074219 6.61914062 19.66210938 C6.5659668 18.45844727 6.5659668 18.45844727 6.51171875 17.23046875 C6.48553467 16.49207764 6.45935059 15.75368652 6.43237305 14.99291992 C5.89594817 12.52039803 4.82698615 11.68319134 3 10 C3.13659663 6.03869778 5.4476215 2.87960651 8 0 C10.84668706 -0.53341364 13.07341273 -0.29265873 16 0 C16 2.31 16 4.62 16 7 C14.68 7.33 13.36 7.66 12 8 C12.64904297 8.55034912 13.29808594 9.10069824 13.96679688 9.66772461 C16.40511437 12.46470432 16.51340717 13.66404329 16.53125 17.31640625 C16.53640625 18.32767578 16.5415625 19.33894531 16.546875 20.38085938 C16.53140625 21.43080078 16.5159375 22.48074219 16.5 23.5625 C16.51546875 24.61630859 16.5309375 25.67011719 16.546875 26.75585938 C16.54171875 27.76583984 16.5365625 28.77582031 16.53125 29.81640625 C16.52673828 30.73881104 16.52222656 31.66121582 16.51757812 32.61157227 C16 35 16 35 14.23071289 36.79907227 C11.83958942 38.08635872 10.46862211 38.38568407 7.77734375 38.3984375 C6.99166016 38.40230469 6.20597656 38.40617188 5.39648438 38.41015625 C4.58501953 38.39855469 3.77355469 38.38695312 2.9375 38.375 C1.71450195 38.39240234 1.71450195 38.39240234 0.46679688 38.41015625 C-0.31759766 38.40628906 -1.10199219 38.40242187 -1.91015625 38.3984375 C-2.62308838 38.39505371 -3.33602051 38.39166992 -4.07055664 38.38818359 C-6.63334448 37.87257779 -7.4906597 37.12485861 -9 35 C-9.38476562 32.6875 -9.38476562 32.6875 -9.40625 30 C-9.42816406 29.030625 -9.45007813 28.06125 -9.47265625 27.0625 C-9.49088542 25.02083333 -9.50911458 22.97916667 -9.52734375 20.9375 C-9.54925781 19.968125 -9.57117188 18.99875 -9.59375 18 C-9.60083984 17.113125 -9.60792969 16.22625 -9.61523438 15.3125 C-10.06907307 12.58486035 -10.88085686 11.70654176 -13 10 C-10.45959665 1.40171175 -8.9044592 -0.58389896 0 0 Z " fill="#0872BA" transform="translate(302,533)"/>
<path d="M0 0 C0 2.31 0 4.62 0 7 C-1.32 7.33 -2.64 7.66 -4 8 C-3.34805664 8.48500977 -2.69611328 8.97001953 -2.02441406 9.46972656 C0.79586334 12.99473319 0.50358198 16.16919799 0.390625 20.484375 C0.38496521 21.29996887 0.37930542 22.11556274 0.37347412 22.95587158 C0.35112727 25.55451772 0.30093622 28.15177242 0.25 30.75 C0.22993271 32.51430297 0.21168234 34.2786276 0.1953125 36.04296875 C0.1512683 40.36251328 0.08225422 44.68102093 0 49 C2.31 49 4.62 49 7 49 C7 45.7 7 42.4 7 39 C9.97 39 12.94 39 16 39 C16.08075665 41.29109597 16.13907731 43.58299267 16.1875 45.875 C16.23970703 47.78925781 16.23970703 47.78925781 16.29296875 49.7421875 C16.14794922 51.35480469 16.14794922 51.35480469 16 53 C12.89596635 55.06935577 12.18099981 55.25517909 8.65625 55.265625 C7.82222656 55.26820313 6.98820312 55.27078125 6.12890625 55.2734375 C5.26136719 55.26570312 4.39382813 55.25796875 3.5 55.25 C2.19869141 55.26160156 2.19869141 55.26160156 0.87109375 55.2734375 C0.03707031 55.27085937 -0.79695313 55.26828125 -1.65625 55.265625 C-2.41744141 55.26336914 -3.17863281 55.26111328 -3.96289062 55.25878906 C-6 55 -6 55 -9 53 C-9.30078977 49.9892395 -9.4168952 47.17347535 -9.40625 44.16015625 C-9.41708618 43.28225937 -9.42792236 42.40436249 -9.43908691 41.49986267 C-9.47344566 38.68733373 -9.48896129 35.87521156 -9.5 33.0625 C-9.51453649 29.3654919 -9.54816953 25.66939731 -9.59375 21.97265625 C-9.59072876 21.11946304 -9.58770752 20.26626984 -9.58459473 19.38722229 C-9.48124101 14.96754068 -9.48124101 14.96754068 -11.52404785 11.25120544 C-12.01111206 10.83830765 -12.49817627 10.42540985 -13 10 C-10.45959665 1.40171175 -8.9044592 -0.58389896 0 0 Z " fill="#0872BA" transform="translate(286,533)"/>
<path d="M0 0 C0.88365234 0.00064453 1.76730469 0.00128906 2.67773438 0.00195312 C3.59748047 0.01806641 4.51722656 0.03417969 5.46484375 0.05078125 C6.38845703 0.04755859 7.31207031 0.04433594 8.26367188 0.04101562 C15.13529202 0.09622952 15.13529202 0.09622952 17.40234375 2.36328125 C18.43221185 5.38097759 18.51933742 8.17631955 18.5 11.34765625 C18.49677734 12.28222656 18.49355469 13.21679688 18.49023438 14.1796875 C18.48185547 15.14777344 18.47347656 16.11585938 18.46484375 17.11328125 C18.46033203 18.09683594 18.45582031 19.08039062 18.45117188 20.09375 C18.43940875 22.51695319 18.42147393 24.94012502 18.40234375 27.36328125 C15.10234375 27.36328125 11.80234375 27.36328125 8.40234375 27.36328125 C8.40234375 20.43328125 8.40234375 13.50328125 8.40234375 6.36328125 C6.42234375 6.36328125 4.44234375 6.36328125 2.40234375 6.36328125 C2.73234375 9.00328125 3.06234375 11.64328125 3.40234375 14.36328125 C4.72234375 14.69328125 6.04234375 15.02328125 7.40234375 15.36328125 C6.45702707 19.7813929 4.4689037 23.3634878 2.40234375 27.36328125 C-0.89765625 27.36328125 -4.19765625 27.36328125 -7.59765625 27.36328125 C-7.68461802 23.42592002 -7.7380346 19.48880497 -7.78515625 15.55078125 C-7.81029297 14.43123047 -7.83542969 13.31167969 -7.86132812 12.15820312 C-7.87099609 11.08505859 -7.88066406 10.01191406 -7.890625 8.90625 C-7.90633545 7.9164917 -7.9220459 6.9267334 -7.93823242 5.90698242 C-7.59765625 3.36328125 -7.59765625 3.36328125 -6.36669922 1.53955078 C-4.10448687 0.03536377 -2.70600196 -0.00996537 0 0 Z " fill="#0872BA" transform="translate(67.59765625,542.63671875)"/>
<path d="M0 0 C5.19609458 -0.07421905 10.39187983 -0.12863446 15.58837891 -0.16479492 C17.35568619 -0.17987102 19.12295614 -0.20033522 20.89013672 -0.22631836 C23.43205995 -0.26275402 25.97348806 -0.27973794 28.515625 -0.29296875 C29.30430969 -0.30845261 30.09299438 -0.32393646 30.90557861 -0.33988953 C34.02178426 -0.34084313 36.60569124 -0.16073537 39.50585938 1.02148438 C41.82863981 4.09727075 41.49223518 7.25742336 41.390625 10.94921875 C41.38496521 11.72183548 41.37930542 12.49445221 41.37347412 13.29048157 C41.35109327 15.75678629 41.30089703 18.22163492 41.25 20.6875 C41.22993706 22.36000505 41.21168592 24.03253289 41.1953125 25.70507812 C41.15122331 29.80394596 41.08218675 33.90172617 41 38 C37.7 38 34.4 38 31 38 C31 27.77 31 17.54 31 7 C20.77 7 10.54 7 0 7 C0 4.69 0 2.38 0 0 Z " fill="#0872BA" transform="translate(404,533)"/>
<path d="M0 0 C1.49970065 3.29934143 0.87067201 5.64086929 -0.0625 9.0625 C-2.5960908 11.00491961 -3.84437214 11.0625 -7.0625 11.0625 C-5.90107315 15.41785069 -4.98550495 17.70869703 -1.0625 20.0625 C-1.31 19.32 -1.5575 18.5775 -1.8125 17.8125 C-2.0625 15.0625 -2.0625 15.0625 -0.5625 12.6875 C2.13293362 10.93546815 3.75555295 10.46309641 6.93359375 11.12890625 C12.53629784 13.73913291 17.40494145 19.27795146 20.0625 24.8125 C20.97168592 28.18947629 21.27888951 29.84316517 19.9375 33.0625 C17.7579057 35.40354573 16.33398964 35.99041097 13.1875 36.5625 C4.97754919 35.29943064 -0.65554918 28.92182519 -6.0625 23.0625 C-7.06410156 21.9796875 -7.06410156 21.9796875 -8.0859375 20.875 C-11.79760406 16.75429263 -13.85428868 14.35282452 -14.375 8.625 C-14.0625 5.0625 -14.0625 5.0625 -12.5625 2.75 C-8.8797176 0.26412188 -4.35237672 -1.97835306 0 0 Z M9.9375 19.0625 C8.9114266 20.37587396 7.91022675 21.70914105 6.9375 23.0625 C4.6275 22.7325 2.3175 22.4025 -0.0625 22.0625 C-0.0625 22.7225 -0.0625 23.3825 -0.0625 24.0625 C2.65572404 26.15941569 4.15252648 27.11726559 7.625 26.875 C10.09338836 26.19509902 10.09338836 26.19509902 11.9375 24.0625 C11.61708603 21.45969432 11.61708603 21.45969432 10.9375 19.0625 C10.6075 19.0625 10.2775 19.0625 9.9375 19.0625 Z " fill="#0872BA" transform="translate(125.0625,115.9375)"/>
<path d="M0 0 C0.83402344 -0.00386719 1.66804688 -0.00773438 2.52734375 -0.01171875 C3.82865234 0.00568359 3.82865234 0.00568359 5.15625 0.0234375 C6.02378906 0.01183594 6.89132812 0.00023437 7.78515625 -0.01171875 C9.03619141 -0.00591797 9.03619141 -0.00591797 10.3125 0 C11.45428711 0.00507568 11.45428711 0.00507568 12.61914062 0.01025391 C14.65625 0.3984375 14.65625 0.3984375 16.40942383 1.56323242 C18.17133341 4.15658945 17.99666552 6.04448516 17.94921875 9.16015625 C17.93955078 10.27841797 17.92988281 11.39667969 17.91992188 12.54882812 C17.89478516 13.71607422 17.86964844 14.88332031 17.84375 16.0859375 C17.82344727 17.85420898 17.82344727 17.85420898 17.80273438 19.65820312 C17.76734326 22.57207161 17.71796809 25.48502695 17.65625 28.3984375 C14.68625 28.3984375 11.71625 28.3984375 8.65625 28.3984375 C8.65625 21.4684375 8.65625 14.5384375 8.65625 7.3984375 C6.34625 7.3984375 4.03625 7.3984375 1.65625 7.3984375 C1.65625 14.3284375 1.65625 21.2584375 1.65625 28.3984375 C-2.30375 28.3984375 -6.26375 28.3984375 -10.34375 28.3984375 C-10.34375 26.0884375 -10.34375 23.7784375 -10.34375 21.3984375 C-9.35375 21.3984375 -8.36375 21.3984375 -7.34375 21.3984375 C-7.37855469 20.13386719 -7.41335938 18.86929688 -7.44921875 17.56640625 C-7.47735677 15.90626327 -7.50465691 14.24610594 -7.53125 12.5859375 C-7.55638672 11.75255859 -7.58152344 10.91917969 -7.60742188 10.06054688 C-7.61708984 9.25810547 -7.62675781 8.45566406 -7.63671875 7.62890625 C-7.6524292 6.89051514 -7.66813965 6.15212402 -7.68432617 5.39135742 C-6.92540912 0.95046859 -4.13935261 0.01840102 0 0 Z " fill="#0872BA" transform="translate(411.34375,542.6015625)"/>
<path d="M0 0 C0.83402344 -0.00386719 1.66804687 -0.00773438 2.52734375 -0.01171875 C3.82865234 0.00568359 3.82865234 0.00568359 5.15625 0.0234375 C6.02378906 0.01183594 6.89132813 0.00023437 7.78515625 -0.01171875 C9.03619141 -0.00591797 9.03619141 -0.00591797 10.3125 0 C11.45428711 0.00507568 11.45428711 0.00507568 12.61914062 0.01025391 C14.65625 0.3984375 14.65625 0.3984375 16.40942383 1.56323242 C18.17133341 4.15658945 17.99666552 6.04448516 17.94921875 9.16015625 C17.93955078 10.27841797 17.92988281 11.39667969 17.91992188 12.54882812 C17.89478516 13.71607422 17.86964844 14.88332031 17.84375 16.0859375 C17.82344727 17.85420898 17.82344727 17.85420898 17.80273438 19.65820312 C17.76734326 22.57207161 17.71796809 25.48502695 17.65625 28.3984375 C14.68625 28.3984375 11.71625 28.3984375 8.65625 28.3984375 C8.65625 21.4684375 8.65625 14.5384375 8.65625 7.3984375 C6.34625 7.3984375 4.03625 7.3984375 1.65625 7.3984375 C1.65625 14.3284375 1.65625 21.2584375 1.65625 28.3984375 C-2.30375 28.3984375 -6.26375 28.3984375 -10.34375 28.3984375 C-10.34375 26.0884375 -10.34375 23.7784375 -10.34375 21.3984375 C-9.35375 21.3984375 -8.36375 21.3984375 -7.34375 21.3984375 C-7.37855469 20.13386719 -7.41335937 18.86929688 -7.44921875 17.56640625 C-7.47735677 15.90626327 -7.50465691 14.24610594 -7.53125 12.5859375 C-7.55638672 11.75255859 -7.58152344 10.91917969 -7.60742188 10.06054688 C-7.61708984 9.25810547 -7.62675781 8.45566406 -7.63671875 7.62890625 C-7.6524292 6.89051514 -7.66813965 6.15212402 -7.68432617 5.39135742 C-6.92540912 0.95046859 -4.13935261 0.01840102 0 0 Z " fill="#0872BA" transform="translate(163.34375,542.6015625)"/>
<path d="M0 0 C1.65572416 0.95094545 3.26157317 1.98776967 4.85546875 3.0390625 C5.18546875 1.7190625 5.51546875 0.3990625 5.85546875 -0.9609375 C7.5215878 -1.0036585 9.1892976 -1.00157582 10.85546875 -0.9609375 C11.18546875 -0.6309375 11.51546875 -0.3009375 11.85546875 0.0390625 C11.49697362 3.20576952 11.10073796 6.23636327 10.16796875 9.2890625 C9.58548489 11.3841096 9.58548489 11.3841096 11.85546875 14.0390625 C11.83484375 13.0696875 11.81421875 12.1003125 11.79296875 11.1015625 C11.85546875 8.0390625 11.85546875 8.0390625 12.85546875 7.0390625 C15.35546875 6.9140625 15.35546875 6.9140625 17.85546875 7.0390625 C18.85546875 8.0390625 18.85546875 8.0390625 19.140625 10.76171875 C18.64177878 16.49503352 15.04375869 20.3021607 10.85546875 24.0390625 C5.23621778 24.8564081 1.77710154 21.80181981 -2.59765625 18.6640625 C-6.38806227 16.24564394 -10.4540075 14.72125551 -14.640625 13.1171875 C-17.14453125 12.0390625 -17.14453125 12.0390625 -19.14453125 10.0390625 C-19.58203125 6.6640625 -19.58203125 6.6640625 -19.14453125 3.0390625 C-13.66808162 -2.58539928 -7.04915557 -3.15863802 0 0 Z M-9.14453125 7.0390625 C-9.47453125 7.6990625 -9.80453125 8.3590625 -10.14453125 9.0390625 C-8.20828027 10.02069672 -6.27048586 10.99928704 -4.33203125 11.9765625 C-3.25308594 12.52183594 -2.17414062 13.06710938 -1.0625 13.62890625 C1.81758402 15.0975832 1.81758402 15.0975832 4.85546875 16.0390625 C3.28734117 11.80511803 0.50944877 9.56874098 -3.14453125 7.0390625 C-6.39729878 6.61916177 -6.39729878 6.61916177 -9.14453125 7.0390625 Z " fill="#0872BA" transform="translate(539.14453125,24.9609375)"/>
<path d="M0 0 C5.35682133 -0.0741205 10.71334462 -0.12858776 16.07055664 -0.16479492 C17.89320067 -0.1798876 19.71580836 -0.20036395 21.53833008 -0.22631836 C24.157155 -0.26268103 26.77550007 -0.27972124 29.39453125 -0.29296875 C30.61811089 -0.31619453 30.61811089 -0.31619453 31.8664093 -0.33988953 C37.54830127 -0.34158232 37.54830127 -0.34158232 39.71801758 1.29919434 C41.87550514 4.16153239 41.36394339 7.51093017 41.29296875 10.94921875 C41.28872391 11.72183548 41.28447906 12.49445221 41.28010559 13.29048157 C41.26332183 15.75650992 41.22567147 18.22171896 41.1875 20.6875 C41.17245271 22.36001423 41.15876438 24.03254128 41.14648438 25.70507812 C41.11341946 29.80370078 41.06164028 33.90171151 41 38 C38.03 38 35.06 38 32 38 C32 27.77 32 17.54 32 7 C21.44 7 10.88 7 0 7 C0 4.69 0 2.38 0 0 Z " fill="#0872BA" transform="translate(156,533)"/>
<path d="M0 0 C5.28827089 2.59606025 8.62548771 6.25097542 11.25 11.5 C12.03963031 14.13210104 12.15612357 16.2678375 12 19 C12.66 18.67 13.32 18.34 14 18 C14.65555119 15.47266765 14.65555119 15.47266765 15 13 C17.375 12.375 17.375 12.375 20 12 C20.66 12.66 21.32 13.32 22 14 C21.90453292 17.53228187 21.09805885 18.88832186 18.75 21.5625 C17.8425 22.366875 16.935 23.17125 16 24 C15.175 24.78375 14.35 25.5675 13.5 26.375 C11 28 11 28 8.625 28.1875 C5.30417407 26.6852216 3.49710689 24.54354631 1.02734375 21.90625 C-2.51767002 18.57298079 -6.8046978 16.41655076 -11 14 C-14.125 12 -14.125 12 -16 10 C-16.625 7 -16.625 7 -16 4 C-11.97055303 -1.27996499 -6.07804313 -0.88489157 0 0 Z M-6 8 C-4.8578839 11.42634831 -4.0459149 11.96357826 -1.1875 14 C-0.50042969 14.495 0.18664062 14.99 0.89453125 15.5 C1.58933594 15.995 2.28414062 16.49 3 17 C4.33582088 17.99667465 5.66990172 18.99570107 7 20 C5.38038538 15.27612402 3.23327141 11.42117272 -1.0625 8.6875 C-3.12857045 7.83279508 -3.12857045 7.83279508 -6 8 Z " fill="#0872BA" transform="translate(587,53)"/>
<path d="M0 0 C4.5803387 1.9630023 7.07045849 5.09394465 10 9 C11.02319033 12.06957098 11.13371939 14.22440323 11.125 17.4375 C11.12886719 18.85869141 11.12886719 18.85869141 11.1328125 20.30859375 C11.01473475 22.70140459 10.68112635 24.71336153 10 27 C10.66 27.33 11.32 27.66 12 28 C12.66 26.35 13.32 24.7 14 23 C15.65 23.33 17.3 23.66 19 24 C19.25 26.3125 19.25 26.3125 19 29 C15.79688067 32.20311933 12.6411996 32.61664405 8.25 33.1875 C7.07953125 33.34605469 5.9090625 33.50460938 4.703125 33.66796875 C3.81109375 33.77753906 2.9190625 33.88710937 2 34 C-0.36114258 30.32862801 -1.92065338 26.73426125 -3.375 22.625 C-4.83822268 18.66359227 -6.19858795 15.39617028 -8.875 12.125 C-11 9 -11 9 -11 5.1875 C-9.16214217 -0.67067184 -5.50273932 -0.47437408 0 0 Z M-4 9 C-3.04482045 11.10560019 -2.08574515 13.20943346 -1.125 15.3125 C-0.59132813 16.48425781 -0.05765625 17.65601563 0.4921875 18.86328125 C1.9385919 22.05896943 1.9385919 22.05896943 4 25 C5.34181965 20.97454106 4.53832701 17.83834992 3 14 C0.66663334 10.99666733 0.66663334 10.99666733 -2 9 C-2.66 9 -3.32 9 -4 9 Z " fill="#0872BA" transform="translate(699,186)"/>
<path d="M0 0 C5.95184659 3.63723958 5.95184659 3.63723958 7.01171875 7.5234375 C7.09808594 8.28011719 7.18445313 9.03679688 7.2734375 9.81640625 C3.00265718 11.75767003 -1.25346541 13.33218067 -5.7265625 14.75390625 C-9.29819911 15.90878001 -12.47190315 17.08964237 -15.6640625 19.06640625 C-18.77947087 20.84663961 -20.2265837 21.49695768 -23.7265625 20.81640625 C-25.93806059 19.31574683 -26.61202808 18.10274229 -27.6015625 15.62890625 C-27.78871587 11.41795548 -27.06012621 8.35817602 -24.7265625 4.81640625 C-17.80093007 -1.55679247 -8.79933289 -3.81976772 0 0 Z M-16.7265625 9.81640625 C-17.0565625 10.80640625 -17.3865625 11.79640625 -17.7265625 12.81640625 C-17.08589844 12.62304688 -16.44523438 12.4296875 -15.78515625 12.23046875 C-10.77545265 10.72233145 -5.76116393 9.23922839 -0.7265625 7.81640625 C-1.0565625 7.15640625 -1.3865625 6.49640625 -1.7265625 5.81640625 C-7.92987917 5.32014092 -11.81331437 5.51731414 -16.7265625 9.81640625 Z " fill="#0872BA" transform="translate(247.7265625,12.18359375)"/>
<path d="M0 0 C0.29348468 3.05224072 0.41093877 5.95483833 0 9 C-2.65605722 12.05849013 -4.77862148 12.92747945 -8.625 14.1875 C-12.09910914 15.57949233 -12.09910914 15.57949233 -12.796875 18.08203125 C-12.98765625 18.87996094 -13.1784375 19.67789063 -13.375 20.5 C-13.98046875 22.90234375 -13.98046875 22.90234375 -15 25 C-17.8773059 26.65819604 -20.74730416 27.40674101 -24 28 C-23.34 28.33 -22.68 28.66 -22 29 C-24.31 31.64 -26.62 34.28 -29 37 C-30.32 36.01 -31.64 35.02 -33 34 C-33.56057711 29.85488753 -32.15462057 25.64227007 -31.1875 21.625 C-27.57850922 17.29421106 -22.37770773 16.95047858 -17 16 C-16.92523438 15.39671875 -16.85046875 14.7934375 -16.7734375 14.171875 C-16.06029248 9.83707196 -15.69231329 7.61181175 -12.3125 4.625 C-2.88461538 0 -2.88461538 0 0 0 Z " fill="#0872BA" transform="translate(154,71)"/>
<path d="M0 0 C0.99 0.33 1.98 0.66 3 1 C2.67167019 3.94183512 2.07171616 4.93225337 -0.1171875 7 C-10.36546795 14.43218072 -21.17361357 19.06886554 -34 18 C-47.033112 15.760899 -47.033112 15.760899 -52 12 C-52.8125 9.8125 -52.8125 9.8125 -53 8 C-52.01386719 8.32484375 -52.01386719 8.32484375 -51.0078125 8.65625 C-35.73808018 13.12543995 -21.06206148 12.35863954 -7 4.9375 C-4.2901652 3.42476552 -2.19517014 2.19517014 0 0 Z " fill="#0872BA" transform="translate(717,302)"/>
<path d="M0 0 C0.66 0.99 1.32 1.98 2 3 C0.65808594 3.41958984 0.65808594 3.41958984 -0.7109375 3.84765625 C-8.79032878 6.52643097 -15.35239181 9.52620371 -22 15 C-22.62261719 15.47566406 -23.24523437 15.95132813 -23.88671875 16.44140625 C-30.38312984 22.03269939 -33.46311589 30.38275934 -37 38 C-37.33 38.66 -37.66 39.32 -38 40 C-38.66 40 -39.32 40 -40 40 C-41.88848669 32.02114374 -38.31572906 26.13313668 -34.45703125 19.24609375 C-28.31942215 9.69708197 -18.81755135 3.50498618 -7.9375 0.4140625 C-5.20165707 -0.17061361 -2.78540403 -0.24220905 0 0 Z " fill="#0872BA" transform="translate(629,120)"/>
<path d="M0 0 C0 3.63 0 7.26 0 11 C-3.21451269 12.60725635 -6.43612536 12.05748185 -10 12 C-10.66 13.32 -11.32 14.64 -12 16 C-15.63 16 -19.26 16 -23 16 C-23 12.7 -23 9.4 -23 6 C-21.659375 5.566875 -20.31875 5.13375 -18.9375 4.6875 C-15.94945006 3.70551176 -13.2394969 2.64597269 -10.375 1.3125 C-6.68025825 -0.12434401 -3.92872207 -0.240534 0 0 Z M-8 6 C-7 8 -7 8 -7 8 Z " fill="#0872BA" transform="translate(396,572)"/>
<path d="M0 0 C2.9375 2.0625 2.9375 2.0625 5 5 C5.66185214 9.1181911 5.50206133 11.15035775 3.375 14.75 C0.70711711 17.277468 -1.55932255 18.70974596 -5 20 C-8.07216944 19.74398588 -8.78563894 19.21436106 -11 17 C-10.625 13.875 -10.625 13.875 -10 11 C-6.535 10.505 -6.535 10.505 -3 10 C-3.99 9.34 -4.98 8.68 -6 8 C-7.98 8.99 -7.98 8.99 -10 10 C-11 9 -11 9 -11.3125 6.6875 C-11 4 -11 4 -9.4375 1.6875 C-6.03434143 -0.66853286 -4.05796087 -0.64073066 0 0 Z M-5 13 C-4.34 13.66 -3.68 14.32 -3 15 C-2.67 14.34 -2.34 13.68 -2 13 C-2.99 13 -3.98 13 -5 13 Z " fill="#0872BA" transform="translate(110,102)"/>
<path d="M0 0 C1.98 0 3.96 0 6 0 C6 3.63 6 7.26 6 11 C-1.59 11 -9.18 11 -17 11 C-17 5 -17 5 -15.625 2.625 C-11.62240148 0.14720092 -7.59539817 0.51163887 -3 1 C-2.34 1.33 -1.68 1.66 -1 2 C-0.67 1.34 -0.34 0.68 0 0 Z M-9 6 C-9.33 6.99 -9.66 7.98 -10 9 C-6.7 9 -3.4 9 0 9 C-2.76223278 6.23776722 -5.20706617 6.42143709 -9 6 Z " fill="#0872BA" transform="translate(560,519)"/>
<path d="M0 0 C3.4375 1.8125 3.4375 1.8125 6 4 C6.61875 4.515625 7.2375 5.03125 7.875 5.5625 C9 7 9 7 9 10 C1.41 10 -6.18 10 -14 10 C-14 4 -14 4 -12.625 1.625 C-8.5469106 -0.89953154 -4.66555404 -0.74442489 0 0 Z M-6 5 C-6.33 5.99 -6.66 6.98 -7 8 C-4.03 8 -1.06 8 2 8 C1.67 7.34 1.34 6.68 1 6 C-1.32156597 5.59270772 -3.6568787 5.25561323 -6 5 Z " fill="#0872BA" transform="translate(357,520)"/>
<path d="M0 0 C8.58 0 17.16 0 26 0 C26 1.98 26 3.96 26 6 C17.42 6 8.84 6 0 6 C0 4.02 0 2.04 0 0 Z " fill="#0872BA" transform="translate(60,533)"/>
<path d="M0 0 C2.1640625 -0.29296875 2.1640625 -0.29296875 4.625 -0.1875 C5.44226563 -0.16042969 6.25953125 -0.13335938 7.1015625 -0.10546875 C8.04128906 -0.05326172 8.04128906 -0.05326172 9 0 C8.125 4.875 8.125 4.875 7 6 C4.81360547 6.07258946 2.62499611 6.08373783 0.4375 6.0625 C-1.35880859 6.04896484 -1.35880859 6.04896484 -3.19140625 6.03515625 C-4.11824219 6.02355469 -5.04507813 6.01195312 -6 6 C-6 6.99 -6 7.98 -6 9 C-4.68 9 -3.36 9 -2 9 C-2 9.99 -2 10.98 -2 12 C-5.96 12 -9.92 12 -14 12 C-14 9.36 -14 6.72 -14 4 C-13.15695312 3.96261719 -12.31390625 3.92523437 -11.4453125 3.88671875 C-9.80175781 3.78810547 -9.80175781 3.78810547 -8.125 3.6875 C-7.03445313 3.62949219 -5.94390625 3.57148437 -4.8203125 3.51171875 C-3.88960937 3.34285156 -2.95890625 3.17398438 -2 3 C-1.34 2.01 -0.68 1.02 0 0 Z " fill="#0872BA" transform="translate(667,518)"/>
<path d="M0 0 C2.64 0 5.28 0 8 0 C8 4.95 8 9.9 8 15 C5.36 15 2.72 15 0 15 C0 10.05 0 5.1 0 0 Z " fill="#0872BA" transform="translate(78,572)"/>
</svg>
