<svg width="184" height="178" viewBox="0 0 184 178" fill="none" xmlns="http://www.w3.org/2000/svg">
<g clip-path="url(#clip0_106_239)">
<path d="M152.875 77.2015L122.248 92.8955L122.116 110.54V110.944H122.096L122.298 83.1537L92.8844 72.4418L92.5811 114.582L62.7832 110.944V110.51H62.5809L62.6517 92.4913L32.1966 76.3223C32.1258 76.2819 32.0651 76.2516 32.0045 76.2112L31.9337 85.1041C32.9751 85.3567 33.7234 86.0338 33.7133 86.8119L33.5818 104.85C33.5717 105.841 32.3584 106.629 30.8619 106.619C29.3553 106.609 28.1521 105.8 28.1622 104.81L28.2936 86.7715C28.2936 85.9934 29.0419 85.3365 30.0934 85.094L30.1743 73.5029C29.9317 72.0072 30.5586 70.3802 32.0752 69.5112L47.232 60.7496L61.6102 52.4529L71.3676 46.814L85.7357 38.5173L90.8621 35.5665C91.4688 35.2027 92.1564 35.041 92.8338 35.041C93.5214 35.041 94.1989 35.2229 94.8055 35.5867L95.4931 36.001L109.861 44.5807L119.619 50.4015L133.987 58.9811L153.097 70.3904C155.726 71.9567 155.605 75.8069 152.875 77.2015Z" fill="black"/>
<path d="M122.298 83.1537L122.096 110.944V110.974L92.581 114.582L92.8843 72.4418L122.298 83.1537Z" fill="#1469C7"/>
</g>
<g clip-path="url(#clip1_106_239)">
<path d="M8.81297 63.0732L7.27236 67.2222L9.87318 68.1931L11.6871 63.2889L13.7164 64.044L10.9251 71.5869L-0.00828171 67.5209L2.79133 59.9614L4.82891 60.7165L3.00668 65.6373L5.30932 66.492L6.84993 62.343L8.81297 63.0732Z" fill="#1469C7"/>
<path d="M14.9174 61.2891L4.65497 55.7543L6.43579 52.4434C6.92448 51.5307 7.57054 50.8253 8.37398 50.3274C9.17742 49.8213 10.0637 49.5723 11.0245 49.5723C11.9936 49.5723 12.9461 49.813 13.8738 50.3108L14.3459 50.5681C15.2819 51.0743 16.0191 51.7298 16.5492 52.5264C17.0793 53.323 17.3609 54.2026 17.394 55.1486C17.4272 56.0946 17.2035 57.0156 16.7314 57.9118L14.9092 61.2974L14.9174 61.2891ZM7.89357 54.3022L14.3459 57.7791L14.8098 56.9161C15.1908 56.2024 15.2322 55.522 14.934 54.8665C14.6358 54.2109 13.9815 53.6135 12.9875 53.0824L12.5403 52.8417C11.5463 52.3107 10.7015 52.0949 9.98914 52.2028C9.27681 52.3107 8.73014 52.7339 8.34085 53.4641L7.89357 54.2939V54.3022Z" fill="#1469C7"/>
<path d="M18.6696 37.4323L16.5906 40.2537L24.2274 45.8963L22.5625 48.1617L14.9257 42.519L12.8881 45.2906L11.1405 43.9961L16.9219 36.1378L18.6696 37.4323Z" fill="#1469C7"/>
<path d="M40.586 24.2053C41.0582 24.8691 41.3398 25.5662 41.406 26.3047C41.4806 27.0432 41.3398 27.7735 40.9836 28.4871C40.6275 29.209 40.0891 29.8563 39.3602 30.4371C38.1592 31.3914 36.9085 31.7482 35.5915 31.5159C34.2828 31.2835 33.0569 30.4537 31.9304 29.0265L31.5743 28.5784C30.862 27.6822 30.3981 26.7777 30.1745 25.8566C29.9508 24.9355 29.9923 24.0642 30.2822 23.2261C30.5803 22.3963 31.1104 21.6744 31.8808 21.0604C32.9907 20.1808 34.1088 19.7659 35.2436 19.8074C36.3783 19.8572 37.3971 20.355 38.3083 21.3093L36.1133 23.0519C35.6577 22.5125 35.2022 22.2221 34.7383 22.1889C34.2745 22.1557 33.7858 22.3549 33.2474 22.7781C32.7008 23.2178 32.4606 23.7406 32.5351 24.3547C32.6014 24.9687 32.9907 25.7321 33.6947 26.6366L34.2082 27.2839C34.9785 28.263 35.6577 28.8605 36.2293 29.0845C36.8091 29.3086 37.3971 29.1841 37.9935 28.7111C38.4988 28.3128 38.7887 27.8813 38.8715 27.4332C38.946 26.9851 38.7887 26.4873 38.3994 25.9562L40.586 24.2136V24.2053Z" fill="#1469C7"/>
<path d="M52.4802 21.4918L50.0699 22.9108L47.6016 18.7037L44.0317 20.8031L46.5 25.0102L44.0814 26.4375L38.1757 16.372L40.6026 14.9447L42.9467 18.9444L46.5166 16.845L44.1725 12.8453L46.5828 11.4264L52.4885 21.4918H52.4802Z" fill="#1469C7"/>
<path d="M65.3353 13.7415L61.6825 14.9696L61.7405 17.2516L58.8912 18.2058L59.2308 5.76711L61.7405 4.92072L69.5347 14.6211L66.6688 15.5837L65.327 13.7332L65.3353 13.7415ZM61.6328 12.696L64.01 11.8993L61.5334 8.46397L61.6411 12.7043L61.6328 12.696Z" fill="#1469C7"/>
<path d="M80.1202 8.50547C80.2361 9.31038 80.1533 10.0572 79.88 10.7459C79.5983 11.4347 79.1428 12.0155 78.4967 12.4802C77.8507 12.9532 77.0721 13.2768 76.161 13.4511C74.6535 13.7332 73.3779 13.4677 72.326 12.6545C71.2741 11.833 70.5783 10.5302 70.2387 8.73782L70.131 8.17355C69.9157 7.05332 69.924 6.03266 70.1559 5.11158C70.3878 4.19051 70.8268 3.43539 71.4729 2.83793C72.1189 2.24047 72.9224 1.85047 73.8915 1.66791C75.283 1.40237 76.4674 1.56004 77.4531 2.1326C78.4387 2.70516 79.1097 3.62624 79.4658 4.88754L76.7076 5.41031C76.5585 4.71328 76.2852 4.24859 75.8959 4.00795C75.5066 3.76731 74.9765 3.70922 74.2973 3.83369C73.6098 3.96646 73.1543 4.31498 72.9306 4.89584C72.707 5.4684 72.6987 6.32309 72.8975 7.45992L73.0466 8.27313C73.2785 9.49294 73.6015 10.3393 74.0074 10.8123C74.4133 11.277 74.9931 11.443 75.7385 11.3019C76.3763 11.1774 76.8319 10.9368 77.1052 10.58C77.3868 10.2149 77.4697 9.70868 77.3703 9.05314L80.1119 8.53037L80.1202 8.50547Z" fill="#1469C7"/>
<path d="M88.6847 9.65889L84.8414 9.84975L84.2782 12.0653L81.2798 12.2147L84.9574 0.340227L87.5996 0.207458L92.4865 11.6587L89.4715 11.8081L88.6847 9.66719V9.65889ZM85.4046 7.65077L87.9061 7.5263L86.4483 3.54326L85.4046 7.65077Z" fill="#1469C7"/>
<path d="M94.4744 11.6255L95.576 0L99.3116 0.356815C100.339 0.456391 101.241 0.771715 102.012 1.31938C102.782 1.86705 103.362 2.58068 103.743 3.47687C104.124 4.37305 104.265 5.34392 104.165 6.39777L104.116 6.92884C104.016 7.99099 103.701 8.92866 103.171 9.72527C102.641 10.5302 101.946 11.1276 101.084 11.5259C100.223 11.9242 99.2867 12.0819 98.2845 11.9906L94.4661 11.6255H94.4744ZM98.1685 2.43132L97.4728 9.73357L98.4419 9.82485C99.2453 9.89953 99.8914 9.67548 100.372 9.14441C100.86 8.61334 101.15 7.78354 101.258 6.65501L101.308 6.14883C101.415 5.02859 101.283 4.1573 100.902 3.55155C100.529 2.9375 99.9245 2.59728 99.1045 2.5143L98.1685 2.42302V2.43132Z" fill="#1469C7"/>
<path d="M114.991 9.89124L110.692 8.86228L110.046 11.5674L115.124 12.7789L114.627 14.8866L106.816 13.0279L109.516 1.66791L117.343 3.53496L116.838 5.65095L111.744 4.43944L111.173 6.83757L115.471 7.85822L114.991 9.89954V9.89124Z" fill="#1469C7"/>
<path d="M125.287 5.95797L124.624 14.4634L130.099 7.9246L133.52 9.32696L129.105 20.1393L126.496 19.0688L127.531 16.5462L129.892 11.4844L124.144 18.1063L122.429 17.4009L122.959 8.62993L121.095 13.9075L120.06 16.4301L117.459 15.3679L121.874 4.5556L125.287 5.95797Z" fill="#1469C7"/>
<path d="M150.972 29.2754C151.858 28.3211 152.811 27.5494 153.821 26.9603C154.84 26.3711 155.834 25.9977 156.811 25.8483C157.789 25.6907 158.658 25.757 159.412 26.0392L158.882 27.3669C157.963 27.259 156.952 27.4996 155.859 28.0722C154.765 28.653 153.68 29.516 152.612 30.6612L152.372 30.9184C151.278 32.0967 150.483 33.2584 149.978 34.4036C149.473 35.5487 149.315 36.5776 149.489 37.4987L148.214 38.1294C147.874 37.4074 147.75 36.5445 147.833 35.5404C147.915 34.5363 148.205 33.5157 148.711 32.4784C149.216 31.4412 149.878 30.462 150.715 29.5492L150.963 29.2837L150.972 29.2754Z" fill="#1469C7"/>
<path d="M152.546 37.1253L161.358 29.4828L164.1 32.6527C165.086 33.7895 165.624 34.8351 165.715 35.7893C165.815 36.7436 165.467 37.5651 164.672 38.2456C164.216 38.6439 163.736 38.8762 163.23 38.9426C162.725 39.009 162.22 38.9094 161.715 38.6356C161.988 39.1998 162.071 39.7475 161.955 40.2869C161.839 40.8179 161.541 41.2909 161.06 41.7058C160.199 42.4526 159.313 42.7431 158.402 42.5688C157.49 42.3946 156.571 41.7805 155.635 40.7101L152.537 37.1253H152.546ZM158.128 36.0051L156.016 37.8389L157.225 39.233C157.557 39.6147 157.905 39.8388 158.252 39.8886C158.609 39.9466 158.94 39.8305 159.263 39.5566C160 38.9177 160.05 38.2373 159.42 37.4987L158.128 36.0051ZM159.52 34.7936L160.481 35.9055C160.886 36.3702 161.259 36.6274 161.59 36.6772C161.93 36.7353 162.253 36.6191 162.576 36.337C162.949 36.0134 163.123 35.6732 163.098 35.3164C163.073 34.9595 162.858 34.5446 162.444 34.0634L161.541 33.0178L159.503 34.7853L159.52 34.7936Z" fill="#1469C7"/>
<path d="M173.013 48.5102L171.107 45.5727L163.156 50.7589L161.624 48.4023L169.575 43.2161L167.703 40.3283L169.525 39.1417L174.835 47.3236L173.013 48.5102Z" fill="#1469C7"/>
<path d="M166.32 55.7792L176.872 50.8087L178.653 54.6092C179.291 55.9701 179.531 57.1235 179.365 58.0612C179.2 59.0072 178.645 59.6959 177.701 60.144C177.154 60.4012 176.632 60.4925 176.127 60.4261C175.622 60.3597 175.166 60.1191 174.752 59.7208C174.868 60.3431 174.793 60.8908 174.537 61.3721C174.28 61.8534 173.866 62.2268 173.294 62.5006C172.259 62.9902 171.331 63.0234 170.503 62.6168C169.675 62.2019 168.954 61.3555 168.341 60.0776L166.328 55.7875L166.32 55.7792ZM172.002 56.2107L169.476 57.4056L170.263 59.0735C170.478 59.5299 170.751 59.837 171.074 59.9863C171.397 60.1357 171.754 60.1191 172.135 59.9365C173.013 59.5216 173.253 58.8744 172.847 57.9948L172.01 56.2107H172.002ZM173.667 55.4224L174.288 56.7501C174.553 57.3061 174.843 57.6546 175.149 57.7956C175.456 57.9367 175.804 57.9201 176.193 57.7376C176.64 57.5301 176.897 57.248 176.972 56.8995C177.046 56.5509 176.947 56.0863 176.682 55.522L176.094 54.2773L173.659 55.4224H173.667Z" fill="#1469C7"/>
<path d="M176.839 69.0809C175.655 69.4875 174.47 69.7033 173.286 69.7199C172.101 69.7365 171.025 69.5705 170.047 69.2137C169.07 68.8652 168.324 68.3756 167.811 67.7533L168.904 66.8322C169.666 67.355 170.66 67.6205 171.886 67.6288C173.112 67.6371 174.429 67.4047 175.854 66.9318L176.317 66.7741C177.833 66.2513 179.092 65.6041 180.069 64.8324C181.047 64.0606 181.685 63.2308 181.958 62.343L183.383 62.3927C183.35 63.1977 183.06 64.0358 182.521 64.8987C181.983 65.7617 181.246 66.5583 180.31 67.272C179.374 67.9856 178.338 68.5416 177.179 68.9565L176.847 69.0726L176.839 69.0809Z" fill="#1469C7"/>
<path d="M29.2303 32.5033L26.1573 35.6814L28.1535 37.6149L31.7814 33.8559L33.3386 35.3661L27.7559 41.1498L19.3819 33.0261L24.9811 27.2341L26.5383 28.7443L22.8939 32.5116L24.6581 34.221L27.7311 31.0429L29.2303 32.495V32.5033Z" fill="#1469C7"/>
<path d="M138.63 18.0399L143.145 14.8949L145.712 16.513L138.556 20.8363L136.319 24.3879L133.909 22.8693L136.145 19.3178L136.957 10.9866L139.508 12.5964L138.63 18.0316V18.0399Z" fill="#1469C7"/>
</g>
<g clip-path="url(#clip2_106_239)">
<path d="M12.1042 171.985C12.1042 172.731 11.9752 173.377 11.7241 173.93C11.473 174.483 11.1269 174.929 10.6858 175.262L12.0092 176.288L10.7876 177.301L9.02986 175.908C8.86698 175.928 8.69731 175.942 8.53444 175.942C7.83542 175.942 7.21784 175.782 6.67491 175.469C6.13198 175.149 5.71122 174.696 5.41261 174.11C5.10721 173.523 4.95112 172.844 4.94433 172.078V171.651C4.94433 170.859 5.09364 170.166 5.38546 169.566C5.67728 168.967 6.09805 168.501 6.64777 168.174C7.19069 167.848 7.81506 167.681 8.52086 167.681C9.22667 167.681 9.83067 167.841 10.3804 168.167C10.9233 168.494 11.3441 168.954 11.6495 169.553C11.9549 170.153 12.1042 170.839 12.111 171.612V171.985H12.1042ZM10.0954 171.645C10.0954 170.845 9.95962 170.239 9.68816 169.826C9.41669 169.413 9.02986 169.207 8.52086 169.207C8.01187 169.207 7.60467 169.413 7.34678 169.82C7.08889 170.226 6.95316 170.825 6.94637 171.612V171.985C6.94637 172.777 7.08211 173.383 7.34678 173.803C7.61146 174.223 8.01187 174.436 8.53444 174.436C9.057 174.436 9.42348 174.23 9.68816 173.81C9.95962 173.397 10.0954 172.797 10.0954 172.018V171.645Z" fill="#1469C7"/>
<path d="M19.5898 167.794V173.057C19.5898 173.657 19.4608 174.17 19.2029 174.609C18.9451 175.042 18.5718 175.375 18.0899 175.608C17.6081 175.842 17.0312 175.948 16.3729 175.948C15.3753 175.948 14.5881 175.695 14.018 175.189C13.4479 174.682 13.1493 173.983 13.1425 173.104V167.794H15.131V173.137C15.1514 174.016 15.5721 174.456 16.3797 174.456C16.7869 174.456 17.0991 174.343 17.3095 174.123C17.5199 173.903 17.6217 173.543 17.6217 173.044V167.794H19.5966H19.5898Z" fill="#1469C7"/>
<path d="M25.4805 174.336H22.7727L22.2976 175.835H20.187L23.1935 167.794H25.053L28.0798 175.835H25.9624L25.4873 174.336H25.4805ZM23.2478 172.837H25.0055L24.1232 170.046L23.2478 172.837Z" fill="#1469C7"/>
<path d="M30.1497 174.343H33.5837V175.835H28.1748V167.794H30.1497V174.343Z" fill="#1469C7"/>
<path d="M35.8301 175.835H33.862V167.794H35.8301V175.835Z" fill="#1469C7"/>
<path d="M43.2885 169.293H40.8318V175.835H38.8569V169.293H36.4409V167.794H43.2885V169.293Z" fill="#1469C7"/>
<path d="M46.2407 171.285L47.7541 167.794H49.8851L47.2451 172.944V175.828H45.2431V172.944L42.6099 167.794H44.7273L46.2407 171.285Z" fill="#1469C7"/>
<path d="M50.8827 178L49.9258 177.56L50.1159 177.187C50.3805 176.708 50.5163 176.255 50.523 175.815V174.436H52.0432V175.635C52.0365 176.061 51.9211 176.488 51.7039 176.927C51.4867 177.367 51.2085 177.727 50.8759 178.007L50.8827 178Z" fill="#1469C7"/>
<path d="M62.6439 172.431H59.5356V174.349H63.2004V175.842H57.5607V167.794H63.214V169.293H59.5356V170.985H62.6439V172.424V172.431Z" fill="#1469C7"/>
<path d="M68.7586 172.637H65.5757V175.842H63.6008V167.794H69.0776V169.293H65.5757V171.145H68.7586V172.637Z" fill="#1469C7"/>
<path d="M74.7715 172.637H71.5886V175.842H69.6137V167.794H75.0905V169.293H71.5886V171.145H74.7715V172.637Z" fill="#1469C7"/>
<path d="M77.7305 175.835H75.7624V167.794H77.7305V175.835Z" fill="#1469C7"/>
<path d="M85.3925 173.117C85.3654 173.677 85.2093 174.17 84.931 174.603C84.6528 175.029 84.2524 175.362 83.7434 175.602C83.2344 175.835 82.6575 175.955 82.006 175.955C80.9269 175.955 80.0854 175.608 79.461 174.922C78.8367 174.236 78.5313 173.264 78.5313 172.005V171.605C78.5313 170.819 78.6738 170.126 78.9521 169.54C79.2303 168.947 79.6307 168.494 80.1601 168.167C80.6826 167.848 81.2934 167.681 81.9856 167.681C82.9765 167.681 83.7773 167.941 84.3813 168.454C84.9853 168.967 85.3314 169.673 85.4129 170.579H83.4448C83.4312 170.093 83.3022 169.74 83.0647 169.526C82.8272 169.313 82.4675 169.207 81.9856 169.207C81.5038 169.207 81.1373 169.387 80.9066 169.746C80.6758 170.106 80.5605 170.686 80.5469 171.472V172.038C80.5469 172.897 80.6555 173.51 80.8727 173.876C81.0898 174.243 81.4699 174.429 82.006 174.429C82.4607 174.429 82.8068 174.323 83.0444 174.116C83.2819 173.91 83.4108 173.577 83.4244 173.117H85.3857H85.3925Z" fill="#1469C7"/>
<path d="M87.6389 175.835H85.6708V167.794H87.6389V175.835Z" fill="#1469C7"/>
<path d="M93.7536 172.431H90.6453V174.349H94.3101V175.842H88.6704V167.794H94.3237V169.293H90.6453V170.985H93.7536V172.424V172.431Z" fill="#1469C7"/>
<path d="M101.551 175.835H99.5901L96.6854 170.832V175.835H94.7105V167.794H96.6854L99.5833 172.797V167.794H101.551V175.835Z" fill="#1469C7"/>
<path d="M109.879 173.117C109.851 173.677 109.695 174.17 109.417 174.603C109.139 175.029 108.738 175.362 108.229 175.602C107.72 175.835 107.144 175.955 106.492 175.955C105.413 175.955 104.571 175.608 103.947 174.922C103.323 174.236 103.017 173.264 103.017 172.005V171.605C103.017 170.819 103.16 170.126 103.438 169.54C103.716 168.947 104.117 168.494 104.646 168.167C105.169 167.848 105.779 167.681 106.472 167.681C107.462 167.681 108.263 167.941 108.867 168.454C109.471 168.967 109.817 169.673 109.899 170.579H107.931C107.917 170.093 107.788 169.74 107.551 169.526C107.313 169.313 106.954 169.207 106.472 169.207C105.99 169.207 105.623 169.387 105.393 169.746C105.162 170.106 105.046 170.686 105.033 171.472V172.038C105.033 172.897 105.141 173.51 105.359 173.876C105.576 174.243 105.956 174.429 106.492 174.429C106.947 174.429 107.293 174.323 107.53 174.116C107.768 173.91 107.897 173.577 107.91 173.117H109.872H109.879Z" fill="#1469C7"/>
<path d="M113.027 171.285L114.534 167.794H116.665L114.025 172.944V175.828H112.023V172.944L109.39 167.794H111.507L113.021 171.285H113.027Z" fill="#1469C7"/>
<path d="M117.67 178L116.713 177.56L116.903 177.187C117.167 176.708 117.303 176.255 117.31 175.815V174.436H118.83V175.635C118.823 176.061 118.708 176.488 118.491 176.927C118.274 177.367 117.995 177.727 117.663 178.007L117.67 178Z" fill="#1469C7"/>
<path d="M126.94 167.794L128.766 173.39L130.591 167.794H133.19V175.835H131.209V173.956L131.399 170.113L129.417 175.835H128.114L126.126 170.106L126.316 173.956V175.835H124.341V167.794H126.933H126.94Z" fill="#1469C7"/>
<path d="M141.192 171.985C141.192 172.771 141.043 173.463 140.744 174.063C140.445 174.663 140.025 175.129 139.482 175.455C138.939 175.782 138.314 175.942 137.615 175.942C136.916 175.942 136.299 175.782 135.756 175.469C135.22 175.155 134.792 174.703 134.493 174.116C134.188 173.53 134.032 172.857 134.018 172.098V171.645C134.018 170.859 134.168 170.159 134.46 169.56C134.751 168.96 135.179 168.494 135.729 168.167C136.278 167.841 136.903 167.674 137.602 167.674C138.301 167.674 138.912 167.834 139.461 168.161C140.004 168.487 140.425 168.947 140.73 169.546C141.036 170.146 141.185 170.832 141.192 171.605V171.978V171.985ZM139.183 171.645C139.183 170.845 139.047 170.239 138.776 169.826C138.504 169.413 138.118 169.207 137.609 169.207C136.618 169.207 136.095 169.933 136.041 171.392V171.985C136.041 172.771 136.17 173.377 136.434 173.803C136.699 174.23 137.1 174.436 137.622 174.436C138.145 174.436 138.504 174.23 138.776 173.81C139.047 173.397 139.183 172.797 139.19 172.018V171.645H139.183Z" fill="#1469C7"/>
<path d="M145.515 172.997H144.449V175.835H142.475V167.794H145.698C146.669 167.794 147.429 168.008 147.978 168.427C148.528 168.854 148.8 169.446 148.8 170.219C148.8 170.779 148.684 171.245 148.453 171.611C148.223 171.978 147.863 172.278 147.368 172.504L149.078 175.748V175.828H146.96L145.515 172.99V172.997ZM144.449 171.498H145.698C146.071 171.498 146.356 171.398 146.546 171.205C146.736 171.012 146.832 170.745 146.832 170.399C146.832 170.053 146.736 169.78 146.546 169.586C146.356 169.386 146.071 169.293 145.705 169.293H144.456V171.505L144.449 171.498Z" fill="#1469C7"/>
<path d="M154.025 174.336H151.317L150.842 175.835H148.732L151.738 167.794H153.598L156.625 175.835H154.507L154.032 174.336H154.025ZM151.792 172.837H153.55L152.668 170.046L151.792 172.837Z" fill="#1469C7"/>
<path d="M158.694 174.343H162.128V175.835H156.72V167.794H158.694V174.343Z" fill="#1469C7"/>
<path d="M164.375 175.835H162.407V167.794H164.375V175.835Z" fill="#1469C7"/>
<path d="M171.84 169.293H169.383V175.835H167.408V169.293H164.992V167.794H171.84V169.293Z" fill="#1469C7"/>
<path d="M174.792 171.285L176.299 167.794H178.43L175.79 172.944V175.828H173.788V172.944L171.155 167.794H173.272L174.785 171.285H174.792Z" fill="#1469C7"/>
</g>
<g clip-path="url(#clip3_106_239)">
<path d="M99.9433 150.122C127.466 136.583 152.443 134.222 164.833 134.011C169.323 133.932 172.976 137.599 172.891 142.09C172.805 146.291 169.455 149.707 165.255 149.852C129.134 151.131 93.5737 159.091 93.5737 159.091C93.4418 154.996 93.5737 154.02 93.5737 154.02C94.1935 152.266 99.9433 150.129 99.9433 150.129" fill="#1469C7"/>
<path d="M97.2003 141.338C113.665 127.614 130.235 121.897 138.623 119.707C141.656 118.916 144.742 120.802 145.428 123.868C146.061 126.737 144.353 129.606 141.517 130.397C117.193 137.216 94.3518 148.474 94.3518 148.474C93.5869 145.717 93.5144 145.025 93.5144 145.025C93.6463 143.732 97.2003 141.331 97.2003 141.331" fill="#1469C7"/>
<path d="M83.4826 150.12C55.96 136.581 30.9826 134.213 18.5929 134.002C14.1025 133.923 10.4495 137.59 10.5352 142.081C10.6209 146.282 13.9706 149.698 18.1709 149.843C54.2918 151.122 89.8522 159.082 89.8522 159.082C89.9841 154.987 89.8522 154.011 89.8522 154.011C89.2324 152.256 83.4826 150.12 83.4826 150.12Z" fill="#00D950"/>
<path d="M86.1893 141.338C69.7245 127.614 53.1543 121.897 44.7735 119.707C41.7338 118.916 38.6479 120.802 37.9687 123.868C37.3357 126.737 39.0435 129.606 41.8722 130.397C66.1968 137.216 89.0378 148.474 89.0378 148.474C89.8027 145.717 89.8752 145.025 89.8752 145.025C89.7433 143.732 86.1893 141.331 86.1893 141.331" fill="#00D950"/>
</g>
<defs>
<clipPath id="clip0_106_239">
<rect width="126.836" height="79.5411" fill="white" transform="translate(28.1621 35.041)"/>
</clipPath>
<clipPath id="clip1_106_239">
<rect width="183.374" height="71.5869" fill="white"/>
</clipPath>
<clipPath id="clip2_106_239">
<rect width="173.485" height="10.3188" fill="white" transform="translate(4.94433 167.681)"/>
</clipPath>
<clipPath id="clip3_106_239">
<rect width="162.307" height="39.5555" fill="white" transform="translate(10.5337 119.527)"/>
</clipPath>
</defs>
</svg>
